<?xml version="1.0" encoding="utf-8"?>
<!-- Generator: Adobe Illustrator 21.1.0, SVG Export Plug-In . SVG Version: 6.00 Build 0)  -->
<svg version="1.1" id="Capa_1" xmlns="http://www.w3.org/2000/svg" xmlns:xlink="http://www.w3.org/1999/xlink" x="0px" y="0px"
	 viewBox="0 0 70 61" style="enable-background:new 0 0 70 61;" xml:space="preserve">
<style type="text/css">
	.st0{fill:#B5C9D3;}
	.st1{fill:#3E5C6F;}
</style>
<g>
	<path class="st0" d="M61.1,34.6c-0.4-0.7-1.1-1.2-1.7-1.7c-0.4-0.3-0.8-0.5-1-0.7c0.4-0.7,0.6-1.5,0.6-2.3l0,0l0,0
		c0-1.4-0.6-2.8-1.7-3.7c-1.1-1-2.5-1.4-4-1.1c-1.3,0.2-2.6,1-3.4,2.3c-0.8,1.2-1,2.7-0.5,4.1c0.1,0.3,0.2,0.6,0.4,0.9
		c-0.3,0.2-0.7,0.4-1,0.7c-0.2,0.2-0.4,0.3-0.6,0.5c-0.1-0.3-0.3-0.6-0.5-0.9c-0.6-1-1.4-1.9-2.4-2.6l0,0c-0.8-0.5-1.8-1.2-2.4-1.5
		c0.7-1.1,1.1-2.4,1.1-3.8l0,0l0,0c0-2.8-1.6-5.3-4.1-6.4c-2.6-1.2-5.6-0.7-7.7,1.2c-2,1.8-2.8,4.8-1.9,7.5c0.2,0.5,0.4,0.9,0.7,1.4
		c-0.6,0.5-1.8,1.3-2.5,1.9l0,0c-1.2,0.9-2.1,2.1-2.7,3.4c-0.2-0.2-0.4-0.4-0.7-0.6c-0.3-0.2-0.7-0.5-1-0.7c0.4-0.7,0.6-1.5,0.7-2.4
		l0,0l0,0c0-1.4-0.6-2.8-1.7-3.7c-1.1-1-2.5-1.4-4-1.1c-1.3,0.2-2.6,1-3.4,2.3c-0.8,1.2-1,2.7-0.5,4.1c0.1,0.3,0.2,0.6,0.4,0.8
		c-0.3,0.2-0.7,0.4-1.1,0.7c-1.3,0.8-2.2,2.1-2.6,3.6c-0.2,0.7-0.2,1.4-0.2,2.1v2.5c0,1.4,1.1,2.5,2.5,2.5h11.4
		c0.6,0.9,1.7,1.5,2.8,1.5h17.1c1.1,0,2.1-0.6,2.8-1.5h11c0.6,0,1.3,0,2-0.5s1-1.2,1-2v-3.1C62.1,36.8,61.8,35.6,61.1,34.6z"/>
	<path class="st1" d="M57.5,32.9c-0.4-0.7-1.1-1.2-1.7-1.7c-0.4-0.3-0.8-0.5-1-0.7c0.4-0.7,0.6-1.5,0.6-2.3l0,0l0,0
		c0-1.4-0.6-2.8-1.7-3.7c-1.1-1-2.5-1.4-4-1.1c-1.3,0.2-2.6,1-3.4,2.3c-0.8,1.2-1,2.7-0.5,4.1c0.1,0.3,0.2,0.6,0.4,0.9
		c-0.3,0.2-0.7,0.4-1,0.7c-0.2,0.2-0.4,0.3-0.6,0.5c-0.1-0.3-0.3-0.6-0.5-0.9c-0.6-1-1.4-1.9-2.4-2.6l0,0c-0.8-0.5-1.8-1.2-2.4-1.5
		c0.7-1.1,1.1-2.4,1.1-3.8l0,0l0,0c0-2.8-1.6-5.3-4.1-6.4c-2.6-1.2-5.6-0.7-7.7,1.2c-2,1.8-2.8,4.8-1.9,7.5c0.2,0.5,0.4,0.9,0.7,1.4
		c-0.6,0.5-1.8,1.3-2.5,1.9l0,0c-1.2,0.9-2.1,2.1-2.7,3.4c-0.2-0.2-0.4-0.4-0.7-0.6c-0.3-0.2-0.7-0.5-1-0.7c0.4-0.7,0.6-1.5,0.7-2.4
		l0,0l0,0c0-1.4-0.6-2.8-1.7-3.7c-1.1-1-2.5-1.4-4-1.1c-1.3,0.2-2.6,1-3.4,2.3c-0.8,1.2-1,2.7-0.5,4.1c0.1,0.3,0.2,0.6,0.4,0.8
		c-0.3,0.2-0.7,0.4-1.1,0.7c-1.3,0.8-2.2,2.1-2.6,3.6c-0.2,0.7-0.2,1.4-0.2,2.1v2.5c0,1.4,1.1,2.5,2.5,2.5H22
		c0.6,0.9,1.7,1.5,2.8,1.5h17.1c1.1,0,2.1-0.6,2.8-1.5h11c0.6,0,1.3,0,2-0.5s1-1.2,1-2v-3.1C58.5,35.1,58.1,33.9,57.5,32.9z
		 M48.4,26c0.5-0.5,1.3-0.8,2-0.8c0.4,0,0.8,0.1,1.2,0.2c1.1,0.5,1.7,1.5,1.8,2.7c0,1-0.5,1.9-1.3,2.5c-0.8,0.5-1.9,0.6-2.8,0.2
		c-0.9-0.4-1.5-1.2-1.7-2.3C47.3,27.7,47.6,26.7,48.4,26z M29.2,19.8c1-1.3,2.5-2,4-2c0.6,0,1.2,0.1,1.8,0.3
		c1.9,0.7,3.2,2.6,3.2,4.7c0,2.2-1.4,4.1-3.5,4.8c-2.1,0.7-4.4-0.1-5.7-1.9C27.8,24,27.8,21.5,29.2,19.8z M14,26
		c0.5-0.5,1.3-0.8,2-0.8c0.4,0,0.8,0.1,1.2,0.2c1.1,0.5,1.7,1.5,1.8,2.7c0,1-0.5,1.9-1.3,2.5c-0.8,0.5-1.9,0.6-2.8,0.2
		c-0.9-0.4-1.5-1.2-1.7-2.3C12.9,27.7,13.2,26.7,14,26z M10.8,40c-0.4,0-0.6,0-0.8-0.2c-0.1-0.1-0.1-0.3-0.1-0.6v-3
		c0-1.2,0.5-2.3,1.5-3c0.1-0.1,0.2-0.1,0.3-0.2l0,0c0.6-0.4,1.2-0.7,1.4-0.8c0.1,0.1,0.2,0.2,0.3,0.2c0.8,0.5,1.7,0.7,2.6,0.7
		c0.3,0,0.5,0,0.8-0.1c0.8-0.1,1.5-0.4,2.1-0.9c0.3,0.1,0.8,0.4,1.3,0.7l0,0c0.1,0.1,0.2,0.1,0.3,0.2c0.3,0.3,0.6,0.6,0.8,0.9
		c0,0.3-0.1,0.7-0.1,1v4.2c0,0.2,0,0.4,0,0.6H10.9L10.8,40z M43.1,40.1c0,0.5-0.3,0.8-0.5,1s-0.6,0.3-1.1,0.3H24.9
		c-0.3,0-0.6,0-0.9-0.1c-0.4-0.2-0.6-0.5-0.8-0.9c0-0.2,0-0.3,0-0.6v-4.5c0-1,0.1-1.8,0.4-2.6c0.4-1.1,1.1-2.1,2.1-2.8
		c0.1-0.1,0.3-0.2,0.4-0.3l0,0c1.1-0.8,1.9-1.2,2.3-1.5c1.1,0.9,2.5,1.6,3.9,1.7c0.2,0,0.5,0,0.7,0c1.6,0,3.2-0.6,4.5-1.7
		c0.5,0.3,1.5,0.8,2.3,1.4l0,0c0.2,0.1,0.3,0.2,0.5,0.4c0.1,0.1,0.2,0.2,0.3,0.2c1.4,1.2,2.2,3,2.2,4.9v5.1H43.1z M56.5,37.1
		c0,0.2,0,0.4,0,0.6v1.4c0,0.2,0,0.3,0,0.4c-0.1,0.2-0.3,0.4-0.5,0.4H45.1c0-0.2,0-0.3,0-0.5V35c0-0.4,0-0.7-0.1-1.1
		c0.2-0.3,0.5-0.6,0.8-0.9c0.1-0.1,0.2-0.1,0.3-0.2l0,0c0.6-0.4,1.1-0.6,1.4-0.7c0.1,0.1,0.2,0.2,0.3,0.2c0.8,0.5,1.7,0.7,2.6,0.7
		c0.3,0,0.5,0,0.8-0.1c0.8-0.1,1.6-0.5,2.3-1c0.3,0.2,0.7,0.5,1.2,0.9c0.9,0.6,1.6,1.6,1.8,2.7C56.5,36.1,56.5,36.6,56.5,37.1z"/>
</g>
</svg>
