<?xml version="1.0" encoding="utf-8"?>
<!-- Generator: Adobe Illustrator 21.1.0, SVG Export Plug-In . SVG Version: 6.00 Build 0)  -->
<svg version="1.1" id="Capa_1" xmlns="http://www.w3.org/2000/svg" xmlns:xlink="http://www.w3.org/1999/xlink" x="0px" y="0px"
	 viewBox="0 0 70 61" style="enable-background:new 0 0 70 61;" xml:space="preserve">
<style type="text/css">
	.st0{fill:#B5C9D3;}
	.st1{fill:#3E5C6F;}
</style>
<g>
	<path class="st0" d="M47.7,31.3c0-4-2.2-7.6-5.8-9.4c3.6-1.9,5.8-5.5,5.8-9.4c0-0.7-0.5-1.2-1.2-1.2s-1.2,0.5-1.2,1.2
		c0,0.9-0.2,1.9-0.5,2.8H29.3c-0.3-0.9-0.5-1.9-0.5-2.8c0-0.7-0.5-1.2-1.2-1.2s-1.2,0.5-1.2,1.2c0,4,2.2,7.6,5.8,9.4
		c-3.6,1.9-5.8,5.5-5.8,9.4c0,4,2.2,7.6,5.8,9.4c-3.6,1.9-5.8,5.5-5.8,9.5c0,0.7,0.5,1.2,1.2,1.2s1.2-0.5,1.2-1.2
		c0-0.9,0.2-1.8,0.5-2.7h15.5c0.3,0.9,0.5,1.8,0.5,2.7c0,0.7,0.5,1.2,1.2,1.2s1.2-0.5,1.2-1.2c0-4-2.2-7.6-5.7-9.5
		C45.5,38.9,47.7,35.3,47.7,31.3z"/>
	<path class="st1" d="M43.7,29.7c0-4-2.2-7.6-5.8-9.4c3.6-1.9,5.8-5.5,5.8-9.4c0-0.7-0.5-1.2-1.2-1.2s-1.2,0.5-1.2,1.2
		c0,0.9-0.2,1.9-0.5,2.8H25.3c-0.3-0.9-0.5-1.9-0.5-2.8c0-0.7-0.5-1.2-1.2-1.2s-1.2,0.5-1.2,1.2c0,4,2.2,7.6,5.8,9.4
		c-3.6,1.9-5.8,5.5-5.8,9.4c0,4,2.2,7.6,5.8,9.4c-3.6,1.9-5.8,5.5-5.8,9.5c0,0.7,0.5,1.2,1.2,1.2s1.2-0.5,1.2-1.2
		c0-0.9,0.2-1.8,0.5-2.7h15.5c0.3,0.9,0.5,1.8,0.5,2.7c0,0.7,0.5,1.2,1.2,1.2s1.2-0.5,1.2-1.2c0-4-2.2-7.6-5.7-9.5
		C41.5,37.3,43.7,33.7,43.7,29.7z M27.5,35.8h11C37,37.2,35,37.9,33,37.9S29,37.2,27.5,35.8z M39.4,43.4H26.6c1.6-2,3.9-3.1,6.4-3.1
		C35.5,40.3,37.8,41.5,39.4,43.4z M41.1,31c-0.1,0.8-0.4,1.6-0.8,2.4H25.6c-0.4-0.7-0.6-1.5-0.8-2.4C24.8,31,41.1,31,41.1,31z
		 M38.7,23.7H27.3c1.5-1.5,3.6-2.3,5.7-2.3C35.1,21.4,37.1,22.3,38.7,23.7z M33,19c-2.5,0-4.8-1.1-6.3-3h12.7
		C37.8,17.9,35.5,19,33,19z M41.1,28.5H24.8c0.1-0.8,0.4-1.6,0.7-2.4h14.9C40.8,26.9,41,27.7,41.1,28.5z"/>
</g>
</svg>
