<?xml version="1.0" encoding="utf-8"?>
<!-- Generator: Adobe Illustrator 21.1.0, SVG Export Plug-In . SVG Version: 6.00 Build 0)  -->
<svg version="1.1" id="Capa_1" xmlns="http://www.w3.org/2000/svg" xmlns:xlink="http://www.w3.org/1999/xlink" x="0px" y="0px"
	 viewBox="0 0 70 61" style="enable-background:new 0 0 70 61;" xml:space="preserve">
<style type="text/css">
	.st0{fill:#B5C9D3;}
	.st1{fill:#3E5C6F;}
</style>
<g>
	<path class="st0" d="M55.5,19.3L50.1,19v-4.8c0-0.6-0.5-1.1-1.1-1.1H26c-0.6,0-1.1,0.5-1.1,1.1V19l-5.4,0.4c-0.3,0-0.5,0.2-0.8,0.4
		c-0.2,0.2-0.3,0.5-0.3,0.8l2.1,29.7c0.1,0.6,0.5,1,1.1,1h0.1l15.7-1.1l15.7,1.1h0.1c0.3,0,0.5-0.1,0.7-0.3s0.3-0.4,0.4-0.8
		l2.1-29.7C56.5,19.9,56.1,19.4,55.5,19.3z"/>
	<g>
		<g>
			<path class="st1" d="M50.6,16.1l-5.4-0.4v-4.8c0-0.6-0.5-1.1-1.1-1.1h-23c-0.6,0-1.1,0.5-1.1,1.1v4.8l-5.4,0.4
				c-0.3,0-0.5,0.2-0.8,0.4c-0.2,0.2-0.3,0.5-0.3,0.8L15.6,47c0.1,0.6,0.5,1,1.1,1h0.1l15.7-1.1L48.2,48h0.1c0.3,0,0.5-0.1,0.7-0.3
				s0.3-0.4,0.4-0.8l2.1-29.7C51.7,16.7,51.2,16.1,50.6,16.1z M22.2,12H43v27.6H22.2V12z M17.9,45.7L16,18.2l4.2-0.3v22.8
				c0,0.6,0.5,1.1,1.1,1.1h3.6l-0.2,3.4v0.1C24.5,45.2,17.9,45.7,17.9,45.7z M47.5,45.7l-20.7-1.5l0.2-2.5h17.2
				c0.6,0,1.1-0.5,1.1-1.1V17.8l4.2,0.3C49.4,18.1,47.5,45.7,47.5,45.7z"/>
		</g>
		<g>
			<path class="st1" d="M39,15.5H26.3c-0.6,0-1.1,0.5-1.1,1.1s0.5,1.1,1.1,1.1H39c0.6,0,1.1-0.5,1.1-1.1S39.6,15.5,39,15.5z
				 M39,20.1H26.3c-0.6,0-1.1,0.5-1.1,1.1s0.5,1.1,1.1,1.1H39c0.6,0,1.1-0.5,1.1-1.1S39.6,20.1,39,20.1z M39,24.7H26.3
				c-0.6,0-1.1,0.5-1.1,1.1s0.5,1.1,1.1,1.1H39c0.6,0,1.1-0.5,1.1-1.1S39.6,24.7,39,24.7z M39,29.3H26.3c-0.6,0-1.1,0.5-1.1,1.1
				s0.5,1.1,1.1,1.1H39c0.6,0,1.1-0.5,1.1-1.1S39.6,29.3,39,29.3z M39,33.9H26.3c-0.6,0-1.1,0.5-1.1,1.1s0.5,1.1,1.1,1.1H39
				c0.6,0,1.1-0.5,1.1-1.1S39.6,33.9,39,33.9z"/>
			<path class="st1" d="M26.3,34.1c-0.5,0-0.9,0.4-0.9,0.9s0.4,0.9,0.9,0.9H39c0.5,0,0.9-0.4,0.9-0.9s-0.4-0.9-0.9-0.9H26.3z
				 M26.3,29.5c-0.5,0-0.9,0.4-0.9,0.9s0.4,0.9,0.9,0.9H39c0.5,0,0.9-0.4,0.9-0.9s-0.4-0.9-0.9-0.9H26.3z M26.3,24.9
				c-0.5,0-0.9,0.4-0.9,0.9s0.4,0.9,0.9,0.9H39c0.5,0,0.9-0.4,0.9-0.9s-0.4-0.9-0.9-0.9H26.3z M26.3,20.3c-0.5,0-0.9,0.4-0.9,0.9
				s0.4,0.9,0.9,0.9H39c0.5,0,0.9-0.4,0.9-0.9s-0.4-0.9-0.9-0.9H26.3z M26.3,15.7c-0.5,0-0.9,0.4-0.9,0.9s0.4,0.9,0.9,0.9H39
				c0.5,0,0.9-0.4,0.9-0.9s-0.4-0.9-0.9-0.9C39,15.7,26.3,15.7,26.3,15.7z"/>
		</g>
	</g>
</g>
</svg>
