<?xml version="1.0" encoding="utf-8"?>
<!-- Generator: Adobe Illustrator 21.1.0, SVG Export Plug-In . SVG Version: 6.00 Build 0)  -->
<svg version="1.1" id="Capa_1" xmlns="http://www.w3.org/2000/svg" xmlns:xlink="http://www.w3.org/1999/xlink" x="0px" y="0px"
	 viewBox="0 0 70 61" style="enable-background:new 0 0 70 61;" xml:space="preserve">
<style type="text/css">
	.st0{fill:#B5C9D3;}
	.st1{fill:#3E5C6F;}
</style>
<g>
	<path class="st0" d="M49.2,26.7h-3.1v-6v-0.1l0,0l0,0c-0.1-4.6-3.9-8.4-8.5-8.4s-8.4,3.7-8.5,8.4c0,0,0,0,0,0.1l0,0v0.1v4.4l0,0
		l0,0v1.5H26c-0.7,0-1.2,0.5-1.2,1.2v1.7c0,6,4.2,11.1,9.8,12.5v6.6h-1.5c-0.7,0-1.2,0.5-1.2,1.2s0.5,1.2,1.2,1.2h2.7l0,0h3.7l0,0
		h2.7c0.7,0,1.2-0.5,1.2-1.2s-0.5-1.2-1.2-1.2h-1.5v-6.6c5.6-1.4,9.8-6.4,9.8-12.5v-1.7C50.4,27.2,49.9,26.7,49.2,26.7z"/>
	<g>
		<g>
			<g>
				<g>
					<path class="st1" d="M34.3,48.4h-3.7c-0.4,0-0.8-0.4-0.8-0.8v-8.8c0-0.2,0.1-0.5,0.3-0.6c0.2-0.2,0.4-0.2,0.6-0.2
						c1.2,0.2,2.3,0.2,3.4,0c0.2,0,0.5,0,0.6,0.2c0.2,0.2,0.3,0.4,0.3,0.6v8.8C35.1,48.1,34.8,48.4,34.3,48.4z M31.4,46.8h2.1v-7.1
						c-0.7,0.1-1.4,0.1-2.1,0V46.8z"/>
					<path class="st1" d="M34.3,48.8h-3.7c-0.7,0-1.2-0.5-1.2-1.2v-8.8c0-0.4,0.2-0.7,0.4-0.9c0.3-0.2,0.6-0.3,1-0.3
						c1.1,0.2,2.2,0.2,3.3,0c0.3-0.1,0.7,0,1,0.3c0.3,0.2,0.4,0.6,0.4,0.9v8.8C35.5,48.3,35,48.8,34.3,48.8z M30.6,38.4
						c-0.1,0-0.2,0-0.2,0.1c-0.1,0.1-0.1,0.2-0.1,0.3v8.8c0,0.2,0.2,0.4,0.4,0.4h3.7c0.2,0,0.4-0.2,0.4-0.4v-8.8
						c0-0.1,0-0.2-0.1-0.3s-0.2-0.1-0.3-0.1C33.1,38.6,31.9,38.6,30.6,38.4C30.7,38.4,30.7,38.4,30.6,38.4z M33.9,47.3H31v-8h0.4
						c0.7,0.1,1.3,0.1,2,0h0.5V47.3z M31.8,46.4h1.3v-6.3c-0.4,0-0.8,0-1.3,0V46.4z"/>
				</g>
			</g>
		</g>
		<g>
			<g>
				<g>
					<path class="st1" d="M37.1,48.4h-9.2c-0.4,0-0.8-0.4-0.8-0.8c0-0.4,0.4-0.8,0.8-0.8h9.2c0.4,0,0.8,0.4,0.8,0.8
						C37.9,48.1,37.5,48.4,37.1,48.4z"/>
					<path class="st1" d="M37.1,48.8h-9.2c-0.7,0-1.2-0.5-1.2-1.2s0.5-1.2,1.2-1.2h9.2c0.7,0,1.2,0.5,1.2,1.2S37.7,48.8,37.1,48.8z
						 M27.9,47.2c-0.2,0-0.4,0.2-0.4,0.4s0.2,0.4,0.4,0.4h9.2c0.2,0,0.4-0.2,0.4-0.4s-0.2-0.4-0.4-0.4H27.9z"/>
				</g>
			</g>
		</g>
		<g>
			<g>
				<g>
					<path class="st1" d="M32.5,39.8c-6.9,0-12.5-5.6-12.5-12.5v-1.7c0-0.4,0.4-0.8,0.8-0.8h4.3c0.4,0,0.8,0.4,0.8,0.8v1.8
						c0.1,3.5,3,6.4,6.5,6.4s6.5-2.9,6.5-6.4v-1.8c0-0.4,0.4-0.8,0.8-0.8H44c0.4,0,0.8,0.4,0.8,0.8v1.7
						C44.9,34.2,39.3,39.8,32.5,39.8z M21.6,26.4v0.9c0,6,4.9,10.9,10.9,10.9s10.9-4.9,10.9-10.9v-0.9h-2.7v1c-0.1,4.4-3.7,8-8.1,8
						s-8-3.6-8.1-8v-1C24.5,26.4,21.6,26.4,21.6,26.4z"/>
					<path class="st1" d="M32.5,40.2c-7.1,0-12.9-5.8-12.9-12.9v-1.7c0-0.7,0.5-1.2,1.2-1.2h4.3c0.7,0,1.2,0.5,1.2,1.2v1.8
						c0.1,3.3,2.8,6,6.1,6s6.1-2.7,6.1-6v-1.8c0-0.7,0.5-1.2,1.2-1.2H44c0.7,0,1.2,0.5,1.2,1.2v1.7C45.3,34.4,39.6,40.2,32.5,40.2z
						 M20.8,25.2c-0.2,0-0.4,0.2-0.4,0.4v1.7c0,6.6,5.4,12,12,12s12-5.4,12-12v-1.7c0-0.2-0.2-0.4-0.4-0.4h-4.3
						c-0.2,0-0.4,0.2-0.4,0.4v1.8c-0.1,3.8-3.2,6.8-6.9,6.8c-3.8,0-6.9-3.1-6.9-6.8v-1.8c0-0.2-0.2-0.4-0.4-0.4
						C25.1,25.2,20.8,25.2,20.8,25.2z M32.5,38.6c-6.2,0-11.3-5.1-11.3-11.3V26h3.6v1.5c0.1,4.2,3.5,7.6,7.7,7.6s7.6-3.4,7.7-7.6V26
						h3.6v1.3C43.8,33.5,38.7,38.6,32.5,38.6z M22,26.8v0.5c0,5.8,4.7,10.4,10.4,10.4S42.8,33,42.8,27.3v-0.5H41v0.6
						c-0.1,4.6-3.9,8.4-8.5,8.4S24,32,24,27.4v-0.6C24,26.8,22,26.8,22,26.8z"/>
				</g>
			</g>
		</g>
		<g>
			<g>
				<g>
					<path class="st1" d="M32.5,35.4c-4.4,0-8-3.6-8.1-8v-9c0-4.5,3.6-8.1,8.1-8.1s8.1,3.6,8.1,8.1v9C40.5,31.8,36.9,35.4,32.5,35.4
						z M32.5,11.9c-3.6,0-6.5,2.9-6.5,6.5v9c0.1,3.5,3,6.4,6.5,6.4s6.5-2.9,6.5-6.4v-9C39,14.8,36.1,11.9,32.5,11.9z"/>
					<path class="st1" d="M32.5,35.8c-4.6,0-8.5-3.8-8.5-8.4v-9c0-4.7,3.8-8.5,8.5-8.5s8.5,3.8,8.5,8.5v9
						C40.9,32.1,37.1,35.8,32.5,35.8z M32.5,10.7c-4.2,0-7.7,3.5-7.7,7.7v9c0.1,4.2,3.5,7.6,7.7,7.6s7.6-3.4,7.7-7.6v-9
						C40.2,14.2,36.7,10.7,32.5,10.7z M32.5,34.3c-3.8,0-6.9-3.1-6.9-6.8v-9c0-3.8,3.1-7,6.9-7s6.9,3.1,6.9,7v9
						C39.4,31.2,36.2,34.3,32.5,34.3z M32.5,12.3c-3.4,0-6.1,2.7-6.1,6.1v9c0.1,3.3,2.8,6,6.1,6s6.1-2.7,6.1-6v-9
						C38.6,15,35.9,12.3,32.5,12.3z"/>
				</g>
			</g>
		</g>
		<g>
			<g>
				<g>
					<path class="st1" d="M29.2,19.1h-4.1c-0.4,0-0.8-0.4-0.8-0.8s0.4-0.8,0.8-0.8h4.1c0.4,0,0.8,0.4,0.8,0.8S29.6,19.1,29.2,19.1z"
						/>
					<path class="st1" d="M29.2,19.5h-4.1c-0.7,0-1.2-0.5-1.2-1.2s0.5-1.2,1.2-1.2h4.1c0.7,0,1.2,0.5,1.2,1.2S29.9,19.5,29.2,19.5z
						 M25.1,17.9c-0.2,0-0.4,0.2-0.4,0.4s0.2,0.4,0.4,0.4h4.1c0.2,0,0.4-0.2,0.4-0.4s-0.2-0.4-0.4-0.4H25.1z"/>
				</g>
			</g>
		</g>
		<g>
			<g>
				<g>
					<path class="st1" d="M29.2,23.7h-4.1c-0.4,0-0.8-0.4-0.8-0.8s0.4-0.8,0.8-0.8h4.1c0.4,0,0.8,0.4,0.8,0.8S29.6,23.7,29.2,23.7z"
						/>
					<path class="st1" d="M29.2,24.1h-4.1c-0.7,0-1.2-0.5-1.2-1.2s0.5-1.2,1.2-1.2h4.1c0.7,0,1.2,0.5,1.2,1.2S29.9,24.1,29.2,24.1z
						 M25.1,22.5c-0.2,0-0.4,0.2-0.4,0.4s0.2,0.4,0.4,0.4h4.1c0.2,0,0.4-0.2,0.4-0.4s-0.2-0.4-0.4-0.4H25.1z"/>
				</g>
			</g>
		</g>
		<g>
			<g>
				<g>
					<path class="st1" d="M29.2,28.2h-4.1c-0.4,0-0.8-0.4-0.8-0.8s0.4-0.8,0.8-0.8h4.1c0.4,0,0.8,0.4,0.8,0.8
						C30,27.9,29.6,28.2,29.2,28.2z"/>
					<path class="st1" d="M29.2,28.6h-4.1c-0.7,0-1.2-0.5-1.2-1.2s0.5-1.2,1.2-1.2h4.1c0.7,0,1.2,0.5,1.2,1.2S29.9,28.6,29.2,28.6z
						 M25.1,27c-0.2,0-0.4,0.2-0.4,0.4s0.2,0.4,0.4,0.4h4.1c0.2,0,0.4-0.2,0.4-0.4S29.4,27,29.2,27H25.1z"/>
				</g>
			</g>
		</g>
		<g>
			<g>
				<g>
					<path class="st1" d="M39.8,19.1h-4.1c-0.4,0-0.8-0.4-0.8-0.8s0.4-0.8,0.8-0.8h4.1c0.4,0,0.8,0.4,0.8,0.8S40.2,19.1,39.8,19.1z"
						/>
					<path class="st1" d="M39.8,19.5h-4.1c-0.7,0-1.2-0.5-1.2-1.2s0.5-1.2,1.2-1.2h4.1c0.7,0,1.2,0.5,1.2,1.2S40.5,19.5,39.8,19.5z
						 M35.7,17.9c-0.2,0-0.4,0.2-0.4,0.4s0.2,0.4,0.4,0.4h4.1c0.2,0,0.4-0.2,0.4-0.4s-0.2-0.4-0.4-0.4H35.7z"/>
				</g>
			</g>
		</g>
		<g>
			<g>
				<g>
					<path class="st1" d="M39.8,23.7h-4.1c-0.4,0-0.8-0.4-0.8-0.8s0.4-0.8,0.8-0.8h4.1c0.4,0,0.8,0.4,0.8,0.8S40.2,23.7,39.8,23.7z"
						/>
					<path class="st1" d="M39.8,24.1h-4.1c-0.7,0-1.2-0.5-1.2-1.2s0.5-1.2,1.2-1.2h4.1c0.7,0,1.2,0.5,1.2,1.2S40.5,24.1,39.8,24.1z
						 M35.7,22.5c-0.2,0-0.4,0.2-0.4,0.4s0.2,0.4,0.4,0.4h4.1c0.2,0,0.4-0.2,0.4-0.4s-0.2-0.4-0.4-0.4H35.7z"/>
				</g>
			</g>
		</g>
		<g>
			<g>
				<g>
					<path class="st1" d="M39.8,28.2h-4.1c-0.4,0-0.8-0.4-0.8-0.8s0.4-0.8,0.8-0.8h4.1c0.4,0,0.8,0.4,0.8,0.8
						C40.6,27.9,40.2,28.2,39.8,28.2z"/>
					<path class="st1" d="M39.8,28.6h-4.1c-0.7,0-1.2-0.5-1.2-1.2s0.5-1.2,1.2-1.2h4.1c0.7,0,1.2,0.5,1.2,1.2S40.5,28.6,39.8,28.6z
						 M35.7,27c-0.2,0-0.4,0.2-0.4,0.4s0.2,0.4,0.4,0.4h4.1c0.2,0,0.4-0.2,0.4-0.4S40,27,39.8,27H35.7z"/>
				</g>
			</g>
		</g>
	</g>
</g>
</svg>
