<?xml version="1.0" encoding="utf-8"?>
<!-- Generator: Adobe Illustrator 21.1.0, SVG Export Plug-In . SVG Version: 6.00 Build 0)  -->
<svg version="1.1" id="Capa_1" xmlns="http://www.w3.org/2000/svg" xmlns:xlink="http://www.w3.org/1999/xlink" x="0px" y="0px"
	 viewBox="0 0 70 61" style="enable-background:new 0 0 70 61;" xml:space="preserve">
<style type="text/css">
	.st0{fill:#B5C9D3;}
	.st1{fill:#3E5C6F;}
</style>
<g>
	<path class="st0" d="M37.2,15.2c-5.9,0-15.8,1.1-15.8,5.1v25.1c0,4,10.9,5.1,15.8,5.1c14,0,15.8-3.6,15.8-5.1v-8.3l0,0v-8.4l0,0
		l0,0v-8.3C53,16.3,43,15.2,37.2,15.2z"/>
	<path class="st1" d="M32.8,10.4C27,10.4,17,11.5,17,15.5v25.1c0,4,10.9,5.1,15.8,5.1c14,0,15.8-3.6,15.8-5.1v-8.3l0,0v-8.4l0,0l0,0
		v-8.3C48.6,11.5,38.7,10.4,32.8,10.4z M32.8,12.9c8.6,0,12.9,1.9,13.3,2.7c-0.4,0.8-4.8,2.7-13.3,2.7s-12.9-1.9-13.3-2.7
		C19.9,14.7,24.3,12.9,32.8,12.9z M19.5,18.5c3.3,1.6,9.3,2.1,13.3,2.1s10-0.5,13.3-2.1v5.4c-0.3,0.8-4.7,2.7-13.3,2.7
		c-8.7,0-13-1.9-13.3-2.7V18.5z M19.5,32.1v-5.3c3.3,1.6,9.3,2.1,13.3,2.1s10-0.5,13.3-2.1v5.4c-0.3,0.8-4.7,2.7-13.3,2.7
		c-8.7,0-13-1.9-13.3-2.7V32.1z M19.5,40.6v-5.4c3.3,1.6,9.3,2.1,13.3,2.1s10-0.5,13.3-2.1v5.3c-1.8,1.7-7,2.7-13.3,2.7
		C24.2,43.3,19.8,41.4,19.5,40.6z"/>
</g>
</svg>
