<?xml version="1.0" encoding="utf-8"?>
<!-- Generator: Adobe Illustrator 16.0.0, SVG Export Plug-In . SVG Version: 6.00 Build 0)  -->
<!DOCTYPE svg PUBLIC "-//W3C//DTD SVG 1.1//EN" "http://www.w3.org/Graphics/SVG/1.1/DTD/svg11.dtd">
<svg version="1.1" id="Layer_1" xmlns="http://www.w3.org/2000/svg" xmlns:xlink="http://www.w3.org/1999/xlink" x="0px" y="0px"
	 width="36.809px" height="38.186px" viewBox="0 0 36.809 38.186" enable-background="new 0 0 36.809 38.186" xml:space="preserve">
<path fill="#818181" d="M25.343,10.267l-1.96,1.96l0.02,3.583c0,0-0.062,0.562-0.181,0.84h1.261l3.603-3.602L25.343,10.267"/>
<polygon fill="#818181" points="26.023,8.864 25.402,9.605 28.766,12.967 29.445,12.288 "/>
<polygon fill="#818181" points="29.686,11.607 32.566,8.765 29.484,5.683 26.725,8.685 "/>
<polygon fill="#818181" points="34.248,8.465 29.695,3.912 29.766,5.163 33.066,8.465 "/>
<path fill="#818181" d="M17.5,32.481h1.878c0,0,0.122-0.816,0.653-0.816h7.799V17.948l-0.775-0.817v13.595h-6.982
	c0,0-0.94,0.081-1.674,0.979c0,0-0.571-0.856-1.796-0.938H9.785V17.254l-0.838,0.837v13.574h7.614
	C16.561,31.665,17.5,31.705,17.5,32.481"/>
<path fill="#818181" d="M30.486,2.201c-0.281-0.241-0.642,0.319-0.642,0.319c0.481-0.079,0.562,0.32,0.562,0.32
	c0.479,1.122,1.602,0.76,1.602,0.76c1.32-0.76,2.121,0.321,2.121,0.321c0.52,0.4,0.32,1.441,0.32,1.441
	c0,0.2-0.481,0.479-0.32-0.081c0.158-0.56-0.161-1.119-0.161-1.119c-1.24-1.082-2.001-0.081-2.001-0.081
	c-0.682,0.802,0.041,1.761,0.041,1.761l1.398,1.401c3.324,1.16,3.285-2.241,3.285-2.241c-0.402-2.923-3.524-3.242-3.524-3.242
	C30.445,1.6,29.646,0,29.646,0C29.205,1.2,30.486,2.201,30.486,2.201"/>
<polygon fill="#818181" points="10.593,11.848 13.115,14.328 13.115,12.407 10.593,9.886 "/>
<path fill="#818181" d="M10.093,15.63l0.98,0.979h2.202c-0.12-0.199-0.08-0.959-0.08-0.959L10.093,15.63"/>
<polygon fill="#818181" points="13.116,15.279 13.116,14.89 11.254,13.027 7.512,13.027 9.763,15.279 "/>
<path fill="#818181" d="M6.711,12.167l0.56,0.56l3.623-0.02l-1.342-1.341h-1.26C8.292,11.366,7.511,12.007,6.711,12.167"/>
<path fill="#818181" d="M8.462,11.117h0.84l-0.43-0.432C8.873,10.686,8.583,11.036,8.462,11.117"/>
<path fill="#818181" d="M10.203,9.535c0,0-0.28,0.41-1.351,0.641l1.351,1.251V9.535"/>
<path fill="#818181" d="M6.606,5.737L4.399,3.512C3.034,2.145,1.413,3.046,1.413,3.046L5.76,7.374
	C6.05,6.264,6.606,5.737,6.606,5.737"/>
<path fill="#818181" d="M4.91,7.104L1.158,3.352c0,0-1.411,0.71-0.35,3.752H4.91"/>
<path fill="#818181" d="M3.659,10.066c0,0-0.169-1.102,0.891-2.623H0.968C0.968,7.443,1.128,8.266,3.659,10.066"/>
<rect x="28.065" y="19.292" fill="#818181" width="1.2" height="1.521"/>
<rect x="7.392" y="19.412" fill="#818181" width="1.201" height="1.521"/>
<rect x="28.125" y="26.736" fill="#818181" width="1.2" height="1.521"/>
<rect x="7.431" y="26.596" fill="#818181" width="1.202" height="1.522"/>
<polygon fill="#818181" points="28.124,29.058 28.124,30.579 34.928,36.223 36.29,36.223 29.363,29.058 "/>
<path fill="#818181" d="M5.19,33.28c0,0,0.22-0.359,1.061-0.261c0,0-0.42-0.06-0.74-0.239l-3.282,3.342c0,0-0.361,0.521-0.02,0.861
	c0,0,0.32,0.26,0.76-0.039l3.041-2.663C6.01,34.281,5.13,33.841,5.19,33.28"/>
<path fill="#818181" d="M0.547,15.569c-0.641,2.802,1.721,4.804,1.721,4.804c2.722-1.802,2.681-3.483,2.681-3.483
	c-1.841,0.48-2.641,2.762-2.641,2.762C2.428,17.13,0.547,15.569,0.547,15.569"/>
<path fill="#818181" d="M2.534,23.172c2.367-2.246,2.036-3.896,2.036-3.896c-1.729,0.793-2.122,3.18-2.122,3.18
	c-0.319-2.504-2.443-3.716-2.443-3.716C-0.139,21.609,2.534,23.172,2.534,23.172"/>
<path fill="#818181" d="M3.282,25.882c1.941-2.624,1.329-4.189,1.329-4.189c-1.566,1.081-1.537,3.499-1.537,3.499
	c-0.75-2.41-3.052-3.234-3.052-3.234C0.379,24.809,3.282,25.882,3.282,25.882"/>
<path fill="#818181" d="M4.49,28.421c1.456-2.922,0.581-4.355,0.581-4.355c-1.355,1.336-0.908,3.711-0.908,3.711
	c-1.156-2.244-3.566-2.654-3.566-2.654C1.444,27.869,4.49,28.421,4.49,28.421"/>
<path fill="#818181" d="M6.119,30.712c0.928-3.13-0.183-4.391-0.183-4.391c-1.103,1.551-0.25,3.813-0.25,3.813
	c-1.528-2.009-3.973-1.995-3.973-1.995C3.024,30.696,6.119,30.712,6.119,30.712"/>
<path fill="#818181" d="M3.337,30.916c1.734,2.292,4.785,1.771,4.785,1.771c0.369-3.243-0.944-4.294-0.944-4.294
	c-0.815,1.72,0.418,3.799,0.418,3.799C5.741,30.479,3.337,30.916,3.337,30.916"/>
<path fill="#818181" d="M10.437,34.281c-0.061-1.008-0.245-1.74-0.469-2.328l-1.16,0.002c0.313,1.102,1.026,1.932,1.026,1.932
	c-2.124-1.366-4.416-0.518-4.416-0.518C7.523,35.325,10.437,34.281,10.437,34.281"/>
<path fill="#818181" d="M11.033,31.962l-0.405-0.004c-0.024,1.793,1.704,3.207,1.704,3.207c-2.328-0.974-4.439,0.259-4.439,0.259
	c2.414,1.561,5.101,0.025,5.101,0.025C12.472,33.269,11.555,32.334,11.033,31.962"/>
<path fill="#818181" d="M12.751,32.912c0.154,1.896,2.262,3.08,2.262,3.08c-2.462-0.557-4.326,1.025-4.326,1.025
	c2.646,1.118,5.028-0.86,5.028-0.86C14.414,33.164,12.751,32.912,12.751,32.912"/>
<path fill="#818181" d="M2.657,16.867c0.557-2.463-1.025-4.327-1.025-4.327c-1.118,2.649,0.861,5.03,0.861,5.03
	c2.993-1.303,3.246-2.964,3.246-2.964C3.843,14.759,2.657,16.867,2.657,16.867"/>
<path fill="#818181" d="M6.824,12.674L6.671,12.48c-1.782-0.009-3.187,1.706-3.187,1.706c0.663-1.584,0.304-3.067,0.007-3.854
	L3.068,9.986C1.845,12.305,3.2,14.85,3.2,14.85C5.72,14.243,6.578,13.114,6.824,12.674"/>
<path fill="#818181" d="M5.28,7.271c-1.955,2.105-0.91,5.02-0.91,5.02c3.258-0.199,4.063-1.674,4.063-1.674
	c-1.835-0.505-3.669,1.071-3.669,1.071C6.13,9.563,5.28,7.271,5.28,7.271"/>
<path fill="#818181" d="M5.965,9.977c3.242,0.369,4.292-0.944,4.292-0.944C8.538,8.217,6.459,9.45,6.459,9.45
	c1.712-1.854,1.275-4.26,1.275-4.26C5.442,6.925,5.965,9.977,5.965,9.977"/>
<path fill="#818181" d="M12.33,7.789c-1.551-1.102-3.814-0.248-3.814-0.248c2.009-1.528,1.996-3.974,1.996-3.974
	C7.955,4.878,7.938,7.974,7.938,7.974C11.067,8.9,12.33,7.789,12.33,7.789"/>
<path fill="#818181" d="M13.195,7.185l0.022-1.047c-1.165-0.342-2.343-0.119-2.343-0.119c2.243-1.157,2.654-3.567,2.654-3.567
	c-2.746,0.847-3.299,3.893-3.299,3.893C11.496,6.975,12.484,7.168,13.195,7.185"/>
<path fill="#818181" d="M12.845,5.192l2.152-0.029c-0.825-0.243-1.538-0.234-1.538-0.234c2.412-0.751,3.235-3.052,3.235-3.052
	c-2.852,0.356-3.925,3.26-3.925,3.26C12.807,5.164,12.808,5.165,12.845,5.192"/>
<path fill="#818181" d="M34.527,19.993c0,0,2.313-2.056,1.606-4.842c0,0-1.843,1.604-1.664,4.124c0,0-0.854-2.263-2.706-2.7
	C31.764,16.575,31.763,18.258,34.527,19.993"/>
<path fill="#818181" d="M34.396,22.08c0,0-0.449-2.376-2.197-3.128c0,0-0.292,1.656,2.128,3.847c0,0,2.636-1.623,2.423-4.49
	C36.75,18.309,34.656,19.569,34.396,22.08"/>
<path fill="#818181" d="M32.215,21.368c0,0-0.575,1.58,1.428,4.158c0,0,2.879-1.142,3.166-4c0,0-2.281,0.877-2.973,3.305
	C33.836,24.831,33.806,22.413,32.215,21.368"/>
<path fill="#818181" d="M32.805,27.442c0,0,0.393-2.387-0.993-3.691c0,0-0.842,1.456,0.685,4.342c0,0,3.031-0.623,3.812-3.39
	C36.308,24.703,33.908,25.171,32.805,27.442"/>
<path fill="#818181" d="M31.001,26.026c0,0-1.081,1.289-0.082,4.396c0,0,3.095-0.089,4.345-2.676c0,0-2.445,0.043-3.926,2.088
	C31.338,29.834,32.139,27.553,31.001,26.026"/>
<path fill="#818181" d="M32.51,31.682c0.475-0.28,0.813-0.589,1.195-1.122c0,0-0.894-0.183-2.119,0.197L32.51,31.682"/>
<path fill="#818181" d="M29.572,28.592l0.543,0.565c-0.009-0.435-0.095-0.606-0.309-1.03C29.807,28.127,29.694,28.06,29.572,28.592"
	/>
<path fill="#818181" d="M29.785,32.456l-0.908-0.717c0.012,0.292,0.039,0.364,0.086,0.702C28.963,32.441,29.123,32.51,29.785,32.456
	"/>
<path fill="#818181" d="M27.28,33.682c0,0,0.619-0.74,0.924-1.781l-1.161-0.021c-0.182,0.569-0.322,1.295-0.356,2.211
	c0,0,2.507,0.833,4.512-0.62l-0.772-0.621C29.57,32.802,28.395,32.928,27.28,33.682"/>
<path fill="#818181" d="M24.814,35.02c0,0,1.614-1.388,1.63-3.119l-0.579,0.022c-0.521,0.458-1.285,1.431-1.707,3.396
	c0,0,2.723,1.473,5.1-0.144C29.258,35.175,27.119,33.989,24.814,35.02"/>
<path fill="#818181" d="M22.152,35.909c0,0,2.08-1.234,2.188-3.133c0,0-1.656,0.29-2.887,3.313c0,0,2.427,1.921,5.048,0.742
	C26.501,36.832,24.602,35.295,22.152,35.909"/>
<path fill="#818181" d="M34.237,17.197c0,0,1.922-2.427,0.742-5.048c0,0-1.537,1.9-0.925,4.349c0,0-1.231-2.078-3.133-2.188
	C30.922,14.311,31.215,15.966,34.237,17.197"/>
<path fill="#818181" d="M33.466,14.493c0,0,1.471-2.724-0.146-5.1c0,0-1.184,2.138-0.153,4.443c0,0-1.577-1.834-3.468-1.61
	C29.699,12.227,30.275,13.807,33.466,14.493"/>
<path fill="#818181" d="M31.109,10.899l-0.857,0.794c0.549,0.165,1.129,0.239,1.984,0.271c0,0,0.395-1.012,0.188-2.38l-1.002,1.021
	c0.123,0.315,0.194,0.452,0.405,0.766C31.827,11.37,31.735,11.223,31.109,10.899"/>
<path fill="#818181" d="M29.202,5.35c-0.173-0.178-0.276-0.248-0.495-0.404c0,0-0.07,0.274-0.01,0.936L29.202,5.35"/>
<path fill="#818181" d="M27.576,7.014l0.696-0.707c-0.295-0.998-0.896-2.202-2.381-2.919C25.892,3.388,25.832,5.522,27.576,7.014"/>
<path fill="#818181" d="M26.543,8.126l0.863-0.893c-0.736-0.171-2.117-0.415-3.232,0.417C24.174,7.65,24.748,8.301,26.543,8.126"/>
<path fill="#818181" d="M25.588,5.847c0,0-0.936-0.283-2.112,0.118l-0.003,1.074c0.719-0.015,1.447-0.187,2.766-0.883
	c0,0-0.624-3.032-3.389-3.814C22.85,2.342,23.317,4.741,25.588,5.847"/>
<path fill="#818181" d="M22.977,4.817c0,0-0.58-0.159-1.569,0.271l2.185,0.002c0.114-0.082-0.039,0.011,0.079-0.082
	c0,0-1.14-2.876-3.999-3.166C19.672,1.842,20.551,4.123,22.977,4.817"/>
<path fill="#818181" d="M18.158,35.622v0.711c-0.328-0.518-1.61-2.394-3.059-2.486c0,0,0.492,1.678,2.661,2.662
	c0,0-2.72,0.181-3.831,1.669c0,0,2.373,0.214,4.229-1.63v1.155h0.721v-2.081H18.158"/>
<path fill="#818181" d="M19.359,36.503c2.16-1.001,2.642-2.684,2.642-2.684c-1.681,0.122-3.122,2.643-3.122,2.643
	c1.881,1.922,4.322,1.681,4.322,1.681C22.081,36.662,19.359,36.503,19.359,36.503"/>
<path fill="#818181" d="M18.198,4.473c0.228,0,0.411-0.185,0.411-0.411s-0.184-0.41-0.411-0.41c-0.227,0-0.41,0.184-0.41,0.41
	S17.971,4.473,18.198,4.473"/>
<path fill="#818181" d="M21.541,4.642c-0.602-1.34-2.623-0.42-2.623-0.42C20.621,5.303,21.541,4.642,21.541,4.642"/>
<path fill="#818181" d="M14.88,4.77c0,0,0.945,0.625,2.605-0.521C17.485,4.249,15.43,3.406,14.88,4.77"/>
<path fill="#818181" d="M12.111,5.503c0,0.156,0.127,0.283,0.283,0.283c0.157,0,0.283-0.127,0.283-0.283
	c0-0.155-0.126-0.283-0.283-0.283C12.238,5.22,12.111,5.348,12.111,5.503"/>
<path fill="#818181" d="M7.389,8.465c0,0.156,0.126,0.282,0.282,0.282c0.157,0,0.284-0.126,0.284-0.282S7.828,8.181,7.671,8.181
	C7.515,8.181,7.389,8.309,7.389,8.465"/>
<path fill="#818181" d="M4.026,12.787c0,0.156,0.127,0.283,0.285,0.283c0.155,0,0.282-0.127,0.282-0.283s-0.127-0.283-0.282-0.283
	C4.153,12.504,4.026,12.631,4.026,12.787"/>
<path fill="#818181" d="M2.912,18.05c0-0.154-0.127-0.282-0.284-0.282c-0.156,0-0.283,0.128-0.283,0.282
	c0,0.157,0.127,0.283,0.283,0.283C2.785,18.333,2.912,18.207,2.912,18.05"/>
<path fill="#818181" d="M2.545,23.574c0,0.156,0.126,0.283,0.284,0.283c0.156,0,0.282-0.127,0.282-0.283s-0.126-0.283-0.282-0.283
	C2.671,23.291,2.545,23.418,2.545,23.574"/>
<path fill="#818181" d="M4.627,28.717C4.627,28.874,4.754,29,4.91,29c0.156,0,0.283-0.126,0.283-0.283
	c0-0.155-0.127-0.282-0.283-0.282C4.754,28.435,4.627,28.562,4.627,28.717"/>
<path fill="#818181" d="M8.632,33.123c0.156,0,0.283-0.127,0.283-0.283s-0.127-0.283-0.283-0.283c-0.156,0-0.283,0.127-0.283,0.283
	S8.476,33.123,8.632,33.123"/>
<path fill="#818181" d="M13.798,35.442c0-0.158-0.127-0.283-0.282-0.283c-0.157,0-0.284,0.125-0.284,0.283
	c0,0.155,0.127,0.282,0.284,0.282C13.671,35.725,13.798,35.598,13.798,35.442"/>
<path fill="#818181" d="M23.379,35.321c0,0.157,0.126,0.283,0.283,0.283c0.156,0,0.281-0.126,0.281-0.283
	c0-0.156-0.125-0.283-0.281-0.283C23.505,35.038,23.379,35.165,23.379,35.321"/>
<path fill="#818181" d="M28.465,32.902c0.155,0,0.283-0.126,0.283-0.282c0-0.157-0.128-0.283-0.283-0.283
	c-0.156,0-0.283,0.126-0.283,0.283C28.182,32.776,28.309,32.902,28.465,32.902"/>
<path fill="#818181" d="M32.369,28.438c0-0.156-0.125-0.283-0.281-0.283c-0.157,0-0.283,0.127-0.283,0.283
	c0,0.155,0.126,0.282,0.283,0.282C32.244,28.72,32.369,28.593,32.369,28.438"/>
<path fill="#818181" d="M34.049,23.477c0.155,0,0.282-0.126,0.282-0.283c0-0.156-0.127-0.282-0.282-0.282
	c-0.156,0-0.283,0.126-0.283,0.282C33.766,23.351,33.893,23.477,34.049,23.477"/>
<path fill="#818181" d="M33.845,17.69c0,0.156,0.127,0.284,0.284,0.284c0.156,0,0.281-0.128,0.281-0.284s-0.125-0.282-0.281-0.282
	C33.972,17.408,33.845,17.534,33.845,17.69"/>
<path fill="#818181" d="M32.004,12.468c0,0.156,0.127,0.282,0.284,0.282c0.155,0,0.282-0.126,0.282-0.282
	c0-0.157-0.127-0.284-0.282-0.284C32.131,12.184,32.004,12.311,32.004,12.468"/>
<path fill="#818181" d="M24.325,5.323c0-0.156-0.126-0.284-0.284-0.284c-0.154,0-0.281,0.128-0.281,0.284
	c0,0.155,0.127,0.282,0.281,0.282C24.199,5.605,24.325,5.479,24.325,5.323"/>
<path fill="#818181" d="M8.632,31.979v-3.001l-0.36,0.399c0.32,1.4,0.159,2.802,0.159,2.802L8.632,31.979"/>
<polygon fill="#818181" points="14.752,25.82 14.681,25.346 14.673,25.346 14.606,25.82 14.473,26.657 14.91,26.657 "/>
<path fill="#818181" d="M16.252,21.619c0-0.225-0.109-0.409-0.422-0.392h-0.081v0.837l0.107,0.004
	C16.14,22.068,16.252,21.877,16.252,21.619"/>
<path fill="#818181" d="M13.753,20.716H15v0.583h-0.629v0.683h0.554v0.582h-0.554v0.708h0.637v0.583h-1.257v-3.134l-0.869,3.134
	h-0.507l-0.908-3.139h0.666l0.375,1.507c0.053,0.18,0.075,0.357,0.112,0.537h0.008c0.033-0.184,0.046-0.362,0.096-0.546l0.38-1.498
	H13.753 M15.78,27.677h-0.662l-0.116-0.529h-0.629l-0.113,0.529h-0.616l0.729-3.139h0.654L15.78,27.677z M15.128,20.716h0.624
	c0.396,0,1.103,0.041,1.103,0.898c0,0.346-0.138,0.642-0.445,0.812l0.545,1.429H16.3l-0.544-1.449h-0.008v1.449h-0.62V20.716z
	 M17.574,24.642v0.604c-0.124-0.107-0.278-0.199-0.449-0.199c-0.192,0-0.312,0.117-0.312,0.309c0,0.516,0.945,0.544,0.945,1.395
	c0,0.558-0.321,0.978-0.904,0.978c-0.174,0-0.392-0.055-0.533-0.156v-0.593c0.145,0.1,0.289,0.167,0.471,0.167
	c0.199,0,0.358-0.134,0.358-0.343c0-0.24-0.191-0.333-0.366-0.457c-0.359-0.242-0.579-0.475-0.579-0.934
	c0-0.494,0.287-0.923,0.82-0.923C17.225,24.488,17.403,24.543,17.574,24.642 M17.077,20.716h0.621v3.139h-0.621V20.716z
	 M13.295,25.12h-0.492v2.557h-0.619V25.12h-0.488v-0.582h1.599V25.12z M10.153,17.091v13.208h6.544c0.741,0.021,1.501,0.6,1.501,0.6
	V20.332c-3.803,0-4.764-3.241-4.764-3.241H10.153z"/>
<polygon fill="#818181" points="24.768,25.365 24.76,25.365 24.691,25.841 24.559,26.678 24.996,26.678 24.837,25.841 "/>
<path fill="#818181" d="M22.194,22.9v-2.165h0.621v2.29c0,0.333-0.037,0.898-0.933,0.898c-0.578,0-0.925-0.27-0.925-0.856v-2.332
	h0.62v2.032c0,0.237-0.029,0.595,0.309,0.595C22.19,23.362,22.19,23.134,22.194,22.9 M23.484,24.559v0.582h-0.629v0.683h0.554v0.582
	h-0.554v0.708h0.637v0.584h-1.256v-3.139H23.484z M23.315,20.735h0.698l0.18,0.438c0.053,0.154,0.115,0.315,0.148,0.479h0.008
	c0.033-0.163,0.084-0.32,0.143-0.479l0.188-0.438h0.67l-0.67,1.521l0.721,1.618H24.68l-0.201-0.499
	c-0.055-0.158-0.096-0.313-0.137-0.471h-0.008c-0.045,0.158-0.084,0.313-0.137,0.471l-0.184,0.499h-0.698l0.665-1.618L23.315,20.735
	z M25.203,27.697l-0.115-0.529h-0.629l-0.113,0.529H23.73l0.729-3.139h0.653l0.753,3.139H25.203z M21.232,27.697l-0.151-2.261
	h-0.008l-0.101,0.774l-0.267,1.486h-0.478l-0.305-1.504l-0.104-0.698v-0.059h-0.008l-0.092,2.261h-0.666l0.273-3.139h0.818
	l0.303,1.852h0.008l0.249-1.852h0.834l0.329,3.139H21.232z M19.219,20.735h0.621v2.557h0.649v0.582h-1.271V20.735z M18.639,20.252
	v10.646c0,0,0.601-0.6,1.441-0.6h6.604V17.091h-3.563C23.121,17.091,22.001,20.572,18.639,20.252"/>
<path fill="#818181" d="M15.877,8.245V6.844h4.362v2.002h1.44v1.44h-1.4v0.64h1.4v1.562h-1.4v4.684h-1.201l-1.66-1.661l-1.521,1.52
	l-1.101-1.1l2.522-2.521l1.3,1.301V8.245H15.877 M13.635,15.81c0.801,4.242,4.763,4.003,4.763,4.003
	c4.123,0,4.523-3.964,4.523-3.964V5.483h-9.287V15.81z"/>
</svg>
