<?xml version="1.0" encoding="utf-8"?>
<!-- Generator: Adobe Illustrator 16.0.0, SVG Export Plug-In . SVG Version: 6.00 Build 0)  -->
<!DOCTYPE svg PUBLIC "-//W3C//DTD SVG 1.1//EN" "http://www.w3.org/Graphics/SVG/1.1/DTD/svg11.dtd">
<svg version="1.1" id="Layer_1" xmlns="http://www.w3.org/2000/svg" xmlns:xlink="http://www.w3.org/1999/xlink" x="0px" y="0px"
	 width="87.461px" height="37.837px" viewBox="0 0 87.461 37.837" enable-background="new 0 0 87.461 37.837" xml:space="preserve">
<path fill-rule="evenodd" clip-rule="evenodd" fill="#818181" d="M7.479,2.886c2.603,5.468-0.16,13.093-5.772,13.468
	C5.854,14.086,7.637,9.457,7.479,2.886"/>
<path fill-rule="evenodd" clip-rule="evenodd" fill="#818181" d="M14.213,0c-5.925,7.531-6.107,27.402-1.604,37.837
	C5.563,28.684,6.062,7.479,14.213,0"/>
<polygon fill="#818181" points="16.142,10.135 14.539,10.135 14.539,11.24 16.085,11.24 16.085,11.893 14.539,11.893 14.539,14.083 
	13.845,14.083 13.845,9.481 16.142,9.481 "/>
<path fill="#818181" d="M18.916,11.181h0.674v2.902h-0.674v-0.305c-0.276,0.259-0.573,0.388-0.891,0.388
	c-0.401,0-0.733-0.145-0.995-0.435c-0.26-0.296-0.391-0.666-0.391-1.109c0-0.435,0.131-0.797,0.391-1.087
	c0.26-0.29,0.586-0.435,0.977-0.435c0.338,0,0.641,0.139,0.909,0.417V11.181z M17.325,12.622c0,0.278,0.074,0.505,0.223,0.68
	c0.153,0.177,0.346,0.266,0.578,0.266c0.249,0,0.449-0.086,0.602-0.257c0.153-0.177,0.23-0.401,0.23-0.673
	c0-0.272-0.077-0.496-0.23-0.674c-0.153-0.173-0.351-0.259-0.595-0.259c-0.231,0-0.424,0.087-0.579,0.262
	C17.401,12.144,17.325,12.362,17.325,12.622"/>
<path fill="#818181" d="M22.695,11.306v0.891c-0.153-0.187-0.291-0.314-0.411-0.385c-0.12-0.071-0.26-0.106-0.421-0.106
	c-0.252,0-0.461,0.088-0.628,0.265s-0.25,0.398-0.25,0.665c0,0.271,0.08,0.495,0.241,0.67c0.162,0.175,0.37,0.263,0.622,0.263
	c0.161,0,0.304-0.034,0.427-0.104c0.119-0.067,0.259-0.198,0.42-0.394v0.885c-0.272,0.142-0.544,0.212-0.817,0.212
	c-0.449,0-0.824-0.145-1.126-0.435c-0.302-0.292-0.453-0.654-0.453-1.088s0.153-0.799,0.459-1.097s0.681-0.447,1.126-0.447
	C22.17,11.1,22.441,11.169,22.695,11.306"/>
<path fill="#818181" d="M24.015,11.181v1.665c0,0.481,0.19,0.722,0.569,0.722c0.38,0,0.57-0.24,0.57-0.722v-1.665h0.67v1.681
	c0,0.232-0.029,0.433-0.086,0.602c-0.056,0.151-0.153,0.287-0.289,0.408c-0.227,0.196-0.515,0.295-0.865,0.295
	c-0.347,0-0.634-0.099-0.861-0.295c-0.139-0.121-0.237-0.257-0.295-0.408c-0.056-0.135-0.083-0.336-0.083-0.602v-1.681H24.015z"/>
<rect x="26.67" y="9.05" fill="#818181" width="0.67" height="5.033"/>
<polygon fill="#818181" points="28.881,11.806 28.881,14.083 28.211,14.083 28.211,11.806 27.924,11.806 27.924,11.181 
	28.211,11.181 28.211,10.117 28.881,10.117 28.881,11.181 29.402,11.181 29.402,11.806 "/>
<path fill="#818181" d="M32.051,11.181h0.674v2.902h-0.674v-0.305c-0.276,0.259-0.573,0.388-0.891,0.388
	c-0.401,0-0.733-0.145-0.995-0.435c-0.26-0.296-0.391-0.666-0.391-1.109c0-0.435,0.131-0.797,0.391-1.087
	c0.26-0.29,0.586-0.435,0.978-0.435c0.337,0,0.64,0.139,0.908,0.417V11.181z M30.46,12.622c0,0.278,0.075,0.505,0.224,0.68
	c0.152,0.177,0.345,0.266,0.578,0.266c0.248,0,0.448-0.086,0.602-0.257c0.153-0.177,0.229-0.401,0.229-0.673
	c0-0.272-0.076-0.496-0.229-0.674c-0.154-0.173-0.352-0.259-0.596-0.259c-0.231,0-0.424,0.087-0.579,0.262
	C30.537,12.144,30.46,12.362,30.46,12.622"/>
<path fill="#818181" d="M35.71,9.05h0.674v5.033H35.71v-0.305c-0.264,0.259-0.563,0.388-0.897,0.388
	c-0.397,0-0.727-0.145-0.989-0.435c-0.26-0.296-0.391-0.666-0.391-1.109c0-0.433,0.131-0.794,0.391-1.084
	c0.258-0.292,0.583-0.438,0.974-0.438c0.34,0,0.644,0.139,0.912,0.417V9.05z M34.12,12.622c0,0.278,0.074,0.505,0.223,0.68
	c0.153,0.177,0.346,0.266,0.578,0.266c0.249,0,0.449-0.086,0.602-0.257c0.153-0.177,0.23-0.401,0.23-0.673
	c0-0.272-0.077-0.496-0.23-0.674c-0.153-0.173-0.351-0.259-0.595-0.259c-0.231,0-0.424,0.087-0.579,0.262
	C34.196,12.144,34.12,12.362,34.12,12.622"/>
<path fill="#818181" d="M15.855,16.373h0.674v5.033h-0.674v-0.304c-0.264,0.258-0.563,0.387-0.897,0.387
	c-0.397,0-0.727-0.145-0.989-0.435c-0.26-0.296-0.391-0.666-0.391-1.108c0-0.434,0.131-0.795,0.391-1.085
	c0.258-0.292,0.583-0.438,0.975-0.438c0.339,0,0.643,0.14,0.911,0.419V16.373z M14.265,19.946c0,0.278,0.075,0.504,0.224,0.679
	c0.152,0.177,0.345,0.266,0.578,0.266c0.248,0,0.448-0.085,0.602-0.256c0.153-0.178,0.229-0.401,0.229-0.674
	s-0.076-0.497-0.229-0.674c-0.154-0.173-0.352-0.259-0.596-0.259c-0.231,0-0.424,0.087-0.579,0.262
	C14.342,19.468,14.265,19.686,14.265,19.946"/>
<path fill="#818181" d="M20.019,20.112h-2.08c0.018,0.239,0.096,0.429,0.233,0.569c0.137,0.14,0.313,0.209,0.527,0.209
	c0.167,0,0.305-0.04,0.414-0.119c0.108-0.079,0.23-0.228,0.367-0.441l0.566,0.316c-0.088,0.147-0.18,0.276-0.277,0.383
	c-0.098,0.106-0.202,0.193-0.313,0.262s-0.231,0.119-0.36,0.15c-0.13,0.032-0.27,0.048-0.421,0.048
	c-0.433,0-0.781-0.139-1.043-0.417c-0.262-0.28-0.393-0.652-0.393-1.114c0-0.459,0.127-0.831,0.382-1.114
	c0.255-0.28,0.595-0.421,1.019-0.421c0.427,0,0.764,0.137,1.013,0.408c0.246,0.271,0.369,0.646,0.369,1.124L20.019,20.112z
	 M19.331,19.564c-0.094-0.357-0.319-0.536-0.677-0.536c-0.081,0-0.157,0.013-0.229,0.037c-0.072,0.024-0.136,0.061-0.195,0.107
	s-0.109,0.103-0.15,0.168c-0.042,0.065-0.074,0.141-0.096,0.224H19.331z"/>
<polygon fill="#818181" points="23.458,18.605 25.441,18.605 25.441,16.806 26.136,16.806 26.136,21.406 25.441,21.406 
	25.441,19.258 23.458,19.258 23.458,21.406 22.764,21.406 22.764,16.806 23.458,16.806 "/>
<path fill="#818181" d="M27.781,18.504v1.666c0,0.48,0.189,0.721,0.569,0.721c0.38,0,0.569-0.24,0.569-0.721v-1.666h0.671v1.681
	c0,0.232-0.029,0.433-0.087,0.602c-0.055,0.151-0.152,0.287-0.289,0.408c-0.226,0.196-0.514,0.295-0.864,0.295
	c-0.348,0-0.635-0.099-0.861-0.295c-0.139-0.121-0.237-0.257-0.295-0.408c-0.056-0.135-0.083-0.336-0.083-0.602v-1.681H27.781z"/>
<path fill="#818181" d="M30.437,18.504h0.67v0.268c0.129-0.135,0.24-0.227,0.331-0.273c0.097-0.05,0.22-0.075,0.367-0.075
	c0.327,0,0.587,0.144,0.778,0.43c0.21-0.286,0.495-0.43,0.854-0.43c0.654,0,0.981,0.396,0.981,1.189v1.794h-0.673v-1.612
	c0-0.278-0.035-0.475-0.102-0.59c-0.069-0.117-0.184-0.176-0.343-0.176c-0.184,0-0.319,0.069-0.404,0.208
	c-0.084,0.14-0.126,0.363-0.126,0.671v1.499h-0.673v-1.604c0-0.517-0.149-0.774-0.447-0.774c-0.189,0-0.327,0.07-0.413,0.212
	c-0.087,0.141-0.13,0.363-0.13,0.667v1.499h-0.67V18.504z"/>
<path fill="#818181" d="M37.403,18.504h0.674v2.902h-0.674v-0.304c-0.276,0.258-0.573,0.387-0.891,0.387
	c-0.401,0-0.733-0.145-0.995-0.435c-0.26-0.296-0.391-0.666-0.391-1.108c0-0.436,0.131-0.798,0.391-1.088
	c0.26-0.29,0.586-0.436,0.977-0.436c0.338,0,0.641,0.14,0.909,0.419V18.504z M35.812,19.946c0,0.278,0.074,0.504,0.223,0.679
	c0.153,0.177,0.346,0.266,0.578,0.266c0.249,0,0.449-0.085,0.602-0.256c0.153-0.178,0.23-0.401,0.23-0.674s-0.077-0.497-0.23-0.674
	c-0.153-0.173-0.351-0.259-0.595-0.259c-0.231,0-0.424,0.087-0.579,0.262C35.888,19.468,35.812,19.686,35.812,19.946"/>
<path fill="#818181" d="M38.923,18.504h0.673v0.268c0.235-0.232,0.499-0.349,0.793-0.349c0.338,0,0.601,0.106,0.789,0.319
	c0.163,0.181,0.245,0.476,0.245,0.885v1.779H40.75v-1.619c0-0.286-0.04-0.483-0.119-0.592c-0.078-0.111-0.219-0.167-0.424-0.167
	c-0.222,0-0.38,0.073-0.473,0.22c-0.092,0.146-0.138,0.398-0.138,0.759v1.399h-0.673V18.504z"/>
<path fill="#818181" d="M42.168,17.297c0-0.117,0.042-0.219,0.128-0.304c0.085-0.086,0.188-0.128,0.307-0.128
	c0.121,0,0.225,0.042,0.31,0.128c0.085,0.083,0.128,0.186,0.128,0.307s-0.043,0.225-0.128,0.31
	c-0.083,0.086-0.186,0.129-0.307,0.129s-0.225-0.043-0.31-0.129C42.21,17.524,42.168,17.42,42.168,17.297 M42.939,21.406h-0.67
	v-2.902h0.67V21.406z"/>
<path fill="#818181" d="M45.928,16.373h0.674v5.033h-0.674v-0.304c-0.264,0.258-0.563,0.387-0.896,0.387
	c-0.397,0-0.728-0.145-0.989-0.435c-0.261-0.296-0.391-0.666-0.391-1.108c0-0.434,0.13-0.795,0.391-1.085
	c0.258-0.292,0.583-0.438,0.974-0.438c0.34,0,0.645,0.14,0.912,0.419V16.373z M44.337,19.946c0,0.278,0.073,0.504,0.224,0.679
	c0.152,0.177,0.346,0.266,0.577,0.266c0.248,0,0.449-0.085,0.603-0.256c0.152-0.178,0.229-0.401,0.229-0.674
	s-0.077-0.497-0.229-0.674c-0.153-0.173-0.352-0.259-0.596-0.259c-0.23,0-0.424,0.087-0.578,0.262
	C44.414,19.468,44.337,19.686,44.337,19.946"/>
<path fill="#818181" d="M49.587,18.504h0.673v2.902h-0.673v-0.304c-0.276,0.258-0.573,0.387-0.891,0.387
	c-0.401,0-0.733-0.145-0.995-0.435c-0.262-0.296-0.391-0.666-0.391-1.108c0-0.436,0.129-0.798,0.391-1.088
	c0.26-0.29,0.586-0.436,0.979-0.436c0.336,0,0.64,0.14,0.907,0.419V18.504z M47.997,19.946c0,0.278,0.075,0.504,0.223,0.679
	c0.153,0.177,0.346,0.266,0.578,0.266c0.249,0,0.449-0.085,0.602-0.256c0.154-0.178,0.23-0.401,0.23-0.674s-0.076-0.497-0.23-0.674
	c-0.152-0.173-0.351-0.259-0.596-0.259c-0.229,0-0.423,0.087-0.578,0.262C48.073,19.468,47.997,19.686,47.997,19.946"/>
<path fill="#818181" d="M53.248,16.373h0.673v5.033h-0.673v-0.304c-0.265,0.258-0.563,0.387-0.897,0.387
	c-0.397,0-0.728-0.145-0.989-0.435c-0.261-0.296-0.39-0.666-0.39-1.108c0-0.434,0.129-0.795,0.39-1.085
	c0.258-0.292,0.583-0.438,0.974-0.438c0.34,0,0.645,0.14,0.913,0.419V16.373z M51.656,19.946c0,0.278,0.075,0.504,0.224,0.679
	c0.152,0.177,0.346,0.266,0.577,0.266c0.249,0,0.449-0.085,0.603-0.256c0.154-0.178,0.229-0.401,0.229-0.674
	s-0.075-0.497-0.229-0.674c-0.153-0.173-0.352-0.259-0.596-0.259c-0.23,0-0.424,0.087-0.578,0.262
	C51.732,19.468,51.656,19.686,51.656,19.946"/>
<path fill="#818181" d="M57.41,20.112h-2.08c0.019,0.239,0.097,0.429,0.231,0.569c0.139,0.14,0.313,0.209,0.529,0.209
	c0.166,0,0.305-0.04,0.413-0.119c0.107-0.079,0.229-0.228,0.366-0.441l0.566,0.316c-0.088,0.147-0.18,0.276-0.276,0.383
	s-0.202,0.193-0.313,0.262c-0.11,0.068-0.23,0.119-0.36,0.15c-0.13,0.032-0.269,0.048-0.42,0.048c-0.433,0-0.78-0.139-1.044-0.417
	c-0.262-0.28-0.393-0.652-0.393-1.114c0-0.459,0.127-0.831,0.381-1.114c0.256-0.28,0.598-0.421,1.02-0.421
	c0.428,0,0.765,0.137,1.013,0.408c0.247,0.271,0.37,0.646,0.37,1.124L57.41,20.112z M56.721,19.564
	c-0.093-0.357-0.318-0.536-0.677-0.536c-0.081,0-0.157,0.013-0.229,0.037c-0.072,0.024-0.136,0.061-0.196,0.107
	c-0.059,0.047-0.107,0.103-0.148,0.168c-0.043,0.065-0.074,0.141-0.097,0.224H56.721z"/>
<path fill="#818181" d="M59.83,18.998l-0.554,0.295c-0.088-0.177-0.196-0.265-0.325-0.265c-0.062,0-0.114,0.021-0.158,0.061
	c-0.044,0.041-0.065,0.093-0.065,0.156c0,0.111,0.129,0.222,0.388,0.331c0.354,0.152,0.594,0.293,0.718,0.422
	c0.123,0.13,0.184,0.303,0.184,0.521c0,0.28-0.103,0.515-0.309,0.703c-0.201,0.179-0.443,0.268-0.727,0.268
	c-0.487,0-0.832-0.237-1.035-0.712l0.572-0.265c0.08,0.139,0.141,0.227,0.183,0.265c0.081,0.074,0.178,0.113,0.292,0.113
	c0.227,0,0.339-0.104,0.339-0.311c0-0.118-0.087-0.23-0.263-0.333c-0.067-0.034-0.135-0.066-0.201-0.099
	c-0.068-0.031-0.137-0.064-0.206-0.099c-0.195-0.095-0.332-0.19-0.412-0.285c-0.101-0.121-0.151-0.277-0.151-0.469
	c0-0.252,0.086-0.461,0.26-0.625c0.177-0.165,0.391-0.248,0.643-0.248C59.373,18.423,59.649,18.615,59.83,18.998"/>
<polygon fill="#818181" points="14.631,28.189 13.326,25.826 14.104,25.826 14.991,27.496 15.82,25.826 16.577,25.826 
	14.264,30.309 13.5,30.309 "/>
<path fill="#818181" d="M22.444,24.374v0.821c-0.401-0.336-0.816-0.504-1.246-0.504c-0.472,0-0.871,0.17-1.194,0.51
	c-0.326,0.338-0.489,0.751-0.489,1.239c0,0.483,0.163,0.891,0.489,1.222c0.325,0.332,0.725,0.498,1.197,0.498
	c0.245,0,0.452-0.04,0.623-0.119c0.096-0.04,0.194-0.094,0.297-0.161c0.102-0.067,0.21-0.149,0.323-0.244v0.839
	c-0.397,0.226-0.814,0.338-1.251,0.338c-0.658,0-1.219-0.229-1.684-0.688c-0.463-0.463-0.694-1.021-0.694-1.675
	c0-0.586,0.193-1.108,0.581-1.567c0.477-0.562,1.093-0.843,1.85-0.843C21.659,24.039,22.06,24.15,22.444,24.374"/>
<path fill="#818181" d="M23.091,24.62c0-0.117,0.043-0.219,0.128-0.304c0.086-0.086,0.188-0.129,0.307-0.129
	c0.121,0,0.225,0.043,0.31,0.129c0.085,0.083,0.128,0.186,0.128,0.307s-0.043,0.225-0.128,0.311
	c-0.084,0.085-0.186,0.127-0.307,0.127s-0.224-0.042-0.31-0.127C23.134,24.848,23.091,24.743,23.091,24.62 M23.863,28.729h-0.67
	v-2.903h0.67V28.729z"/>
<path fill="#818181" d="M27.355,27.436h-2.08c0.018,0.239,0.096,0.429,0.233,0.569c0.137,0.139,0.312,0.209,0.527,0.209
	c0.167,0,0.305-0.04,0.414-0.119c0.108-0.08,0.23-0.227,0.367-0.441l0.566,0.316c-0.088,0.148-0.18,0.276-0.277,0.383
	c-0.098,0.105-0.202,0.193-0.313,0.262s-0.231,0.119-0.361,0.15c-0.129,0.032-0.269,0.048-0.42,0.048
	c-0.433,0-0.781-0.139-1.043-0.417c-0.262-0.28-0.393-0.651-0.393-1.114c0-0.459,0.127-0.83,0.382-1.115
	c0.255-0.279,0.595-0.42,1.019-0.42c0.426,0,0.764,0.137,1.013,0.408c0.246,0.271,0.369,0.646,0.369,1.124L27.355,27.436z
	 M26.667,26.888c-0.094-0.357-0.319-0.536-0.677-0.536c-0.081,0-0.157,0.012-0.229,0.037c-0.072,0.024-0.137,0.062-0.195,0.107
	c-0.059,0.046-0.109,0.103-0.151,0.168c-0.041,0.065-0.073,0.14-0.095,0.224H26.667z"/>
<path fill="#818181" d="M28.088,25.826h0.673v0.27c0.235-0.233,0.499-0.35,0.793-0.35c0.338,0,0.601,0.106,0.789,0.319
	c0.163,0.181,0.245,0.476,0.245,0.885v1.779h-0.674V27.11c0-0.286-0.039-0.483-0.119-0.593c-0.077-0.11-0.218-0.166-0.423-0.166
	c-0.222,0-0.38,0.073-0.473,0.22c-0.092,0.146-0.138,0.399-0.138,0.759v1.399h-0.673V25.826z"/>
<path fill="#818181" d="M33.693,25.952v0.891c-0.153-0.187-0.29-0.314-0.411-0.385c-0.119-0.071-0.259-0.106-0.421-0.106
	c-0.251,0-0.461,0.088-0.628,0.265s-0.25,0.397-0.25,0.665c0,0.272,0.08,0.495,0.241,0.67c0.163,0.175,0.37,0.263,0.623,0.263
	c0.16,0,0.303-0.035,0.426-0.104c0.119-0.067,0.259-0.198,0.42-0.394v0.886c-0.272,0.141-0.544,0.211-0.816,0.211
	c-0.45,0-0.825-0.146-1.127-0.435c-0.302-0.292-0.453-0.655-0.453-1.088s0.153-0.799,0.459-1.097s0.682-0.447,1.126-0.447
	C33.169,25.746,33.439,25.814,33.693,25.952"/>
<path fill="#818181" d="M34.242,24.62c0-0.117,0.042-0.219,0.128-0.304c0.085-0.086,0.188-0.129,0.307-0.129
	c0.121,0,0.224,0.043,0.309,0.129c0.086,0.083,0.129,0.186,0.129,0.307s-0.043,0.225-0.129,0.311
	c-0.083,0.085-0.185,0.127-0.306,0.127c-0.121,0-0.225-0.042-0.31-0.127C34.284,24.848,34.242,24.743,34.242,24.62 M35.013,28.729
	h-0.67v-2.903h0.67V28.729z"/>
<path fill="#818181" d="M38.001,25.826h0.674v2.903h-0.674v-0.305c-0.276,0.259-0.572,0.388-0.891,0.388
	c-0.401,0-0.733-0.146-0.995-0.435c-0.26-0.298-0.39-0.666-0.39-1.109c0-0.435,0.13-0.797,0.39-1.087
	c0.26-0.29,0.586-0.436,0.978-0.436c0.337,0,0.64,0.14,0.908,0.417V25.826z M36.411,27.269c0,0.278,0.075,0.505,0.224,0.68
	c0.152,0.177,0.345,0.266,0.578,0.266c0.248,0,0.448-0.086,0.602-0.258c0.153-0.176,0.229-0.4,0.229-0.672
	c0-0.272-0.076-0.497-0.229-0.674c-0.154-0.173-0.352-0.259-0.596-0.259c-0.231,0-0.424,0.087-0.579,0.262
	C36.488,26.789,36.411,27.009,36.411,27.269"/>
<path fill="#818181" d="M41.208,26.321l-0.554,0.295c-0.088-0.177-0.196-0.265-0.325-0.265c-0.062,0-0.114,0.021-0.158,0.061
	c-0.044,0.041-0.066,0.093-0.066,0.156c0,0.111,0.129,0.222,0.388,0.33c0.355,0.153,0.595,0.294,0.718,0.423
	s0.184,0.303,0.184,0.521c0,0.279-0.103,0.514-0.309,0.702c-0.201,0.179-0.443,0.268-0.727,0.268c-0.487,0-0.832-0.237-1.034-0.712
	l0.572-0.266c0.079,0.14,0.14,0.228,0.182,0.266c0.081,0.075,0.178,0.113,0.292,0.113c0.226,0,0.339-0.104,0.339-0.311
	c0-0.119-0.087-0.23-0.262-0.333c-0.068-0.034-0.135-0.066-0.202-0.099c-0.068-0.032-0.137-0.064-0.206-0.099
	c-0.195-0.095-0.332-0.19-0.412-0.286c-0.101-0.12-0.151-0.277-0.151-0.468c0-0.252,0.086-0.461,0.259-0.626
	c0.177-0.164,0.391-0.247,0.643-0.247C40.751,25.746,41.027,25.938,41.208,26.321"/>
<path fill="#818181" d="M46.02,23.696h0.675v5.033H46.02v-0.305c-0.264,0.259-0.563,0.388-0.896,0.388
	c-0.396,0-0.727-0.146-0.989-0.435c-0.26-0.298-0.391-0.666-0.391-1.109c0-0.433,0.131-0.794,0.391-1.084
	c0.258-0.292,0.583-0.438,0.974-0.438c0.34,0,0.644,0.14,0.911,0.417V23.696z M44.43,27.269c0,0.278,0.073,0.505,0.223,0.68
	c0.152,0.177,0.346,0.266,0.578,0.266c0.248,0,0.449-0.086,0.602-0.258c0.153-0.176,0.23-0.4,0.23-0.672
	c0-0.272-0.077-0.497-0.23-0.674c-0.152-0.173-0.352-0.259-0.596-0.259c-0.23,0-0.424,0.087-0.578,0.262
	C44.506,26.789,44.43,27.009,44.43,27.269"/>
<path fill="#818181" d="M50.183,27.436h-2.08c0.019,0.239,0.097,0.429,0.233,0.569c0.137,0.139,0.312,0.209,0.527,0.209
	c0.166,0,0.305-0.04,0.414-0.119c0.107-0.08,0.229-0.227,0.366-0.441l0.565,0.316c-0.086,0.148-0.18,0.276-0.276,0.383
	c-0.097,0.105-0.202,0.193-0.313,0.262c-0.11,0.068-0.23,0.119-0.36,0.15c-0.13,0.032-0.269,0.048-0.421,0.048
	c-0.432,0-0.779-0.139-1.043-0.417c-0.26-0.28-0.391-0.651-0.391-1.114c0-0.459,0.125-0.83,0.381-1.115
	c0.256-0.279,0.596-0.42,1.019-0.42c0.426,0,0.765,0.137,1.013,0.408c0.246,0.271,0.37,0.646,0.37,1.124L50.183,27.436z
	 M49.495,26.888c-0.093-0.357-0.318-0.536-0.676-0.536c-0.082,0-0.158,0.012-0.23,0.037c-0.071,0.024-0.135,0.062-0.194,0.107
	s-0.108,0.103-0.149,0.168c-0.043,0.065-0.074,0.14-0.097,0.224H49.495z"/>
<rect x="52.799" y="23.696" fill="#818181" width="0.672" height="5.033"/>
<path fill="#818181" d="M56.459,25.826h0.674v2.903h-0.674v-0.305c-0.277,0.259-0.574,0.388-0.891,0.388
	c-0.402,0-0.733-0.146-0.996-0.435c-0.26-0.298-0.391-0.666-0.391-1.109c0-0.435,0.131-0.797,0.391-1.087s0.587-0.436,0.979-0.436
	c0.338,0,0.64,0.14,0.908,0.417V25.826z M54.868,27.269c0,0.278,0.075,0.505,0.225,0.68c0.152,0.177,0.344,0.266,0.577,0.266
	c0.248,0,0.448-0.086,0.603-0.258c0.152-0.176,0.229-0.4,0.229-0.672c0-0.272-0.076-0.497-0.229-0.674
	c-0.154-0.173-0.353-0.259-0.596-0.259c-0.231,0-0.424,0.087-0.578,0.262C54.945,26.789,54.868,27.009,54.868,27.269"/>
<polygon fill="#818181" points="62.53,24.781 60.685,24.781 60.685,25.886 62.475,25.886 62.475,26.539 60.685,26.539 
	60.685,28.077 62.53,28.077 62.53,28.729 59.991,28.729 59.991,24.128 62.53,24.128 "/>
<path fill="#818181" d="M65.452,23.696h0.674v5.033h-0.674v-0.305c-0.264,0.259-0.563,0.388-0.896,0.388
	c-0.396,0-0.727-0.146-0.988-0.435c-0.262-0.298-0.392-0.666-0.392-1.109c0-0.433,0.13-0.794,0.392-1.084
	c0.258-0.292,0.582-0.438,0.974-0.438c0.34,0,0.644,0.14,0.911,0.417V23.696z M63.862,27.269c0,0.278,0.074,0.505,0.223,0.68
	c0.152,0.177,0.346,0.266,0.578,0.266c0.248,0,0.449-0.086,0.602-0.258c0.153-0.176,0.229-0.4,0.229-0.672
	c0-0.272-0.075-0.497-0.229-0.674c-0.152-0.173-0.352-0.259-0.596-0.259c-0.23,0-0.424,0.087-0.578,0.262
	C63.938,26.789,63.862,27.009,63.862,27.269"/>
<path fill="#818181" d="M67.643,25.826v1.666c0,0.481,0.188,0.722,0.568,0.722s0.57-0.24,0.57-0.722v-1.666h0.67v1.682
	c0,0.232-0.029,0.433-0.087,0.602c-0.056,0.151-0.152,0.287-0.289,0.408c-0.226,0.196-0.515,0.295-0.864,0.295
	c-0.347,0-0.634-0.099-0.861-0.295c-0.139-0.121-0.237-0.257-0.295-0.408c-0.056-0.135-0.082-0.336-0.082-0.602v-1.682H67.643z"/>
<path fill="#818181" d="M72.556,25.952v0.891c-0.151-0.187-0.29-0.314-0.411-0.385c-0.119-0.071-0.259-0.106-0.42-0.106
	c-0.252,0-0.462,0.088-0.629,0.265s-0.25,0.397-0.25,0.665c0,0.272,0.081,0.495,0.241,0.67c0.163,0.175,0.37,0.263,0.622,0.263
	c0.16,0,0.304-0.035,0.427-0.104c0.119-0.067,0.259-0.198,0.42-0.394v0.886c-0.272,0.141-0.544,0.211-0.815,0.211
	c-0.449,0-0.826-0.146-1.127-0.435c-0.303-0.292-0.453-0.655-0.453-1.088s0.152-0.799,0.459-1.097
	c0.306-0.298,0.682-0.447,1.125-0.447C72.032,25.746,72.302,25.814,72.556,25.952"/>
<path fill="#818181" d="M75.345,25.826h0.673v2.903h-0.673v-0.305c-0.276,0.259-0.573,0.388-0.891,0.388
	c-0.402,0-0.733-0.146-0.995-0.435c-0.262-0.298-0.391-0.666-0.391-1.109c0-0.435,0.129-0.797,0.391-1.087
	c0.26-0.29,0.586-0.436,0.977-0.436c0.338,0,0.641,0.14,0.909,0.417V25.826z M73.754,27.269c0,0.278,0.074,0.505,0.223,0.68
	c0.153,0.177,0.346,0.266,0.578,0.266c0.248,0,0.449-0.086,0.602-0.258c0.154-0.176,0.229-0.4,0.229-0.672
	c0-0.272-0.075-0.497-0.229-0.674c-0.152-0.173-0.352-0.259-0.596-0.259c-0.229,0-0.423,0.087-0.578,0.262
	C73.831,26.789,73.754,27.009,73.754,27.269"/>
<path fill="#818181" d="M79.124,25.952v0.891c-0.152-0.187-0.289-0.314-0.41-0.385c-0.119-0.071-0.26-0.106-0.422-0.106
	c-0.25,0-0.461,0.088-0.627,0.265c-0.168,0.177-0.25,0.397-0.25,0.665c0,0.272,0.08,0.495,0.24,0.67
	c0.162,0.175,0.37,0.263,0.622,0.263c0.162,0,0.304-0.035,0.427-0.104c0.119-0.067,0.26-0.198,0.42-0.394v0.886
	c-0.271,0.141-0.543,0.211-0.815,0.211c-0.45,0-0.825-0.146-1.127-0.435c-0.302-0.292-0.453-0.655-0.453-1.088
	s0.153-0.799,0.459-1.097s0.681-0.447,1.126-0.447C78.599,25.746,78.87,25.814,79.124,25.952"/>
<path fill="#818181" d="M79.672,24.62c0-0.117,0.041-0.219,0.127-0.304c0.086-0.086,0.188-0.129,0.308-0.129
	c0.122,0,0.226,0.043,0.31,0.129c0.086,0.083,0.129,0.186,0.129,0.307s-0.043,0.225-0.129,0.311
	c-0.082,0.085-0.186,0.127-0.307,0.127s-0.225-0.042-0.311-0.127C79.713,24.848,79.672,24.743,79.672,24.62 M80.444,28.729h-0.67
	v-2.903h0.67V28.729z"/>
<path fill="#818181" d="M81.156,27.257c0-0.419,0.15-0.775,0.45-1.069s0.666-0.441,1.098-0.441s0.799,0.148,1.102,0.444
	c0.298,0.296,0.447,0.659,0.447,1.091c0,0.435-0.15,0.799-0.451,1.094c-0.301,0.293-0.672,0.438-1.111,0.438
	c-0.436,0-0.799-0.148-1.093-0.447C81.303,28.071,81.156,27.702,81.156,27.257 M81.84,27.269c0,0.291,0.078,0.521,0.232,0.688
	c0.159,0.171,0.369,0.257,0.631,0.257c0.26,0,0.471-0.085,0.627-0.254c0.157-0.168,0.236-0.394,0.236-0.676
	s-0.079-0.508-0.236-0.677c-0.158-0.171-0.367-0.256-0.627-0.256c-0.258,0-0.466,0.085-0.623,0.256
	C81.92,26.778,81.84,27,81.84,27.269 M83.709,24.396l-1.084,0.983l-0.367-0.227l0.82-1.085L83.709,24.396z"/>
<path fill="#818181" d="M84.961,25.826h0.673v0.27c0.234-0.233,0.499-0.35,0.793-0.35c0.337,0,0.601,0.106,0.789,0.319
	c0.163,0.181,0.245,0.476,0.245,0.885v1.779h-0.674V27.11c0-0.286-0.039-0.483-0.119-0.593c-0.077-0.11-0.219-0.166-0.423-0.166
	c-0.222,0-0.38,0.073-0.474,0.22c-0.092,0.146-0.138,0.399-0.138,0.759v1.399h-0.673V25.826z"/>
<path fill-rule="evenodd" clip-rule="evenodd" fill="#818181" d="M3.307,14.429c-1.097,0.811-2.459,0.828-3.043,0.038
	c-0.583-0.789-0.168-2.086,0.928-2.897c1.097-0.811,2.459-0.829,3.043-0.039S4.403,13.617,3.307,14.429"/>
</svg>
