<?xml version="1.0" encoding="utf-8"?>
<!-- Generator: Adobe Illustrator 16.0.0, SVG Export Plug-In . SVG Version: 6.00 Build 0)  -->
<!DOCTYPE svg PUBLIC "-//W3C//DTD SVG 1.1//EN" "http://www.w3.org/Graphics/SVG/1.1/DTD/svg11.dtd">
<svg version="1.1" id="Layer_1" xmlns="http://www.w3.org/2000/svg" xmlns:xlink="http://www.w3.org/1999/xlink" x="0px" y="0px"
	 width="87.461px" height="46.116px" viewBox="0 0 87.461 46.116" enable-background="new 0 0 87.461 46.116" xml:space="preserve">
<path fill="#818181" d="M69.757,26.023c-0.965,0.594-2,0.755-3.089,0.495c-1.856-0.442-3.17-2.282-2.97-4.134
	c0.22-2.025,1.811-3.561,3.74-3.609c2.059-0.051,3.752,1.316,4.055,3.279c0.128,0.831,0.037,1.667,0.044,2.5
	c0.007,0.737,0.071,1.479-0.043,2.214c-0.229,1.483-1.492,2.759-3.048,3.098c-1.505,0.328-3.149-0.324-3.987-1.568
	c-0.109-0.163-0.085-0.234,0.066-0.33c0.312-0.198,0.622-0.399,0.918-0.62c0.219-0.165,0.37-0.117,0.553,0.064
	c0.557,0.553,1.198,0.896,2.021,0.76C69.056,28.001,69.903,26.973,69.757,26.023"/>
<path fill="#818181" d="M27.32,20.121c1.145-1.604,3.263-1.637,4.47-0.766c0.699,0.504,1.118,1.171,1.124,2.048
	c0.011,1.587,0,3.174,0.008,4.761c0.002,0.225-0.075,0.286-0.289,0.278c-0.417-0.015-0.836-0.02-1.252,0.002
	c-0.247,0.012-0.294-0.078-0.292-0.304c0.01-1.361,0.014-2.722,0.002-4.082c-0.011-1.217-1.195-1.937-2.233-1.361
	c-0.558,0.31-0.77,0.822-0.771,1.436c-0.003,1.313-0.011,2.625,0.006,3.938c0.003,0.292-0.063,0.397-0.368,0.375
	c-0.392-0.028-0.788-0.024-1.18-0.001c-0.269,0.016-0.343-0.063-0.34-0.334c0.015-1.324,0.012-2.649,0.006-3.974
	c-0.004-0.813-0.404-1.376-1.098-1.572c-0.968-0.274-1.89,0.406-1.896,1.414c-0.007,1.373-0.01,2.746,0.006,4.117
	c0.003,0.288-0.08,0.365-0.357,0.349c-0.393-0.023-0.787-0.021-1.181-0.001c-0.244,0.013-0.299-0.078-0.298-0.307
	c0.007-2.255,0.009-4.511,0-6.766c-0.001-0.325,0.116-0.441,0.441-0.435c0.493,0.009,0.949,0.051,1.246,0.53
	c0.103,0.166,0.191-0.021,0.262-0.075c0.738-0.579,1.558-0.751,2.456-0.491C26.459,19.094,26.962,19.517,27.32,20.121"/>
<path fill="#818181" d="M40.034,25.667c-1.424,1.121-2.91,1.175-4.425,0.408c-1.112-0.563-1.698-1.559-1.839-2.773
	c-0.187-1.611,0.232-3,1.661-3.952c1.171-0.78,3.399-0.842,4.441,0.227c0.121,0.124,0.174,0.058,0.234-0.047
	c0.297-0.517,0.772-0.626,1.318-0.589c0.248,0.017,0.354,0.123,0.354,0.383c-0.007,2.278-0.007,4.556,0,6.834
	c0.001,0.213-0.048,0.296-0.276,0.285c-0.381-0.019-0.765-0.024-1.145,0.001c-0.279,0.02-0.363-0.08-0.328-0.341
	C40.047,25.976,40.034,25.845,40.034,25.667"/>
<path fill="#818181" d="M76.89,23.43c-0.859,0-1.719,0.007-2.577-0.005c-0.245-0.003-0.294,0.066-0.191,0.284
	c0.366,0.772,0.986,1.181,1.825,1.229c0.695,0.041,1.356-0.123,1.922-0.543c0.303-0.226,0.505-0.179,0.715,0.106
	c0.134,0.182,0.28,0.361,0.45,0.508c0.274,0.239,0.236,0.398-0.037,0.625c-1.559,1.288-4.13,1.335-5.514,0.071
	c-0.679-0.62-1.044-1.416-1.172-2.313c-0.19-1.325,0.04-2.549,1.018-3.536c1.059-1.069,2.349-1.306,3.76-0.928
	c1.381,0.369,2.202,1.31,2.547,2.678c0.125,0.499,0.154,1.012,0.147,1.526c-0.003,0.222-0.075,0.308-0.317,0.303
	C78.608,23.42,77.749,23.43,76.89,23.43"/>
<path fill="#818181" d="M59.108,18.775c2.175,0.004,3.931,1.765,3.924,3.936c-0.007,2.194-1.759,3.919-3.977,3.916
	c-2.175-0.002-3.902-1.755-3.899-3.952C55.16,20.503,56.914,18.772,59.108,18.775"/>
<path fill="#818181" d="M82.474,19.571c1.356-1.029,2.838-1.032,4.017-0.02c0.69,0.595,0.942,1.396,0.958,2.268
	c0.025,1.442,0.004,2.886,0.011,4.329c0.001,0.193-0.039,0.277-0.253,0.269c-0.428-0.016-0.857-0.019-1.287,0.001
	c-0.238,0.011-0.271-0.088-0.27-0.292c0.008-1.348,0.014-2.695,0.001-4.043c-0.013-1.278-1.274-1.988-2.384-1.352
	c-0.54,0.31-0.752,0.804-0.752,1.406c-0.002,1.3-0.015,2.601,0.009,3.899c0.006,0.33-0.098,0.401-0.398,0.382
	c-0.392-0.025-0.787-0.014-1.18-0.004c-0.168,0.004-0.227-0.046-0.226-0.222c0.006-2.29,0.006-4.58,0.002-6.87
	c-0.002-0.265,0.117-0.367,0.368-0.355c0.144,0.006,0.287,0.009,0.43,0C81.98,18.935,82.308,19.111,82.474,19.571"/>
<path fill="#818181" d="M46.498,26.626c-1.735-0.003-3.258-1.146-3.756-2.821c-0.494-1.662,0.169-3.45,1.633-4.407
	c1.436-0.937,3.349-0.819,4.663,0.284c0.298,0.249,0.303,0.335,0.03,0.591c-0.104,0.1-0.21,0.195-0.314,0.291
	c-0.202,0.187-0.377,0.436-0.614,0.539c-0.284,0.123-0.445-0.229-0.681-0.338c-0.888-0.41-1.926-0.212-2.57,0.531
	c-0.641,0.735-0.698,1.812-0.142,2.616c0.565,0.817,1.605,1.139,2.568,0.79c0.237-0.085,0.461-0.198,0.652-0.363
	c0.196-0.172,0.348-0.143,0.512,0.052c0.238,0.282,0.484,0.56,0.747,0.819c0.156,0.154,0.112,0.236-0.029,0.365
	C48.429,26.271,47.53,26.616,46.498,26.626"/>
<path fill="#818181" d="M8.908,39.19c0.579,1.425,1.23,2.813,2.112,4.079c0.346,0.499,0.72,0.979,1.081,1.468
	c0.071,0.097,0.15,0.188,0.209,0.29c0.311,0.536,0.072,1.031-0.546,1.077c-0.801,0.061-1.564-0.112-2.278-0.482
	c-0.839-0.434-1.473-1.086-1.967-1.88c-0.822-1.321-1.439-2.735-1.913-4.216c-0.017-0.055-0.01-0.117-0.013-0.177
	c-0.004-0.155,0.123-0.172,0.22-0.174C6.845,39.157,7.877,39.116,8.908,39.19"/>
<path fill="#818181" d="M50.143,22.748c0-1.121,0.01-2.241-0.006-3.361c-0.005-0.331,0.121-0.446,0.436-0.448
	c0.45-0.004,0.854,0.095,1.156,0.449c0.099,0.115,0.157,0.116,0.287,0.031c1.141-0.746,2.315-0.755,3.517-0.142
	c0.22,0.112,0.236,0.206,0.083,0.396c-0.256,0.313-0.495,0.642-0.723,0.977c-0.116,0.173-0.21,0.189-0.401,0.098
	c-0.396-0.191-0.828-0.218-1.26-0.159c-0.791,0.106-1.275,0.624-1.293,1.455c-0.028,1.347-0.021,2.694-0.011,4.041
	c0.002,0.271-0.054,0.383-0.351,0.361c-0.379-0.028-0.763-0.021-1.143-0.002c-0.237,0.012-0.3-0.064-0.297-0.299
	C50.15,25.012,50.143,23.879,50.143,22.748"/>
<path fill="#818181" d="M15.689,38.336c0.727-0.995,1.582-1.875,2.427-2.765c0.123-0.129,0.244-0.259,0.366-0.388
	c0.104-0.028,0.209-0.046,0.317-0.045c1.277,0.009,2.554-0.004,3.83,0.009c0.169,0.002,0.397-0.063,0.455,0.209
	c-0.39,0.522-0.883,0.932-1.411,1.31c-0.83,0.596-1.646,1.212-2.467,1.818c-0.992-0.069-1.986-0.017-2.979-0.035
	C16.043,38.446,15.845,38.486,15.689,38.336"/>
<path fill="#818181" d="M5.375,38.498c-0.293-1.108-0.414-2.237-0.409-3.382c0.068-0.074,0.159-0.103,0.256-0.104
	c0.859-0.002,1.721-0.05,2.58,0.026c0.311,0.145,0.224,0.455,0.289,0.698c0.001,0.053,0.076,0.008,0.031,0.021
	c-0.047-0.326,0.052-0.592,0.331-0.781c0.487,0.051,0.991-0.064,1.462,0.146c-0.473,0.888-0.898,1.795-1.202,2.757
	c-0.056,0.177-0.031,0.354-0.055,0.528c-0.172,0.078-0.353,0.036-0.531,0.041C7.209,38.473,6.291,38.396,5.375,38.498"/>
<path fill="#818181" d="M18.199,39.326c-1.387,1.313-2.666,2.725-3.812,4.254c-0.128,0.172-0.262,0.342-0.442,0.463
	c-0.34,0.227-0.626,0.144-0.759-0.242c-0.19-0.556-0.126-1.113,0.095-1.641c0.447-1.07,1.056-2.048,1.763-2.966
	c0.554-0.087,1.111-0.02,1.666-0.035c0.367-0.011,0.735-0.012,1.102,0.003C17.954,39.167,18.13,39.128,18.199,39.326"/>
<path fill="#818181" d="M9.255,24.026c-0.306,0.989-0.647,1.969-0.871,2.981c-0.013,0.057-0.042,0.108-0.064,0.162
	c-0.51-0.065-1.023-0.029-1.535-0.04c-0.142-0.002-0.286,0.008-0.422-0.052c-0.152-0.131-0.039-0.26,0.011-0.383
	c0.208-0.52,0.469-1.015,0.716-1.517c0.148-0.302,0.137-0.346-0.203-0.377c-0.79-0.074-1.575-0.257-2.377-0.139
	c-0.12,0.018-0.237,0.002-0.348-0.057c-0.133-0.077-0.276-0.058-0.419-0.056c-1.047,0.015-2.093,0.008-3.14,0.006
	c-0.187-0.001-0.386,0.037-0.54-0.117c0.017-0.235,0.083-0.453,0.235-0.639c0.082-0.05,0.166-0.101,0.265-0.102
	c0.867-0.005,1.735-0.051,2.603,0.022c0.023,0.008,0.045,0.015,0.068,0.022c0.196,0.103,0.396,0.01,0.596,0.011
	c1.631,0.005,3.264-0.002,4.895,0.009C8.928,23.764,9.204,23.687,9.255,24.026"/>
<path fill="#818181" d="M8.25,27.803c2.323,0.335,4.638,0.713,6.893,1.387c0.021,0.006,0.038,0.026,0.057,0.041
	c-0.074,0.26-0.298,0.189-0.468,0.191c-1.07,0.011-2.142,0.007-3.213,0.003c-0.146-0.001-0.283,0.012-0.415,0.073
	c-0.4,0.053-0.766-0.122-1.145-0.197c-0.476-0.094-0.953-0.179-1.429-0.269c-0.273-0.053-0.472-0.035-0.487,0.309
	c-0.005,0.104-0.042,0.216-0.189,0.21c-0.577-0.109-1.16-0.031-1.74-0.056c-0.177-0.008-0.36,0.024-0.51-0.109
	c0.028-0.151,0.033-0.312,0.09-0.451c0.117-0.294-0.026-0.36-0.277-0.412c-0.688-0.14-1.38-0.264-2.039-0.518
	c-0.063-0.135,0.041-0.168,0.128-0.2c0.114-0.041,0.235-0.037,0.354-0.037c1.357-0.003,2.716,0.002,4.072-0.003
	C8.041,27.764,8.146,27.771,8.25,27.803"/>
<path fill="#818181" d="M18.642,30.572c1.258,0.599,2.441,1.31,3.472,2.258c0.093,0.086,0.205,0.151,0.308,0.228
	c-0.062,0.204-0.246,0.218-0.404,0.223c-0.985,0.031-1.973,0.018-2.959,0.01c-0.109-0.001-0.209-0.039-0.299-0.102
	c-1.054-0.982-2.291-1.669-3.607-2.226c-0.107-0.045-0.21-0.1-0.314-0.149c0.084-0.226,0.287-0.173,0.451-0.175
	c0.882-0.01,1.764-0.001,2.646-0.007C18.171,30.63,18.413,30.655,18.642,30.572"/>
<path fill="#818181" d="M18.759,33.188c1.029-0.002,2.058-0.006,3.086-0.005c0.204,0.001,0.399-0.017,0.577-0.126
	c0.319,0.231,0.573,0.521,0.751,0.872c0.248,0.49,0.242,0.971-0.089,1.427c-0.103-0.151-0.259-0.095-0.395-0.095
	c-1.253-0.004-2.505-0.003-3.758-0.002c-0.155,0-0.311,0.012-0.451-0.075c0.097-0.162,0.198-0.32,0.288-0.485
	C19.042,34.194,19.07,33.689,18.759,33.188"/>
<path fill="#818181" d="M14.468,7.896c-0.037,0.589-0.167,1.24-0.521,1.823c-0.334,0.551-0.757,0.571-1.103,0.025
	c-0.625-0.99-0.897-2.091-0.89-3.257c0.002-0.384,0.123-0.754,0.515-0.909c0.402-0.158,0.8-0.074,1.144,0.194
	c0.349,0.272,0.568,0.641,0.702,1.055C14.417,7.145,14.472,7.475,14.468,7.896"/>
<path fill="#818181" d="M9.094,3.169c0.248-0.989,0.69-1.896,1.195-2.771C10.553-0.063,11-0.12,11.417,0.208
	c0.415,0.325,0.763,0.72,0.99,1.2c0.314,0.66,0.035,1.251-0.242,1.837c-0.108,0.084-0.233,0.112-0.367,0.112
	c-0.771,0.005-1.54,0.01-2.311-0.004C9.334,3.351,9.174,3.34,9.094,3.169"/>
<path fill="#818181" d="M0.062,24.439c1.271,0.002,2.541,0.001,3.812,0.009C4,24.449,4.17,24.366,4.237,24.569
	c-0.073,0.123-0.206,0.101-0.317,0.129c-0.219,0.056-0.448,0.056-0.669,0.107c-0.522,0.124-0.626,0.332-0.359,0.811
	c0.308,0.55,0.795,0.904,1.362,1.155c0.131,0.058,0.269,0.1,0.391,0.174c0.09,0.055,0.155,0.12,0.059,0.227
	c-0.166,0.128-0.362,0.099-0.55,0.104c-0.809,0.021-1.618-0.042-2.426,0.042c-0.807-0.461-1.458-1.053-1.673-2.004
	C-0.01,25.023-0.029,24.729,0.062,24.439"/>
<path fill="#818181" d="M5.025,33.182c0.012-0.823,0.146-1.632,0.299-2.438c0.038-0.187,0.176-0.241,0.342-0.245
	c0.594-0.016,1.188-0.011,1.783-0.003c0.313,0.005,0.408,0.19,0.404,0.466c0.017,0.609,0.006,1.218,0.005,1.826
	c0,0.143-0.001,0.288-0.095,0.411C6.849,33.349,5.937,33.384,5.025,33.182"/>
<path fill="#818181" d="M14.117,30.806c-1.01,0.588-1.86,1.366-2.654,2.214c-0.097,0.103-0.196,0.201-0.294,0.302
	c-0.521,0.074-1.041,0.036-1.563,0.019c-0.108-0.004-0.207-0.051-0.283-0.133c-0.087-0.135-0.02-0.252,0.05-0.362
	c0.453-0.725,0.949-1.417,1.566-2.016c0.12-0.116,0.242-0.229,0.428-0.223c0.764,0.061,1.527,0.012,2.291,0.033
	C13.822,30.645,14.025,30.584,14.117,30.806"/>
<path fill="#818181" d="M3.167,23.721c-0.103,0.124-0.242,0.076-0.367,0.077C1.965,23.802,1.132,23.8,0.298,23.8
	c0.158-0.362,0.454-0.606,0.754-0.836c0.661-0.505,1.374-0.93,2.099-1.337c0.624-0.029,1.249-0.016,1.873-0.009
	c0.191,0.002,0.413-0.022,0.497,0.229C4.724,22.457,3.898,23.031,3.167,23.721"/>
<path fill="#818181" d="M5.025,33.182c0.903,0,1.807-0.001,2.708-0.001c0.121,0.093,0.103,0.232,0.122,0.359
	c0.063,0.412,0.049,0.831,0.115,1.242c0.02,0.118,0.018,0.239-0.081,0.333H4.964C4.933,34.469,4.92,33.824,5.025,33.182"/>
<path fill="#818181" d="M5.521,21.848c-0.131-0.125-0.294-0.127-0.462-0.126c-0.518,0.003-1.036,0.003-1.555-0.001
	c-0.123-0.001-0.265,0.045-0.354-0.094c1.099-0.733,2.196-1.466,3.296-2.2C7,19.35,7.554,19.397,8.109,19.412
	c0.089,0.002,0.194,0.023,0.207,0.151c-0.574,0.617-1.258,1.11-1.908,1.64C6.125,21.432,5.818,21.634,5.521,21.848"/>
<path fill="#818181" d="M9.255,24.026c-0.092-0.204-0.276-0.152-0.437-0.153c-1.741-0.002-3.482,0.001-5.224-0.005
	c-0.125,0-0.3,0.084-0.361-0.124c1.438-0.389,2.901-0.521,4.384-0.38c0.315,0.029,0.499-0.043,0.636-0.345
	c0.191-0.42,0.438-0.816,0.659-1.224c0.405-0.057,0.81-0.107,1.2,0.072C9.827,22.586,9.541,23.306,9.255,24.026"/>
<path fill="#818181" d="M1.727,27.317c0.082-0.187,0.25-0.149,0.401-0.15c0.725-0.001,1.45-0.001,2.176,0
	c0.155,0,0.31,0.007,0.449-0.078c0.253-0.131,0.479,0.027,0.709,0.078c0.314,0.068,0.614,0.139,0.864-0.144
	c0.562,0,1.121-0.002,1.683,0.002c0.121,0,0.277-0.053,0.311,0.146c0.019,0.215-0.122,0.413-0.07,0.633
	c-0.112,0.132-0.267,0.076-0.401,0.076c-1.369,0.004-2.737,0-4.106,0.007c-0.125,0-0.298-0.085-0.363,0.119
	C2.797,27.849,2.245,27.623,1.727,27.317"/>
<path fill="#818181" d="M11.466,4.678c-0.192,0.573-0.387,1.147-0.581,1.721c-0.088,0.158-0.241,0.177-0.397,0.18
	c-0.484,0.01-0.968,0.014-1.452,0C8.669,6.568,8.64,6.532,8.644,6.158c0.002-0.164-0.032-0.331,0.027-0.492
	C8.663,5.23,8.696,4.797,8.813,4.375c0.208,0.154,0.44,0.202,0.697,0.196c0.496-0.01,0.992-0.006,1.488,0
	C11.161,4.572,11.333,4.544,11.466,4.678"/>
<path fill="#818181" d="M11.041,29.442c0.145-0.138,0.323-0.128,0.503-0.128c1.097,0.001,2.194,0.002,3.291-0.002
	c0.124,0,0.267,0.048,0.365-0.081c0.821,0.213,1.618,0.492,2.383,0.859c-0.123,0.189-0.321,0.192-0.51,0.193
	c-1.585,0.008-3.17,0.007-4.755,0.001c-0.131-0.001-0.263-0.014-0.383-0.071c-0.06-0.037-0.145-0.082-0.118-0.157
	c0.1-0.301-0.107-0.335-0.311-0.394C11.34,29.616,11.142,29.628,11.041,29.442"/>
<path fill="#818181" d="M11.466,4.678c-0.744,0-1.489,0-2.235-0.001c-0.211,0-0.416-0.012-0.418-0.303
	c0.03-0.416,0.12-0.818,0.28-1.205c0.129,0.075,0.27,0.078,0.412,0.077c0.887-0.002,1.773-0.002,2.659-0.002
	C11.932,3.722,11.7,4.2,11.466,4.678"/>
<path fill="#818181" d="M11.829,30.103c0.184,0.054,0.368,0.074,0.562,0.073c1.521-0.004,3.042-0.005,4.563,0
	c0.216,0.001,0.426-0.015,0.629-0.086c0.374,0.116,0.724,0.287,1.061,0.481c-0.075,0.212-0.255,0.175-0.417,0.175
	c-1.006,0.001-2.012-0.001-3.019,0.003c-0.123,0-0.262-0.046-0.369,0.063c-0.239-0.063-0.479-0.082-0.721-0.007
	c-0.136-0.108-0.296-0.055-0.443-0.057c-0.637-0.006-1.273-0.008-1.91,0c-0.182,0.003-0.35-0.035-0.521-0.078
	C11.335,30.375,11.512,30.167,11.829,30.103"/>
<path fill="#818181" d="M49.25,15.033v0.286c0,0.623-0.027,0.656-0.642,0.797c-1.069,0.245-1.935-0.082-2.345-0.885
	c-0.398-0.782-0.221-1.836,0.401-2.365c0.626-0.533,1.65-0.594,2.301-0.136c0.135,0.096,0.299,0.175,0.081,0.369
	c-0.159,0.143-0.206-0.023-0.286-0.074c-0.543-0.341-1.101-0.387-1.653-0.053c-0.604,0.366-0.77,0.952-0.68,1.611
	c0.083,0.619,0.433,1.055,1.049,1.226c0.398,0.11,0.805,0.072,1.199-0.048c0.118-0.037,0.215-0.092,0.212-0.246
	c-0.007-0.286-0.007-0.572,0-0.858c0.003-0.145-0.065-0.184-0.195-0.18c-0.167,0.006-0.334-0.002-0.501,0.001
	c-0.102,0.002-0.156-0.035-0.161-0.142c-0.008-0.121,0.047-0.173,0.168-0.172c0.286,0.003,0.572,0.006,0.858-0.001
	c0.168-0.005,0.197,0.086,0.194,0.225C49.247,14.603,49.25,14.818,49.25,15.033"/>
<path fill="#818181" d="M24.075,14.328c0,0.501,0.002,1.002-0.001,1.503c-0.001,0.117,0.058,0.271-0.167,0.276
	c-0.245,0.007-0.188-0.157-0.189-0.289c-0.004-0.394-0.009-0.787,0.002-1.181c0.005-0.171-0.048-0.226-0.221-0.223
	c-0.501,0.011-1.002,0.015-1.503-0.001c-0.216-0.007-0.255,0.081-0.25,0.271c0.012,0.393,0.003,0.787,0.005,1.181
	c0,0.125,0.005,0.238-0.176,0.24c-0.172,0.002-0.19-0.091-0.19-0.228c0.002-1.05,0.002-2.1,0.001-3.149
	c0-0.119,0.014-0.208,0.167-0.213c0.163-0.006,0.201,0.072,0.199,0.218c-0.006,0.358,0.009,0.717-0.006,1.072
	c-0.008,0.213,0.05,0.299,0.278,0.291c0.476-0.016,0.954-0.013,1.431,0c0.196,0.005,0.276-0.044,0.266-0.255
	c-0.017-0.346-0.007-0.692-0.003-1.038c0.001-0.131-0.057-0.297,0.188-0.289c0.225,0.004,0.167,0.156,0.168,0.274
	C24.077,13.302,24.075,13.815,24.075,14.328"/>
<path fill="#818181" d="M8.671,5.666C8.697,6.468,8.697,6.482,9.51,6.463c0.458-0.01,0.924,0.087,1.375-0.064
	c-0.098,0.573-0.196,1.147-0.294,1.721c-0.036,0.032,0.02,0.001-0.017,0.031C10.35,8.327,9.051,8.368,8.838,8.205
	C8.788,8.166,8.787,8.103,8.765,8.048C8.672,7.373,8.617,6.693,8.628,6.01C8.629,5.894,8.602,5.774,8.671,5.666"/>
<path fill="#818181" d="M44.326,15.767c-0.699,0.466-1.409,0.418-1.841-0.126c-0.376-0.472-0.343-1.14,0.078-1.563
	c0.484-0.49,1.168-0.508,1.76-0.023c0.058-0.112-0.014-0.343,0.229-0.294c0.235,0.048,0.127,0.227,0.131,0.343
	c0.013,0.549,0.011,1.099,0.003,1.646c-0.003,0.214-0.017,0.432-0.061,0.64c-0.095,0.46-0.368,0.784-0.838,0.872
	c-0.522,0.097-1.022,0.038-1.437-0.349c-0.113-0.105-0.027-0.157,0.035-0.226c0.074-0.081,0.135-0.118,0.224-0.009
	c0.14,0.174,0.337,0.265,0.551,0.309C43.969,17.156,44.425,16.675,44.326,15.767"/>
<path fill="#818181" d="M9.324,33.117c0.136,0.153,0.318,0.128,0.497,0.139c0.448,0.029,0.904-0.078,1.348,0.066
	c-0.418,0.6-0.836,1.2-1.253,1.8C9.41,35.1,8.9,35.15,8.398,35.044c-0.074-0.071-0.051-0.153-0.02-0.231
	c0.215-0.544,0.478-1.065,0.755-1.579C9.17,33.166,9.212,33.078,9.324,33.117"/>
<path fill="#818181" d="M18.199,39.326c-0.115-0.097-0.252-0.054-0.379-0.055c-0.787-0.004-1.574-0.003-2.361-0.001
	c-0.144,0-0.286,0.003-0.415-0.076c0.182-0.311,0.402-0.594,0.646-0.857c1.037,0.001,2.075,0,3.112,0.003
	c0.149,0,0.319-0.041,0.403,0.146C18.882,38.78,18.562,39.079,18.199,39.326"/>
<path fill="#818181" d="M5.375,38.498c0.018-0.113,0.083-0.159,0.196-0.159c0.974,0.002,1.948,0.001,2.922,0.005
	c0.056,0.001,0.11,0.042,0.165,0.063c0.083,0.262,0.167,0.522,0.25,0.783c-0.139,0.085-0.294,0.079-0.449,0.079
	c-0.834,0-1.667-0.002-2.5,0.002c-0.125,0.001-0.266-0.047-0.365,0.078C5.477,39.077,5.401,38.793,5.375,38.498"/>
<path fill="#818181" d="M27.591,14.047c0.582-0.493,1.074-0.469,1.46,0.074c0.208-0.257,0.454-0.43,0.804-0.423
	c0.537,0.009,0.854,0.284,0.875,0.824c0.019,0.453,0.005,0.906,0.005,1.359c-0.001,0.104,0.023,0.223-0.148,0.221
	c-0.168-0.002-0.148-0.116-0.15-0.223c-0.006-0.417,0.008-0.835-0.024-1.25c-0.037-0.479-0.22-0.652-0.596-0.642
	c-0.377,0.012-0.637,0.28-0.652,0.707c-0.015,0.369,0.003,0.74-0.009,1.109c-0.003,0.106,0.093,0.285-0.137,0.296
	c-0.243,0.013-0.179-0.17-0.182-0.3c-0.009-0.405-0.001-0.811-0.017-1.216c-0.009-0.259-0.064-0.523-0.366-0.583
	c-0.323-0.063-0.583,0.074-0.757,0.356c-0.123,0.203-0.129,0.43-0.127,0.658c0.006,0.298-0.002,0.597,0.004,0.895
	c0.003,0.137-0.048,0.196-0.187,0.19c-0.131-0.005-0.15-0.081-0.151-0.189c-0.002-0.656-0.006-1.313-0.012-1.968
	c-0.001-0.104,0-0.178,0.143-0.187C27.578,13.747,27.524,13.924,27.591,14.047"/>
<path fill="#818181" d="M57.89,14.06c0.588-0.513,1.054-0.491,1.503,0.089c0.059-0.084,0.101-0.176,0.171-0.235
	c0.303-0.255,0.649-0.276,1.007-0.139c0.332,0.128,0.453,0.41,0.463,0.74c0.013,0.453,0.006,0.907,0.006,1.36
	c0,0.104,0.027,0.222-0.144,0.228c-0.195,0.006-0.164-0.129-0.164-0.244c-0.002-0.394,0.008-0.787-0.004-1.181
	c-0.014-0.445-0.188-0.662-0.521-0.688c-0.389-0.03-0.682,0.192-0.728,0.624c-0.043,0.413-0.019,0.834-0.028,1.251
	c-0.002,0.096,0.048,0.228-0.129,0.237c-0.194,0.012-0.165-0.124-0.167-0.24c-0.01-0.44-0.009-0.882-0.032-1.323
	c-0.013-0.246-0.09-0.493-0.377-0.539c-0.305-0.048-0.563,0.068-0.729,0.344c-0.102,0.167-0.145,0.349-0.142,0.546
	c0.005,0.346-0.001,0.692,0.002,1.038c0.001,0.111-0.022,0.182-0.156,0.177c-0.12-0.004-0.169-0.055-0.17-0.175
	c-0.006-0.667-0.015-1.335-0.024-2.003c-0.002-0.089-0.006-0.151,0.118-0.168C57.883,13.727,57.832,13.922,57.89,14.06"/>
<path fill="#818181" d="M8.766,8.048c0.053,0.045,0.107,0.129,0.159,0.128c0.556-0.017,1.115,0.089,1.666-0.057
	c-0.052,0.713-0.065,1.425-0.001,2.138c-0.449-0.306-0.938-0.169-1.42-0.124C8.961,9.453,8.845,8.754,8.766,8.048"/>
<path fill="#818181" d="M7.75,30.97c0.038-0.295-0.088-0.386-0.382-0.373c-0.556,0.022-1.114,0.01-1.672,0.004
	c-0.147-0.001-0.283,0.004-0.373,0.144c0.067-0.458,0.147-0.914,0.282-1.358c0.66,0,1.32-0.002,1.979,0.002
	c0.12,0,0.274-0.05,0.307,0.146c0.097,0.089,0.106,0.209,0.096,0.325c-0.025,0.292-0.061,0.582-0.076,0.875
	C7.906,30.835,7.891,30.953,7.75,30.97"/>
<path fill="#818181" d="M10.113,21.868c-0.399-0.028-0.806,0.062-1.2-0.072c0.404-0.787,0.809-1.575,1.212-2.363
	c0.178-0.132,0.378-0.124,0.576-0.079c0.146,0.033,0.268,0.107,0.198,0.297C10.713,20.417,10.434,21.149,10.113,21.868"/>
<path fill="#818181" d="M50.998,15.002c-0.238,0.001-0.478,0.014-0.715-0.003c-0.244-0.018-0.25,0.103-0.197,0.281
	c0.172,0.587,0.916,0.777,1.433,0.361c0.108-0.087,0.198-0.241,0.333-0.051c0.117,0.164-0.061,0.229-0.139,0.301
	c-0.387,0.351-1.147,0.354-1.559,0.021c-0.462-0.375-0.582-1.114-0.268-1.655c0.279-0.482,0.891-0.691,1.43-0.488
	c0.411,0.154,0.694,0.602,0.682,1.037c-0.005,0.166-0.071,0.201-0.215,0.197C51.521,14.999,51.259,15.002,50.998,15.002"/>
<path fill="#818181" d="M32.753,15.798c-0.282,0.37-0.647,0.393-1.023,0.331c-0.289-0.046-0.511-0.206-0.567-0.515
	c-0.061-0.338,0.04-0.606,0.362-0.775c0.285-0.15,0.598-0.132,0.902-0.176c0.12-0.018,0.314,0.096,0.34-0.137
	c0.02-0.188-0.047-0.355-0.231-0.445c-0.313-0.153-0.625-0.123-0.919,0.049c-0.128,0.074-0.239,0.135-0.316-0.038
	c-0.079-0.177,0.105-0.187,0.188-0.233c0.289-0.164,0.61-0.196,0.933-0.139c0.392,0.069,0.608,0.288,0.64,0.698
	c0.038,0.51,0.025,1.021,0.041,1.533c0.003,0.104-0.033,0.146-0.141,0.152C32.742,16.117,32.836,15.923,32.753,15.798"/>
<path fill="#818181" d="M55.899,16.149c-0.729-0.002-1.245-0.519-1.231-1.236c0.012-0.709,0.518-1.208,1.227-1.211
	c0.73-0.003,1.252,0.507,1.254,1.224C57.15,15.648,56.638,16.15,55.899,16.149"/>
<path fill="#818181" d="M52.661,14.076c0.194-0.182,0.357-0.318,0.576-0.362c0.625-0.125,1.059,0.198,1.092,0.844
	c0.023,0.44,0.006,0.883,0.008,1.324c0,0.111,0.005,0.221-0.155,0.222c-0.157,0.001-0.16-0.1-0.16-0.216
	c0-0.406,0-0.812-0.008-1.218c-0.005-0.318-0.085-0.601-0.452-0.674c-0.348-0.069-0.689,0.133-0.828,0.477
	c-0.139,0.346-0.065,0.709-0.081,1.064c-0.006,0.118-0.003,0.238-0.001,0.357c0.002,0.112,0.008,0.217-0.158,0.212
	c-0.153-0.005-0.17-0.093-0.169-0.213c0.002-0.394,0.003-0.787,0-1.181c-0.002-0.215-0.021-0.43-0.013-0.644
	c0.004-0.11-0.095-0.274,0.127-0.308C52.673,13.726,52.631,13.905,52.661,14.076"/>
<path fill="#818181" d="M11.49,14.625l0.117,0.006c0.388-0.106,0.776-0.026,1.165,0.002c0.068,0.005,0.136,0.049,0.129,0.142
	c-0.258,0.36-0.539,0.7-0.854,1.013c-0.477,0.013-0.959,0.125-1.424-0.078c0.16-0.336,0.004-0.669-0.007-1.004
	C10.896,14.548,11.191,14.557,11.49,14.625"/>
<path fill="#818181" d="M40.228,14.076c0.224-0.271,0.5-0.396,0.847-0.377c0.423,0.025,0.693,0.235,0.774,0.648
	c0.101,0.519,0.025,1.045,0.047,1.566c0.005,0.109-0.021,0.184-0.151,0.189c-0.139,0.005-0.188-0.055-0.186-0.191
	c0.005-0.393,0.004-0.785,0.001-1.178c-0.004-0.479-0.158-0.706-0.493-0.744c-0.386-0.044-0.704,0.181-0.816,0.59
	c-0.106,0.385-0.02,0.782-0.055,1.171c-0.012,0.126,0.114,0.355-0.157,0.347c-0.261-0.012-0.139-0.235-0.144-0.361
	c-0.021-0.547-0.031-1.094-0.024-1.641c0.002-0.107-0.141-0.297,0.117-0.334C40.245,13.722,40.146,13.958,40.228,14.076"/>
<path fill="#818181" d="M26.339,15.791c-0.177,0.148-0.337,0.309-0.572,0.349c-0.659,0.111-1.073-0.202-1.104-0.87
	c-0.019-0.429-0.004-0.858-0.004-1.288c0-0.107-0.014-0.214,0.152-0.222c0.178-0.007,0.186,0.095,0.184,0.227
	c-0.003,0.393-0.003,0.786,0,1.18c0.002,0.315,0.063,0.605,0.432,0.686c0.374,0.081,0.715-0.115,0.853-0.484
	c0.139-0.369,0.037-0.757,0.083-1.133c0.019-0.157-0.156-0.445,0.139-0.455c0.305-0.01,0.147,0.285,0.156,0.438
	c0.03,0.512,0.035,1.023,0.026,1.535c-0.002,0.111,0.137,0.302-0.104,0.348C26.328,16.147,26.394,15.923,26.339,15.791"/>
<path fill="#818181" d="M33.981,14.054c0.232-0.27,0.506-0.375,0.839-0.354c0.429,0.025,0.74,0.266,0.772,0.692
	c0.038,0.509,0.018,1.023,0.024,1.535c0.002,0.113-0.032,0.177-0.162,0.176c-0.136-0.003-0.148-0.083-0.148-0.188
	c0.002-0.393,0.005-0.786-0.001-1.179c-0.008-0.489-0.181-0.725-0.536-0.747c-0.425-0.028-0.782,0.273-0.813,0.726
	c-0.024,0.38-0.01,0.762-0.01,1.144c-0.001,0.121,0.018,0.244-0.168,0.245c-0.184,0-0.168-0.123-0.169-0.244
	c-0.002-0.584-0.015-1.168-0.003-1.751c0.002-0.11-0.132-0.296,0.108-0.346C33.952,13.713,33.864,13.956,33.981,14.054"/>
<path fill="#818181" d="M38.151,14.049c-0.402,0-0.743-0.002-1.083,0.001c-0.119,0.001-0.217-0.01-0.21-0.165
	c0.006-0.152,0.12-0.122,0.209-0.123c0.429-0.003,0.858-0.005,1.287,0.002c0.084,0.001,0.2-0.059,0.249,0.065
	c0.041,0.104-0.033,0.18-0.089,0.256c-0.361,0.488-0.724,0.977-1.082,1.466c-0.047,0.063-0.127,0.115-0.093,0.26
	c0.354,0,0.718-0.002,1.081,0.002c0.11,0.001,0.26-0.039,0.25,0.157c-0.008,0.171-0.141,0.132-0.238,0.133
	c-0.442,0.004-0.884,0.005-1.323-0.001c-0.102-0.001-0.234,0.055-0.298-0.057c-0.072-0.123,0.028-0.223,0.098-0.317
	c0.356-0.478,0.712-0.954,1.068-1.432C38.025,14.233,38.068,14.167,38.151,14.049"/>
<path fill="#818181" d="M65.505,16.149c-0.313,0.011-0.591-0.067-0.811-0.3c-0.063-0.064-0.157-0.137-0.037-0.233
	c0.092-0.074,0.171-0.155,0.287-0.005c0.178,0.227,0.434,0.287,0.709,0.237c0.2-0.037,0.354-0.15,0.383-0.368
	c0.028-0.229-0.142-0.313-0.317-0.369c-0.169-0.055-0.347-0.081-0.518-0.131c-0.393-0.114-0.553-0.316-0.531-0.653
	c0.021-0.326,0.266-0.575,0.633-0.617c0.316-0.036,0.624-0.007,0.864,0.237c0.07,0.072,0.174,0.157,0.032,0.262
	c-0.092,0.067-0.171,0.107-0.272-0.012c-0.205-0.24-0.462-0.271-0.74-0.131c-0.127,0.063-0.208,0.17-0.198,0.313
	c0.008,0.129,0.095,0.218,0.218,0.258c0.146,0.047,0.294,0.093,0.445,0.126c0.556,0.122,0.759,0.337,0.709,0.758
	C66.313,15.919,66.002,16.148,65.505,16.149"/>
<path fill="#818181" d="M13.344,12.485c0.274-0.409,0.548-0.818,0.823-1.228c0.413-0.154,0.826-0.176,1.237,0.01
	c0.032,0.263-0.142,0.437-0.275,0.624c-0.184,0.256-0.38,0.502-0.57,0.753c-0.292,0.024-0.585,0.027-0.876,0
	C13.554,12.63,13.427,12.602,13.344,12.485"/>
<path fill="#818181" d="M10.625,15.708c0.365-0.001,0.73-0.004,1.096,0c0.113,0.001,0.24-0.037,0.327,0.078
	c-0.33,0.428-0.692,0.826-1.081,1.199c-0.318-0.025-0.637-0.023-0.955-0.027c-0.15-0.002-0.312,0.021-0.428-0.114
	C9.931,16.465,10.277,16.086,10.625,15.708"/>
<path fill="#818181" d="M9.17,10.133C9.242,9.968,9.387,9.976,9.53,9.977C9.753,9.979,9.982,10,10.202,9.972
	c0.24-0.029,0.342,0.079,0.39,0.285c0.048,0.359,0.096,0.718,0.144,1.077c-0.397,0.088-0.81-0.025-1.204,0.087
	C9.353,11.008,9.239,10.578,9.17,10.133"/>
<path fill="#818181" d="M63.52,16.149c-0.569,0.003-0.985-0.275-1.158-0.775c-0.183-0.524-0.028-1.109,0.377-1.427
	c0.391-0.308,1.008-0.34,1.405-0.059c0.088,0.061,0.274,0.108,0.175,0.272c-0.102,0.165-0.222,0.082-0.353-0.009
	c-0.381-0.264-0.831-0.202-1.126,0.133c-0.312,0.354-0.313,0.931-0.003,1.282c0.302,0.343,0.775,0.4,1.154,0.118
	c0.122-0.091,0.208-0.15,0.317-0.007c0.123,0.162-0.054,0.201-0.124,0.263C64.005,16.099,63.816,16.147,63.52,16.149"/>
<path fill="#818181" d="M13.344,12.485c0.294,0.084,0.596,0.072,0.896,0.072c0.112,0,0.237-0.032,0.319,0.087
	c-0.328,0.394-0.556,0.861-0.928,1.221c-0.294-0.034-0.587-0.071-0.884-0.063c-0.117,0.004-0.239,0.001-0.329-0.099
	C12.727,13.296,13.036,12.891,13.344,12.485"/>
<path fill="#818181" d="M9.583,16.844c0.367,0.003,0.734,0.003,1.101,0.011c0.109,0.002,0.25-0.045,0.281,0.131
	c-0.262,0.312-0.516,0.63-0.856,0.862c-0.277-0.054-0.56-0.016-0.838-0.034C9.075,17.8,8.87,17.807,8.725,17.632L9.583,16.844z"/>
<path fill="#818181" d="M12.417,13.703c0.282,0,0.563,0,0.845-0.001c0.146,0,0.277,0.035,0.369,0.163
	c-0.217,0.325-0.457,0.63-0.73,0.909c-0.128-0.124-0.288-0.067-0.432-0.065c-0.291,0.005-0.578-0.015-0.862-0.078
	C11.876,14.322,12.148,14.012,12.417,13.703"/>
<path fill="#818181" d="M8.316,19.563c-0.273-0.128-0.563-0.038-0.843-0.058c-0.343-0.023-0.691,0.043-1.026-0.078
	c0.288-0.215,0.576-0.429,0.864-0.644c0.491-0.071,0.984-0.03,1.478-0.021c0.098,0.002,0.22,0.009,0.242,0.152
	C8.82,19.161,8.601,19.399,8.316,19.563"/>
<path fill="#818181" d="M8.725,17.632c0.349,0.104,0.708,0.074,1.063,0.083c0.118,0.003,0.277-0.063,0.319,0.133
	c-0.165,0.217-0.329,0.436-0.574,0.572c-0.407,0.072-0.818,0.046-1.229,0.037c-0.142-0.003-0.286-0.02-0.355-0.177
	C8.208,18.065,8.467,17.848,8.725,17.632"/>
<path fill="#818181" d="M11.05,12.838c0.088,0.312,0.177,0.622,0.265,0.934c-0.293,0.144-0.626,0.049-0.925,0.156
	c-0.157-0.349-0.277-0.711-0.374-1.081C10.36,12.661,10.705,12.678,11.05,12.838"/>
<path fill="#818181" d="M11.05,12.838c-0.344,0.003-0.689,0.006-1.034,0.009c-0.11-0.257-0.233-0.509-0.272-0.791
	c0.32-0.251,0.854-0.253,1.135-0.005C10.935,12.314,10.993,12.577,11.05,12.838"/>
<path fill="#818181" d="M7.951,18.281c0.302,0.146,0.623,0.044,0.935,0.077c0.215,0.023,0.443-0.066,0.647,0.063
	c-0.135,0.197-0.289,0.377-0.502,0.495c-0.406-0.123-0.823-0.028-1.234-0.056c-0.164-0.011-0.334,0.02-0.485-0.076
	C7.524,18.617,7.737,18.449,7.951,18.281"/>
<path fill="#818181" d="M10.39,13.928c0.012-0.06,0.031-0.139,0.091-0.138c0.279,0.005,0.556-0.084,0.834-0.019
	c0.105,0.274,0.165,0.559,0.175,0.853c-0.283,0.108-0.58,0.076-0.873,0.08C10.542,14.446,10.466,14.187,10.39,13.928"/>
<path fill="#818181" d="M10.878,12.051c-0.38-0.128-0.758-0.085-1.136,0.005c-0.105-0.199-0.175-0.412-0.212-0.635
	c0.016-0.071,0.039-0.148,0.125-0.146c0.36,0.012,0.727-0.076,1.079,0.059C10.783,11.574,10.83,11.812,10.878,12.051"/>
<path fill="#818181" d="M61.6,14.915c0-0.322,0-0.645,0-0.967c0-0.095-0.012-0.19,0.139-0.19c0.136,0.001,0.193,0.048,0.192,0.187
	c-0.003,0.656-0.003,1.313,0,1.969c0.001,0.134-0.047,0.195-0.188,0.194c-0.144-0.001-0.144-0.088-0.144-0.19
	C61.6,15.583,61.6,15.249,61.6,14.915"/>
<path fill="#818181" d="M38.969,14.939c0-0.298-0.008-0.597,0.004-0.895c0.004-0.106-0.089-0.281,0.146-0.285
	c0.247-0.004,0.176,0.178,0.177,0.304c0.006,0.584,0.005,1.169,0.001,1.754c-0.001,0.118,0.055,0.279-0.161,0.289
	c-0.226,0.011-0.163-0.155-0.165-0.272C38.965,15.536,38.969,15.237,38.969,14.939"/>
<path fill="#818181" d="M36.105,14.886c0-0.287-0.005-0.573,0.002-0.859c0.002-0.114-0.064-0.279,0.164-0.269
	c0.221,0.01,0.16,0.17,0.161,0.286c0.005,0.584,0.005,1.169,0,1.754c-0.002,0.128,0.064,0.311-0.178,0.307
	c-0.229-0.003-0.143-0.18-0.146-0.289C36.097,15.506,36.105,15.196,36.105,14.886"/>
<path fill="#818181" d="M15.405,11.267c-0.413-0.003-0.825-0.007-1.238-0.01c0.159-0.261,0.302-0.534,0.483-0.779
	s0.427-0.217,0.549,0.057C15.302,10.765,15.466,10.987,15.405,11.267"/>
<path fill="#818181" d="M10.898,19.65c-0.018-0.207-0.161-0.223-0.323-0.219c-0.15,0.003-0.3,0.001-0.449,0.001
	c0.142-0.286,0.285-0.573,0.427-0.859c0.207-0.129,0.414-0.151,0.621,0C11.043,18.921,11.083,19.314,10.898,19.65"/>
<path fill="#818181" d="M11.174,18.573h-0.621c0.122-0.255,0.239-0.512,0.368-0.763c0.043-0.084,0.115-0.167,0.225-0.136
	s0.117,0.135,0.119,0.233C11.268,18.133,11.243,18.356,11.174,18.573"/>
<path fill="#818181" d="M61.998,12.838c-0.006,0.137-0.06,0.224-0.207,0.229c-0.156,0.009-0.25-0.066-0.256-0.218
	c-0.006-0.133,0.068-0.22,0.209-0.231C61.903,12.605,61.979,12.69,61.998,12.838"/>
<path fill="#818181" d="M39.141,12.615c0.158,0.009,0.242,0.104,0.233,0.251c-0.008,0.132-0.093,0.211-0.238,0.206
	c-0.161-0.006-0.24-0.096-0.232-0.248C38.912,12.686,39.001,12.617,39.141,12.615"/>
<path fill="#FFFFFF" d="M51.406,14.718c0.304,0.022,0.288-0.122,0.172-0.315c-0.167-0.276-0.412-0.425-0.74-0.412
	c-0.328,0.011-0.553,0.184-0.71,0.465c-0.113,0.203-0.058,0.277,0.17,0.263c0.178-0.011,0.357-0.002,0.536-0.002
	C51.025,14.716,51.215,14.706,51.406,14.718 M32.564,15.67c0.184-0.177,0.279-0.421,0.188-0.648
	c-0.077-0.196-0.315-0.073-0.48-0.083c-0.126-0.009-0.26,0.025-0.383,0.065c-0.238,0.076-0.46,0.202-0.415,0.494
	c0.043,0.285,0.277,0.358,0.621,0.368C32.221,15.876,32.414,15.817,32.564,15.67 M77.697,21.84c0.325,0.015,0.324-0.103,0.227-0.346
	c-0.294-0.729-0.991-1.157-1.891-1.145c-0.878,0.013-1.649,0.528-1.917,1.251c-0.085,0.228,0.004,0.235,0.181,0.233
	c0.572-0.005,1.145-0.002,1.718-0.002C76.576,21.833,77.136,21.814,77.697,21.84 M69.779,22.693c0,1.202-0.957,2.173-2.144,2.17
	c-1.179-0.002-2.157-0.987-2.153-2.17c0.002-1.181,0.998-2.169,2.172-2.152C68.835,20.557,69.778,21.511,69.779,22.693
	 M37.755,24.934c1.21,0.013,2.255-1.032,2.256-2.256c0.001-1.242-0.995-2.259-2.231-2.278c-1.212-0.02-2.243,1.017-2.246,2.256
	C35.53,23.906,36.52,24.921,37.755,24.934 M59.103,20.541c-1.193,0.006-2.157,0.973-2.156,2.165
	c0.001,1.188,0.982,2.167,2.163,2.157c1.174-0.01,2.132-0.975,2.134-2.146C61.246,21.518,60.28,20.536,59.103,20.541 M7.734,33.181
	c0.052,0.646,0.104,1.29,0.155,1.935c0.106,0.238,0.045,0.519,0.184,0.761c0.112-0.287,0.22-0.56,0.325-0.832
	c0.229-0.68,0.539-1.322,0.926-1.928c0.513-0.915,1.137-1.742,1.92-2.445c0.175-0.211,0.369-0.401,0.586-0.568
	c0.239-0.303,0.214-0.381-0.157-0.483c-0.211-0.058-0.421-0.118-0.632-0.178c-0.763-0.159-1.524-0.332-2.29-0.474
	c-0.689-0.128-0.691-0.112-0.841,0.535c-0.003,0.011-0.013,0.021-0.02,0.03c-0.047,0.479-0.094,0.957-0.141,1.437
	C7.745,31.708,7.739,32.444,7.734,33.181 M7.269,25.024c0.093-0.189,0.126-0.269-0.146-0.306c-0.959-0.129-1.918-0.204-2.886-0.149
	c-0.457,0.057-0.911,0.123-1.358,0.238c-0.184,0.048-0.245,0.137-0.233,0.326c0.025,0.422,0.242,0.736,0.522,1.024
	c0.442,0.458,1.017,0.688,1.586,0.93c0.322,0.073,0.652,0.126,0.965,0.228c0.318,0.103,0.517,0.037,0.609-0.292
	C6.64,26.356,6.948,25.686,7.269,25.024 M43.452,13.99c-0.497,0.001-0.911,0.416-0.909,0.909c0.001,0.498,0.412,0.909,0.909,0.91
	s0.901-0.408,0.901-0.911C44.353,14.392,43.952,13.987,43.452,13.99 M56.814,14.927c0-0.542-0.385-0.939-0.907-0.938
	c-0.527,0.001-0.904,0.393-0.904,0.938c0,0.551,0.371,0.934,0.905,0.934C56.438,15.862,56.814,15.474,56.814,14.927"/>
<path fill="#818181" d="M36.265,13.069c-0.141,0.001-0.227-0.062-0.233-0.208c-0.007-0.16,0.078-0.243,0.236-0.242
	c0.146,0.002,0.216,0.089,0.216,0.228C36.483,12.985,36.412,13.066,36.265,13.069"/>
</svg>
