<?xml version="1.0" encoding="utf-8"?>
<!-- Generator: Adobe Illustrator 16.0.0, SVG Export Plug-In . SVG Version: 6.00 Build 0)  -->
<!DOCTYPE svg PUBLIC "-//W3C//DTD SVG 1.1//EN" "http://www.w3.org/Graphics/SVG/1.1/DTD/svg11.dtd">
<svg version="1.1" id="Layer_1" xmlns="http://www.w3.org/2000/svg" xmlns:xlink="http://www.w3.org/1999/xlink" x="0px" y="0px"
	 width="73.989px" height="48.827px" viewBox="0 0 73.989 48.827" enable-background="new 0 0 73.989 48.827" xml:space="preserve">
<path fill="#818181" d="M48.489,11.614c-0.175-1.712-0.549-3.219-1.079-4.491c-0.016-0.039-0.074-0.176-0.087-0.206
	c-0.435-0.994-0.97-1.841-1.592-2.517c-1.128-1.235-2.523-1.914-4.067-1.936c-0.057-0.002-0.03-0.002-0.03-0.002
	c-0.251-0.55-0.919-0.982-1.52-1.066c0,0-0.346-1.396-1.804-1.396c-1.459,0-1.782,1.383-1.782,1.383
	c-0.602,0.084-1.292,0.53-1.543,1.08c0,0,0.024,0-0.032,0.002c-1.544,0.021-2.938,0.7-4.067,1.936
	c-0.621,0.676-1.156,1.522-1.591,2.517c-0.013,0.03-0.071,0.167-0.088,0.206c-0.531,1.272-0.904,2.779-1.078,4.491
	C27.275,20,31.047,30.308,37.83,31.89c0.106,0.158,0.352,0.478,0.479,0.478s0.373-0.319,0.479-0.478
	C45.571,30.308,49.342,20,48.489,11.614 M38.298,0.324c1.189,0,1.454,1.009,1.458,1.02c-0.082,0.005-0.16,0.015-0.238,0.031
	L39.3,1.433c-0.402,0.135-0.736,0.451-0.954,0.831c-0.005,0.01-0.019,0.033-0.035,0.045c-0.018-0.012-0.031-0.035-0.036-0.045
	c-0.218-0.38-0.573-0.692-0.977-0.827l-0.217-0.058c-0.077-0.017-0.157-0.026-0.237-0.031C36.846,1.337,37.108,0.324,38.298,0.324
	 M37.635,1.93c0.29,0.185,0.469,0.489,0.58,0.815c0.05,0.143,0.136,0.145,0.187,0.002c0.129-0.359,0.342-0.688,0.675-0.874
	c0.848-0.474,1.788-0.119,2.17,0.628c-0.161,0.028-0.299,0.044-0.465,0.096c-0.082,0.026-0.163,0.05-0.246,0.069l-0.061,0.015
	c-0.373,0.145-0.576,0.254-0.836,0.509c-0.511,0.501-0.933,1.259-1.02,2.218c-0.248,2.713,2.863,2.286,3.02,2.272
	c0.402,0,0.705-0.633,0.705-1.472c0-0.838-0.311-1.473-0.705-1.473c-0.24,0-0.658,0.193-0.696,0.944
	c-0.027,0.528,0.23,1.23,0.563,1.274c0.174,0.022,0.332-0.284,0.381-0.594c0.045-0.271,0.021-0.693-0.219-0.754
	c-0.077-0.02-0.153,0.027-0.173,0.104c-0.017,0.069,0.149,0.188,0.144,0.498c-0.01,0.464-0.477,0.231-0.413-0.504
	c0.057-0.654,0.39-0.613,0.403-0.613c0.188,0,0.467,0.389,0.467,1.117c0,0.648-0.312,1.346-0.909,0.981
	c-0.503-0.368-0.702-1.215-0.564-1.871c0.065-0.301,0.325-1.12,1.162-1.12c1.185,0,2.307,0.625,3.207,1.772
	c0,0.001-0.001,0.002-0.002,0.003l0.009,0.006c0.005,0.006,0.01,0.013,0.014,0.02c-0.087,0.295-0.737,1.581-2.731,2.748
	c-0.003-0.001-0.005-0.003-0.008-0.006c-0.436-0.245-0.836-0.311-1.27-0.341c-0.394-0.028-0.808-0.057-1.192,0.036l-1.206,0.291
	c-0.156,0.037-0.32,0.038-0.478,0.003l-1.303-0.299c-0.421-0.097-0.858-0.079-1.288-0.031c-0.382,0.042-0.673,0.16-1.146,0.353
	c-0.005,0.001-0.086-0.066-0.09-0.064c-1.979-1.151-2.602-2.356-2.7-2.674c0.898-1.181,2.024-1.816,3.232-1.816
	c0.838,0,1.097,0.819,1.16,1.12c0.14,0.656-0.059,1.503-0.562,1.871c-0.599,0.364-0.911-0.333-0.911-0.981
	c0-0.729,0.281-1.117,0.468-1.117c0.014,0,0.348-0.041,0.404,0.613c0.062,0.735-0.404,0.968-0.413,0.504
	c-0.007-0.311,0.16-0.429,0.143-0.498c-0.02-0.076-0.096-0.123-0.172-0.104c-0.241,0.061-0.264,0.483-0.22,0.754
	c0.049,0.31,0.207,0.616,0.381,0.594c0.333-0.044,0.591-0.746,0.564-1.274c-0.04-0.751-0.457-0.944-0.696-0.944
	c-0.395,0-0.706,0.635-0.706,1.473c0,0.839,0.303,1.472,0.706,1.472c0.156,0.014,3.266,0.44,3.019-2.272
	c-0.09-0.986-0.577-1.761-1.128-2.261c-0.244-0.223-0.532-0.369-0.881-0.489c-0.24-0.072-0.417-0.122-0.618-0.156
	C35.768,1.727,36.764,1.374,37.635,1.93 M31.759,13.086c-1.01-0.089-1.785-0.428-2.15-0.618c0.161-2.712,0.85-4.84,1.848-6.257
	c0.178,0.461,0.953,1.612,2.742,2.662C32.769,9.919,31.99,11.678,31.759,13.086 M34.4,9.218c0.447-0.285,1.029-0.411,1.62-0.449
	c1.017-0.065,1.738,0.322,2.246,0.337h0.025c0.507-0.015,1.298-0.402,2.315-0.337c0.591,0.038,1.178,0.164,1.626,0.449
	c2.071,1.32,2.362,4.363,2.403,5.361c0.148,3.525-0.967,6.279-1.313,7.04c-1.432,3.154-3.163,5.31-4.87,6.068l-0.138,0.061
	l-0.137-0.061c-1.709-0.759-3.438-2.914-4.871-6.068c-0.346-0.761-1.46-3.515-1.313-7.04C32.038,13.581,32.329,10.538,34.4,9.218
	 M31.729,13.282c-0.076,0.519-0.107,0.955-0.118,1.227c-0.02,0.436-0.02,0.879,0,1.319c0.004,0.085,0.008,0.169,0.013,0.254
	l0.003,0.062c0.051,0.849,0.17,1.709,0.354,2.56l0.017,0.079c0.331,1.495,0.78,2.571,0.957,2.964
	c0.313,0.691,0.63,1.311,0.948,1.871c-0.635,0.578-1.587,0.806-1.908,0.868c-1.717-3.416-2.592-7.825-2.398-11.8
	C30,12.889,30.752,13.196,31.729,13.282 M34.003,23.794c1.141,1.966,2.271,3.139,3.133,3.758c-0.312,0.792-1.052,1.414-1.312,1.615
	c-1.487-1-2.745-2.585-3.735-4.498C32.471,24.591,33.364,24.357,34.003,23.794 M37.303,27.669c0.002,0.001,0.005,0.002,0.006,0.003
	c0.474,0.346,0.962,0.539,0.999,0.549c0.038-0.01,0.525-0.203,1-0.549c0.01-0.006,0.02-0.014,0.028-0.021
	c0.313,0.771,0.982,1.368,1.299,1.62c-0.429,0.274-0.876,0.501-1.343,0.672c-0.002-0.017-0.005-0.033-0.008-0.05
	c-0.094-0.49-0.75-0.59-0.982-0.59c-0.23,0-0.874,0.1-0.97,0.59c-0.003,0.017-0.004,0.033-0.007,0.05
	c-0.46-0.169-0.902-0.392-1.327-0.661C36.307,29.039,36.984,28.442,37.303,27.669 M39.504,27.534
	c0.862-0.626,1.986-1.802,3.119-3.76c0.611,0.551,1.468,0.793,1.879,0.883c-0.976,1.911-2.218,3.495-3.694,4.497
	C40.533,28.94,39.808,28.319,39.504,27.534 M42.726,23.599c0.313-0.556,0.627-1.17,0.936-1.853c0.178-0.393,0.626-1.469,0.957-2.964
	l0.018-0.079c0.185-0.851,0.304-1.711,0.354-2.56l0.002-0.062c0.006-0.085,0.01-0.169,0.014-0.254c0.018-0.44,0.018-0.884,0-1.319
	c-0.012-0.272-0.042-0.709-0.119-1.229c0.979-0.087,1.732-0.396,2.134-0.598c0.137,3.974-0.728,8.378-2.425,11.792
	C44.226,24.396,43.325,24.157,42.726,23.599 M44.856,13.084c-0.231-1.409-0.971-3.163-2.401-4.208
	c1.811-1.063,2.535-2.232,2.703-2.684c1.026,1.428,1.729,3.571,1.853,6.27C46.652,12.65,45.873,12.995,44.856,13.084 M35.019,30.207
	l-0.17-0.119c-1.575-1.135-2.964-2.864-4.068-5.083l-0.093-0.182c-0.121-0.25-0.238-0.504-0.353-0.765
	c-1.567-3.6-2.27-7.9-1.955-11.884l0.018-0.202c0.009-0.104,0.016-0.21,0.026-0.313c0.271-2.659,1.01-4.825,2.101-6.351l0.125-0.172
	c1.138-1.502,2.636-2.334,4.377-2.334c0.259,0,0.887,0.041,1.438,0.389c0.609,0.433,1.143,1.15,1.237,2.241
	c0.146,1.675-1.561,1.939-1.895,1.937c-0.052,0-0.078-0.05,0.088-0.221c0.392-0.504,0.52-1.274,0.389-1.893
	c-0.162-0.769-0.704-1.369-1.491-1.367c-1.296,0.002-2.443,0.673-3.353,1.854l-0.127,0.171c-1.053,1.457-1.763,3.618-1.979,6.225
	l-0.015,0.213c-0.006,0.081-0.013,0.162-0.019,0.244c-0.235,3.956,0.62,8.349,2.318,11.808l0.091,0.188
	c0.989,1.96,2.253,3.604,3.745,4.677l0.173,0.118c0.528,0.359,1.083,0.653,1.664,0.859c-0.016,0.438,0.097,0.827,0.247,1.15
	C36.661,31.16,35.817,30.758,35.019,30.207 M38.434,31.867c-0.006,0.006-0.065,0.081-0.125,0.081c-0.061,0-0.119-0.075-0.124-0.081
	c-0.291-0.364-0.725-1.072-0.562-1.917c0.047-0.24,0.457-0.348,0.686-0.348s0.639,0.107,0.685,0.348
	C39.157,30.795,38.725,31.503,38.434,31.867 M46.282,24.059c-0.113,0.259-0.23,0.512-0.35,0.759l-0.094,0.184
	c-1.103,2.216-2.487,3.942-4.06,5.079l-0.169,0.119c-0.802,0.555-1.65,0.96-2.533,1.197c0.151-0.323,0.263-0.713,0.247-1.15
	c0.584-0.207,1.141-0.501,1.671-0.865l0.174-0.117c1.489-1.074,2.751-2.717,3.738-4.674l0.091-0.188
	c1.697-3.459,2.553-7.851,2.317-11.806c-0.005-0.083-0.013-0.165-0.019-0.247l-0.015-0.213c-0.217-2.608-0.929-4.771-1.983-6.227
	l-0.124-0.171c-0.909-1.178-2.057-1.848-3.351-1.85c-0.787-0.002-1.329,0.599-1.491,1.367c-0.131,0.618-0.003,1.389,0.39,1.893
	c0.188,0.21,0.104,0.277,0.053,0.278c-0.507,0.01-2.006-0.319-1.86-1.994c0.095-1.091,0.628-1.809,1.237-2.241
	c0.552-0.348,1.18-0.389,1.439-0.389c1.74,0,3.239,0.833,4.377,2.336l0.121,0.166c1.094,1.526,1.833,3.693,2.104,6.354
	c0.011,0.104,0.018,0.211,0.026,0.314l0.018,0.203C48.551,16.162,47.85,20.46,46.282,24.059"/>
<path fill="#818181" d="M41.393,11.638v0.689l0.141-0.021c0.002,0,0.027-0.004,0.064-0.004c0.076,0,0.217,0.014,0.305,0.103
	c0.082,0.086,0.108,0.227,0.078,0.412c-0.003,0.008-1.386,6.004-1.648,7.146c-0.303-1.445-1.951-9.335-1.951-9.335l-0.007-0.033
	h-0.327l-0.005,0.035c0,0-1.192,7.681-1.431,9.218c-0.311-1.33-1.64-7.023-1.64-7.023c-0.004-0.037-0.005-0.072-0.005-0.104
	c0-0.161,0.038-0.279,0.114-0.352c0.101-0.098,0.254-0.084,0.268-0.082l0.137,0.018l0.001-0.666h-2.314v0.651l0.103,0.017
	c0.051,0.01,0.309,0.072,0.351,0.308c0.001,0.004,2.708,11.621,2.823,12.115l0.008,0.032h0.407l0.005-0.035
	c0.013-0.08,1.114-7.29,1.319-8.641c0.263,1.345,1.665,8.563,1.682,8.642l0.006,0.034h0.364l2.687-12.154
	c0.062-0.252,0.283-0.279,0.376-0.279c0.014,0,0.022,0.001,0.027,0.002l0.132,0.011v-0.702H41.393z"/>
<path fill="#818181" d="M11.338,34.485c1.121,0.402,0.647,1.61,0.388,2.459l-1.624,5.454l-1.997-6.452
	c-0.201-0.655-0.301-1.132-0.216-1.505H5.863v0.044c0.79,0.418,0.504,1.387,0.229,2.296l-1.682,5.663l-2.141-6.93
	c-0.086-0.284-0.229-0.745-0.172-1.073H0v0.044c0.719,0.507,0.936,1.477,1.193,2.296l1.696,5.498
	c0.474,1.536,0.604,1.432,1.909,2.415l2.243-7.526l1.579,5.127c0.476,1.534,0.576,1.46,1.897,2.399l3.031-10.253h-2.212V34.485z"/>
<path fill="#818181" d="M14.039,34.485c0.733,0.284,0.633,1.372,0.633,2.058v5.617c0,0.67,0.086,1.773-0.633,2.042v0.045h2.73
	v-0.045c-0.718-0.284-0.632-1.372-0.632-2.042v-5.617c0-0.671-0.086-1.773,0.632-2.058v-0.044h-2.73V34.485z"/>
<path fill="#818181" d="M19.284,36.632c0-1.027,1.034-1.354,1.854-1.354c0.806,0,1.696,0.342,2.256,0.938V34.53
	c-0.689-0.223-1.422-0.328-2.141-0.328c-1.753,0-3.607,0.718-3.607,2.594c0,3.159,4.943,2.742,4.943,5.066
	c0,1.043-1.235,1.55-2.054,1.55c-1.121,0-2.301-0.477-3.147-1.236l0.417,1.862c0.819,0.313,1.695,0.448,2.571,0.448
	c2.243,0,3.852-1.492,3.852-3.084C24.228,38.644,19.284,38.673,19.284,36.632"/>
<path fill="#818181" d="M30.052,43.249c-2.213,0-3.65-1.953-3.65-4.143c0-2.162,1.379-3.666,3.362-3.666
	c0.948,0,1.869,0.327,2.659,0.849v-1.713c-0.85-0.209-1.739-0.374-2.615-0.374c-2.946,0-5.045,2.042-5.045,5.127
	c0,3.19,2.099,5.156,5.491,5.156c0.746,0,1.493-0.118,2.169-0.447l0.732-1.727h-0.044C32.207,42.846,31.13,43.249,30.052,43.249"/>
<path fill="#818181" d="M38.338,34.189c-3.017-0.076-5.388,2.293-5.388,5.124c0,3.057,2.399,5.172,5.245,5.172
	c2.859,0,5.286-2.206,5.286-5.247C43.481,36.559,41.356,34.174,38.338,34.189 M38.268,43.412c-2.257,0-3.681-2.146-3.681-4.232
	c0-2.251,1.424-3.919,3.652-3.919c2.269,0,3.604,2.102,3.604,4.277C41.844,41.759,40.45,43.412,38.268,43.412"/>
<path fill="#818181" d="M50.863,34.485c0.763,0.448,0.748,1.045,0.748,1.879v5.648l-5.26-6.885l-0.201-0.299
	c-0.101-0.119-0.158-0.193-0.216-0.373v-0.015h-2.097v0.044c0.747,0.448,0.747,1.045,0.747,1.879v5.946c0,0.833,0,1.429-0.763,1.892
	v0.045h2.545v-0.045c-0.763-0.463-0.748-1.059-0.748-1.892v-5.768l4.93,6.481c0.631,0.85,1.077,1.343,2.097,1.7v-8.36
	c0-0.834,0-1.431,0.747-1.879v-0.044h-2.529V34.485z"/>
<path fill="#818181" d="M55.496,36.632c0-1.027,1.034-1.354,1.854-1.354c0.805,0,1.696,0.342,2.255,0.938V34.53
	c-0.688-0.223-1.421-0.328-2.141-0.328c-1.751,0-3.606,0.718-3.606,2.594c0,3.159,4.943,2.742,4.943,5.066
	c0,1.043-1.236,1.55-2.055,1.55c-1.121,0-2.299-0.477-3.147-1.236l0.417,1.862c0.819,0.313,1.697,0.448,2.573,0.448
	c2.239,0,3.85-1.492,3.85-3.084C60.438,38.644,55.496,38.673,55.496,36.632"/>
<path fill="#818181" d="M60.98,34.485c0.732,0.284,0.632,1.372,0.632,2.058v5.617c0,0.67,0.088,1.773-0.632,2.042v0.045h2.729
	v-0.045c-0.718-0.284-0.631-1.372-0.631-2.042v-5.617c0-0.671-0.087-1.773,0.631-2.058v-0.044H60.98V34.485z"/>
<path fill="#818181" d="M71.461,34.441v0.044c0.763,0.448,0.747,1.045,0.747,1.879v5.648l-5.26-6.884l-0.202-0.3
	c-0.099-0.118-0.156-0.193-0.215-0.373v-0.015h-2.098v0.044c0.747,0.448,0.747,1.045,0.747,1.879v5.946c0,0.833,0,1.429-0.761,1.892
	v0.045h2.544v-0.045c-0.763-0.463-0.747-1.059-0.747-1.892v-5.768l4.928,6.481c0.631,0.85,1.079,1.343,2.098,1.7v-8.36
	c0-0.834,0-1.431,0.747-1.879v-0.044H71.461z"/>
<path fill="#818181" d="M4.093,48.483c0.105,0,0.199-0.018,0.282-0.053s0.153-0.085,0.21-0.149c0.058-0.063,0.102-0.14,0.132-0.228
	c0.03-0.089,0.045-0.187,0.045-0.294v-1.589H5.15v1.589c0,0.153-0.024,0.296-0.073,0.426c-0.049,0.131-0.119,0.243-0.21,0.339
	c-0.092,0.095-0.203,0.169-0.333,0.223s-0.277,0.08-0.441,0.08c-0.163,0-0.31-0.026-0.439-0.08
	c-0.131-0.054-0.242-0.128-0.333-0.223c-0.092-0.096-0.162-0.208-0.21-0.339c-0.049-0.13-0.074-0.272-0.074-0.426v-1.589h0.39v1.587
	c0,0.107,0.016,0.205,0.044,0.295c0.03,0.089,0.074,0.165,0.132,0.229c0.057,0.064,0.128,0.114,0.211,0.149
	C3.895,48.466,3.989,48.483,4.093,48.483"/>
<path fill="#818181" d="M8.004,46.171v2.625H7.807c-0.031,0-0.056-0.005-0.076-0.016c-0.02-0.011-0.04-0.029-0.061-0.054
	l-1.483-1.918c0.002,0.033,0.004,0.065,0.007,0.097c0.002,0.032,0.003,0.062,0.003,0.09v1.801H5.854v-2.625h0.201
	c0.034,0,0.06,0.004,0.076,0.012c0.018,0.009,0.037,0.026,0.058,0.054l1.486,1.92c-0.004-0.035-0.006-0.069-0.008-0.103
	c-0.002-0.034-0.003-0.065-0.003-0.095v-1.788H8.004z"/>
<rect x="8.755" y="46.171" fill="#818181" width="0.393" height="2.625"/>
<path fill="#818181" d="M12.062,46.171l-1.068,2.625h-0.349l-1.068-2.625h0.312c0.034,0,0.062,0.008,0.083,0.025
	c0.021,0.018,0.038,0.039,0.049,0.065l0.709,1.785c0.017,0.044,0.034,0.092,0.05,0.146c0.018,0.052,0.032,0.106,0.045,0.163
	c0.013-0.057,0.026-0.111,0.04-0.163c0.016-0.054,0.031-0.102,0.048-0.146l0.708-1.785c0.009-0.024,0.024-0.045,0.046-0.063
	c0.022-0.019,0.051-0.027,0.085-0.027H12.062z"/>
<polygon fill="#818181" points="14.115,48.48 14.114,48.796 12.486,48.796 12.486,46.171 14.114,46.171 14.114,46.487 
	12.877,46.487 12.877,47.319 13.872,47.319 13.872,47.624 12.877,47.624 12.877,48.48 "/>
<path fill="#818181" d="M16.668,48.796H16.32c-0.069,0-0.119-0.026-0.151-0.082l-0.649-0.91c-0.021-0.03-0.043-0.053-0.067-0.065
	s-0.062-0.019-0.11-0.019h-0.253v1.076h-0.39v-2.625h0.757c0.169,0,0.314,0.018,0.438,0.052c0.122,0.035,0.224,0.084,0.304,0.148
	c0.079,0.063,0.14,0.141,0.178,0.231c0.038,0.09,0.057,0.191,0.057,0.303c0,0.093-0.014,0.178-0.042,0.258
	c-0.028,0.081-0.069,0.153-0.123,0.217c-0.054,0.064-0.12,0.119-0.199,0.166c-0.077,0.046-0.166,0.081-0.265,0.106
	c0.049,0.028,0.091,0.069,0.126,0.122L16.668,48.796z M15.442,47.436c0.101,0,0.188-0.012,0.265-0.036s0.14-0.059,0.191-0.104
	c0.052-0.044,0.09-0.098,0.115-0.159s0.038-0.129,0.038-0.204c0-0.15-0.05-0.265-0.149-0.342c-0.1-0.076-0.248-0.115-0.446-0.115
	h-0.367v0.96H15.442z"/>
<path fill="#818181" d="M18.472,46.599c-0.013,0.021-0.025,0.036-0.038,0.046c-0.015,0.01-0.031,0.015-0.052,0.015
	c-0.021,0-0.047-0.011-0.075-0.03c-0.027-0.021-0.063-0.043-0.105-0.068c-0.042-0.023-0.092-0.047-0.15-0.066
	c-0.059-0.021-0.129-0.031-0.211-0.031c-0.076,0-0.144,0.011-0.201,0.031c-0.059,0.02-0.106,0.047-0.146,0.081
	c-0.039,0.035-0.069,0.076-0.089,0.123c-0.021,0.047-0.03,0.098-0.03,0.152c0,0.071,0.019,0.13,0.054,0.176
	c0.036,0.046,0.084,0.086,0.143,0.119c0.058,0.032,0.125,0.062,0.199,0.086s0.15,0.05,0.228,0.075
	c0.078,0.026,0.155,0.057,0.229,0.091s0.141,0.077,0.199,0.129s0.105,0.115,0.142,0.19s0.054,0.167,0.054,0.275
	c0,0.115-0.02,0.224-0.059,0.325c-0.04,0.102-0.098,0.189-0.173,0.265c-0.076,0.076-0.168,0.136-0.279,0.179
	c-0.11,0.043-0.236,0.065-0.376,0.065c-0.084,0-0.166-0.009-0.245-0.025s-0.154-0.039-0.225-0.069
	c-0.07-0.028-0.138-0.065-0.198-0.107c-0.063-0.042-0.117-0.09-0.166-0.143l0.111-0.186c0.012-0.016,0.024-0.027,0.039-0.037
	c0.017-0.01,0.033-0.014,0.053-0.014c0.025,0,0.056,0.013,0.089,0.039c0.034,0.027,0.075,0.057,0.124,0.089
	c0.05,0.032,0.108,0.063,0.178,0.089s0.152,0.04,0.251,0.04c0.08,0,0.153-0.011,0.216-0.032c0.063-0.021,0.116-0.052,0.16-0.091
	c0.043-0.04,0.077-0.088,0.101-0.144c0.022-0.057,0.033-0.118,0.033-0.187c0-0.077-0.017-0.14-0.053-0.188
	c-0.035-0.049-0.082-0.09-0.14-0.123c-0.06-0.032-0.125-0.061-0.2-0.084c-0.074-0.022-0.15-0.047-0.229-0.072
	c-0.078-0.024-0.154-0.054-0.229-0.086c-0.074-0.033-0.141-0.076-0.199-0.13c-0.059-0.053-0.105-0.119-0.141-0.199
	s-0.054-0.178-0.054-0.295c0-0.094,0.019-0.185,0.056-0.272c0.036-0.088,0.09-0.166,0.16-0.233c0.069-0.067,0.155-0.121,0.259-0.162
	c0.102-0.041,0.219-0.062,0.351-0.062c0.147,0,0.283,0.023,0.406,0.07c0.124,0.047,0.232,0.114,0.323,0.202L18.472,46.599z"/>
<rect x="19.192" y="46.171" fill="#818181" width="0.391" height="2.625"/>
<polygon fill="#818181" points="22.092,46.496 21.257,46.496 21.257,48.796 20.869,48.796 20.869,46.496 20.032,46.496 
	20.032,46.171 22.092,46.171 "/>
<path fill="#818181" d="M23.686,47.758v1.038h-0.388v-1.038l-0.962-1.587h0.343c0.034,0,0.061,0.008,0.082,0.025
	c0.021,0.016,0.038,0.037,0.051,0.064l0.57,0.981c0.023,0.045,0.045,0.088,0.063,0.128c0.02,0.04,0.035,0.08,0.05,0.119
	c0.014-0.039,0.029-0.079,0.046-0.119c0.019-0.04,0.039-0.083,0.063-0.128l0.568-0.981c0.013-0.022,0.029-0.043,0.051-0.062
	c0.021-0.02,0.048-0.028,0.081-0.028h0.344L23.686,47.758z"/>
<path fill="#818181" d="M28.506,47.483c0,0.196-0.032,0.377-0.094,0.54c-0.063,0.164-0.152,0.306-0.267,0.425
	s-0.252,0.211-0.411,0.276c-0.16,0.066-0.338,0.1-0.532,0.1s-0.371-0.033-0.531-0.1c-0.161-0.065-0.298-0.157-0.412-0.276
	c-0.113-0.119-0.202-0.261-0.266-0.425c-0.063-0.163-0.095-0.344-0.095-0.54c0-0.195,0.031-0.375,0.095-0.539
	c0.063-0.165,0.152-0.307,0.266-0.426c0.114-0.118,0.251-0.211,0.412-0.277c0.16-0.066,0.337-0.1,0.531-0.1s0.372,0.033,0.532,0.1
	c0.159,0.066,0.297,0.159,0.411,0.277c0.114,0.119,0.203,0.261,0.267,0.426C28.474,47.108,28.506,47.288,28.506,47.483
	 M28.107,47.483c0-0.156-0.021-0.296-0.064-0.42c-0.042-0.125-0.104-0.23-0.182-0.316c-0.078-0.087-0.174-0.153-0.285-0.2
	c-0.112-0.046-0.236-0.069-0.374-0.069c-0.139,0-0.263,0.023-0.374,0.069c-0.112,0.047-0.207,0.113-0.286,0.2
	c-0.08,0.086-0.14,0.191-0.183,0.316c-0.043,0.124-0.064,0.264-0.064,0.42c0,0.157,0.021,0.298,0.064,0.422
	c0.043,0.123,0.103,0.229,0.183,0.315c0.079,0.086,0.174,0.152,0.286,0.199c0.111,0.045,0.235,0.067,0.374,0.067
	c0.138,0,0.262-0.022,0.374-0.067c0.111-0.047,0.207-0.113,0.285-0.199c0.078-0.087,0.14-0.192,0.182-0.315
	C28.086,47.781,28.107,47.641,28.107,47.483"/>
<polygon fill="#818181" points="29.469,46.487 29.469,47.366 30.522,47.366 30.522,47.683 29.469,47.683 29.469,48.796 
	29.078,48.796 29.078,46.171 30.705,46.171 30.705,46.487 "/>
<path fill="#818181" d="M35.703,46.171l-0.819,2.625h-0.352l-0.64-1.947c-0.015-0.039-0.027-0.086-0.038-0.141
	c-0.014,0.057-0.026,0.104-0.039,0.141l-0.646,1.947h-0.35L32,46.171h0.325c0.034,0,0.063,0.008,0.087,0.024
	c0.022,0.017,0.037,0.039,0.045,0.066l0.518,1.758c0.01,0.034,0.019,0.071,0.026,0.111c0.009,0.04,0.016,0.082,0.024,0.126
	c0.009-0.044,0.018-0.086,0.027-0.126c0.009-0.04,0.02-0.077,0.032-0.111l0.592-1.758c0.007-0.024,0.022-0.045,0.047-0.063
	c0.022-0.019,0.052-0.027,0.085-0.027h0.111c0.033,0,0.063,0.008,0.084,0.025s0.038,0.039,0.048,0.065l0.591,1.758
	c0.021,0.066,0.041,0.143,0.058,0.229c0.016-0.084,0.031-0.16,0.049-0.229l0.519-1.758c0.006-0.024,0.021-0.045,0.046-0.063
	s0.053-0.027,0.086-0.027H35.703z"/>
<rect x="36.149" y="46.171" fill="#818181" width="0.391" height="2.625"/>
<path fill="#818181" d="M38.626,46.599c-0.012,0.021-0.024,0.036-0.038,0.046s-0.03,0.015-0.052,0.015s-0.047-0.011-0.075-0.03
	c-0.027-0.021-0.063-0.043-0.104-0.068c-0.042-0.023-0.092-0.047-0.15-0.066c-0.059-0.021-0.129-0.031-0.211-0.031
	c-0.077,0-0.144,0.011-0.202,0.031c-0.058,0.02-0.105,0.047-0.146,0.081c-0.039,0.035-0.068,0.076-0.088,0.123
	c-0.021,0.047-0.03,0.098-0.03,0.152c0,0.071,0.018,0.13,0.054,0.176s0.083,0.086,0.142,0.119c0.059,0.032,0.125,0.062,0.2,0.086
	c0.073,0.024,0.149,0.05,0.228,0.075c0.078,0.026,0.155,0.057,0.229,0.091c0.074,0.034,0.142,0.077,0.199,0.129
	c0.06,0.052,0.106,0.115,0.143,0.19s0.054,0.167,0.054,0.275c0,0.115-0.021,0.224-0.06,0.325s-0.098,0.189-0.173,0.265
	c-0.075,0.076-0.169,0.136-0.278,0.179c-0.111,0.043-0.236,0.065-0.376,0.065c-0.084,0-0.166-0.009-0.245-0.025
	c-0.08-0.017-0.154-0.039-0.226-0.069c-0.07-0.028-0.137-0.065-0.197-0.107c-0.063-0.042-0.117-0.09-0.166-0.143l0.111-0.186
	c0.012-0.016,0.024-0.027,0.039-0.037c0.016-0.01,0.033-0.014,0.053-0.014c0.025,0,0.056,0.013,0.089,0.039
	c0.033,0.027,0.074,0.057,0.124,0.089s0.108,0.063,0.177,0.089c0.069,0.026,0.153,0.04,0.252,0.04c0.08,0,0.152-0.011,0.216-0.032
	c0.063-0.021,0.116-0.052,0.16-0.091c0.043-0.04,0.076-0.088,0.1-0.144c0.022-0.057,0.034-0.118,0.034-0.187
	c0-0.077-0.017-0.14-0.053-0.188c-0.035-0.049-0.082-0.09-0.141-0.123c-0.059-0.032-0.125-0.061-0.199-0.084
	c-0.074-0.022-0.151-0.047-0.229-0.072c-0.079-0.024-0.154-0.054-0.229-0.086c-0.075-0.033-0.142-0.076-0.2-0.13
	c-0.058-0.053-0.104-0.119-0.14-0.199s-0.054-0.178-0.054-0.295c0-0.094,0.019-0.185,0.056-0.272
	c0.036-0.088,0.09-0.166,0.158-0.233c0.071-0.067,0.157-0.121,0.26-0.162s0.22-0.062,0.351-0.062c0.148,0,0.283,0.023,0.407,0.07
	s0.23,0.114,0.323,0.202L38.626,46.599z"/>
<path fill="#818181" d="M41.173,48.233c0.022,0,0.041,0.009,0.057,0.025l0.153,0.168c-0.107,0.127-0.237,0.225-0.392,0.295
	c-0.154,0.069-0.34,0.104-0.557,0.104c-0.19,0-0.362-0.033-0.517-0.1c-0.154-0.065-0.286-0.157-0.396-0.275
	c-0.108-0.119-0.193-0.26-0.253-0.425c-0.06-0.164-0.09-0.346-0.09-0.543s0.032-0.378,0.094-0.543
	c0.063-0.165,0.151-0.306,0.266-0.424c0.112-0.118,0.248-0.211,0.406-0.276c0.157-0.066,0.332-0.099,0.523-0.099
	c0.188,0,0.352,0.03,0.497,0.091c0.146,0.063,0.272,0.143,0.379,0.243l-0.128,0.182c-0.008,0.014-0.019,0.024-0.032,0.032
	c-0.012,0.009-0.029,0.014-0.05,0.014c-0.023,0-0.05-0.012-0.082-0.035c-0.03-0.023-0.071-0.049-0.122-0.078
	c-0.05-0.028-0.113-0.054-0.187-0.077c-0.075-0.023-0.167-0.035-0.279-0.035c-0.13,0-0.249,0.023-0.358,0.069
	c-0.107,0.045-0.201,0.111-0.28,0.197c-0.078,0.086-0.14,0.191-0.183,0.316c-0.044,0.125-0.064,0.266-0.064,0.423
	c0,0.16,0.021,0.302,0.067,0.426c0.045,0.125,0.107,0.23,0.187,0.316c0.079,0.087,0.173,0.154,0.28,0.198
	c0.106,0.045,0.223,0.067,0.347,0.067c0.076,0,0.144-0.005,0.204-0.014c0.06-0.01,0.116-0.023,0.166-0.041
	c0.051-0.019,0.099-0.042,0.144-0.07s0.09-0.063,0.134-0.104c0.01-0.008,0.021-0.016,0.031-0.021
	C41.149,48.236,41.161,48.233,41.173,48.233"/>
<path fill="#818181" d="M44.246,47.483c0,0.196-0.031,0.377-0.094,0.54c-0.063,0.164-0.151,0.306-0.267,0.425
	c-0.113,0.119-0.251,0.211-0.411,0.276c-0.159,0.066-0.337,0.1-0.531,0.1s-0.371-0.033-0.532-0.1
	c-0.16-0.065-0.297-0.157-0.411-0.276s-0.203-0.261-0.266-0.425c-0.063-0.163-0.096-0.344-0.096-0.54
	c0-0.195,0.032-0.375,0.096-0.539c0.063-0.165,0.151-0.307,0.266-0.426c0.114-0.118,0.251-0.211,0.411-0.277
	c0.161-0.066,0.338-0.1,0.532-0.1s0.372,0.033,0.531,0.1c0.16,0.066,0.298,0.159,0.411,0.277c0.115,0.119,0.204,0.261,0.267,0.426
	C44.215,47.108,44.246,47.288,44.246,47.483 M43.848,47.483c0-0.156-0.021-0.296-0.063-0.42c-0.043-0.125-0.104-0.23-0.182-0.316
	c-0.079-0.087-0.175-0.153-0.285-0.2c-0.112-0.046-0.237-0.069-0.374-0.069c-0.139,0-0.264,0.023-0.374,0.069
	c-0.112,0.047-0.207,0.113-0.286,0.2c-0.08,0.086-0.141,0.191-0.184,0.316c-0.043,0.124-0.063,0.264-0.063,0.42
	c0,0.157,0.021,0.298,0.063,0.422c0.043,0.123,0.104,0.229,0.184,0.315c0.079,0.086,0.174,0.152,0.286,0.199
	c0.11,0.045,0.235,0.067,0.374,0.067c0.137,0,0.262-0.022,0.374-0.067c0.11-0.047,0.206-0.113,0.285-0.199
	c0.078-0.087,0.139-0.192,0.182-0.315C43.827,47.781,43.848,47.641,43.848,47.483"/>
<path fill="#818181" d="M46.959,46.171v2.625h-0.198c-0.03,0-0.056-0.005-0.075-0.016c-0.021-0.011-0.041-0.029-0.063-0.054
	l-1.481-1.918c0.002,0.033,0.004,0.065,0.005,0.097c0.002,0.032,0.003,0.062,0.003,0.09v1.801h-0.341v-2.625h0.201
	c0.033,0,0.059,0.004,0.076,0.012c0.018,0.009,0.036,0.026,0.057,0.054l1.487,1.92c-0.005-0.035-0.008-0.069-0.009-0.103
	c-0.002-0.034-0.003-0.065-0.003-0.095v-1.788H46.959z"/>
<path fill="#818181" d="M49.047,46.599c-0.012,0.021-0.025,0.036-0.039,0.046c-0.013,0.01-0.03,0.015-0.051,0.015
	c-0.022,0-0.047-0.011-0.075-0.03c-0.028-0.021-0.063-0.043-0.105-0.068c-0.042-0.023-0.092-0.047-0.15-0.066
	c-0.059-0.021-0.128-0.031-0.21-0.031c-0.077,0-0.145,0.011-0.202,0.031c-0.058,0.02-0.106,0.047-0.146,0.081
	c-0.038,0.035-0.067,0.076-0.088,0.123c-0.02,0.047-0.029,0.098-0.029,0.152c0,0.071,0.017,0.13,0.054,0.176
	c0.036,0.046,0.083,0.086,0.141,0.119c0.06,0.032,0.125,0.062,0.199,0.086c0.075,0.024,0.151,0.05,0.229,0.075
	c0.078,0.026,0.154,0.057,0.229,0.091c0.074,0.034,0.141,0.077,0.199,0.129s0.105,0.115,0.142,0.19s0.055,0.167,0.055,0.275
	c0,0.115-0.021,0.224-0.061,0.325c-0.039,0.102-0.097,0.189-0.173,0.265c-0.075,0.076-0.168,0.136-0.278,0.179
	s-0.235,0.065-0.376,0.065c-0.084,0-0.166-0.009-0.245-0.025c-0.08-0.017-0.153-0.039-0.225-0.069
	c-0.071-0.028-0.137-0.065-0.199-0.107c-0.061-0.042-0.116-0.09-0.165-0.143l0.112-0.186c0.011-0.016,0.022-0.027,0.039-0.037
	c0.015-0.01,0.032-0.014,0.052-0.014c0.026,0,0.055,0.013,0.089,0.039c0.033,0.027,0.074,0.057,0.124,0.089s0.109,0.063,0.177,0.089
	c0.069,0.026,0.153,0.04,0.252,0.04c0.08,0,0.152-0.011,0.217-0.032c0.063-0.021,0.115-0.052,0.158-0.091
	c0.045-0.04,0.077-0.088,0.101-0.144c0.022-0.057,0.035-0.118,0.035-0.187c0-0.077-0.019-0.14-0.054-0.188
	c-0.034-0.049-0.083-0.09-0.141-0.123c-0.058-0.032-0.125-0.061-0.199-0.084c-0.074-0.022-0.15-0.047-0.229-0.072
	c-0.078-0.024-0.154-0.054-0.229-0.086c-0.074-0.033-0.141-0.076-0.199-0.13c-0.059-0.053-0.105-0.119-0.141-0.199
	c-0.036-0.08-0.053-0.178-0.053-0.295c0-0.094,0.018-0.185,0.054-0.272c0.037-0.088,0.09-0.166,0.16-0.233
	c0.071-0.067,0.157-0.121,0.259-0.162c0.104-0.041,0.219-0.062,0.352-0.062c0.147,0,0.282,0.023,0.406,0.07s0.231,0.114,0.323,0.202
	L49.047,46.599z"/>
<rect x="49.768" y="46.171" fill="#818181" width="0.391" height="2.625"/>
<path fill="#818181" d="M53.059,46.171v2.625H52.86c-0.029,0-0.055-0.005-0.075-0.016c-0.02-0.011-0.041-0.029-0.062-0.054
	l-1.483-1.918c0.004,0.033,0.006,0.065,0.007,0.097c0.002,0.032,0.003,0.062,0.003,0.09v1.801h-0.342v-2.625h0.2
	c0.034,0,0.061,0.004,0.077,0.012c0.018,0.009,0.037,0.026,0.057,0.054l1.487,1.92c-0.004-0.035-0.007-0.069-0.008-0.103
	c-0.002-0.034-0.003-0.065-0.003-0.095v-1.788H53.059z"/>
<rect x="53.728" y="47.414" fill="#818181" width="1.467" height="0.261"/>
<path fill="#818181" d="M58.623,46.171v2.625h-0.34v-1.868c0-0.027,0.001-0.058,0.003-0.09c0.001-0.031,0.003-0.063,0.005-0.097
	l-0.874,1.604c-0.03,0.06-0.077,0.09-0.14,0.09h-0.056c-0.063,0-0.109-0.03-0.139-0.09l-0.891-1.609
	c0.008,0.068,0.012,0.133,0.012,0.192v1.868h-0.343v-2.625h0.289c0.034,0,0.061,0.003,0.08,0.01
	c0.019,0.007,0.036,0.025,0.054,0.056l0.878,1.572c0.017,0.032,0.033,0.065,0.047,0.101c0.015,0.036,0.029,0.071,0.042,0.106
	c0.026-0.072,0.056-0.142,0.09-0.209l0.861-1.57c0.016-0.03,0.033-0.049,0.052-0.056c0.02-0.007,0.046-0.01,0.08-0.01H58.623z"/>
<path fill="#818181" d="M61.532,48.796h-0.3c-0.034,0-0.062-0.008-0.084-0.025c-0.021-0.017-0.038-0.039-0.048-0.065l-0.231-0.609
	h-1.158l-0.232,0.609c-0.008,0.023-0.023,0.044-0.048,0.063c-0.022,0.019-0.05,0.027-0.084,0.027h-0.299l1.046-2.625h0.393
	L61.532,48.796z M60.763,47.818l-0.39-1.019c-0.028-0.069-0.057-0.157-0.084-0.264c-0.014,0.054-0.027,0.102-0.041,0.146
	c-0.015,0.045-0.027,0.085-0.041,0.121l-0.389,1.015H60.763z"/>
<path fill="#818181" d="M64.254,47.483c0,0.196-0.032,0.375-0.095,0.536c-0.063,0.16-0.151,0.299-0.266,0.414
	c-0.115,0.115-0.252,0.204-0.412,0.268s-0.337,0.095-0.532,0.095h-0.987v-2.624h0.987c0.195,0,0.372,0.03,0.532,0.094
	s0.297,0.152,0.412,0.268c0.114,0.115,0.203,0.254,0.266,0.415C64.222,47.11,64.254,47.288,64.254,47.483 M63.854,47.483
	c0-0.156-0.021-0.296-0.063-0.419c-0.043-0.124-0.104-0.229-0.183-0.315c-0.079-0.086-0.173-0.151-0.285-0.196
	c-0.111-0.045-0.235-0.067-0.374-0.067h-0.596v1.996h0.596c0.139,0,0.263-0.022,0.374-0.067c0.112-0.045,0.206-0.11,0.285-0.196
	s0.14-0.19,0.183-0.313S63.854,47.641,63.854,47.483"/>
<rect x="64.856" y="46.171" fill="#818181" width="0.392" height="2.625"/>
<path fill="#818181" d="M67.334,46.599c-0.013,0.021-0.025,0.036-0.039,0.046s-0.03,0.015-0.051,0.015
	c-0.021,0-0.048-0.011-0.076-0.03c-0.026-0.021-0.063-0.043-0.104-0.068c-0.042-0.023-0.092-0.047-0.15-0.066
	c-0.059-0.021-0.129-0.031-0.211-0.031c-0.077,0-0.144,0.011-0.202,0.031c-0.058,0.02-0.105,0.047-0.145,0.081
	c-0.039,0.035-0.069,0.076-0.089,0.123c-0.021,0.047-0.03,0.098-0.03,0.152c0,0.071,0.019,0.13,0.054,0.176
	c0.036,0.046,0.083,0.086,0.143,0.119c0.058,0.032,0.125,0.062,0.199,0.086c0.073,0.024,0.149,0.05,0.228,0.075
	c0.078,0.026,0.155,0.057,0.229,0.091c0.073,0.034,0.141,0.077,0.199,0.129s0.105,0.115,0.142,0.19s0.054,0.167,0.054,0.275
	c0,0.115-0.02,0.224-0.06,0.325c-0.039,0.102-0.098,0.189-0.172,0.265c-0.076,0.076-0.168,0.136-0.279,0.179
	s-0.236,0.065-0.376,0.065c-0.084,0-0.165-0.009-0.245-0.025c-0.079-0.017-0.154-0.039-0.225-0.069
	c-0.07-0.028-0.138-0.065-0.198-0.107c-0.063-0.042-0.117-0.09-0.166-0.143l0.111-0.186c0.012-0.016,0.024-0.027,0.039-0.037
	c0.016-0.01,0.033-0.014,0.053-0.014c0.025,0,0.056,0.013,0.089,0.039c0.033,0.027,0.075,0.057,0.124,0.089
	c0.05,0.032,0.108,0.063,0.178,0.089s0.152,0.04,0.251,0.04c0.08,0,0.153-0.011,0.216-0.032c0.063-0.021,0.116-0.052,0.16-0.091
	c0.043-0.04,0.076-0.088,0.101-0.144c0.021-0.057,0.033-0.118,0.033-0.187c0-0.077-0.017-0.14-0.053-0.188
	c-0.035-0.049-0.082-0.09-0.141-0.123c-0.059-0.032-0.125-0.061-0.199-0.084c-0.074-0.022-0.15-0.047-0.229-0.072
	c-0.078-0.024-0.154-0.054-0.229-0.086c-0.074-0.033-0.141-0.076-0.2-0.13c-0.058-0.053-0.104-0.119-0.14-0.199
	s-0.054-0.178-0.054-0.295c0-0.094,0.019-0.185,0.056-0.272c0.036-0.088,0.09-0.166,0.16-0.233c0.069-0.067,0.155-0.121,0.259-0.162
	c0.102-0.041,0.219-0.062,0.35-0.062c0.148,0,0.284,0.023,0.407,0.07c0.124,0.047,0.232,0.114,0.323,0.202L67.334,46.599z"/>
<path fill="#818181" d="M70.492,47.483c0,0.196-0.03,0.377-0.094,0.54c-0.063,0.164-0.15,0.306-0.266,0.425
	s-0.251,0.211-0.411,0.276c-0.16,0.066-0.337,0.1-0.532,0.1c-0.193,0-0.371-0.033-0.531-0.1c-0.16-0.065-0.298-0.157-0.411-0.276
	c-0.114-0.119-0.203-0.261-0.267-0.425c-0.063-0.163-0.095-0.344-0.095-0.54c0-0.195,0.032-0.375,0.095-0.539
	c0.063-0.165,0.152-0.307,0.267-0.426c0.113-0.118,0.251-0.211,0.411-0.277s0.338-0.1,0.531-0.1c0.195,0,0.372,0.033,0.532,0.1
	s0.296,0.159,0.411,0.277c0.115,0.119,0.203,0.261,0.266,0.426C70.462,47.108,70.492,47.288,70.492,47.483 M70.095,47.483
	c0-0.156-0.021-0.296-0.064-0.42c-0.043-0.125-0.103-0.23-0.182-0.316c-0.079-0.087-0.174-0.153-0.285-0.2
	c-0.111-0.046-0.236-0.069-0.374-0.069s-0.263,0.023-0.374,0.069c-0.111,0.047-0.207,0.113-0.286,0.2
	c-0.08,0.086-0.141,0.191-0.184,0.316c-0.042,0.124-0.063,0.264-0.063,0.42c0,0.157,0.021,0.298,0.063,0.422
	c0.043,0.123,0.104,0.229,0.184,0.315c0.079,0.086,0.175,0.152,0.286,0.199c0.111,0.045,0.236,0.067,0.374,0.067
	s0.263-0.022,0.374-0.067c0.111-0.047,0.206-0.113,0.285-0.199c0.079-0.087,0.139-0.192,0.182-0.315
	C70.073,47.781,70.095,47.641,70.095,47.483"/>
<path fill="#818181" d="M73.216,46.171v2.625h-0.198c-0.029,0-0.055-0.005-0.075-0.016c-0.02-0.011-0.041-0.029-0.062-0.054
	l-1.482-1.918c0.002,0.033,0.004,0.065,0.006,0.097c0.003,0.032,0.003,0.062,0.003,0.09v1.801h-0.342v-2.625h0.201
	c0.034,0,0.06,0.004,0.076,0.012c0.018,0.009,0.037,0.026,0.057,0.054l1.487,1.92c-0.004-0.035-0.006-0.069-0.008-0.103
	c-0.002-0.034-0.003-0.065-0.003-0.095v-1.788H73.216z"/>
</svg>
