<?xml version="1.0" encoding="utf-8"?>
<!-- Generator: Adobe Illustrator 16.0.0, SVG Export Plug-In . SVG Version: 6.00 Build 0)  -->
<!DOCTYPE svg PUBLIC "-//W3C//DTD SVG 1.1//EN" "http://www.w3.org/Graphics/SVG/1.1/DTD/svg11.dtd">
<svg version="1.1" id="Layer_1" xmlns="http://www.w3.org/2000/svg" xmlns:xlink="http://www.w3.org/1999/xlink" x="0px" y="0px"
	 width="58.231px" height="20.682px" viewBox="0 0 58.231 20.682" enable-background="new 0 0 58.231 20.682" xml:space="preserve">
<path fill="#818181" d="M19.414,0.398h8.182c3.024,0,5.56,1.152,5.56,5.099c0,2.275-0.49,3.456-2.823,4.205
	c2.247,0.577,3.572,1.814,3.572,4.812c0,4.003-1.729,5.962-6.972,5.962h-7.519V0.398z M26.617,15.81
	c0.863,0,1.267-0.634,1.267-1.931c0-0.95-0.403-1.67-1.411-1.67h-1.354v3.601H26.617z M26.328,8.118
	c0.864,0,1.268-0.604,1.268-1.671c0-0.922-0.432-1.411-1.268-1.411h-1.181v3.082H26.328z"/>
<rect x="34.931" y="0.397" fill="#818181" width="5.991" height="20.078"/>
<path fill="#818181" d="M42.706,0.398h7.604c5.242,0,7.921,2.679,7.921,9.707c0,6.309-1.469,10.37-7.604,10.37h-7.922V0.398z
	 M50.108,15.665c1.239,0,1.872-0.403,1.872-5.731c0-4.235-0.893-4.725-2.102-4.725H48.64v10.456H50.108z"/>
<path fill="#818181" d="M17.142,1.349C14.107,0.448,11.337,0.026,8.679,0H8.571C5.912,0.026,3.141,0.448,0.106,1.349L0,1.381v12.791
	l0.002,0.009c0.419,3.201,1.994,4.853,3.736,5.669c1.739,0.82,3.632,0.831,4.724,0.832h0.216h0.108
	c1.093-0.001,2.985-0.012,4.725-0.832c1.74-0.816,3.317-2.468,3.735-5.669l0.002-0.009V1.381L17.142,1.349z M8.008,0.582
	c0.017-0.024,0.044-0.017,0.088-0.015C8.209,0.573,8.265,0.56,8.323,0.547C8.415,0.53,8.581,0.54,8.601,0.586
	c0.019,0.046-0.028,0.103-0.104,0.11C8.425,0.705,8.379,0.752,8.313,0.797C8.258,0.835,8.162,0.845,8.091,0.77
	C8.071,0.748,8.068,0.69,8.035,0.654C8.014,0.632,7.99,0.609,8.008,0.582 M7.146,0.635c0.011-0.019,0.067-0.021,0.114-0.021
	c0.083,0,0.127,0.041,0.193,0C7.516,0.574,7.701,0.462,7.76,0.54c0.047,0.062,0.02,0.166-0.086,0.176c0,0-0.061,0.015-0.198,0.017
	C7.322,0.736,7.276,0.728,7.243,0.715C7.144,0.68,7.139,0.649,7.146,0.635 M6.709,6.584c0.06-0.102,0.142-0.194,0.229-0.269
	l0.103,1.009c-0.07,0.01-0.137,0.004-0.205-0.025C6.693,7.238,6.579,6.81,6.709,6.584 M5.183,20.054
	c-0.44-0.115-0.886-0.267-1.318-0.471c-1.285-0.609-2.465-1.665-3.128-3.55l4.681,3.688C5.337,19.826,5.259,19.937,5.183,20.054
	 M5.605,19.492l-5.027-3.961c-0.106-0.372-0.191-0.774-0.257-1.207l5.354,5.085C5.652,19.436,5.628,19.465,5.605,19.492
	 M5.881,19.197l-5.584-5.306v-1.209l5.665,6.44C5.935,19.148,5.908,19.172,5.881,19.197 M6.187,18.931l-5.89-6.695v-1.489
	l5.943,8.143C6.222,18.902,6.204,18.916,6.187,18.931 M6.479,18.716l-6.183-8.474V8.417l6.22,10.272
	C6.503,18.697,6.491,18.706,6.479,18.716 M7.407,18.247L2.881,6.456C2.866,6.419,2.824,6.4,2.787,6.414l-0.14,0.054
	C2.609,6.482,2.59,6.524,2.605,6.562l4.525,11.794c-0.022,0.011-0.047,0.019-0.071,0.029L1.441,7.143
	C1.423,7.105,1.379,7.092,1.344,7.109L1.209,7.177c-0.036,0.018-0.05,0.062-0.032,0.098l5.619,11.244
	c-0.009,0.006-0.017,0.011-0.027,0.017L0.331,7.903C0.323,7.891,0.31,7.882,0.297,7.875V1.601c0.516-0.151,1.024-0.288,1.526-0.412
	c-0.118,0.261-0.29,0.489-0.458,0.766c-0.068,0.112-0.084,0.39,0.247,0.409c0.083,0.004,0.162-0.031,0.17,0.062
	C1.786,2.48,1.535,2.599,1.535,2.599S1.055,2.766,0.944,2.82C0.865,2.859,0.772,2.938,0.81,3.011
	c0.039,0.073,0.161,0.07,0.278,0.046c0.556-0.115,0.72-0.258,0.825-0.309c0.27-0.131,0.303-0.095,0.494-0.169
	c0.277-0.108,0.332-0.263,0.494-0.35c0.3-0.16,0.832-0.314,1.182,0.277c0.352,0.59,0.186,1.588,0.148,1.755
	C4.216,4.331,4.155,4.481,4.11,4.66C4.044,4.907,3.959,5.403,4.041,5.652c0.021,0.059,0.042,0.116,0.066,0.173
	C4.099,5.824,4.09,5.824,4.081,5.827L3.938,5.87c-0.039,0.012-0.062,0.052-0.05,0.09l3.6,12.26
	C7.461,18.228,7.433,18.238,7.407,18.247 M7.772,18.137L4.233,6.087C4.29,6.19,4.353,6.293,4.422,6.396
	c0.167,0.24,0.398,0.601,0.523,0.781c0.087,0.126,0.181,0.266,0.261,0.241c0.096-0.028,0.009-0.164-0.037-0.26
	C5.097,7.007,5.027,6.834,4.941,6.655C4.806,6.376,5.003,6.343,5.097,6.62c0.121,0.362,0.277,0.563,0.331,0.658
	c0.066,0.117,0.21,0.276,0.337,0.362c0.011,0.006,0.021,0.015,0.034,0.023l2.006,10.464C7.794,18.132,7.783,18.134,7.772,18.137
	 M8.094,18.07L6.132,7.832c0.049,0.017,0.102,0.029,0.159,0.04c0.277,0.046-0.056,0.156,0.388,0.259
	C6.854,8.172,7.002,8.187,7.13,8.192l1.008,9.872C8.123,18.067,8.109,18.068,8.094,18.07 M8.479,10.108
	c-0.017,0.036-0.035,0.069-0.063,0.091c-0.092,0.073-0.277,0.082-0.092,0.471c-0.038,0.084-0.157,0.144-0.228,0.276
	c-0.1,0.186-0.248,0.317-0.216,0.49c0.049,0.262,0.364,0.673,0.599,0.913v3.531c-0.069,0.169-0.13,0.351-0.167,0.531
	c-0.011,0.053-0.021,0.105-0.028,0.161L7.428,8.198C7.484,8.2,7.533,8.203,7.573,8.213C7.692,8.24,7.909,8.329,8.142,8.574
	c0.1,0.104,0.189,0.331,0.301,0.405c0.011,0.007,0.023,0.013,0.036,0.019V10.108z M8.479,7.985C8.467,7.981,8.456,7.978,8.442,7.974
	C8.068,7.875,7.887,7.824,7.916,7.568c0.01-0.092,0.037-0.254,0.111-0.36C8.123,7.07,8.134,6.816,7.853,6.847
	C7.603,6.874,7.5,6.902,7.464,7.004C7.432,7.093,7.479,7.15,7.329,7.228l-0.11-1.069c0.018-0.006,0.035-0.011,0.052-0.012
	c0.215-0.029,0.177,0.126,0.42,0.045C7.8,6.154,7.765,6.016,7.993,5.882c0.22-0.13,0.432-0.11,0.475-0.073
	C8.473,5.813,8.476,5.816,8.479,5.82V7.985z M8.886,14.144c0.13,0.34,0.148,0.701,0.064,0.839c-0.028,0.047-0.095,0.152-0.176,0.296
	V12.61c0.219,0.17,0.29,0.181,0.305,0.378c0.02,0.25,0.02,0.305-0.119,0.581C8.822,13.847,8.756,13.801,8.886,14.144 M8.774,9.758
	V9.044c0.097,0.003,0.145,0.038,0.148,0.079c0.014,0.114-0.012,0.323-0.019,0.383C8.897,9.573,8.876,9.664,8.774,9.758
	 M9.457,18.088l0.212-1.107c0.053-0.098,0.059-0.187,0.05-0.261l0.083-0.434c0.043-0.043,0.104-0.081,0.194-0.109
	c0.012-0.003,0.035-0.005,0.062-0.005l-0.563,1.923C9.481,18.092,9.47,18.09,9.457,18.088 M9.783,18.162l0.627-2.137
	c0.002-0.002,0.003-0.003,0.004-0.004c0.071-0.094,0.074-0.168,0.064-0.229l0.055-0.187c0.058,0.007,0.133,0.048,0.198,0.04
	c0.035-0.004,0.082-0.024,0.137-0.059l-0.997,2.598C9.841,18.178,9.813,18.172,9.783,18.162 M10.15,18.281l1.227-3.195
	c0.04-0.05,0.08-0.103,0.121-0.158c0.114-0.153,0.217-0.323,0.301-0.416c0.063-0.07,0.233-0.066,0.371-0.08l-1.94,3.882
	C10.203,18.304,10.177,18.291,10.15,18.281 M13.384,19.583c-0.392,0.186-0.794,0.326-1.192,0.436
	c-0.079-0.132-0.163-0.259-0.253-0.378l4.57-3.598C15.846,17.922,14.665,18.976,13.384,19.583 M16.669,15.537l-4.916,3.873
	c-0.025-0.029-0.052-0.063-0.079-0.092l5.252-4.99C16.86,14.762,16.775,15.164,16.669,15.537 M16.952,13.896l-5.485,5.211
	c-0.029-0.028-0.06-0.054-0.091-0.081l5.576-6.341V13.896z M16.952,12.241l-5.804,6.599c-0.021-0.017-0.041-0.034-0.063-0.049
	l5.866-8.037V12.241z M16.952,10.249l-6.11,8.375c-0.017-0.01-0.032-0.018-0.049-0.028l6.159-10.17V10.249z M16.952,7.878
	c-0.011,0.006-0.022,0.014-0.029,0.025l-6.389,10.55c-0.012-0.007-0.023-0.012-0.034-0.018l2.14-4.283
	c0.051-0.071,0.099-0.163,0.141-0.281l0.329-0.658c0.047-0.063,0.088-0.112,0.12-0.15c0.097-0.118,0.205-0.209,0.509-0.49
	c0.16-0.148,0.256-0.334,0.196-0.509c-0.022-0.063-0.075-0.136-0.146-0.21l2.288-4.579c0.018-0.036,0.003-0.08-0.032-0.098
	l-0.134-0.067c-0.036-0.018-0.081-0.004-0.098,0.033l-2.257,4.513c-0.144-0.105-0.313-0.205-0.484-0.278
	c-0.071-0.03-0.157-0.05-0.241-0.08l1.818-4.735c0.014-0.037-0.004-0.079-0.042-0.094l-0.141-0.054
	C14.43,6.4,14.388,6.419,14.373,6.456l-1.793,4.671c-0.081-0.127-0.038-0.34-0.095-0.455c-0.065-0.125-0.217-0.274-0.354-0.412
	c-0.007-0.007-0.013-0.017-0.021-0.025l1.255-4.274c0.011-0.038-0.011-0.078-0.049-0.09l-0.145-0.043
	c-0.038-0.011-0.079,0.013-0.091,0.05l-1.177,4.007c-0.067-0.135-0.146-0.273-0.282-0.387c-0.047-0.042-0.271-0.116-0.333-0.138
	c-0.053-0.019-0.101-0.036-0.149-0.055l0.175-0.906c0.008,0.003,0.015,0.009,0.019,0.019c0.018,0.037,0.085,0.069,0.129,0.046
	c0.035-0.018-0.023-0.093-0.073-0.138c-0.017-0.016-0.034-0.023-0.056-0.03l0.528-2.752c0.008-0.039-0.019-0.078-0.058-0.086
	l-0.146-0.028c-0.04-0.007-0.078,0.02-0.086,0.059l-0.708,3.693c-0.079-0.04-0.158-0.083-0.24-0.134
	c-0.16-0.1-0.243-0.349-0.543-0.431l0.085-0.826c0.055-0.004,0.083-0.019,0.096-0.053c0.019-0.047,0.01-0.072-0.025-0.121
	c-0.012-0.017-0.028-0.033-0.048-0.05l0.241-2.368c0.004-0.039-0.024-0.075-0.064-0.079l-0.148-0.016
	C10.175,5.1,10.14,5.129,10.135,5.169L9.902,7.455C9.89,7.453,9.878,7.45,9.864,7.448C9.769,7.435,9.731,7.438,9.709,7.457
	C9.688,7.477,9.736,7.53,9.664,7.575C9.544,7.65,9.439,7.68,9.515,7.731c0.045,0.03,0.116,0.044,0.147,0.05
	c0.053,0.008,0.129,0.012,0.206,0.013l-0.08,0.781c-0.093-0.009-0.179-0.012-0.242,0C9.31,8.623,9.329,8.656,9.153,8.704
	c-0.156,0.04-0.281,0.131-0.379-0.042V7.015c0.021,0.005,0.04,0.011,0.057,0.017C8.904,7.06,8.938,7.097,8.987,7.123
	C9.06,7.163,9.052,7.188,9.079,7.28c0.028,0.094,0.29,0.105,0.383,0.097s0.127-0.091,0.07-0.152S9.354,7.159,9.283,7.123
	c-0.066-0.032-0.138-0.084-0.231-0.13C8.959,6.947,8.95,6.948,8.886,6.893C8.854,6.864,8.814,6.84,8.774,6.825V6.756
	C8.78,6.757,8.784,6.757,8.79,6.758c0.104,0.005,0.133-0.154,0.14-0.193C8.947,6.47,8.938,6.366,8.938,6.281
	c0-0.135-0.013-0.238-0.03-0.395C8.89,5.737,9.021,5.604,9.043,5.582c0.135-0.131,0.281-0.185,0.36-0.37
	c0.054-0.13,0.084-0.249,0.13-0.34c0.019-0.039,0.058-0.161,0.104-0.253c0.073-0.146,0.18-0.278,0.32-0.367
	c0.294-0.184,0.344-0.189,0.822-0.388c0.566-0.233,0.409-0.015,0.537,0.018c0.183,0.046,0.509-0.479,0.249-0.519
	c-0.139-0.021-0.269-0.194-0.167-0.293c0.107-0.105,0.313-0.288,0.313-0.288c0.049-0.044,0.138-0.103,0.174-0.039
	c0.044,0.074,0.041,0.13-0.007,0.169c-0.082,0.066-0.098,0.126-0.073,0.171c0.033,0.061,0.119,0.084,0.185,0.079
	c0.242-0.019,0.391-0.041,0.386-0.149c-0.007-0.187-0.199-0.197-0.264-0.323c-0.127-0.247-0.188-0.34-0.307-0.424
	c-0.122-0.083-0.24-0.175-0.111-0.295c0.13-0.12,0.046-0.337-0.147-0.361c-0.166-0.02-0.264,0.038-0.435,0
	c-0.207-0.045-0.207-0.177-0.396-0.23c-0.16-0.045-0.367-0.008-0.434,0.213c-0.086,0.277-0.135,0.373-0.211,0.482
	c-0.055,0.077-0.124,0.178-0.217,0.231c-0.058,0.034-0.13,0.098-0.15,0.15c-0.022,0.053-0.05,0.229-0.182,0.229
	c-0.06,0-0.142-0.064-0.147-0.186C9.367,2.321,9.153,2.34,9.016,2.321c-0.14-0.018-0.342-0.056-0.425-0.175
	c-0.083-0.121-0.166-0.286,0-0.426c0.165-0.138,1.131-0.93,1.487-1.081c0.171-0.071,0.29-0.177,0.368-0.267
	c2.058,0.155,4.203,0.552,6.506,1.228V7.878z M2.387,8.063C2.269,7.985,2.086,8.041,2.09,8.085c0.003,0.044,0.031,0.039,0.102,0.058
	C2.26,8.16,2.454,8.176,2.513,8.244c0.033,0.039,0.054,0.092,0.074,0.125C2.604,8.395,2.63,8.441,2.702,8.401
	c0.068-0.038,0.045-0.09,0.037-0.117C2.722,8.231,2.663,8.165,2.564,8.12C2.493,8.09,2.448,8.103,2.387,8.063 M10.827,8.743
	c-0.023-0.028-0.014-0.067-0.055-0.069c-0.047-0.002-0.057,0.037-0.086,0.073c-0.028,0.036-0.076,0.037-0.067,0.078
	c0.006,0.03,0.262,0.042,0.269-0.01C10.894,8.773,10.851,8.772,10.827,8.743 M10.566,7.797c-0.019-0.055-0.035-0.049-0.064-0.045
	c-0.03,0.004-0.11,0.109-0.11,0.176c-0.001,0.068,0.236,0.031,0.259,0.01C10.671,7.914,10.585,7.854,10.566,7.797 M8.851,7.568
	C8.829,7.59,8.826,7.621,8.872,7.655c0.021,0.017,0.013,0.049,0.072,0.051C9.006,7.709,9.03,7.684,9.052,7.66
	c0.022-0.023,0.057-0.037,0.037-0.074C9.071,7.547,8.885,7.532,8.851,7.568"/>
</svg>
