<?xml version="1.0" encoding="utf-8"?>
<!-- Generator: Adobe Illustrator 16.0.0, SVG Export Plug-In . SVG Version: 6.00 Build 0)  -->
<!DOCTYPE svg PUBLIC "-//W3C//DTD SVG 1.1//EN" "http://www.w3.org/Graphics/SVG/1.1/DTD/svg11.dtd">
<svg version="1.1" id="Layer_1" xmlns="http://www.w3.org/2000/svg" xmlns:xlink="http://www.w3.org/1999/xlink" x="0px" y="0px"
	 width="87.461px" height="38.615px" viewBox="0 0 87.461 38.615" enable-background="new 0 0 87.461 38.615" xml:space="preserve">
<g>
	<path fill="#818181" d="M38.942,38.615c0-0.039,0-0.079,0.001-0.119c0.247-0.181,0.532-0.113,0.802-0.113
		c6.281-0.004,12.563-0.003,18.844-0.003c9.233,0,18.467-0.001,27.699,0.003c0.289,0,0.594-0.076,0.861,0.113
		c0.001,0.04,0.001,0.08,0.001,0.119H38.942z"/>
	<path fill="#818181" d="M15.311,11.491c-0.001,0.423-0.151,0.712-0.399,0.955c-0.366,0.357-0.732,0.713-1.104,1.063
		c-0.648,0.609-0.914,0.605-1.518-0.031c-1.581-1.668-3.159-3.34-4.738-5.011C6.688,7.554,5.818,6.645,4.964,5.722
		C4.435,5.148,4.45,4.735,5.005,4.211C6.364,2.93,7.725,1.651,9.091,0.38c0.614-0.57,0.949-0.506,1.293,0.242
		c1.592,3.457,3.177,6.916,4.765,10.375C15.231,11.176,15.325,11.352,15.311,11.491"/>
	<path fill="#818181" d="M12.299,15.459c-0.306,0.738-0.557,1.506-0.939,2.202c-0.214,0.391-0.657,0.204-1.01,0.046
		c-2.328-1.044-4.657-2.084-6.985-3.125c-0.681-0.304-1.362-0.604-2.04-0.915C0.678,13.37,0.492,12.98,0.674,12.29
		c0.464-1.759,1.244-3.386,2.117-4.971c0.284-0.517,0.68-0.544,1.156-0.104c1.198,1.106,2.388,2.222,3.583,3.329
		c1.397,1.296,2.797,2.589,4.197,3.883C12.023,14.701,12.286,14.988,12.299,15.459"/>
	<path fill="#818181" d="M8.385,21.946c-2.375-0.07-4.75-0.142-7.125-0.208c-1.034-0.028-1.259-0.257-1.259-1.313
		c-0.001-1.356-0.002-2.713,0-4.069c0.001-1.159,0.214-1.313,1.279-0.917c2.979,1.104,5.955,2.218,8.939,3.31
		c0.595,0.219,0.898,0.594,0.905,1.222c0.005,0.393,0.035,0.787,0.028,1.178c-0.012,0.591-0.241,0.818-0.822,0.824
		c-0.648,0.008-1.297,0.001-1.945,0.001V21.946z"/>
	<path fill="#818181" d="M6.03,23.131c1.432-0.06,2.864-0.116,4.296-0.179c0.851-0.036,1.05,0.095,1.34,0.892
		c0.087,0.24,0.193,0.473,0.289,0.709c0.256,0.63,0.129,0.948-0.508,1.193c-2.049,0.789-4.103,1.571-6.154,2.354
		c-0.624,0.238-1.244,0.484-1.872,0.709c-0.607,0.217-0.98,0.076-1.261-0.497c-0.631-1.286-1.196-2.602-1.551-3.996
		c-0.178-0.697-0.003-0.996,0.71-1.011c1.57-0.032,3.141-0.01,4.711-0.01V23.131z"/>
	<path fill="#818181" d="M14.127,27.885c0.002,0.334-0.128,0.544-0.321,0.727c-1.971,1.859-3.936,3.725-5.914,5.578
		c-0.431,0.403-0.897,0.383-1.297-0.048c-0.895-0.964-1.778-1.939-2.65-2.924c-0.409-0.462-0.327-0.847,0.249-1.113
		c2.598-1.202,5.2-2.396,7.807-3.577c0.516-0.234,1.006-0.142,1.37,0.325C13.643,27.201,14.063,27.451,14.127,27.885"/>
	<path fill="#818181" d="M12.896,37.728c-0.104-0.028-0.277-0.065-0.443-0.121c-1.122-0.38-2.169-0.924-3.197-1.503
		c-0.497-0.279-0.573-0.647-0.19-1.064c1.835-2,3.685-3.986,5.538-5.971c0.315-0.338,0.731-0.384,1.145-0.225
		c0.383,0.146,0.742,0.357,1.122,0.518c0.383,0.162,0.201,0.425,0.111,0.636c-0.423,0.994-0.864,1.979-1.303,2.967
		c-0.598,1.346-1.205,2.688-1.798,4.036C13.7,37.412,13.434,37.689,12.896,37.728"/>
	<path fill="#818181" d="M61.045,21.714c-0.01-1.16-0.01-2.32-0.033-3.479c-0.008-0.321,0.07-0.438,0.418-0.443
		c1.262-0.024,1.261-0.039,1.261,1.242c0,2.084-0.009,4.169,0.009,6.253c0.004,0.425-0.062,0.582-0.555,0.613
		c-0.73,0.046-1.12-0.2-1.436-0.858c-0.679-1.409-1.543-2.726-2.254-4.325v0.875c0.002,1.278-0.014,2.557,0.01,3.835
		c0.008,0.372-0.109,0.456-0.465,0.457c-1.197,0.004-1.197,0.018-1.197-1.199c0-2.124,0.012-4.247-0.01-6.371
		c-0.004-0.418,0.135-0.478,0.525-0.532c0.938-0.131,1.455,0.225,1.842,1.079c0.516,1.142,1.17,2.221,1.764,3.326
		C61.245,22.1,61.072,21.889,61.045,21.714"/>
	<path fill="#818181" d="M87.149,38.496H38.943c0.078-0.411,0.407-0.233,0.62-0.233c6.242-0.01,12.484-0.006,18.727-0.011
		c1.125-0.001,0.969,0.151,0.973-0.963c0.008-2.422-0.012-4.845,0.013-7.267c0.005-0.49-0.132-0.628-0.625-0.627
		c-6.321,0.016-12.644,0.013-18.963,0.002c-0.239-0.001-0.674,0.17-0.684-0.179c-0.007-0.295,0.423-0.155,0.653-0.155
		c15.597-0.008,31.192-0.008,46.788,0c0.229,0,0.646-0.151,0.65,0.164c0.003,0.333-0.414,0.17-0.637,0.171
		c-8.705,0.009-17.408,0.015-26.113-0.006c-0.606-0.003-0.754,0.159-0.744,0.752c0.033,2.48,0.031,4.963,0.001,7.443
		c-0.009,0.562,0.173,0.679,0.698,0.679c8.724-0.017,17.447-0.014,26.17-0.003C86.699,38.264,87.047,38.067,87.149,38.496"/>
	<path fill="#818181" d="M19.985,32.278c0,1.749,0.011,3.499-0.005,5.249c-0.007,0.71-0.315,0.988-1.037,0.967
		c-1.041-0.031-2.083-0.078-3.124-0.137c-0.655-0.037-0.869-0.371-0.641-0.99c0.815-2.212,1.635-4.422,2.459-6.63
		c0.243-0.649,1.577-1.104,2.162-0.75c0.282,0.172,0.371,0.439,0.367,0.756c-0.006,0.511-0.002,1.022-0.002,1.534
		C20.105,32.277,20.045,32.278,19.985,32.278"/>
	<path fill="#818181" d="M52.616,25.874c-0.787,0-1.576-0.012-2.361,0.006c-0.309,0.007-0.452-0.041-0.45-0.406
		c0.017-2.421,0.015-4.842,0-7.263c-0.002-0.349,0.119-0.42,0.438-0.417c1.517,0.015,3.033,0.021,4.547-0.003
		c0.396-0.006,0.49,0.12,0.486,0.497c-0.01,1.014,0.008,1.014-1.033,1.014c-0.728,0-1.457,0.018-2.185-0.007
		c-0.368-0.013-0.459,0.123-0.463,0.476c-0.012,1.22-0.024,1.22,1.183,1.22c0.195,0,0.393-0.002,0.59,0.001
		c0.858,0.012,0.759-0.118,0.76,0.743c0.002,0.849,0.098,0.749-0.754,0.757c-0.137,0.002-0.275,0.001-0.413,0.001
		c-1.429,0-1.505,0.105-1.319,1.562c0.045,0.35,0.258,0.281,0.457,0.282c0.965,0.004,1.93,0.025,2.893-0.009
		c0.439-0.015,0.578,0.104,0.567,0.553c-0.021,0.994,0.003,0.994-0.993,0.994H52.616z"/>
	<path fill="#818181" d="M81.095,25.874c-0.511,0-0.979-0.018-1.448,0.005c-0.35,0.018-0.351-0.233-0.412-0.453
		c-0.316-1.127-0.316-1.127-1.472-1.127c-1.239,0-1.269-0.007-1.562,1.164c-0.103,0.405-0.314,0.414-0.627,0.415
		c-1.266,0.003-1.268,0.008-0.93-1.189c0.608-2.15,1.225-4.299,1.819-6.453c0.087-0.315,0.194-0.465,0.548-0.442
		c0.566,0.038,1.249-0.162,1.675,0.089c0.437,0.258,0.399,1.012,0.558,1.552c0.572,1.937,1.127,3.878,1.687,5.818
		C80.987,25.438,81.032,25.628,81.095,25.874"/>
	<path fill="#818181" d="M21.024,31.119c-0.058-1.075,0.608-1.751,1.684-1.682c0.287,0.019,0.442,0.247,0.537,0.491
		c0.784,2.034,1.573,4.066,2.336,6.108c0.212,0.567,0.02,0.928-0.551,1.182c-0.846,0.377-1.726,0.652-2.628,0.86
		c-0.848,0.195-1.128-0.007-1.161-0.887c-0.061-1.631-0.106-3.264-0.161-4.895C21.067,31.904,21.043,31.512,21.024,31.119"/>
	<path fill="#818181" d="M84.26,26.11c-1.071,0.018-1.957-0.324-2.58-1.253c-0.193-0.29-0.219-0.442,0.105-0.639
		c1.203-0.724,0.979-0.752,1.271-0.332c0.477,0.679,1.134,0.911,1.785,0.669c0.34-0.128,0.555-0.359,0.584-0.737
		c0.029-0.374-0.106-0.651-0.457-0.809c-0.681-0.304-1.381-0.571-2.037-0.919c-1.105-0.587-1.519-1.575-1.236-2.771
		c0.139-0.592,0.482-1.028,0.995-1.331c1.276-0.754,3.142-0.388,4.062,0.772c0.184,0.232,0.233,0.391-0.072,0.536
		c-0.106,0.05-0.211,0.111-0.299,0.188c-0.438,0.389-0.85,0.598-1.246-0.063c-0.07-0.118-0.252-0.185-0.396-0.242
		c-0.595-0.238-1.208-0.057-1.38,0.395c-0.186,0.488,0.046,0.862,0.727,1.142c0.362,0.148,0.734,0.275,1.103,0.411
		c1.532,0.564,2.187,1.571,1.946,3C86.928,25.366,85.83,26.123,84.26,26.11"/>
	<path fill="#818181" d="M39.042,22.042c-0.037-0.748-0.084-1.497,0.019-2.241c0.201-1.462,1.343-2.28,3.055-2.196
		c1.435,0.069,2.299,0.933,2.389,2.337c0.024,0.375-0.078,0.508-0.443,0.462c-0.155-0.02-0.316-0.015-0.472-0.001
		c-0.512,0.043-0.945,0.041-0.977-0.675c-0.018-0.388-0.341-0.6-0.751-0.607c-0.416-0.009-0.735,0.158-0.891,0.546
		c-0.078,0.195-0.111,0.421-0.113,0.633c-0.011,1.004-0.006,2.009-0.003,3.014c0,0.116,0.013,0.234,0.031,0.351
		c0.101,0.643,0.387,0.915,0.949,0.907c0.5-0.006,0.861-0.314,0.871-0.916c0.009-0.514,0.241-0.584,0.646-0.538
		c0.058,0.007,0.118,0.001,0.177,0.001c1.213,0,1.25,0.05,0.921,1.25c-0.106,0.385-0.284,0.732-0.584,1.007
		c-0.97,0.892-2.109,0.905-3.261,0.533c-1.063-0.344-1.512-1.197-1.558-2.273C39.023,23.104,39.042,22.572,39.042,22.042"/>
	<path fill="#818181" d="M66.012,21.832c0.039,0.628-0.037,1.257,0.056,1.885c0.081,0.554,0.368,0.855,0.936,0.853
		c0.56-0.003,0.855-0.359,0.867-0.852c0.015-0.552,0.261-0.673,0.728-0.601c0.019,0.003,0.039,0,0.059,0
		c1.251,0,1.314,0.089,0.945,1.324c-0.098,0.326-0.254,0.618-0.493,0.86c-0.953,0.96-2.111,0.967-3.291,0.625
		c-1.015-0.294-1.544-1.146-1.608-2.365c-0.06-1.159-0.084-2.318,0.001-3.477c0.074-1.012,0.476-1.851,1.47-2.227
		c1.119-0.425,2.25-0.432,3.24,0.35c0.598,0.472,0.725,1.186,0.758,1.912c0.002,0.039,0.012,0.098-0.009,0.115
		c-0.444,0.369-0.967,0.072-1.446,0.161c-0.192,0.035-0.35-0.009-0.34-0.269c0.004-0.114-0.031-0.232-0.063-0.346
		c-0.117-0.429-0.378-0.682-0.848-0.661c-0.465,0.021-0.777,0.24-0.883,0.711C65.945,20.494,66.059,21.166,66.012,21.832"/>
	<path fill="#818181" d="M25.373,28.12c0.274,0.003,0.483,0.138,0.665,0.33c1.334,1.412,2.673,2.819,3.999,4.24
		c0.416,0.445,0.403,0.878-0.035,1.289c-0.687,0.644-1.4,1.261-2.182,1.791c-0.627,0.425-0.812,0.376-1.144-0.33
		c-0.441-0.94-0.868-1.887-1.3-2.832c-0.406-0.892-0.812-1.784-1.216-2.676C23.774,29.079,24.43,28.1,25.373,28.12"/>
	<path fill="#818181" d="M27.465,25.729c0.127,0.045,0.316,0.097,0.494,0.176c1.579,0.701,3.157,1.403,4.733,2.113
		c0.763,0.344,0.808,0.482,0.481,1.249c-0.341,0.797-0.758,1.554-1.215,2.287c-0.332,0.532-0.701,0.596-1.159,0.178
		c-1.394-1.272-2.786-2.548-4.15-3.852c-0.515-0.491-0.16-1.064-0.005-1.595C26.751,25.921,27.028,25.758,27.465,25.729"/>
	<path fill="#818181" d="M29.306,22.92c1.237,0,2.475-0.005,3.712,0.001c0.91,0.005,1.179,0.316,1.105,1.233
		c-0.055,0.686-0.091,1.372-0.146,2.057c-0.053,0.647-0.393,0.892-0.996,0.675c-1.606-0.58-3.205-1.175-4.801-1.778
		c-0.466-0.178-0.744-1-0.588-1.714c0.117-0.541,0.551-0.599,1.008-0.593c0.235,0.003,0.471,0.001,0.706,0.001V22.92z"/>
	<path fill="#818181" d="M29.732,21.974c-0.451,0-0.902-0.001-1.354,0c-0.476,0.002-0.774-0.229-0.902-0.684
		c-0.053-0.188-0.074-0.392-0.157-0.565c-0.187-0.394-0.045-0.67,0.31-0.811c1.494-0.591,2.99-1.174,4.499-1.722
		c0.435-0.156,0.822,0.039,1.016,0.48c0.317,0.719,0.557,1.468,0.707,2.239c0.114,0.587-0.138,0.889-0.768,0.9
		c-1.117,0.021-2.234,0.006-3.351,0.006V21.974z"/>
	<path fill="#818181" d="M25.941,17.887c-0.03-0.231,0.098-0.445,0.292-0.628c0.958-0.901,1.911-1.808,2.878-2.699
		c0.435-0.401,0.896-0.404,1.301,0.01c0.575,0.591,1.116,1.213,1.588,1.894c0.189,0.273,0.194,0.449-0.12,0.593
		c-1.549,0.711-3.098,1.427-4.651,2.131c-0.333,0.15-0.601,0.072-0.767-0.29C26.312,18.565,25.926,18.359,25.941,17.887"/>
	<path fill="#818181" d="M24.858,17.116c-0.468-0.02-0.842-0.296-1.252-0.47c-0.191-0.081-0.134-0.27-0.071-0.413
		c0.565-1.293,1.114-2.594,1.719-3.867c0.177-0.372,0.562-0.523,1.01-0.369c0.633,0.22,1.243,0.484,1.816,0.83
		c0.495,0.299,0.549,0.681,0.154,1.114c-0.859,0.944-1.732,1.876-2.598,2.813C25.426,16.982,25.176,17.118,24.858,17.116"/>
	<path fill="#818181" d="M73.227,21.897c0,1.181-0.01,2.361,0.006,3.542c0.005,0.32-0.068,0.437-0.418,0.444
		c-1.4,0.03-1.4,0.044-1.398-1.361c0.004-2.086,0.024-4.172,0.008-6.258c-0.004-0.413,0.146-0.474,0.507-0.473
		c1.296,0.004,1.296-0.008,1.296,1.271V21.897z"/>
	<path fill="#818181" d="M48.059,21.837c0,1.2-0.01,2.401,0.006,3.602c0.004,0.318-0.065,0.438-0.416,0.445
		c-1.401,0.03-1.402,0.045-1.4-1.359c0.004-2.087,0.023-4.173,0.008-6.258c-0.003-0.411,0.143-0.476,0.506-0.475
		c1.297,0.004,1.297-0.009,1.297,1.271V21.837z"/>
	<path fill="#818181" d="M22.702,11.495c0.294,0,0.59-0.019,0.882,0.004c0.496,0.038,0.729,0.335,0.566,0.8
		c-0.394,1.127-0.816,2.243-1.254,3.354c-0.152,0.384-1.118,0.794-1.524,0.694c-0.375-0.092-0.485-0.398-0.48-0.722
		c0.017-1.116,0.04-2.233,0.108-3.349c0.028-0.46,0.347-0.739,0.82-0.776C22.112,11.477,22.408,11.495,22.702,11.495"/>
	<path fill="#818181" d="M72.415,10.021c1.06-0.034,2.063,0.146,2.528,1.229c0.524,1.216,0.515,2.463-0.262,3.6
		c-0.414,0.606-1.091,0.725-1.774,0.78c-1.472,0.121-1.472,0.122-1.472-1.318c0-1.201,0.034-2.403-0.015-3.603
		c-0.024-0.569,0.125-0.799,0.699-0.69C72.213,10.037,72.315,10.021,72.415,10.021"/>
	<path fill="#818181" d="M78.624,12.775c0-0.788,0.013-1.575-0.006-2.362c-0.009-0.312,0.088-0.433,0.398-0.396
		c0.154,0.02,0.314,0.012,0.472,0.003c2.63-0.147,3.158,1.637,2.878,3.563c-0.209,1.424-0.996,2.01-2.5,2.056
		c-1.242,0.038-1.242,0.038-1.242-1.209V12.775z"/>
	<path fill="#818181" d="M83.777,12.824c0-0.786,0.01-1.572-0.005-2.358c-0.006-0.305,0.042-0.464,0.408-0.453
		c0.904,0.025,1.809,0.02,2.713,0.002c0.302-0.006,0.406,0.075,0.406,0.392c-0.002,0.328-0.172,0.33-0.407,0.327
		c-0.63-0.008-1.259,0.013-1.886-0.009c-0.316-0.011-0.389,0.106-0.397,0.404c-0.038,1.189-0.048,1.182,1.272,1.197
		c0.299,0.003,0.769-0.199,0.705,0.444c-0.022,0.223-0.088,0.314-0.316,0.307c-0.373-0.012-0.75,0.027-1.119-0.01
		c-0.434-0.044-0.514,0.136-0.51,0.531c0.012,1.286-0.004,1.286,1.279,1.286c0.354,0,0.707,0.011,1.061-0.004
		c0.29-0.012,0.482,0.013,0.48,0.394c0,0.41-0.246,0.367-0.507,0.366c-0.903-0.002-1.808-0.015-2.712,0.006
		c-0.355,0.009-0.484-0.096-0.473-0.464C83.793,14.396,83.777,13.61,83.777,12.824"/>
	<path fill="#818181" d="M20.155,14.989c0,0.274,0,0.55,0,0.825c-0.002,0.712-0.351,1.053-1.069,1.061
		c-0.375,0.004-0.575-0.212-0.697-0.529c-0.33-0.861-0.656-1.725-0.983-2.588c-0.2-0.53-0.023-0.94,0.454-1.191
		c0.415-0.219,0.858-0.39,1.299-0.553c0.621-0.232,0.853-0.09,0.871,0.56c0.024,0.805,0.006,1.61,0.006,2.415
		C20.076,14.988,20.115,14.988,20.155,14.989"/>
	<path fill="#818181" d="M69.953,15.632c-0.39,0.091-0.472-0.199-0.517-0.471c-0.086-0.551-0.373-0.773-0.926-0.674
		c-0.172,0.031-0.356,0.027-0.529,0.001c-0.662-0.1-1.133,0.035-1.211,0.822c-0.049,0.482-0.479,0.37-0.739,0.302
		c-0.353-0.094-0.071-0.365-0.021-0.526c0.479-1.534,0.984-3.058,1.467-4.592c0.098-0.311,0.193-0.495,0.588-0.491
		c0.391,0.004,0.537,0.144,0.648,0.491c0.508,1.565,1.03,3.126,1.572,4.68C70.417,15.547,70.37,15.695,69.953,15.632"/>
	<path fill="#818181" d="M44.81,10.035c0.381-0.109,0.505,0.113,0.61,0.431c0.514,1.564,1.048,3.121,1.565,4.685
		c0.05,0.15,0.296,0.396-0.042,0.464c-0.226,0.045-0.646,0.188-0.689-0.197c-0.114-1.006-0.777-0.941-1.516-0.942
		c-0.662-0.002-1.187,0.021-1.259,0.856c-0.039,0.451-0.442,0.335-0.695,0.289c-0.384-0.071-0.113-0.339-0.063-0.497
		c0.487-1.552,0.999-3.096,1.483-4.648C44.307,10.149,44.425,9.931,44.81,10.035"/>
	<path fill="#818181" d="M56.547,12.272c0,0.57,0.008,1.141-0.002,1.711c-0.02,1.126-0.7,1.809-1.803,1.823
		c-1.008,0.014-1.707-0.666-1.734-1.752c-0.031-1.198-0.01-2.398-0.031-3.598c-0.006-0.312,0.053-0.454,0.41-0.448
		c0.333,0.006,0.436,0.102,0.43,0.436c-0.017,1.199-0.02,2.399,0.004,3.598c0.013,0.621,0.384,0.994,0.927,1.026
		c0.534,0.031,0.928-0.302,1.04-0.913c0.045-0.249,0.048-0.508,0.049-0.763c0.005-1.003,0.01-2.006-0.003-3.008
		c-0.004-0.277,0.071-0.373,0.36-0.373c0.289-0.001,0.367,0.098,0.358,0.373C56.536,11.014,56.547,11.644,56.547,12.272"/>
	<path fill="#818181" d="M17.896,17.139c-0.018,0.08-0.033,0.177-0.061,0.271c-0.105,0.353-0.128,0.802-0.52,0.934
		c-0.423,0.144-0.657-0.263-0.911-0.519c-0.497-0.503-0.98-1.018-1.461-1.536c-0.486-0.524-0.477-0.972,0.017-1.495
		c0.243-0.258,0.475-0.526,0.74-0.759c0.298-0.259,0.67-0.276,0.854,0.088c0.47,0.925,0.877,1.881,1.305,2.826
		C17.882,17,17.881,17.063,17.896,17.139"/>
	<path fill="#818181" d="M47.829,12.893c0.053-0.741,0.086-1.433,0.428-2.056c0.357-0.65,0.974-0.958,1.726-0.869
		c0.675,0.08,1.192,0.499,1.359,1.134c0.045,0.171,0.231,0.441-0.167,0.475c-0.219,0.019-0.487,0.248-0.567-0.212
		c-0.073-0.424-0.372-0.707-0.819-0.719c-0.473-0.012-0.765,0.292-0.91,0.711c-0.348,0.998-0.33,2.009-0.004,3.009
		c0.137,0.417,0.408,0.741,0.891,0.729c0.508-0.014,0.797-0.351,0.855-0.819c0.051-0.407,0.244-0.33,0.521-0.289
		c0.34,0.051,0.35,0.205,0.275,0.482c-0.202,0.762-0.738,1.266-1.463,1.34c-0.766,0.078-1.361-0.258-1.732-0.965
		C47.89,14.212,47.885,13.52,47.829,12.893"/>
	<path fill="#818181" d="M38.922,12.788c0-0.767,0.016-1.535-0.007-2.302c-0.01-0.341,0.056-0.488,0.444-0.475
		c0.885,0.03,1.771,0.021,2.657,0.005c0.292-0.007,0.361,0.096,0.362,0.371c0.001,0.282-0.087,0.376-0.37,0.367
		c-0.629-0.017-1.26,0.007-1.889-0.01c-0.283-0.007-0.361,0.093-0.376,0.372c-0.071,1.286-0.08,1.285,1.221,1.286
		c0.137,0.001,0.275,0.006,0.413,0.001c0.263-0.01,0.271,0.165,0.263,0.354c-0.007,0.17,0.046,0.375-0.225,0.393
		c-0.098,0.006-0.197,0.005-0.295,0.006c-1.37,0.023-1.37,0.023-1.37,1.373c0,0.177,0.002,0.354,0,0.531
		c-0.004,0.282,0.092,0.581-0.402,0.593c-0.489,0.013-0.427-0.266-0.426-0.563C38.924,14.323,38.922,13.556,38.922,12.788"/>
	<path fill="#818181" d="M16.006,20.194c-0.085-0.028-0.255-0.074-0.415-0.143c-0.45-0.194-0.897-0.396-1.342-0.599
		c-1.224-0.557-1.434-1.2-0.769-2.362c0.202-0.354,0.523-0.483,0.831-0.213c0.766,0.67,1.499,1.381,2.233,2.088
		c0.286,0.274,0.207,0.602,0.065,0.927C16.507,20.125,16.333,20.209,16.006,20.194"/>
	<path fill="#818181" d="M63.165,13.158c0-0.649-0.02-1.3,0.006-1.948c0.015-0.354-0.077-0.51-0.455-0.466
		c-0.252,0.03-0.512-0.006-0.766,0.009c-0.277,0.016-0.43-0.036-0.432-0.376c-0.003-0.362,0.186-0.359,0.443-0.358
		c1.082,0.007,2.164,0.009,3.248-0.001c0.275-0.003,0.429,0.031,0.429,0.374c-0.001,0.359-0.188,0.355-0.447,0.362
		c-1.2,0.032-1.2,0.037-1.2,1.239c0,1.063-0.007,2.126,0.006,3.188c0.002,0.293-0.018,0.467-0.396,0.471
		c-0.391,0.005-0.455-0.146-0.443-0.486C63.181,14.498,63.165,13.828,63.165,13.158"/>
	<path fill="#818181" d="M58.417,12.811c0-0.767,0.006-1.533-0.002-2.299c-0.004-0.296-0.019-0.512,0.41-0.508
		c0.452,0.004,0.389,0.264,0.389,0.535c-0.002,1.278,0.016,2.556-0.01,3.832c-0.01,0.417,0.115,0.545,0.526,0.521
		c0.567-0.033,1.14,0.004,1.709-0.014c0.285-0.009,0.379,0.099,0.378,0.375c-0.001,0.264-0.066,0.396-0.363,0.392
		c-0.884-0.014-1.769-0.018-2.652,0.001c-0.325,0.007-0.396-0.127-0.389-0.419C58.426,14.422,58.417,13.616,58.417,12.811"/>
	<path fill="#818181" d="M12.883,21.134c0.031-0.294,0.092-0.579,0.249-0.837c0.138-0.226,0.317-0.342,0.588-0.239
		c0.714,0.27,1.435,0.521,2.138,0.815c0.278,0.116,0.61,0.284,0.52,0.682c-0.094,0.416-0.392,0.606-0.827,0.588
		c-0.606-0.026-1.214-0.021-1.819-0.066C13.196,22.036,12.872,21.65,12.883,21.134"/>
	<path fill="#818181" d="M14.574,24.555c-0.658-0.015-1.458-1.03-1.332-1.503c0.047-0.178,0.207-0.157,0.336-0.177
		c0.801-0.12,1.608-0.091,2.412-0.091c0.165,0,0.337,0.096,0.491,0.178c0.169,0.091,0.377,0.183,0.386,0.408
		c0.01,0.257-0.206,0.375-0.402,0.455C15.794,24.096,15.116,24.347,14.574,24.555"/>
	<path fill="#818181" d="M56.99,35.47c-0.411,0.144-0.615,0.008-0.763-0.312c-0.146-0.321-0.334-0.621-0.5-0.933
		c-0.086-0.161-0.219-0.218-0.391-0.192c-0.23,0.031-0.188,0.215-0.191,0.363c-0.006,0.275-0.004,0.55-0.004,0.825
		c0,0.176-0.043,0.311-0.262,0.301c-0.187-0.008-0.221-0.126-0.221-0.277v-2.827c0-0.15,0.037-0.284,0.221-0.28
		c0.447,0.009,0.901-0.071,1.342,0.082c0.352,0.121,0.552,0.359,0.615,0.719c0.064,0.362-0.035,0.69-0.359,0.86
		c-0.309,0.162-0.258,0.317-0.118,0.551C56.571,34.7,56.762,35.063,56.99,35.47"/>
	<path fill="#818181" d="M42.617,33.772c0-0.433,0-0.864,0-1.296c0.001-0.163,0.012-0.295,0.225-0.347
		c0.594-0.146,1.511,0.135,1.82,0.58c0.392,0.565,0.389,1.671-0.006,2.248c-0.324,0.474-1.171,0.729-1.813,0.573
		c-0.255-0.062-0.223-0.233-0.225-0.405C42.615,34.675,42.617,34.224,42.617,33.772"/>
	<path fill="#818181" d="M45.706,33.795c0-0.021,0-0.04,0-0.06c0-1.794,0.021-1.812,1.824-1.608c0.166,0.02,0.326,0.026,0.342,0.236
		c0.02,0.245-0.166,0.224-0.321,0.226c-0.236,0.005-0.472,0.011-0.708-0.001c-0.338-0.017-0.594-0.026-0.592,0.467
		c0.002,0.47,0.218,0.515,0.576,0.481c0.135-0.012,0.274,0,0.412,0.004c0.146,0.005,0.205,0.088,0.202,0.229
		c-0.004,0.142-0.075,0.216-0.215,0.222c-0.118,0.005-0.24,0.023-0.353,0.002c-0.584-0.108-0.635,0.219-0.614,0.678
		c0.013,0.305,0.1,0.425,0.409,0.404c0.313-0.021,0.629-0.005,0.945-0.003c0.164,0.001,0.325,0.01,0.311,0.245
		c-0.014,0.186-0.141,0.213-0.288,0.213c-0.532,0.001-1.063-0.003-1.595,0.002c-0.264,0.002-0.336-0.153-0.334-0.379
		C45.708,34.699,45.708,34.247,45.706,33.795"/>
	<path fill="#818181" d="M41.1,33.514c0-0.354-0.003-0.708,0.001-1.063c0.002-0.174,0.061-0.314,0.268-0.312
		c0.208,0.003,0.261,0.151,0.258,0.322c-0.014,0.784,0.074,1.572-0.082,2.352c-0.11,0.544-0.489,0.808-1.005,0.824
		c-0.485,0.015-0.906-0.184-1.027-0.706c-0.197-0.852-0.052-1.722-0.079-2.583c-0.004-0.139,0.086-0.208,0.227-0.21
		c0.228-0.001,0.239,0.158,0.239,0.322c0.002,0.531-0.001,1.062,0.002,1.593c0.004,0.792,0.213,1.163,0.658,1.105
		c0.666-0.086,0.518-0.624,0.535-1.057c0.008-0.196,0.001-0.393,0.001-0.589H41.1z"/>
	<path fill="#818181" d="M15.712,26.503c-0.437,0.002-0.632-0.29-0.726-0.65c-0.085-0.328-0.132-0.667,0.293-0.843
		c0.454-0.188,0.896-0.401,1.344-0.602c0.306-0.137,0.611-0.109,0.917,0.005c0.141,0.054,0.235,0.122,0.203,0.301
		C17.677,25.092,16.099,26.49,15.712,26.503"/>
	<path fill="#818181" d="M53.92,35.31c0.017,0.112-0.014,0.192-0.139,0.21c-0.169,0.023-0.314-0.004-0.392-0.181
		c-0.082-0.186-0.05-0.472-0.337-0.491c-0.331-0.022-0.67-0.024-1,0.011c-0.219,0.023-0.204,0.259-0.252,0.423
		c-0.06,0.212-0.211,0.283-0.406,0.234c-0.258-0.065-0.118-0.24-0.075-0.374c0.287-0.898,0.578-1.796,0.87-2.692
		c0.057-0.175,0.132-0.317,0.361-0.322c0.217-0.006,0.314,0.091,0.38,0.284c0.312,0.931,0.633,1.858,0.95,2.787
		C53.894,35.235,53.906,35.272,53.92,35.31"/>
	<path fill="#818181" d="M77.125,33.148c0-0.319,0.01-0.608-0.004-0.896c-0.011-0.238,0.088-0.404,0.322-0.394
		c0.256,0.012,0.128,0.245,0.129,0.369c0.014,0.965,0.008,1.93,0.008,2.895c0,0.158,0.014,0.322-0.177,0.394
		c-0.198,0.075-0.208-0.069-0.267-0.202c-0.098-0.218-0.17-0.007-0.24,0.042c-0.503,0.353-0.938,0.237-1.164-0.328
		c-0.165-0.411-0.193-0.844-0.109-1.276C75.799,32.848,76.318,32.625,77.125,33.148"/>
	<path fill="#818181" d="M18.92,25.572c-0.228,0.72-0.475,1.473-0.973,2.082c-0.295,0.36-0.657,0.016-0.95-0.126
		c-0.278-0.135-0.404-0.466-0.234-0.703c0.429-0.598,0.86-1.226,1.58-1.518C18.553,25.223,18.864,25.118,18.92,25.572"/>
	<path fill="#818181" d="M79.528,35.164c-0.127,0.107-0.248,0.245-0.396,0.325c-0.417,0.227-0.819,0.05-0.862-0.421
		c-0.059-0.623-0.037-1.253-0.052-1.88c-0.004-0.206,0.104-0.27,0.296-0.264c0.184,0.006,0.23,0.108,0.23,0.267
		c-0.002,0.511-0.006,1.021,0.004,1.531c0.003,0.164-0.068,0.383,0.156,0.456c0.231,0.074,0.345-0.119,0.478-0.264
		c0.358-0.39,0.132-0.865,0.209-1.294c0.043-0.234-0.187-0.654,0.197-0.667c0.487-0.015,0.221,0.447,0.243,0.686
		c0.045,0.486,0.007,0.98,0.016,1.471c0.004,0.222-0.041,0.404-0.29,0.428C79.452,35.567,79.678,35.252,79.528,35.164"/>
	<path fill="#818181" d="M73.137,34.136c0.017-0.099,0.033-0.336,0.101-0.558c0.16-0.52,0.646-0.821,1.123-0.724
		c0.454,0.094,0.839,0.669,0.806,1.163c-0.015,0.225-0.138,0.248-0.309,0.247c-0.235-0.002-0.473-0.019-0.704,0.005
		c-0.183,0.019-0.485-0.135-0.492,0.218c-0.007,0.324,0.082,0.634,0.476,0.704c0.094,0.017,0.199,0.011,0.291-0.015
		c0.192-0.056,0.461-0.257,0.519,0.063c0.036,0.203-0.278,0.28-0.494,0.321C73.654,35.716,73.147,35.219,73.137,34.136"/>
	<path fill="#818181" d="M85.397,34.472c0.135-0.446,0.263-0.853,0.381-1.262c0.056-0.189,0.14-0.33,0.365-0.278
		c0.346,0.078,0.092,0.297,0.06,0.407c-0.248,0.825-0.521,1.643-0.792,2.46c-0.131,0.394-0.381,0.633-0.83,0.588
		c-0.163-0.017-0.25-0.084-0.246-0.258c0.003-0.167,0.052-0.206,0.241-0.22c0.45-0.036,0.626-0.361,0.475-0.823
		c-0.229-0.702-0.476-1.398-0.757-2.222C85.245,33.1,84.94,33.985,85.397,34.472"/>
	<path fill="#818181" d="M48.774,33.791c0-0.373-0.01-0.747,0.004-1.12c0.008-0.215-0.09-0.535,0.285-0.524
		c0.322,0.01,0.246,0.301,0.248,0.501c0.01,0.649,0.02,1.298-0.002,1.946c-0.012,0.348,0.088,0.515,0.461,0.479
		c0.254-0.024,0.51-0.006,0.767-0.003c0.161,0.001,0.325,0.005,0.319,0.237c-0.006,0.185-0.125,0.226-0.276,0.226
		c-0.492,0-0.983-0.001-1.474,0.001c-0.266,0.001-0.332-0.163-0.332-0.386C48.776,34.695,48.776,34.243,48.774,33.791"/>
	<path fill="#818181" d="M66.808,34.236c0.006-0.256,0.024-0.508,0.128-0.749c0.216-0.506,0.705-0.757,1.186-0.599
		c0.439,0.145,0.773,0.725,0.713,1.178c-0.028,0.209-0.151,0.193-0.287,0.195c-0.235,0.004-0.473-0.02-0.705,0.009
		c-0.207,0.024-0.584-0.173-0.53,0.295c0.045,0.385,0.218,0.656,0.683,0.641c0.211-0.008,0.547-0.414,0.606,0.022
		c0.046,0.331-0.418,0.337-0.69,0.355C67.206,35.633,66.799,35.117,66.808,34.236"/>
	<path fill="#818181" d="M20.29,26.794c-0.019,0.271-0.004,0.552-0.066,0.814c-0.081,0.343-0.254,0.631-0.697,0.513
		c-0.445-0.119-0.718-0.521-0.576-0.911c0.165-0.454,0.24-0.957,0.605-1.317c0.137-0.135,0.303-0.31,0.503-0.245
		c0.208,0.068,0.207,0.308,0.216,0.5c0.01,0.215,0.002,0.43,0.002,0.645C20.281,26.793,20.286,26.793,20.29,26.794"/>
	<path fill="#818181" d="M62.662,31.786c0.153,0.044,0.37,0.001,0.382,0.263c0.012,0.227-0.146,0.181-0.279,0.176
		c-0.228-0.01-0.336,0.124-0.315,0.326c0.021,0.201-0.159,0.496,0.226,0.563c0.154,0.027,0.287,0.223,0.127,0.26
		c-0.592,0.137-0.313,0.575-0.353,0.887c-0.039,0.31-0.009,0.627-0.011,0.941c0,0.161,0.002,0.315-0.231,0.325
		c-0.249,0.01-0.296-0.132-0.295-0.333c0.001-0.373,0.017-0.746-0.007-1.118c-0.016-0.242,0.152-0.571-0.262-0.675
		c-0.082-0.021-0.1-0.166-0.037-0.19c0.418-0.169,0.283-0.55,0.337-0.85C62.016,31.95,62.305,31.838,62.662,31.786"/>
	<path fill="#818181" d="M20.857,26.74c-0.014-0.44-0.032-1.01,0.434-1.103c0.436-0.088,0.492,0.501,0.645,0.842
		c0.088,0.195,0.157,0.4,0.226,0.604c0.153,0.453,0.05,0.754-0.472,0.85c-0.454,0.082-0.732-0.106-0.801-0.606
		C20.862,27.133,20.868,26.936,20.857,26.74"/>
	<path fill="#818181" d="M22.282,25.616c-0.03-0.265,0.1-0.502,0.284-0.612c0.187-0.112,0.332,0.141,0.464,0.264
		c0.243,0.227,0.478,0.466,0.682,0.728c0.254,0.327,0.309,0.679-0.031,0.997c-0.411,0.387-0.644,0.364-0.915-0.132
		C22.552,26.471,22.32,26.077,22.282,25.616"/>
	<path fill="#818181" d="M63.653,34.287c-0.008,0.143,0.023,0.384,0.15,0.582c0.228,0.354,0.514,0.449,0.766,0.028
		c0.111-0.187,0.208-0.204,0.369-0.101c0.199,0.128,0.094,0.268,0.012,0.4c-0.343,0.554-1.247,0.504-1.561-0.107
		c-0.293-0.57-0.301-1.167-0.004-1.75c0.166-0.329,0.449-0.49,0.808-0.489c0.286,0,0.533,0.118,0.696,0.367
		c0.068,0.101,0.13,0.218-0.006,0.303c-0.084,0.054-0.203,0.18-0.297,0.032c-0.16-0.248-0.354-0.394-0.627-0.21
		C63.663,33.541,63.663,33.872,63.653,34.287"/>
	<path fill="#818181" d="M24.539,22.154c-0.199-0.015-0.337-0.018-0.472-0.036c-0.263-0.036-0.531-0.109-0.569-0.415
		c-0.036-0.289,0.255-0.31,0.437-0.388c0.359-0.153,0.725-0.296,1.1-0.405c0.313-0.092,0.573-0.031,0.657,0.362
		c0.083,0.385-0.005,0.677-0.399,0.784C25.032,22.129,24.751,22.129,24.539,22.154"/>
	<path fill="#818181" d="M24.544,25.617c-0.567,0.009-1.362-0.862-1.32-1.358c0.026-0.302,0.212-0.303,0.412-0.23
		c0.385,0.14,0.769,0.286,1.137,0.463c0.269,0.128,0.549,0.322,0.453,0.668C25.131,25.5,24.799,25.578,24.544,25.617"/>
	<path fill="#818181" d="M24.571,22.668c0.213,0.02,0.43,0.021,0.64,0.062c0.309,0.06,0.683,0.124,0.602,0.552
		c-0.07,0.368-0.352,0.645-0.75,0.612c-0.406-0.033-0.803-0.18-1.124-0.452c-0.16-0.136-0.359-0.304-0.286-0.532
		c0.066-0.209,0.321-0.187,0.507-0.22c0.133-0.021,0.273-0.003,0.41-0.003C24.57,22.68,24.571,22.674,24.571,22.668"/>
	<path fill="#818181" d="M23.431,20.795c-0.151-0.032-0.373,0.067-0.455-0.144c-0.071-0.186,0.076-0.334,0.193-0.459
		c0.2-0.213,0.403-0.427,0.629-0.609c0.326-0.263,0.682-0.271,1.016-0.008c0.392,0.308,0.375,0.538-0.07,0.759
		C24.33,20.538,23.938,20.821,23.431,20.795"/>
	<path fill="#818181" d="M22.039,19.62c0.103-0.419,0.256-0.818,0.533-1.16c0.23-0.283,0.488-0.176,0.739-0.044
		c0.245,0.128,0.25,0.356,0.149,0.559c-0.225,0.447-0.549,0.812-1.051,0.96C22.15,20.012,21.975,19.95,22.039,19.62"/>
	<path fill="#818181" d="M69.661,32.943c0.391-0.16,0.117,0.278,0.294,0.317c0.175-0.109,0.292-0.303,0.511-0.37
		c0.406-0.127,0.729,0.052,0.745,0.474c0.025,0.608,0.011,1.218,0.009,1.827c0,0.153,0.021,0.326-0.221,0.333
		c-0.273,0.007-0.255-0.183-0.256-0.361c-0.001-0.433,0.009-0.866-0.005-1.297c-0.007-0.204,0.104-0.471-0.128-0.596
		c-0.277-0.148-0.395,0.172-0.588,0.273C69.656,33.491,69.628,33.235,69.661,32.943"/>
	<path fill="#818181" d="M83.139,35.073c0.431-0.487,0.213-1.081,0.272-1.631c0.021-0.201-0.132-0.529,0.272-0.516
		c0.353,0.014,0.227,0.31,0.231,0.496c0.017,0.528,0.006,1.058,0.005,1.587c0,0.214,0.041,0.46-0.249,0.521
		c-0.321,0.069-0.132-0.257-0.251-0.343c-0.031-0.022-0.105,0.014-0.158,0.022C83.188,35.193,83.151,35.146,83.139,35.073"/>
	<path fill="#818181" d="M65.658,34.233c0-0.333,0.001-0.666-0.001-0.998c-0.001-0.171,0.02-0.312,0.243-0.314
		c0.19-0.004,0.296,0.062,0.296,0.265c-0.002,0.686-0.001,1.37-0.002,2.056c-0.001,0.183-0.071,0.291-0.278,0.29
		c-0.214,0-0.261-0.118-0.259-0.3C65.661,34.898,65.658,34.566,65.658,34.233"/>
	<path fill="#818181" d="M83.139,35.073c0.041,0.046,0.082,0.092,0.123,0.138c-0.188,0.366-0.518,0.425-0.854,0.313
		c-0.311-0.103-0.321-0.415-0.322-0.696c-0.003-0.53,0.001-1.062-0.001-1.592c-0.001-0.174,0.024-0.311,0.249-0.31
		c0.24,0,0.227,0.163,0.229,0.321c0.002,0.511-0.012,1.022,0.007,1.533C82.583,35.188,82.777,35.313,83.139,35.073"/>
	<path fill="#818181" d="M69.661,32.943c0.168,0.172,0.118,0.475,0.361,0.601c-0.241,0.504-0.069,1.042-0.123,1.561
		c-0.019,0.172,0.089,0.428-0.245,0.417c-0.331-0.011-0.22-0.269-0.224-0.436c-0.013-0.567-0.01-1.136,0-1.705
		C69.432,33.206,69.344,32.961,69.661,32.943"/>
	<path fill="#818181" d="M21.75,18.662c-0.039,0.419-0.522,1.002-0.719,0.908c-0.302-0.143-0.239-0.47-0.218-0.723
		c0.028-0.314,0.041-0.728,0.51-0.7C21.642,18.167,21.754,18.437,21.75,18.662"/>
	<path fill="#818181" d="M20.279,19.054c-0.077,0.237-0.119,0.595-0.456,0.556c-0.301-0.036-0.37-0.374-0.373-0.656
		c-0.003-0.3,0.237-0.41,0.472-0.421C20.248,18.516,20.257,18.792,20.279,19.054"/>
	<path fill="#818181" d="M81.061,35.557c-0.174-0.009-0.301-0.102-0.311-0.316c-0.011-0.239,0.115-0.38,0.344-0.372
		c0.219,0.007,0.37,0.154,0.355,0.381C81.436,35.443,81.297,35.556,81.061,35.557"/>
	<path fill="#818181" d="M72.247,35.556c-0.193-0.023-0.334-0.125-0.33-0.331c0.002-0.231,0.16-0.37,0.377-0.356
		c0.215,0.014,0.36,0.163,0.332,0.397C72.6,35.47,72.456,35.56,72.247,35.556"/>
	<path fill="#818181" d="M65.959,31.92c0.192-0.017,0.281,0.064,0.287,0.268c0.006,0.254-0.138,0.277-0.336,0.277
		c-0.191-0.001-0.289-0.063-0.293-0.268C65.614,31.948,65.758,31.906,65.959,31.92"/>
	<path fill="#818181" d="M19.092,19.722c-0.031,0.204-0.116,0.396-0.36,0.439c-0.134,0.023-0.216-0.08-0.219-0.21
		c-0.005-0.247,0.136-0.398,0.364-0.453C19.022,19.464,19.082,19.567,19.092,19.722"/>
	<path fill="#818181" d="M61.045,21.714c0.136,0.163,0.065,0.363,0.095,0.545c0.01,0.07,0.058,0.218-0.11,0.165
		c-0.096-0.029-0.117-0.137-0.105-0.238C61.104,22.063,60.973,21.863,61.045,21.714"/>
	<path fill="#FFFFFF" d="M77.756,19.497c0.254,1.036,0.508,2.071,0.762,3.105c0.051,0.209-0.039,0.294-0.244,0.279
		c-0.02-0.002-0.039-0.002-0.059,0c-1.43,0.113-1.432,0.113-1.1-1.271c0.168-0.703,0.341-1.405,0.512-2.107
		C77.67,19.501,77.713,19.499,77.756,19.497"/>
	<path fill="#FFFFFF" d="M72.243,12.828c0-0.57,0.012-1.141-0.004-1.71c-0.008-0.278,0.086-0.366,0.369-0.375
		c0.961-0.03,1.545,0.379,1.741,1.313c0.11,0.521,0.108,1.06-0.008,1.582c-0.207,0.924-0.904,1.372-1.836,1.255
		c-0.265-0.033-0.263-0.168-0.263-0.354C72.245,13.969,72.243,13.398,72.243,12.828"/>
	<path fill="#FFFFFF" d="M81.596,12.848c-0.007,1.398-0.598,2.068-1.77,2.044c-0.287-0.007-0.422-0.06-0.418-0.387
		c0.019-1.117,0.02-2.233,0-3.351c-0.006-0.36,0.155-0.414,0.461-0.409C81.026,10.764,81.603,11.457,81.596,12.848"/>
	<path fill="#FFFFFF" d="M68.975,13.803c-0.506,0-0.955-0.015-1.402,0.005c-0.305,0.013-0.315-0.134-0.247-0.356
		c0.039-0.131,0.077-0.262,0.116-0.393c0.201-0.669,0.4-1.339,0.639-2.133C68.397,11.945,68.68,12.851,68.975,13.803"/>
	<path fill="#FFFFFF" d="M45.69,13.781h-1.726c0.269-0.932,0.528-1.826,0.83-2.87C45.117,11.944,45.397,12.841,45.69,13.781"/>
	<path fill="#FFFFFF" d="M55.135,33.088c-0.055-0.33,0.009-0.557,0.443-0.518c0.375,0.034,0.744,0.059,0.734,0.549
		s-0.408,0.486-0.763,0.534C55.073,33.717,55.114,33.404,55.135,33.088"/>
	<path fill="#FFFFFF" d="M43.091,33.793c0-0.195-0.001-0.391,0-0.586c0.002-0.629,0.269-0.802,0.808-0.504
		c0.63,0.349,0.499,0.963,0.475,1.517c-0.02,0.434-0.279,0.729-0.708,0.827c-0.341,0.079-0.632,0.059-0.58-0.434
		C43.114,34.343,43.091,34.066,43.091,33.793"/>
	<path fill="#FFFFFF" d="M52.618,32.909c0.121,0.371,0.25,0.74,0.359,1.114c0.041,0.143,0.113,0.353-0.096,0.398
		c-0.222,0.049-0.476,0.051-0.695-0.007c-0.192-0.05-0.047-0.236-0.019-0.352c0.099-0.392,0.222-0.778,0.333-1.166
		C52.54,32.901,52.579,32.905,52.618,32.909"/>
	<path fill="#FFFFFF" d="M77.134,34.219c-0.017,0.144-0.017,0.264-0.047,0.375c-0.077,0.271-0.191,0.552-0.513,0.565
		c-0.353,0.015-0.422-0.3-0.481-0.565c-0.06-0.268-0.047-0.54,0.019-0.812c0.062-0.257,0.127-0.53,0.439-0.539
		c0.331-0.01,0.451,0.27,0.531,0.537C77.126,33.928,77.12,34.089,77.134,34.219"/>
	<path fill="#FFFFFF" d="M74.194,33.984c-0.201-0.09-0.525,0.116-0.509-0.259c0.014-0.303,0.2-0.527,0.526-0.514
		c0.311,0.013,0.434,0.265,0.438,0.533C74.653,34.146,74.303,33.838,74.194,33.984"/>
	<path fill="#FFFFFF" d="M67.809,33.981c-0.17-0.084-0.498,0.133-0.479-0.232c0.016-0.278,0.171-0.539,0.5-0.544
		c0.334-0.006,0.49,0.261,0.496,0.537C68.335,34.154,67.973,33.871,67.809,33.981"/>
</g>
</svg>
