<?xml version="1.0" encoding="utf-8"?>
<!-- Generator: Adobe Illustrator 16.0.0, SVG Export Plug-In . SVG Version: 6.00 Build 0)  -->
<!DOCTYPE svg PUBLIC "-//W3C//DTD SVG 1.1//EN" "http://www.w3.org/Graphics/SVG/1.1/DTD/svg11.dtd">
<svg version="1.1" id="Layer_1" xmlns="http://www.w3.org/2000/svg" xmlns:xlink="http://www.w3.org/1999/xlink" x="0px" y="0px"
	 width="40.266px" height="53.78px" viewBox="0 0 40.266 53.78" enable-background="new 0 0 40.266 53.78" xml:space="preserve">
<path fill-rule="evenodd" clip-rule="evenodd" fill="#818181" d="M0,46.132c0.584,0,0.987-0.42,0.987-0.943v-7.574
	c0-0.733-0.374-1.122-0.942-1.272v-0.329c0.568,0,1.123,0.06,1.69,0.06c0.569,0,1.138-0.06,1.707-0.06v0.329
	c-0.614,0.165-0.808,0.524-0.808,1.317c0,0.449-0.045,1.407-0.045,2.754v5.18c0.328,0.061,0.612,0.09,1.586,0.09
	c2.574,0,3.039-0.464,3.413-1.422l0.539,0.27l-0.645,2.11c-0.479-0.18-0.958-0.238-1.437-0.238H1.138
	c-0.374,0-0.763,0.059-1.138,0.059V46.132z"/>
<path fill-rule="evenodd" clip-rule="evenodd" fill="#818181" d="M9.483,38.092c0.431,0,0.862,0.047,1.305,0.047
	c0.432,0,0.874-0.047,1.306-0.047v0.263c-0.539,0.072-0.672,0.432-0.672,1.197c0,1.138-0.012,2.275-0.012,3.413
	c0,1.604,0.743,2.741,2.527,2.741c0.97,0,2.203-0.563,2.203-1.915v-1.413c0-1.413-0.108-2.826-0.108-3.425
	c0-0.335-0.323-0.563-0.61-0.599v-0.263c0.432,0,0.862,0.047,1.294,0.047c0.431,0,0.874-0.047,1.305-0.047v0.263
	c-0.396,0.013-0.563,0.479-0.563,0.887c0,0.454-0.035,1.7-0.035,3.28v2.61c0,0.67,0.132,1.018,0.658,1.054v0.264
	c-0.336,0-0.683-0.048-1.018-0.048s-0.671,0.048-1.006,0.048c0.023-0.407,0.06-0.778,0.084-1.138
	c-0.874,0.814-1.616,1.281-2.838,1.281c-1.772,0-3.174-1.019-3.174-2.814v-1.999c0-0.934-0.06-1.76-0.06-2.503
	c0-0.467-0.083-0.85-0.586-0.922V38.092z"/>
<path fill-rule="evenodd" clip-rule="evenodd" fill="#818181" d="M20.714,46.186c0.468-0.12,0.742-0.479,0.742-1.149l0.036-7.089
	h0.503l5.855,6.442v-4.119c0-1.484-0.324-1.832-0.898-1.916v-0.263c0.396,0,0.79,0.047,1.186,0.047c0.395,0,0.803-0.047,1.197-0.047
	v0.263c-0.526,0.096-0.79,0.515-0.79,1.485l-0.037,6.753h-0.406l-5.95-6.478l0.047,4.562c0.013,0.934,0.3,1.365,0.874,1.509v0.264
	c-0.395,0-0.79-0.048-1.185-0.048c-0.396,0-0.778,0.048-1.174,0.048V46.186z"/>
<path fill-rule="evenodd" clip-rule="evenodd" fill="#818181" d="M31.776,46.187c0.491-0.121,0.623-0.337,0.623-0.852v-3.483
	c0-1.055-0.12-1.988-0.12-2.575c0-0.503-0.18-0.85-0.621-0.97v-0.215c0.562,0,1.112,0.047,1.676,0.047
	c0.55,0,1.112-0.047,1.676-0.047c3.269,0,5.256,1.437,5.256,4.13c0,2.742-1.556,4.228-4.921,4.228c-0.599,0-1.197-0.048-1.784-0.048
	c-0.599,0-1.185,0.048-1.784,0.048V46.187z M33.681,45.874c0.562,0.072,1.03,0.096,1.484,0.096c2.287,0,3.437-1.4,3.437-3.699
	c0-2.167-1.509-3.7-3.628-3.7c-0.383,0-0.754,0.023-1.233,0.048c-0.012,1.054-0.06,2.012-0.06,3.018V45.874z"/>
<path fill-rule="evenodd" clip-rule="evenodd" fill="#818181" d="M6.41,53.575c0.219-0.057,0.349-0.226,0.349-0.54l0.017-3.332
	h0.236l2.752,3.027v-1.936c0-0.697-0.152-0.86-0.422-0.9v-0.123c0.185,0,0.371,0.022,0.557,0.022s0.377-0.022,0.563-0.022v0.123
	c-0.247,0.045-0.371,0.242-0.371,0.698l-0.018,3.174h-0.19l-2.797-3.046l0.022,2.146c0.005,0.438,0.141,0.642,0.41,0.709v0.124
	c-0.185,0-0.371-0.022-0.557-0.022s-0.365,0.022-0.551,0.022V53.575z"/>
<path fill-rule="evenodd" clip-rule="evenodd" fill="#818181" d="M12.869,49.895c-0.208,0.034-0.23,0.181-0.23,0.377
	c0,0.546-0.022,1.21-0.022,1.807v1.092c0,0.186,0.062,0.399,0.274,0.405v0.124c-0.19,0-0.388-0.022-0.578-0.022
	c-0.197,0-0.389,0.022-0.58,0.022v-0.124c0.18-0.006,0.281-0.163,0.281-0.405v-0.811c0-0.675-0.051-1.665-0.051-2.02
	c0-0.231-0.021-0.417-0.253-0.445v-0.123c0.191,0,0.383,0.022,0.579,0.022c0.192,0,0.389-0.022,0.58-0.022V49.895z"/>
<path fill-rule="evenodd" clip-rule="evenodd" fill="#818181" d="M15.677,53.767l-1.553-3.416c-0.063-0.141-0.187-0.371-0.405-0.456
	v-0.123c0.214,0,0.428,0.022,0.642,0.022c0.208,0,0.421-0.022,0.636-0.022v0.123c-0.107,0.022-0.208,0.073-0.208,0.203
	c0,0.051,0.017,0.146,0.101,0.349l1.03,2.459l0.878-2.296c0.062-0.157,0.079-0.287,0.079-0.371c0-0.22-0.074-0.31-0.293-0.344
	v-0.123c0.191,0,0.383,0.022,0.573,0.022c0.191,0,0.384-0.022,0.574-0.022v0.123c-0.23,0.034-0.359,0.226-0.472,0.507l-1.334,3.365
	H15.677z"/>
<path fill-rule="evenodd" clip-rule="evenodd" fill="#818181" d="M18.502,53.553c0.22-0.021,0.327-0.158,0.327-0.344v-0.95
	c0-0.766-0.046-1.57-0.046-2.071c0-0.141-0.107-0.236-0.281-0.271v-0.123h2.223c0.152,0,0.344-0.057,0.444-0.091
	c0,0.146-0.022,0.282-0.022,0.423s0.022,0.275,0.022,0.416h-0.213c-0.097-0.271-0.231-0.479-0.541-0.479h-0.984v1.497h0.85
	c0.325,0,0.433-0.028,0.568-0.304h0.181c0,0.163-0.023,0.326-0.023,0.489c0,0.169,0.023,0.332,0.023,0.495h-0.192
	c-0.124-0.388-0.231-0.411-0.557-0.411h-0.85v1.577h0.956c0.417,0,0.569-0.068,0.822-0.423l0.174,0.09l-0.197,0.692
	c-0.174-0.067-0.349-0.09-0.528-0.09h-2.155V53.553z"/>
<path fill-rule="evenodd" clip-rule="evenodd" fill="#818181" d="M22.594,53.575c0.19-0.045,0.28-0.135,0.28-0.326v-1.446
	c0-0.484-0.027-0.968-0.027-1.446c0-0.265-0.028-0.405-0.315-0.462v-0.123c0.181,0,0.365,0.022,0.546,0.022
	c0.169,0,0.337-0.022,0.76-0.022c1.014,0,1.509,0.506,1.509,1.114c0,0.567-0.519,0.934-1.02,1.058l1.138,1.316
	c0.084,0.102,0.274,0.288,0.427,0.315v0.124c-0.186,0-0.377-0.022-0.563-0.022s-0.372,0.022-0.558,0.022v-0.124
	c0.04-0.006,0.057-0.027,0.062-0.067c0-0.051-0.017-0.102-0.084-0.181l-0.934-1.092c-0.085-0.096-0.203-0.241-0.338-0.241v1.113
	c0,0.237,0.028,0.405,0.314,0.468v0.124c-0.201,0-0.398-0.022-0.602-0.022c-0.202,0-0.394,0.022-0.596,0.022V53.575z M23.477,51.819
	c0.084,0.006,0.152,0.017,0.22,0.017c0.518,0,0.962-0.349,0.962-0.883c0-0.519-0.236-0.979-0.85-0.979
	c-0.146,0-0.304,0.017-0.304,0.158L23.477,51.819z"/>
<path fill-rule="evenodd" clip-rule="evenodd" fill="#818181" d="M26.718,52.934h0.214c0.152,0.428,0.501,0.597,0.923,0.597
	c0.384,0,0.731-0.31,0.731-0.704c0-1.187-1.918-0.455-1.918-1.98c0-0.726,0.635-1.143,1.3-1.143c0.365,0,0.815,0.136,1.001,0.259
	l0.056,0.603h-0.202c-0.09-0.371-0.483-0.625-0.85-0.625c-0.422,0-0.76,0.282-0.76,0.715c0,0.99,1.919,0.417,1.919,1.886
	c0,0.747-0.603,1.227-1.316,1.227c-0.377,0-0.76-0.045-1.098-0.22V52.934z"/>
<path fill-rule="evenodd" clip-rule="evenodd" fill="#818181" d="M31.602,49.895c-0.208,0.034-0.23,0.181-0.23,0.377
	c0,0.546-0.022,1.21-0.022,1.807v1.092c0,0.186,0.063,0.399,0.275,0.405v0.124c-0.191,0-0.388-0.022-0.579-0.022
	c-0.197,0-0.388,0.022-0.58,0.022v-0.124c0.18-0.006,0.282-0.163,0.282-0.405v-0.811c0-0.675-0.051-1.665-0.051-2.02
	c0-0.231-0.023-0.417-0.253-0.445v-0.123c0.19,0,0.383,0.022,0.578,0.022c0.192,0,0.39-0.022,0.58-0.022V49.895z"/>
<path fill-rule="evenodd" clip-rule="evenodd" fill="#818181" d="M36.081,50.497h-0.214c-0.057-0.332-0.226-0.434-0.546-0.434
	h-0.709c0,0.484-0.028,1.104-0.028,1.778v1.198c0,0.35,0.107,0.456,0.354,0.535v0.124c-0.219,0-0.433-0.022-0.646-0.022
	c-0.213,0-0.427,0.022-0.647,0.022v-0.124c0.26-0.085,0.339-0.209,0.339-0.535v-0.883c0-0.811-0.046-1.609-0.057-2.094h-0.76
	c-0.32,0-0.489,0.102-0.546,0.434h-0.213v-0.794c0.213,0.057,0.433,0.091,0.651,0.091h2.487c0.158,0,0.406-0.034,0.535-0.091V50.497
	z"/>
<path fill-rule="evenodd" clip-rule="evenodd" fill="#818181" d="M37.628,53.575c0.27-0.045,0.349-0.175,0.349-0.45v-1.081
	l-1.053-1.75c-0.105-0.174-0.163-0.292-0.337-0.399v-0.123c0.191,0,0.388,0.022,0.58,0.022c0.19,0,0.388-0.022,0.579-0.022v0.123
	c-0.107,0.022-0.18,0.079-0.18,0.197c0,0.057,0.033,0.22,0.112,0.354l0.714,1.261l0.704-1.21c0.107-0.186,0.124-0.321,0.124-0.422
	c0-0.124-0.124-0.175-0.236-0.181v-0.123c0.169,0,0.338,0.022,0.512,0.022c0.169,0,0.338-0.022,0.507-0.022v0.123
	c-0.187,0.067-0.287,0.226-0.439,0.468l-0.984,1.604v1.159c0,0.275,0.079,0.405,0.326,0.45v0.124c-0.214,0-0.428-0.022-0.636-0.022
	c-0.214,0-0.428,0.022-0.642,0.022V53.575z"/>
<path fill-rule="evenodd" clip-rule="evenodd" fill="#818181" d="M17.172,27.35v1.369c0,0.068,0.312,0.188,0.312,0.188h-0.982
	c0,0,0.294-0.12,0.294-0.179v-1.154l-0.306,0.051l-0.005-0.055L17.172,27.35z"/>
<path fill-rule="evenodd" clip-rule="evenodd" fill="#818181" d="M23.463,27.381c-0.439,0.097-0.665,0.376-0.728,0.672
	c0.109-0.059,0.207-0.085,0.323-0.085c0.32,0,0.534,0.187,0.534,0.461c0,0.3-0.258,0.511-0.626,0.511
	c-0.405,0-0.679-0.254-0.679-0.635c0-0.475,0.464-0.954,1.167-0.954L23.463,27.381z M22.958,28.084c-0.113,0-0.192,0.046-0.249,0.08
	c-0.006,0.031-0.018,0.109-0.018,0.231c0,0.171,0.021,0.454,0.261,0.454c0.234,0,0.239-0.22,0.239-0.393
	C23.191,28.303,23.182,28.084,22.958,28.084"/>
<path fill-rule="evenodd" clip-rule="evenodd" fill="#818181" d="M21.399,27.381c-0.44,0.097-0.665,0.376-0.729,0.672
	c0.11-0.059,0.207-0.085,0.324-0.085c0.32,0,0.534,0.187,0.534,0.461c0,0.3-0.258,0.511-0.626,0.511c-0.405,0-0.68-0.254-0.68-0.635
	c0-0.475,0.464-0.954,1.167-0.954L21.399,27.381z M20.895,28.084c-0.113,0-0.192,0.046-0.25,0.08
	c-0.006,0.031-0.018,0.109-0.018,0.231c0,0.171,0.022,0.454,0.261,0.454c0.235,0,0.239-0.22,0.239-0.393
	C21.127,28.303,21.117,28.084,20.895,28.084"/>
<path fill-rule="evenodd" clip-rule="evenodd" fill="#818181" d="M19.321,27.381c-0.44,0.097-0.666,0.376-0.729,0.672
	c0.11-0.059,0.207-0.085,0.324-0.085c0.32,0,0.534,0.187,0.534,0.461c0,0.3-0.258,0.511-0.626,0.511c-0.405,0-0.68-0.254-0.68-0.635
	c0-0.475,0.464-0.954,1.167-0.954L19.321,27.381z M18.816,28.084c-0.113,0-0.192,0.046-0.25,0.08
	c-0.006,0.031-0.019,0.109-0.019,0.231c0,0.171,0.022,0.454,0.262,0.454c0.235,0,0.238-0.22,0.238-0.393
	C19.048,28.303,19.039,28.084,18.816,28.084"/>
<path fill-rule="evenodd" clip-rule="evenodd" fill="#818181" d="M5.78,14.255c0.146,0.048,0.353,0.151,0.489,0.243
	c-0.022,0.043-0.037,0.099-0.048,0.164c-0.021,0.133,0.007,0.282-0.028,0.495c-0.096,0.579-0.571,0.964-1.083,0.88
	c-0.521-0.086-0.85-0.631-0.75-1.236c0.048-0.294,0.195-0.468,0.205-0.524c0.004-0.022-0.008-0.132-0.008-0.132L5.057,14.2
	c0,0-0.504,0.33-0.549,0.602c-0.066,0.404,0.193,0.735,0.641,0.809c0.456,0.074,0.857-0.18,0.924-0.584
	C6.114,14.766,5.78,14.255,5.78,14.255"/>
<path fill-rule="evenodd" clip-rule="evenodd" fill="#818181" d="M10.441,6.86L9.375,7.968c0,0,0.071-0.33-0.03-0.428L8.519,6.744
	C8.396,6.627,8.094,6.727,8.094,6.727l0.675-0.7c0,0-0.077,0.336,0.021,0.429L9.64,7.274c0.076,0.074,0.116,0.069,0.194-0.012
	l0.253-0.262c0.133-0.139,0.14-0.638,0.14-0.638L10.441,6.86z"/>
<path fill-rule="evenodd" clip-rule="evenodd" fill="#818181" d="M9.572,5.249l0.709-0.573c0,0-0.096,0.306-0.002,0.422l0.715,0.883
	c0.088,0.109,0.408,0.082,0.408,0.082l-0.709,0.573c0,0,0.079-0.299-0.001-0.397L9.972,5.347C9.879,5.23,9.572,5.249,9.572,5.249"/>
<path fill-rule="evenodd" clip-rule="evenodd" fill="#818181" d="M11.957,5.251c0.092,0.149,0.422,0.146,0.422,0.146l-0.593,0.361
	c0,0,0.109-0.271,0.049-0.372l-0.688-1.122C11.07,4.261,10.86,4.235,10.86,4.235l0.503-0.309L13,4.357l-0.453-0.738
	c-0.107-0.177-0.442-0.146-0.442-0.146l0.631-0.387c0,0-0.146,0.266-0.09,0.358l0.801,1.308l-0.135,0.083l-1.921-0.508L11.957,5.251
	z"/>
<path fill-rule="evenodd" clip-rule="evenodd" fill="#818181" d="M22.377,2.813c0,0,0.278,0.498,0.5,0.545
	c0.186,0.04,0.351-0.049,0.385-0.206c0.088-0.418-0.815-0.595-0.697-1.149c0.057-0.27,0.332-0.407,0.666-0.337
	c0.216,0.046,0.369,0.154,0.411,0.163c0.019,0.004,0.037,0.002,0.067-0.018l0.06,0.013l-0.043,0.466c0,0-0.274-0.451-0.49-0.498
	c-0.157-0.032-0.293,0.027-0.315,0.137c-0.056,0.258,0.4,0.404,0.647,0.785c0.091,0.139,0.111,0.27,0.082,0.404
	c-0.062,0.291-0.374,0.467-0.708,0.395c-0.224-0.047-0.41-0.181-0.46-0.191c-0.026-0.005-0.048,0.005-0.069,0.032L22.34,3.338
	L22.377,2.813z"/>
<path fill-rule="evenodd" clip-rule="evenodd" fill="#818181" d="M24.686,2.101l0.864,0.291c0,0-0.31,0.083-0.357,0.225L24.83,3.692
	c-0.045,0.133,0.148,0.39,0.148,0.39L24.116,3.79c0,0,0.295-0.094,0.335-0.214l0.367-1.086C24.865,2.349,24.686,2.101,24.686,2.101"
	/>
<path fill-rule="evenodd" clip-rule="evenodd" fill="#818181" d="M27.307,4.543l-0.191,0.382c-0.228-0.009-0.53-0.065-0.75-0.177
	c-0.647-0.327-0.778-0.846-0.529-1.337c0.236-0.468,0.797-0.618,1.342-0.344c0.265,0.134,0.424,0.326,0.511,0.37
	c0.039,0.02,0.063,0.02,0.094,0.006l0.063,0.032l-0.236,0.469l-0.103-0.052c0.063-0.296-0.054-0.548-0.32-0.683
	c-0.363-0.184-0.759-0.023-0.969,0.392c-0.212,0.42-0.105,0.865,0.25,1.045c0.098,0.049,0.219,0.077,0.309,0.071l0.178-0.354
	c0.064-0.128-0.185-0.417-0.185-0.417l0.85,0.429C27.619,4.376,27.367,4.426,27.307,4.543"/>
<path fill-rule="evenodd" clip-rule="evenodd" fill="#818181" d="M28.633,3.973l0.747,0.521c0,0-0.319-0.007-0.405,0.115
	l-0.649,0.932c-0.08,0.115,0.036,0.416,0.036,0.416l-0.749-0.521c0,0,0.31-0.009,0.382-0.112l0.656-0.94
	C28.735,4.261,28.633,3.973,28.633,3.973"/>
<path fill-rule="evenodd" clip-rule="evenodd" fill="#818181" d="M31.306,8.966l-0.967-1.195c0,0,0.319,0.111,0.429,0.023
	l0.892-0.721c0.132-0.106,0.071-0.419,0.071-0.419l0.61,0.757c0,0-0.323-0.118-0.429-0.034L30.993,8.12
	c-0.082,0.066-0.083,0.107-0.012,0.194l0.229,0.283c0.12,0.149,0.615,0.218,0.615,0.218L31.306,8.966z"/>
<path fill-rule="evenodd" clip-rule="evenodd" fill="#818181" d="M30.031,7.424l-1.13-1.042c0,0,0.331,0.064,0.426-0.039
	l0.778-0.844c0.114-0.124,0.009-0.424,0.009-0.424l0.715,0.659c0,0-0.338-0.07-0.429,0.029L29.6,6.632
	c-0.072,0.078-0.067,0.118,0.016,0.194l0.268,0.247c0.142,0.13,0.641,0.126,0.641,0.126L30.031,7.424z"/>
<path fill-rule="evenodd" clip-rule="evenodd" fill="#818181" d="M32.813,8.605c0.129-0.187,0.14-0.454,0.14-0.454l0.509,0.854
	c0,0-0.332-0.183-0.436-0.026L32.458,9.82l1.086-0.091c0.104-0.016,0.12-0.384,0.12-0.384l0.374,0.626c0,0-0.292-0.12-0.536-0.085
	l-1.676,0.14L32.813,8.605z"/>
<path fill-rule="evenodd" clip-rule="evenodd" fill="#818181" d="M34.041,10.929l-0.003-0.006l-0.981,0.284
	c-0.182,0.054-0.293,0.354-0.293,0.354l-0.215-0.599c0,0,0.245,0.156,0.473,0.089l0.999-0.29c0.141-0.041,0.246-0.292,0.246-0.292
	l0.204,0.57l-0.946,0.932l1.314,0.1l0.208,0.58c0,0-0.19-0.166-0.381-0.083l-0.973,0.421c-0.222,0.095-0.287,0.371-0.287,0.371
	l-0.304-0.851c0,0,0.195,0.216,0.371,0.153c0.043-0.016,0.086-0.034,0.125-0.051l0.936-0.405l-0.002-0.005l-1.582-0.116
	l-0.022-0.065L34.041,10.929z"/>
<path fill-rule="evenodd" clip-rule="evenodd" fill="#818181" d="M34.225,17.331c-0.175-0.007-0.355,0.271-0.355,0.271l0.028-0.694
	c0,0,0.165,0.242,0.283,0.247l1.315,0.055c0.045-0.062,0.184-0.223,0.184-0.223l-0.024,0.591l-1.269,1.118l0.865,0.036
	c0.206,0.008,0.367-0.286,0.367-0.286l-0.03,0.74c0,0-0.139-0.271-0.247-0.275l-1.533-0.063l0.007-0.158l1.492-1.313L34.225,17.331z
	"/>
<path fill-rule="evenodd" clip-rule="evenodd" fill="#818181" d="M35.46,19.765l-0.178,0.896c0,0-0.122-0.297-0.269-0.326
	L33.9,20.112c-0.138-0.027-0.367,0.199-0.367,0.199l0.177-0.895c0,0,0.133,0.28,0.257,0.305l1.125,0.225
	C35.237,19.975,35.46,19.765,35.46,19.765"/>
<path fill-rule="evenodd" clip-rule="evenodd" fill="#818181" d="M33.608,24.597l0.286-0.56l-0.574-0.295l-0.212,0.415
	c-0.071,0.14,0.034,0.387,0.034,0.387l-0.508-0.259c0,0,0.253-0.043,0.353-0.238l0.193-0.375l-0.46-0.235
	c-0.11-0.057-0.144-0.048-0.182,0.026l-0.218,0.426c-0.085,0.166,0.06,0.524,0.06,0.524l-0.385-0.236l0.787-1.536
	c0,0,0.003,0.385,0.128,0.448l1.019,0.521c0.138,0.071,0.413-0.101,0.413-0.101l-0.721,1.406l-0.384-0.164
	C33.238,24.752,33.549,24.714,33.608,24.597"/>
<path fill-rule="evenodd" clip-rule="evenodd" fill="#818181" d="M30.649,26.863c0,0-0.57-0.035-0.729,0.126
	c-0.133,0.135-0.147,0.321-0.033,0.434c0.304,0.301,0.94-0.364,1.345,0.035c0.195,0.193,0.162,0.5-0.078,0.742
	c-0.155,0.157-0.329,0.228-0.359,0.258c-0.014,0.015-0.063,0.11-0.063,0.11l-0.369-0.288c0,0,0.528,0.013,0.683-0.145
	c0.112-0.114,0.137-0.26,0.058-0.339c-0.188-0.185-0.558,0.119-1.012,0.122c-0.166,0.001-0.286-0.053-0.384-0.15
	c-0.213-0.209-0.189-0.566,0.05-0.809c0.161-0.163,0.373-0.248,0.409-0.284c0.019-0.019,0.023-0.043,0.011-0.075l0.052-0.053
	L30.649,26.863z"/>
<path fill-rule="evenodd" clip-rule="evenodd" fill="#818181" d="M30.047,29.16l-0.718,0.563c0,0,0.1-0.306,0.009-0.423l-0.7-0.895
	c-0.086-0.11-0.407-0.089-0.407-0.089l0.719-0.562c0,0-0.084,0.299-0.006,0.397l0.707,0.904
	C29.741,29.174,30.047,29.16,30.047,29.16"/>
<path fill-rule="evenodd" clip-rule="evenodd" fill="#818181" d="M22.199,32.683l-0.907,0.094c0,0,0.247-0.204,0.231-0.353
	l-0.117-1.13c-0.014-0.14-0.298-0.292-0.298-0.292l0.907-0.093c0,0-0.229,0.208-0.216,0.333l0.117,1.141
	C21.932,32.531,22.199,32.683,22.199,32.683"/>
<path fill-rule="evenodd" clip-rule="evenodd" fill="#818181" d="M20.392,31.539c0,0-0.37-0.435-0.596-0.437
	c-0.19-0.004-0.335,0.115-0.337,0.275c-0.006,0.427,0.915,0.425,0.907,0.993c-0.004,0.274-0.247,0.464-0.589,0.459
	c-0.22-0.003-0.391-0.079-0.434-0.08c-0.021,0-0.124,0.03-0.124,0.03l-0.048-0.466c0,0,0.355,0.39,0.576,0.393
	c0.16,0.002,0.282-0.083,0.283-0.194c0.004-0.264-0.472-0.319-0.788-0.645c-0.116-0.119-0.16-0.243-0.158-0.381
	c0.004-0.298,0.276-0.529,0.617-0.524c0.229,0.003,0.438,0.098,0.489,0.098c0.026,0.001,0.135-0.044,0.135-0.044L20.392,31.539z"/>
<path fill-rule="evenodd" clip-rule="evenodd" fill="#818181" d="M15.41,30.896l0.113-0.412c0.225-0.037,0.531-0.042,0.77,0.023
	c0.699,0.19,0.931,0.673,0.785,1.204c-0.138,0.506-0.657,0.766-1.246,0.604c-0.285-0.078-0.48-0.235-0.574-0.261
	c-0.041-0.013-0.162-0.006-0.162-0.006l0.138-0.507c0,0,0.274,0.557,0.562,0.636c0.393,0.107,0.749-0.129,0.871-0.577
	c0.123-0.453-0.069-0.868-0.453-0.974c-0.105-0.028-0.229-0.032-0.316-0.009l-0.104,0.381c-0.062,0.25,0.264,0.373,0.264,0.373
	l-0.918-0.251C15.139,31.121,15.376,31.022,15.41,30.896"/>
<path fill-rule="evenodd" clip-rule="evenodd" fill="#818181" d="M9.76,27.112l-0.352,0.369l0.685,0.653l0.355-0.373
	c0.104-0.11,0.035-0.42,0.035-0.42l0.665,0.637c0,0-0.311-0.052-0.41,0.052l-0.787,0.826c-0.1,0.104-0.033,0.412-0.033,0.412
	l-0.666-0.636c0,0,0.302,0.066,0.413-0.05l0.311-0.325l-0.685-0.653l-0.306,0.319c-0.11,0.116-0.043,0.415-0.043,0.415l-0.663-0.634
	c0,0,0.308,0.063,0.414-0.048l0.784-0.822c0.104-0.107,0.032-0.42,0.032-0.42l0.664,0.633C10.174,27.048,9.867,27,9.76,27.112"/>
<path fill-rule="evenodd" clip-rule="evenodd" fill="#818181" d="M4.832,20.011l0.002,0.006l1.02-0.071
	c0.189-0.014,0.361-0.285,0.361-0.285l0.084,0.631c0,0-0.206-0.204-0.444-0.187l-1.037,0.073c-0.146,0.011-0.302,0.234-0.302,0.234
	l-0.079-0.6l1.12-0.713l-1.266-0.373l-0.08-0.611c0,0,0.151,0.202,0.354,0.161l1.04-0.207c0.237-0.046,0.359-0.303,0.359-0.303
	l0.118,0.896c0,0-0.146-0.252-0.33-0.228c-0.046,0.006-0.092,0.015-0.134,0.023l-1,0.199l0.001,0.005l1.522,0.446l0.009,0.068
	L4.832,20.011z"/>
<path fill-rule="evenodd" clip-rule="evenodd" fill="#818181" d="M35.184,14.877c0.196-0.112,0.322-0.349,0.322-0.349l0.089,0.991
	c0,0-0.221-0.309-0.382-0.213l-0.779,0.447l0.944,0.43c0.102,0.031,0.252-0.271,0.252-0.271l0.065,0.726
	c0,0-0.211-0.234-0.445-0.309l-1.472-0.647L35.184,14.877z"/>
<path fill-rule="evenodd" clip-rule="evenodd" fill="#818181" d="M34.743,21.339c0.225-0.029,0.431-0.2,0.431-0.2l-0.293,0.951
	c0,0-0.088-0.369-0.272-0.343l-0.891,0.12l0.712,0.755c0.08,0.067,0.335-0.154,0.335-0.154l-0.215,0.696
	c0,0-0.106-0.297-0.295-0.454l-1.116-1.157L34.743,21.339z"/>
<path fill-rule="evenodd" clip-rule="evenodd" fill="#818181" d="M5.501,22.48c-0.165,0.156-0.229,0.416-0.229,0.416l-0.323-0.941
	c0,0,0.288,0.247,0.422,0.116l0.648-0.621L5,21.258c-0.105-0.006-0.181,0.323-0.181,0.323l-0.236-0.689c0,0,0.261,0.178,0.506,0.192
	l1.584,0.279L5.501,22.48z"/>
<path fill-rule="evenodd" clip-rule="evenodd" fill="#818181" d="M11.822,28.785c0.085-0.122-0.075-0.449-0.075-0.449l0.849,0.587
	c0,0-0.361-0.037-0.448,0.088l-0.793,1.157l0.278,0.192c0.182,0.125,0.544-0.035,0.544-0.035l-0.294,0.354l-1.5-1.038l0.21-0.412
	c0,0-0.023,0.396,0.159,0.521l0.277,0.192L11.822,28.785z"/>
<path fill-rule="evenodd" clip-rule="evenodd" fill="#818181" d="M23.126,30.993c-0.034-0.146-0.384-0.246-0.384-0.246l1.005-0.234
	c0,0-0.271,0.242-0.236,0.391l0.315,1.322l0.329-0.077c0.215-0.051,0.339-0.426,0.339-0.426l0.064,0.454l-1.775,0.416l-0.165-0.433
	c0,0,0.278,0.283,0.493,0.232l0.329-0.077L23.126,30.993z"/>
<path fill-rule="evenodd" clip-rule="evenodd" fill="#818181" d="M27.076,29.446c-0.075-0.129-0.439-0.122-0.439-0.122l0.892-0.52
	c0,0-0.187,0.312-0.11,0.442l0.711,1.209l0.293-0.17c0.19-0.111,0.197-0.508,0.197-0.508l0.196,0.417l-1.576,0.918l-0.284-0.365
	c0,0,0.349,0.188,0.539,0.077l0.293-0.17L27.076,29.446z"/>
<path fill-rule="evenodd" clip-rule="evenodd" fill="#818181" d="M34.198,14.021c0.001-0.155,0.128-0.28,0.284-0.279
	c0.154,0.001,0.279,0.129,0.279,0.284c-0.002,0.155-0.129,0.28-0.283,0.279C34.322,14.304,34.197,14.177,34.198,14.021"/>
<path fill-rule="evenodd" clip-rule="evenodd" fill="#818181" d="M17.798,31.73c0.001-0.156,0.128-0.281,0.283-0.28
	c0.155,0.002,0.28,0.129,0.279,0.284s-0.128,0.281-0.284,0.279C17.922,32.013,17.797,31.886,17.798,31.73"/>
<path fill-rule="evenodd" clip-rule="evenodd" fill="#818181" d="M4.863,17.027c0-0.155,0.128-0.28,0.283-0.279
	s0.281,0.128,0.279,0.283c-0.001,0.156-0.128,0.281-0.283,0.28C4.986,17.31,4.861,17.183,4.863,17.027"/>
<path fill-rule="evenodd" clip-rule="evenodd" fill="#818181" d="M7.386,8.974C7.035,8.72,6.947,8.361,7.161,8.067
	C7.418,7.715,7.9,7.781,8.273,8.053c0.321,0.232,0.49,0.586,0.255,0.908C8.291,9.288,7.828,9.297,7.386,8.974 M7.246,9.4
	c0.39,0.283,0.956,0.22,1.344-0.313c0.402-0.555,0.265-1.141-0.148-1.44c-0.434-0.315-0.988-0.192-1.34,0.292
	C6.727,8.456,6.786,9.066,7.246,9.4"/>
<path fill-rule="evenodd" clip-rule="evenodd" fill="#818181" d="M14.717,3.462L14.152,3.64l0.025-0.833L14.717,3.462z
	 M15.076,3.232l0.504-0.189c0.206-0.078,0.487,0.01,0.487,0.01l-0.394-0.455c0,0-0.028,0.249-0.176,0.305L14.97,3.116l-0.464-0.567
	l0.764-0.253c0.123-0.046,0.432,0.064,0.432,0.064l-0.33-0.31l-1.623,0.559c0,0,0.204,0.055,0.17,0.333l-0.023,1.222
	c-0.024,0.215-0.155,0.433-0.155,0.433l0.618-0.23c0,0-0.268-0.111-0.251-0.249l0.031-0.35l0.678-0.207l0.381,0.468l1.502-0.576
	l-0.317-0.349c0,0,0.11,0.258-0.064,0.322l-0.799,0.313L15.076,3.232z"/>
<path fill-rule="evenodd" clip-rule="evenodd" fill="#818181" d="M7.01,11.168c0.134,0.062,0.424-0.147,0.424-0.147L7.01,11.93
	c0,0-0.016-0.333-0.166-0.403l-1.026-0.478c-0.125-0.058-0.421,0.124-0.421,0.124c0.052-0.134,0.093-0.235,0.135-0.346
	c0.057-0.15,0.137-0.341,0.18-0.435c0.179-0.382,0.324-0.567,0.515-0.637C6.352,9.71,6.469,9.717,6.58,9.77
	c0.197,0.092,0.287,0.307,0.239,0.579c0.223-0.105,0.471-0.101,0.741-0.199c0.155-0.057,0.415-0.225,0.415-0.225
	c-0.024,0.059-0.036,0.085-0.073,0.162c-0.15,0.322-0.258,0.434-0.438,0.499c-0.189,0.069-0.532,0.093-0.753,0.192l-0.096,0.206
	L7.01,11.168z M6.506,10.934l0.048-0.102c0.146-0.314,0.135-0.541-0.144-0.671c-0.275-0.128-0.472,0.036-0.59,0.289l-0.063,0.135
	L6.506,10.934z"/>
<path fill-rule="evenodd" clip-rule="evenodd" fill="#818181" d="M5.962,13.37l0.245,0.2c0.107,0.087,0.352-0.182,0.352-0.182
	l-0.224,0.753c0,0-0.072-0.292-0.219-0.413l-1.371-1.161l1.804-0.279c0.181-0.028,0.394-0.194,0.394-0.194l-0.274,0.923
	c0,0-0.069-0.344-0.204-0.321l-0.316,0.053L5.962,13.37z M5.383,12.875l0.49,0.401l0.148-0.5L5.383,12.875z"/>
<path fill-rule="evenodd" clip-rule="evenodd" fill="#818181" d="M7.304,23.708c0.129-0.068,0.137-0.427,0.137-0.427l0.471,0.886
	c0,0-0.275-0.188-0.422-0.109l-1,0.531c-0.121,0.064-0.155,0.41-0.155,0.41c-0.075-0.123-0.131-0.216-0.194-0.315
	c-0.086-0.137-0.189-0.315-0.238-0.406c-0.197-0.372-0.258-0.6-0.197-0.794c0.039-0.128,0.114-0.217,0.224-0.275
	c0.192-0.102,0.418-0.043,0.606,0.158c0.051-0.241,0.204-0.436,0.288-0.711c0.049-0.159,0.07-0.466,0.07-0.466
	c0.032,0.054,0.045,0.079,0.086,0.156c0.167,0.313,0.19,0.467,0.135,0.648c-0.061,0.194-0.247,0.482-0.301,0.718l0.106,0.2
	L7.304,23.708z M6.822,23.949L6.77,23.851c-0.163-0.307-0.351-0.434-0.622-0.29c-0.268,0.143-0.256,0.398-0.125,0.645l0.07,0.132
	L6.822,23.949z"/>
<path fill-rule="evenodd" clip-rule="evenodd" fill="#818181" d="M7.169,26.369c-0.357-0.481-0.309-1.046,0.123-1.365
	c0.41-0.304,1.01-0.259,1.418,0.292c0.393,0.529,0.283,1.089-0.104,1.376C8.149,27.01,7.549,26.883,7.169,26.369 M8.572,25.315
	c-0.237-0.32-0.625-0.265-0.942-0.029c-0.371,0.274-0.581,0.716-0.321,1.065c0.217,0.292,0.584,0.317,0.933,0.059
	C8.681,26.085,8.813,25.641,8.572,25.315"/>
<path fill-rule="evenodd" clip-rule="evenodd" fill="#818181" d="M13.299,31.399c-0.543-0.252-0.771-0.771-0.545-1.258
	c0.215-0.463,0.763-0.711,1.385-0.423c0.598,0.278,0.77,0.822,0.566,1.259C14.466,31.492,13.879,31.669,13.299,31.399
	 M14.026,29.803c-0.36-0.167-0.675,0.066-0.842,0.425c-0.193,0.419-0.167,0.905,0.229,1.089c0.33,0.153,0.665-0.001,0.847-0.394
	C14.49,30.426,14.394,29.974,14.026,29.803"/>
<path fill-rule="evenodd" clip-rule="evenodd" fill="#818181" d="M31.577,25.345c-0.117-0.088-0.444,0.057-0.444,0.057l0.603-0.803
	c0,0-0.055,0.329,0.079,0.429l0.906,0.681c0.11,0.082,0.438-0.035,0.438-0.035c-0.08,0.12-0.142,0.211-0.204,0.31
	c-0.087,0.136-0.204,0.307-0.266,0.389c-0.253,0.337-0.435,0.488-0.635,0.517c-0.133,0.019-0.246-0.012-0.345-0.086
	c-0.174-0.131-0.217-0.36-0.114-0.616c-0.239,0.057-0.481,0.001-0.767,0.042c-0.164,0.023-0.452,0.135-0.452,0.135
	c0.036-0.053,0.053-0.075,0.105-0.145c0.213-0.284,0.342-0.37,0.53-0.397c0.2-0.028,0.541,0.019,0.777-0.033l0.136-0.182
	L31.577,25.345z M32.014,25.687l-0.066,0.089c-0.208,0.278-0.244,0.502,0.002,0.687c0.243,0.182,0.47,0.062,0.637-0.161l0.089-0.119
	L32.014,25.687z"/>
<path fill-rule="evenodd" clip-rule="evenodd" fill="#818181" d="M25.825,30.349l0.007-0.316c0.002-0.138-0.36-0.164-0.36-0.164
	l0.73-0.289c0,0-0.186,0.237-0.189,0.428l-0.067,1.795l-1.333-1.246c-0.134-0.125-0.396-0.189-0.396-0.189l0.896-0.354
	c0,0-0.228,0.267-0.127,0.358l0.237,0.218L25.825,30.349z M25.793,31.11l0.014-0.634l-0.484,0.192L25.793,31.11z"/>
<path fill-rule="evenodd" clip-rule="evenodd" fill="#818181" d="M20.14,5.484c-0.079-0.206-0.286-0.362-0.286-0.362l0.964,0.064
	c0,0-0.329,0.165-0.262,0.334l0.311,0.815l0.557-0.84c0.045-0.092-0.222-0.283-0.222-0.283l0.706,0.048c0,0-0.258,0.167-0.363,0.38
	l-0.846,1.313L20.14,5.484z"/>
<path fill-rule="evenodd" clip-rule="evenodd" fill="#818181" d="M12.223,8.431c-0.196-0.101-0.455-0.077-0.455-0.077l0.758-0.599
	c0,0-0.133,0.343,0.03,0.423l0.778,0.396l-0.153-0.996c-0.028-0.098-0.354-0.061-0.354-0.061l0.556-0.438
	c0,0-0.078,0.296-0.015,0.525l0.255,1.54L12.223,8.431z"/>
<path fill-rule="evenodd" clip-rule="evenodd" fill="#818181" d="M27.085,7.899c0.066-0.21,0.001-0.461,0.001-0.461l0.716,0.649
	c0,0-0.361-0.075-0.413,0.099l-0.269,0.88l0.964-0.362c0.093-0.044,0.002-0.358,0.002-0.358l0.523,0.475
	c0,0-0.305-0.028-0.521,0.073l-1.478,0.506L27.085,7.899z"/>
<path fill-rule="evenodd" clip-rule="evenodd" fill="#818181" d="M15.266,7.719c0.062,0.132,0.415,0.156,0.415,0.156l-0.908,0.426
	c0,0,0.208-0.285,0.146-0.419l-0.584-1.23l-0.297,0.14c-0.194,0.092-0.236,0.474-0.236,0.474l-0.154-0.419l1.604-0.753l0.244,0.377
	c0,0-0.321-0.212-0.516-0.121l-0.297,0.141L15.266,7.719z"/>
<path fill-rule="evenodd" clip-rule="evenodd" fill="#818181" d="M22.545,5.785L22.54,5.783l-0.346,0.932
	c-0.064,0.174,0.107,0.434,0.107,0.434L21.71,6.97c0,0,0.263-0.101,0.343-0.317l0.351-0.947c0.049-0.134-0.087-0.361-0.087-0.361
	l0.563,0.17l0.181,1.277l0.837-0.969l0.573,0.173c0,0-0.24,0.053-0.284,0.248l-0.233,1.003c-0.055,0.229,0.124,0.438,0.124,0.438
	l-0.84-0.253c0,0,0.281-0.028,0.334-0.202c0.014-0.042,0.022-0.086,0.032-0.127l0.226-0.964l-0.006-0.002l-1.004,1.168l-0.064-0.02
	L22.545,5.785z"/>
<path fill-rule="evenodd" clip-rule="evenodd" fill="#818181" d="M29.406,10.021l-0.375-0.48l-0.493,0.386l0.277,0.355
	c0.093,0.12,0.354,0.129,0.354,0.129l-0.437,0.34c0,0,0.067-0.238-0.064-0.408l-0.252-0.322l-0.396,0.309
	c-0.094,0.073-0.1,0.106-0.051,0.17l0.286,0.366c0.111,0.144,0.486,0.161,0.486,0.161l-0.365,0.243l-1.031-1.321
	c0,0,0.34,0.154,0.448,0.07l0.876-0.683C28.789,9.242,28.75,8.93,28.75,8.93l0.943,1.21l-0.301,0.271
	C29.393,10.41,29.485,10.122,29.406,10.021"/>
<path fill-rule="evenodd" clip-rule="evenodd" fill="#818181" d="M18.53,6.673c0.015,0.141,0.334,0.278,0.334,0.278l-0.97,0.102
	c0,0,0.271-0.18,0.253-0.34l-0.113-1.094c-0.015-0.134-0.313-0.29-0.313-0.29c0.139-0.022,0.242-0.039,0.355-0.06
	c0.153-0.027,0.352-0.056,0.451-0.066c0.407-0.042,0.635-0.013,0.787,0.111c0.102,0.082,0.153,0.183,0.166,0.302
	c0.022,0.21-0.112,0.393-0.363,0.488c0.198,0.134,0.318,0.342,0.535,0.519c0.125,0.102,0.395,0.232,0.395,0.232
	c-0.061,0.01-0.088,0.012-0.171,0.021c-0.344,0.035-0.491,0-0.634-0.116c-0.153-0.124-0.345-0.398-0.537-0.532l-0.219,0.023
	L18.53,6.673z M18.484,6.138l0.107-0.012c0.335-0.035,0.518-0.157,0.488-0.454c-0.031-0.293-0.267-0.375-0.535-0.346L18.4,5.34
	L18.484,6.138z"/>
<path fill-rule="evenodd" clip-rule="evenodd" fill="#818181" d="M9.646,10.962c0.08-0.128,0.176-0.272,0.24-0.38
	c0.074-0.118,0.13-0.208,0.209-0.319c0.321-0.454,0.529-0.629,0.816-0.678c0.206-0.036,0.419,0.009,0.611,0.146
	c0.207,0.146,0.326,0.366,0.361,0.571c0.034,0.198,0.018,0.469-0.313,0.936l-0.511,0.723c0,0,0.031-0.295-0.099-0.387l-0.878-0.619
	C9.924,10.84,9.646,10.962,9.646,10.962 M11.169,11.248c0.152,0.108,0.188,0.1,0.312-0.075c0.362-0.512,0.105-0.892-0.166-1.082
	c-0.188-0.134-0.405-0.188-0.581-0.157c-0.189,0.032-0.35,0.147-0.513,0.38c-0.044,0.062-0.077,0.112-0.114,0.186L11.169,11.248z"/>
<path fill-rule="evenodd" clip-rule="evenodd" fill="#818181" d="M9.844,13.329l0.216,0.219c0.095,0.095,0.356-0.141,0.356-0.141
	l-0.291,0.705c0,0-0.039-0.29-0.17-0.421l-1.207-1.259l1.771-0.09c0.176-0.009,0.399-0.148,0.399-0.148l-0.357,0.864
	c0,0-0.033-0.339-0.165-0.331l-0.312,0.02L9.844,13.329z M9.334,12.793l0.433,0.438l0.192-0.469L9.334,12.793z"/>
<path fill-rule="evenodd" clip-rule="evenodd" fill="#818181" d="M26.011,6.687c0.511,0.279,0.697,0.797,0.448,1.254
	c-0.237,0.434-0.785,0.641-1.369,0.321c-0.563-0.307-0.693-0.846-0.469-1.255C24.886,6.522,25.467,6.39,26.011,6.687 M25.203,8.188
	c0.34,0.186,0.659-0.021,0.844-0.357c0.215-0.394,0.219-0.867-0.152-1.07c-0.31-0.169-0.644-0.041-0.845,0.328
	C24.795,7.555,24.858,7.999,25.203,8.188"/>
<path fill-rule="evenodd" clip-rule="evenodd" fill="#818181" d="M26.061,9.546c-0.587-0.48-0.389-0.41-0.549-0.918
	c-0.16-0.507-0.05-1.228-0.164-1.307c-0.113-0.081,0.254-0.109,0.381,0.978C25.854,9.386,26.061,9.546,26.061,9.546"/>
<path fill-rule="evenodd" clip-rule="evenodd" fill="#818181" d="M11.49,31.518c-4.934-2.914-8.25-8.288-8.25-14.422
	c0-9.228,7.507-16.735,16.735-16.735c9.228,0,16.734,7.508,16.734,16.735c0,9.229-7.507,16.736-16.734,16.736
	c-3.055,0-5.921-0.822-8.387-2.257l-0.27-0.146l-0.192,0.275l0.274,0.178c2.521,1.469,5.451,2.31,8.574,2.31
	c9.426,0,17.095-7.669,17.095-17.096C37.07,7.67,29.401,0,19.976,0C10.548,0,2.879,7.67,2.879,17.096
	c0,6.264,3.387,11.751,8.424,14.729l0.207,0.105l0.163-0.293L11.49,31.518z"/>
<path fill-rule="evenodd" clip-rule="evenodd" fill="#818181" d="M13.273,27.966c-3.634-2.249-6.069-6.291-6.069-10.87
	c0-5.929,4.087-10.943,9.578-12.365l0.1-0.294c-5.697,1.393-9.938,6.54-9.938,12.659c0,4.68,2.479,8.791,6.193,11.089l0.198,0.108
	l0.118-0.208L13.273,27.966z"/>
<path fill-rule="evenodd" clip-rule="evenodd" fill="#818181" d="M13.258,28.259c1.963,1.186,4.262,1.868,6.718,1.868
	c7.184,0,13.029-5.846,13.029-13.031c0-7.185-5.846-13.03-13.029-13.03c-0.833,0-1.648,0.079-2.438,0.229l-0.043,0.272
	c0.803-0.158,1.632-0.242,2.481-0.242c7.03,0,12.77,5.739,12.77,12.771c0,7.032-5.739,12.752-12.77,12.752
	c-2.414,0-4.673-0.674-6.6-1.843l-0.196-0.112l-0.197,0.174L13.258,28.259z"/>
<path fill-rule="evenodd" clip-rule="evenodd" fill="#818181" d="M19.843,3.073c-0.116-0.005-0.233-0.038-0.342-0.101
	c-0.103-0.06-0.186-0.139-0.248-0.231L19.843,3.073z"/>
<path fill-rule="evenodd" clip-rule="evenodd" fill="#818181" d="M20.033,2.03l0.437-0.422c0.092,0.073,0.167,0.168,0.218,0.282
	c0.048,0.108,0.068,0.223,0.064,0.333l-0.605,0.05l0.543,0.288c-0.041,0.109-0.109,0.21-0.201,0.294
	c-0.089,0.079-0.19,0.134-0.297,0.164L19.95,2.457l-0.107,0.616c-0.116-0.005-0.233-0.038-0.342-0.101
	c-0.103-0.06-0.186-0.139-0.248-0.231l0.462-0.414l-0.59,0.094c-0.03-0.113-0.036-0.234-0.009-0.356
	c0.024-0.116,0.075-0.221,0.143-0.308l0.508,0.306l-0.268-0.509c0.097-0.064,0.212-0.106,0.336-0.119
	c0.118-0.013,0.232,0.003,0.337,0.041L20.033,2.03z"/>
<path fill-rule="evenodd" clip-rule="evenodd" fill="#818181" d="M26.248,13.563c-0.11-0.002-0.266-0.102-0.309-0.239
	c-0.043-0.137,0.081-0.226,0.081-0.226c0.005,0.005,0.01,0.011,0.015,0.015c0.01,0.011,0.016,0.019,0.016,0.019l0.001-0.005
	c0.025,0.019,0.061,0.003,0.096,0.002c0.08-0.004,0.095-0.034,0.092-0.106c-0.004-0.072-0.065-0.138-0.142-0.116
	c-0.067,0.02-0.173,0.035-0.231-0.005c-0.021-0.015-0.025-0.08-0.009-0.136c0.006-0.032,0.036-0.1,0.036-0.117
	c-0.003-0.05-0.063-0.085-0.117-0.082c-0.054,0.002-0.104,0.046-0.103,0.096c0.004,0.07,0.048,0.099,0.079,0.133
	c0.047,0.054,0.029,0.096,0.013,0.123c-0.012,0.019-0.147,0.064-0.147,0.064l0.003,0.006c-0.01-0.002-0.021-0.003-0.031-0.002
	c-0.079,0.003-0.134,0.041-0.13,0.113c0.003,0.072,0.045,0.123,0.124,0.12c0.052-0.003,0.095-0.029,0.118-0.067
	c0,0,0.116,0.089,0.102,0.202c-0.017,0.112-0.024,0.203-0.235,0.269c-0.173,0.054-0.279-0.05-0.279-0.05s-0.05,0.149-0.205,0.132
	c-0.237-0.026-0.28-0.313-0.28-0.313s0.098,0.003,0.147-0.124c0.042-0.108-0.029-0.175-0.146-0.19
	c-0.071-0.009-0.16,0.1-0.258,0.058c-0.099-0.042,0.051-0.234-0.077-0.307c-0.118-0.067-0.188,0.086-0.188,0.086
	s0.182,0.188,0.418,0.527c0.189,0.273,0.453,0.598,0.453,0.598l-0.135,0.09c0,0-0.182-0.284-0.472-0.675
	c-0.247-0.333-0.439-0.541-0.439-0.541s-0.007-0.028,0.062-0.099c0.088-0.09,0.221-0.214,0.381-0.142
	c0.161,0.072,0.08,0.324,0.08,0.324s0.086-0.096,0.229-0.076c0.155,0.021,0.292,0.164,0.268,0.301
	c-0.035,0.193-0.154,0.241-0.154,0.241s-0.019,0.075,0.13,0.061c0.09-0.01,0.15-0.143,0.15-0.143
	c0.007-0.003,0.224,0.199,0.341,0.046c0.011-0.015,0.018-0.033,0.026-0.05c-0.019,0.005-0.037,0.007-0.057,0.007
	c-0.148,0.002-0.27-0.119-0.271-0.271s0.115-0.275,0.265-0.277c0.055-0.001,0.015-0.003,0.091,0.01
	c-0.059-0.032-0.134-0.095-0.136-0.204c-0.001-0.127,0.134-0.257,0.258-0.258c0.125-0.002,0.282,0.112,0.284,0.239
	c0.001,0.08-0.043,0.144-0.077,0.18c0.034-0.036,0.084-0.057,0.162-0.058c0.148-0.001,0.271,0.12,0.272,0.271
	s-0.116,0.275-0.265,0.277c-0.012,0-0.024-0.002-0.035-0.002c0.002,0.001,0.004,0.003,0.006,0.005
	c0.053,0.045,0.118,0.064,0.176,0.075c0.182,0.033,0.202-0.109,0.202-0.109s0.088,0.082,0.175,0.054
	c0.141-0.046,0.111-0.133,0.111-0.133s-0.131,0.019-0.241-0.144c-0.078-0.114-0.071-0.243,0.062-0.325
	c0.124-0.076,0.289-0.031,0.289-0.031s-0.154-0.181-0.037-0.312c0.117-0.132,0.285-0.072,0.402-0.026
	c0.091,0.037,0.148,0.069,0.148,0.069s-0.122,0.206-0.212,0.611c-0.116,0.524-0.185,0.81-0.185,0.81l-0.144-0.04
	c0,0,0.081-0.455,0.163-0.791c0.092-0.374,0.178-0.499,0.178-0.499s-0.144-0.128-0.224-0.019c-0.088,0.119,0.114,0.21,0.041,0.289
	c-0.072,0.078-0.202-0.001-0.262,0.036c-0.101,0.063-0.092,0.102-0.033,0.185c0.06,0.086,0.18,0.051,0.18,0.051
	S27,13.338,26.796,13.46c-0.136,0.079-0.261-0.021-0.261-0.021S26.493,13.569,26.248,13.563"/>
<path fill-rule="evenodd" clip-rule="evenodd" fill="#818181" d="M24.987,14.068c-0.017-0.145,0.425-0.312,0.984-0.374
	s1.028,0.004,1.044,0.147c0.016,0.145-0.424,0.313-0.984,0.375C25.471,14.278,25.004,14.212,24.987,14.068 M25.928,14.077
	c0.341-0.036,0.569-0.1,0.553-0.19c-0.01-0.058-0.289-0.076-0.63-0.041c-0.34,0.036-0.611,0.113-0.604,0.171
	C25.254,14.075,25.587,14.112,25.928,14.077"/>
<path fill-rule="evenodd" clip-rule="evenodd" fill="#818181" d="M29.738,13.059c-0.111-0.002-0.266-0.102-0.309-0.239
	c-0.043-0.137,0.081-0.227,0.081-0.227c0.005,0.006,0.01,0.011,0.015,0.016c0.009,0.011,0.015,0.018,0.015,0.018l0.001-0.005
	c0.026,0.019,0.062,0.004,0.097,0.002c0.079-0.003,0.095-0.033,0.092-0.105c-0.004-0.072-0.066-0.138-0.143-0.116
	c-0.066,0.02-0.173,0.035-0.23-0.005c-0.022-0.015-0.026-0.08-0.009-0.136c0.006-0.032,0.035-0.1,0.035-0.117
	c-0.003-0.05-0.062-0.085-0.116-0.083c-0.055,0.003-0.105,0.047-0.104,0.097c0.004,0.069,0.048,0.098,0.079,0.133
	c0.047,0.054,0.03,0.095,0.013,0.122c-0.012,0.02-0.146,0.065-0.146,0.065l0.003,0.006c-0.01-0.002-0.021-0.003-0.032-0.002
	c-0.079,0.003-0.133,0.041-0.13,0.113s0.045,0.123,0.124,0.119c0.052-0.002,0.095-0.028,0.119-0.066c0,0,0.116,0.089,0.101,0.202
	c-0.016,0.112-0.023,0.202-0.234,0.269c-0.173,0.054-0.279-0.05-0.279-0.05s-0.05,0.149-0.206,0.132
	c-0.237-0.027-0.28-0.313-0.28-0.313s0.099,0.004,0.148-0.124c0.042-0.107-0.03-0.174-0.146-0.189c-0.07-0.01-0.159,0.1-0.258,0.058
	c-0.098-0.042,0.051-0.234-0.077-0.308c-0.118-0.067-0.187,0.087-0.187,0.087s0.181,0.187,0.418,0.527
	c0.188,0.272,0.453,0.598,0.453,0.598l-0.135,0.09c0,0-0.183-0.284-0.473-0.675c-0.247-0.334-0.438-0.541-0.438-0.541
	s-0.007-0.028,0.061-0.099c0.088-0.09,0.221-0.214,0.381-0.142c0.161,0.072,0.08,0.323,0.08,0.323s0.086-0.095,0.229-0.075
	c0.155,0.021,0.293,0.163,0.268,0.301c-0.035,0.193-0.154,0.241-0.154,0.241s-0.018,0.075,0.131,0.061
	c0.09-0.01,0.149-0.143,0.149-0.143c0.007-0.003,0.224,0.198,0.341,0.046c0.012-0.015,0.019-0.033,0.027-0.05
	c-0.02,0.004-0.038,0.007-0.057,0.007c-0.148,0.002-0.271-0.119-0.272-0.271s0.116-0.275,0.265-0.277
	c0.056-0.002,0.016-0.004,0.092,0.01c-0.06-0.032-0.135-0.096-0.136-0.204c-0.002-0.128,0.134-0.257,0.258-0.259
	c0.125-0.001,0.281,0.113,0.283,0.24c0.001,0.08-0.043,0.144-0.077,0.18c0.034-0.036,0.085-0.057,0.163-0.058
	c0.148-0.002,0.271,0.12,0.272,0.271s-0.117,0.274-0.265,0.277c-0.013,0-0.024-0.003-0.035-0.003
	c0.002,0.002,0.004,0.004,0.006,0.006c0.052,0.045,0.118,0.064,0.175,0.075c0.182,0.033,0.203-0.11,0.203-0.11
	s0.088,0.083,0.174,0.055c0.142-0.046,0.112-0.134,0.112-0.134s-0.131,0.02-0.242-0.143c-0.078-0.114-0.071-0.243,0.062-0.325
	c0.125-0.076,0.291-0.031,0.291-0.031s-0.155-0.181-0.038-0.313c0.116-0.131,0.284-0.071,0.401-0.025
	c0.092,0.036,0.149,0.069,0.149,0.069s-0.122,0.206-0.212,0.611c-0.116,0.524-0.186,0.808-0.186,0.808l-0.143-0.038
	c0,0,0.081-0.455,0.163-0.791c0.092-0.374,0.178-0.499,0.178-0.499s-0.144-0.128-0.224-0.019c-0.088,0.119,0.113,0.21,0.041,0.288
	c-0.072,0.079-0.202,0-0.263,0.037c-0.1,0.063-0.092,0.102-0.032,0.184c0.06,0.085,0.18,0.052,0.18,0.052s0.092,0.289-0.113,0.411
	c-0.135,0.079-0.26-0.021-0.26-0.021S29.983,13.063,29.738,13.059"/>
<path fill-rule="evenodd" clip-rule="evenodd" fill="#818181" d="M28.478,13.563c-0.017-0.145,0.424-0.312,0.984-0.374
	c0.56-0.063,1.027,0.004,1.044,0.147c0.016,0.145-0.425,0.312-0.984,0.374C28.961,13.773,28.493,13.707,28.478,13.563
	 M29.418,13.571c0.341-0.035,0.568-0.099,0.553-0.189c-0.01-0.058-0.289-0.076-0.63-0.041c-0.341,0.036-0.611,0.112-0.604,0.171
	S29.076,13.607,29.418,13.571"/>
<path fill-rule="evenodd" clip-rule="evenodd" fill="#818181" d="M28.295,15.44c-0.111-0.002-0.266-0.102-0.309-0.239
	c-0.043-0.137,0.082-0.226,0.082-0.226c0.004,0.006,0.009,0.011,0.014,0.016c0.009,0.011,0.015,0.018,0.015,0.018l0.001-0.005
	c0.026,0.019,0.063,0.003,0.098,0.002c0.078-0.003,0.094-0.034,0.091-0.106s-0.066-0.138-0.142-0.115
	c-0.067,0.019-0.174,0.034-0.231-0.006c-0.022-0.015-0.026-0.08-0.009-0.136c0.006-0.032,0.035-0.099,0.035-0.117
	c-0.003-0.05-0.062-0.085-0.116-0.083c-0.055,0.003-0.105,0.047-0.103,0.097c0.003,0.07,0.048,0.099,0.078,0.133
	c0.047,0.054,0.03,0.096,0.014,0.123c-0.013,0.019-0.146,0.064-0.146,0.064l0.002,0.006c-0.01-0.002-0.021-0.003-0.032-0.002
	c-0.078,0.003-0.133,0.041-0.13,0.113s0.046,0.123,0.124,0.12c0.052-0.003,0.095-0.029,0.119-0.067c0,0,0.117,0.089,0.101,0.202
	c-0.016,0.112-0.023,0.203-0.234,0.269c-0.172,0.054-0.278-0.05-0.278-0.05s-0.051,0.15-0.207,0.132
	c-0.237-0.026-0.279-0.313-0.279-0.313s0.098,0.003,0.147-0.124c0.042-0.108-0.03-0.175-0.146-0.19
	c-0.07-0.009-0.16,0.1-0.258,0.058s0.051-0.234-0.077-0.307c-0.118-0.067-0.186,0.087-0.186,0.087s0.18,0.187,0.417,0.527
	c0.188,0.272,0.454,0.598,0.454,0.598l-0.136,0.089c0,0-0.183-0.284-0.473-0.675c-0.246-0.333-0.438-0.541-0.438-0.541
	s-0.008-0.028,0.061-0.099c0.088-0.09,0.222-0.214,0.382-0.142s0.079,0.324,0.079,0.324s0.086-0.096,0.23-0.076
	c0.154,0.021,0.292,0.164,0.268,0.301c-0.036,0.194-0.155,0.241-0.155,0.241s-0.018,0.075,0.131,0.061
	c0.09-0.01,0.149-0.143,0.149-0.143c0.007-0.003,0.224,0.199,0.341,0.046c0.012-0.015,0.019-0.033,0.027-0.05
	c-0.02,0.005-0.037,0.007-0.057,0.007c-0.148,0.002-0.271-0.119-0.272-0.271s0.116-0.275,0.265-0.277
	c0.056-0.001,0.017-0.003,0.093,0.011c-0.061-0.032-0.136-0.096-0.137-0.205c-0.002-0.127,0.134-0.257,0.257-0.258
	c0.125-0.002,0.282,0.112,0.284,0.24c0.001,0.079-0.043,0.143-0.077,0.179c0.034-0.036,0.086-0.057,0.163-0.058
	c0.148-0.001,0.271,0.12,0.272,0.271s-0.117,0.275-0.265,0.277c-0.013,0-0.024-0.002-0.035-0.002
	c0.002,0.001,0.004,0.004,0.006,0.005c0.052,0.046,0.118,0.065,0.175,0.075c0.182,0.033,0.203-0.109,0.203-0.109
	s0.088,0.082,0.174,0.054c0.141-0.046,0.112-0.133,0.112-0.133s-0.131,0.019-0.242-0.143c-0.078-0.115-0.071-0.243,0.062-0.326
	c0.124-0.076,0.29-0.031,0.29-0.031s-0.154-0.181-0.038-0.312c0.117-0.132,0.286-0.072,0.402-0.026
	c0.092,0.037,0.149,0.07,0.149,0.07s-0.122,0.205-0.212,0.61c-0.116,0.525-0.186,0.81-0.186,0.81l-0.143-0.039
	c0,0,0.081-0.456,0.163-0.792c0.092-0.374,0.178-0.499,0.178-0.499s-0.144-0.128-0.224-0.019c-0.088,0.119,0.113,0.21,0.041,0.289
	c-0.072,0.078-0.202-0.001-0.263,0.036c-0.1,0.063-0.091,0.103-0.032,0.185c0.061,0.086,0.18,0.051,0.18,0.051
	s0.092,0.289-0.113,0.411c-0.134,0.079-0.259-0.021-0.259-0.021S28.54,15.446,28.295,15.44"/>
<path fill-rule="evenodd" clip-rule="evenodd" fill="#818181" d="M27.033,15.945c-0.016-0.145,0.425-0.312,0.984-0.374
	c0.561-0.063,1.028,0.004,1.045,0.147c0.016,0.145-0.424,0.312-0.984,0.374S27.051,16.09,27.033,15.945 M27.975,15.954
	c0.341-0.036,0.568-0.099,0.553-0.19c-0.01-0.058-0.289-0.076-0.63-0.04c-0.341,0.035-0.611,0.112-0.604,0.17
	C27.301,15.952,27.634,15.99,27.975,15.954"/>
<path fill-rule="evenodd" clip-rule="evenodd" fill="#818181" d="M21.127,12.387c-0.454,0.504-0.156,1.229-0.26,1.868
	c-0.181,0.521-0.729,0.851-0.892,1.379c-0.04,0.308-0.077,0.736,0.14,0.965c0.015-0.041-0.026-0.064-0.035-0.096
	c-0.09-0.627,0.105-1.074,0.65-1.606c0.83-0.938-0.142-1.697,0.646-2.404L21.127,12.387z"/>
<path fill-rule="evenodd" clip-rule="evenodd" fill="#818181" d="M23.063,18.307c0.379-0.011,0.628-0.06,1.002-0.156
	c0.367-0.111,0.662-0.215,1.002-0.332c0.733-0.227,1.145-0.401,1.91-0.414l0.093,0.001c0.218,0.002,0.412,0.037,0.607,0.097
	c0.098,0.029,0.227,0.12,0.329,0.178c0.488,0.424,0.521,0.662,1.139,1.044c0.277,0.105,0.539,0.398,0.758,0.458
	c-0.091-0.088-0.187-0.13-0.383-0.332c-0.29-0.255-0.788-0.902-1.329-1.308c-0.295-0.17-0.612-0.274-0.96-0.305
	c-0.672-0.111-1.449,0.083-2.022,0.315c-0.617,0.202-0.836,0.241-1.487,0.349c-0.239,0.05-0.415,0.021-0.618-0.034
	c-0.083-0.664-0.321-0.533-0.234-1.317c0.258-0.936,0.155-1.738-0.163-2.472c0.074-0.261,0.097-0.641-0.118-0.853
	c-0.184-0.181-0.677-0.224-0.772,0.103c0.055,0.255,0.392,0.1,0.557,0.216c0.194,0.051,0.18,0.285,0.148,0.412
	c-0.047,0.381-0.487,0.576-0.775,0.648c0.11,0.222,0.552,0.077,0.693-0.054c0.163,0.351,0.25,0.397,0.309,0.83
	c0.036,0.758-0.182,0.724-0.467,1.21c-0.13,0.261-0.12,0.595,0.079,1.114c-0.055-0.79,0.048-0.838,0.27-1.193
	c0,0-0.079,0.324-0.071,0.633c0.009,0.367,0.202,0.475,0.215,0.804c-0.063,0.292-0.065,0.39-0.254,0.628
	c-0.346,0.454-0.957,0.402-1.202,1.564c0.451-0.664,0.553-0.838,0.972-1.075C22.851,18.828,22.937,18.642,23.063,18.307"/>
<path fill-rule="evenodd" clip-rule="evenodd" fill="#818181" d="M18.804,14.47c0.206,0.147,0.252,0.326,0.426,0.491
	c-0.082-0.021-0.574-0.387-0.841-0.282c-0.378,0.034-0.881,0.375-1.213,0.021c-0.225-0.096-0.378-0.48-0.417-0.713
	c0.211,0.357,0.584,0.719,1.064,0.625c0.253-0.055,0.392-0.089,0.609-0.078c0.113-0.003,0.285,0.012,0.423,0.137
	c-0.162-0.16-0.364-0.279-0.613-0.279c-0.557,0.012-1.138,0.261-1.483-0.404c0.322,0.25,0.986,0.275,1.54,0.267
	C18.483,14.275,18.677,14.335,18.804,14.47 M17.948,13.527c-0.038,0.089-0.14,0.205-0.072,0.292l0.155-0.198
	C17.999,13.59,17.966,13.566,17.948,13.527 M18.302,13.751c0.058,0.063,0.084,0.136,0.102,0.208c0.073,0.014,0.095-0.107,0.15-0.117
	L18.302,13.751z"/>
<path fill-rule="evenodd" clip-rule="evenodd" fill="#818181" d="M22.272,13.799c0.026,0.112-0.026,0.234-0.089,0.333
	c-0.039,0.065-0.11,0.075-0.167,0.103c0.006-0.099,0.214-0.209,0.089-0.334l-0.223-0.172C21.969,13.638,22.219,13.631,22.272,13.799
	"/>
<path fill-rule="evenodd" clip-rule="evenodd" fill="#818181" d="M18.631,15.215c-0.057,0.007-0.104,0.007-0.158-0.03
	c-0.203-0.092,0.023-0.176,0.037-0.281C18.584,14.974,18.572,15.119,18.631,15.215"/>
<path fill-rule="evenodd" clip-rule="evenodd" fill="#818181" d="M19.469,17.484c0.011,0.41-0.028,0.703-0.108,0.943
	c-0.085,0.249-0.104,0.316-0.296,0.625c0.158-0.383,0.212-0.667,0.266-1.106c0.041-0.389,0.026-0.954,0.183-1.27l0.134-0.379
	C19.485,16.937,19.484,17.22,19.469,17.484"/>
<path fill-rule="evenodd" clip-rule="evenodd" fill="#818181" d="M14.476,21.775c0.101-0.125,0.163-0.093,0.22-0.113
	c0.07,0.071,0.049,0.153,0.157,0.205c0.159,0.077,0.38-0.08,0.491-0.155c0,0,0.304,0.199,0.478,0.199s0.237-0.174,0.396-0.174
	s0.253,0.198,0.253,0.198s0.159-0.015,0.997-0.15c0.83-0.135,0.632,0.403,0.632,0.403s0.313,0.067,0.657-0.302
	c0.253-0.272,0.513-0.647,0.584-1.011c0.071-0.364,0.087-1.739,0.087-1.739s-0.229,0.616-0.261,0.972
	c-0.031,0.356-0.095,0.783-0.403,1.233c-0.068,0.1-0.332,0.214-0.332,0.214c0.026,0.005-0.091-0.207-0.19-0.285
	c-0.144-0.112-0.268-0.126-0.268-0.126s-0.617,0.419-0.847,0.402c-0.229-0.015,0.017-0.402,0.017-0.402s-0.696,0.261-1.052,0.363
	c-0.356,0.104-0.423-0.077-0.423-0.077c-0.177,0.062-0.542,0.219-0.76,0.143c-0.198-0.112-0.29-0.219-0.38-0.101l-0.201,0.22
	c-0.195-0.451,0.327-0.616,0.479-0.774l-0.333-0.037c-0.139-0.051-0.202-0.193-0.175-0.303c-0.187,0.005-0.359,0.1-0.505,0.121
	c0.028-0.372,0.481-0.211,0.66-0.451c0.048-0.064,0.175-0.12,0.314-0.041c0,0-0.413-0.263-0.382-0.377
	c0.106-0.397,0.775,0.202,0.933,0.288c-0.05-0.074-0.108-0.11-0.168-0.205c-0.28-0.607-1.002-0.498-1.257,0.012
	c0.035,0.06,0.267-0.128,0.29,0.03c0.048,0.079,0.11,0.162,0.13,0.188c-0.152,0.087-0.306,0.097-0.42,0.149
	c-0.433,0.153-0.444,0.729-0.444,0.729s0.438-0.08,0.58-0.138c0.02-0.006,0.039-0.013,0.061-0.021
	c0.064,0.225,0.272,0.07,0.028,0.498c-0.13,0.227,0.113,0.646,0.113,0.646S14.381,21.941,14.476,21.775"/>
<path fill-rule="evenodd" clip-rule="evenodd" fill="#818181" d="M20.287,18.562c-0.107,0.172-0.493,0.879-0.534,1.518
	c-0.128-0.577,0.012-1.044,0.469-1.82c0.652-0.961,0.309-1.896,0.349-2.188C21.08,17.826,20.479,18.233,20.287,18.562"/>
<path fill-rule="evenodd" clip-rule="evenodd" fill="#818181" d="M18.193,19.563c0.023,0.13,0.095,0.324,0.226,0.581
	c0.094,0.164,0.213,0.462,0.095,1.056c-0.131-0.818-0.213-0.83-0.353-1.128c-0.115-0.223-0.216-0.591-0.146-0.9
	c0.016-0.094,0.149-0.336,0.225-0.392C18.142,18.954,18.12,19.328,18.193,19.563"/>
<path fill-rule="evenodd" clip-rule="evenodd" fill="#818181" d="M20.002,20.66c-0.227,0.332-0.397,0.546-0.528,0.658
	c0.119-0.93,0.7-1.067,0.949-2.206C20.423,19.546,20.229,20.38,20.002,20.66"/>
<path fill-rule="evenodd" clip-rule="evenodd" fill="#818181" d="M23.903,21.959c0.123,0.033,0.248,0.066,0.338,0.112
	c-0.146-0.053-0.46-0.104-0.561-0.112c-0.075,0.007-0.132,0.004-0.183-0.005c-0.428-0.029-0.912-0.146-1.241-0.027
	c-0.538,0.227-1.125,0.667-1.23,0.97c-0.286,0.603-0.997,0.104-1.471,0.673c-0.125-0.134,0.056-0.348,0.321-0.514
	c0.199-0.103,0.693,0.046,0.88-0.181c0.113-0.118-0.146-0.398-0.474-0.264c-0.424,0.165-0.428,0.383-0.672,0.523
	c0.016-0.299,0.3-0.688,0.704-0.725c0.216-0.055,0.421,0.07,0.662,0.022c0.254-0.168,0.397-0.251,0.756-0.433
	c0.219-0.116,0.395-0.149,0.664-0.189C22.929,21.756,23.402,21.899,23.903,21.959"/>
<path fill-rule="evenodd" clip-rule="evenodd" fill="#818181" d="M18.819,15.31c0,0-0.049-0.006-0.163-0.043
	c-0.126-0.041-0.271-0.107-0.292-0.113c-0.061-0.019-0.095-0.03-0.095-0.03s0.025-0.042,0.066-0.042
	c0.04-0.001,0.195,0.034,0.331,0.098c0.137,0.063,0.206,0.122,0.206,0.122L18.819,15.31z"/>
<path fill-rule="evenodd" clip-rule="evenodd" fill="#818181" d="M22.449,12.865c0,0-0.017,0.055,0.023,0.158
	c0.039,0.103,0.071,0.182,0.071,0.182s-0.506,0.016-0.467-0.056c0.04-0.071,0.079-0.134,0.056-0.181
	c-0.024-0.049-0.087-0.136-0.087-0.136L22.449,12.865z"/>
<path fill-rule="evenodd" clip-rule="evenodd" fill="#818181" d="M19.5,14.288c-0.057-0.165-0.104-0.261-0.443-0.442
	c-0.34-0.183-0.617-0.237-0.734-0.285c-0.119-0.047-0.309-0.103-0.285-0.087s0.68,0.388,0.807,0.442
	c0.126,0.056,0.309,0.127,0.371,0.19c0.064,0.063,0.079,0.063,0.111,0.15c0.031,0.087,0,0.197,0.055,0.308
	c0.056,0.111,0.104,0.111,0.104,0.111S19.571,14.494,19.5,14.288"/>
<path fill-rule="evenodd" clip-rule="evenodd" fill="#818181" d="M18.598,13.085c0.189,0,0.287,0.015,0.432,0.062
	c0.143,0.05,0.194,0.275,0.293,0.399c0,0-0.35-0.375-0.63-0.363C18.646,13.185,18.506,13.085,18.598,13.085"/>
<path fill-rule="evenodd" clip-rule="evenodd" fill="#818181" d="M18.424,13.289c0.103-0.024,0.178,0.006,0.268,0.037
	s0.136,0.109,0.221,0.225l-0.082-0.04c0,0,0.018,0.001-0.102-0.062c-0.137-0.071-0.178-0.063-0.231-0.091
	C18.444,13.33,18.374,13.302,18.424,13.289"/>
<path fill-rule="evenodd" clip-rule="evenodd" fill="#818181" d="M21.539,12.85c0,0-0.225,0.201-0.249,0.557
	c-0.023,0.356,0.061,0.783,0.119,1.187c0.06,0.403,0.012,0.699-0.154,0.983c-0.126,0.218-0.237,0.522-0.226,0.843
	c0.014,0.392,0.311,0.772,0.311,0.772s-0.253-0.494-0.158-0.956c0.095-0.463,0.368-0.735,0.402-1.067
	c0.036-0.332-0.014-0.657-0.104-1.05C21.351,13.549,21.351,13.182,21.539,12.85"/>
<path fill-rule="evenodd" clip-rule="evenodd" fill="#818181" d="M21.118,18.622c0,0,0.253-0.402,0.262-0.767
	c0.008-0.363-0.229-0.728-0.302-1.106c-0.07-0.38-0.086-0.443-0.007-0.72s0.316-0.419,0.316-0.419s-0.19,0.363-0.198,0.593
	s-0.031,0.367,0.111,0.799c0.142,0.432,0.293,0.854,0.189,1.162c-0.103,0.309-0.246,0.475-0.349,0.608
	C21.039,18.907,20.977,18.915,21.118,18.622"/>
<path fill-rule="evenodd" clip-rule="evenodd" fill="#818181" d="M20.428,21.388c-0.054,0.039-0.117,0.081-0.195,0.128
	c-0.064,0.04-0.166,0.058-0.166,0.058s0.094-0.108,0.317-0.421c0.355-0.529,0.336-1.085,0.458-1.637
	c0.101-0.404,0.427-0.877,0.545-1.091c0.119-0.214,0.044-0.901,0.044-0.901c-0.024,1.162-0.64,1.115-0.795,2.032
	c-0.042,0.512-0.221,1.051-0.634,1.561c-0.314,0.434-0.881,0.892-1.445,1.111c0.649,0.127,1.092-0.056,1.661-0.079
	c0.134,0,0.395,0.008,0.569,0.048c0.118,0.055,0.157-0.087,0.506-0.27c0.253-0.126,0.438-0.209,0.664-0.278
	c0.307-0.075,0.552-0.139,0.778-0.104c-0.044-0.025,0.92-0.041,0.78-0.133c-0.054-0.216-0.396-0.024-0.294-0.148
	c-0.348,0.166-0.409,0.044-0.824,0.127c0,0-0.333,0.039-0.594,0.035c0,0-0.172-0.006-0.29-0.059
	c-0.229-0.104-0.205-0.316-0.205-0.316c0-0.119-0.001-0.194,0.016-0.348c0.016-0.15-0.029-0.409-0.029-0.409
	S20.944,21.081,20.428,21.388"/>
<path fill-rule="evenodd" clip-rule="evenodd" fill="#818181" d="M28.167,18.911c0,0-0.498-0.581-1.032-0.712
	c-0.533-0.13-1.529,0.025-2.135,0.332c-0.604,0.309-0.842,0.747-1.162,1.317c0,0-0.143,0.199-0.221,0.435
	c-0.104,0.31-0.111,0.442,0.066,0.525c0.093,0.043,0.522-0.166,0.522-0.166c-0.099-0.139-0.455-0.067-0.455-0.067
	s0.17-0.229,0.348-0.324c0.179-0.095,0.415-0.047,0.415-0.047l-0.201-0.143c0,0-0.012-0.143,0.189-0.593
	c0.202-0.451,0.403-0.807,1.186-1.009c0.783-0.201,1.175-0.249,1.649-0.023C27.811,18.662,28.167,18.911,28.167,18.911"/>
<path fill-rule="evenodd" clip-rule="evenodd" fill="#818181" d="M27.673,21.936c0,0-0.254-0.158-0.554-0.277
	c-0.265-0.104-0.624-0.218-0.624-0.218s0.854-0.149,1.328-0.257c0.296-0.066,0.435-0.106,0.616-0.197
	c0.189-0.095,0.261-0.189,0.261-0.189s0.106-0.048,0.261-0.459c0.123-0.328-0.049-0.907,0.024-1.004
	c0.142-0.189,1.067,0.053,1.47,0.68c0.297,0.463,0.036,1.222,0.036,1.222s0.265-0.103,0.296-0.795
	c0.038-0.806-0.883-1.259-0.883-1.259s0.559,0.113,0.907,0.698c0.348,0.585,0.135,1.304-0.356,1.937
	c-0.49,0.633-1.588,0.617-2.031,0.521c0,0,0.221,0.251,0.269,0.451c0.103,0.427-0.039,0.672-0.205,0.767
	c-0.144,0.082-0.941,0.135-1.194,0.143s-0.355,0-0.727,0.031c-0.372,0.032-0.775-0.047-0.949-0.047
	c-0.095,0-0.174,0.031-0.411,0.087c-0.37,0.086-0.364-0.008-0.364-0.008s0.063-0.183-0.41-0.111
	c-0.329,0.05-0.586,0.048-0.586,0.048s-0.261,0.158-0.728,0.071c-0.466-0.087-0.505-0.38-0.505-0.38s0.355,0.166,0.734,0.158
	c0.38-0.008,0.569-0.222,0.569-0.222s0.1,0.151,0.482,0.024c0.214-0.071,0.309-0.15,0.309-0.15s0.747,0.046,0.822,0.056
	c0.261,0.031,0.83,0.078,0.83,0.078s0.063,0,0.538,0.032c0.324,0.021,0.572,0.043,0.593-0.04c0.018-0.076-0.238-0.176-0.238-0.176
	s0.451,0.058,0.673,0.065c0.162,0.006,0.301-0.022,0.388-0.079c0.087-0.056,0.102-0.316,0.008-0.419
	c-0.124-0.134-0.083-0.123-0.249-0.201c-0.403-0.19-0.344-0.273-0.344-0.273s-0.114-0.151,0.142-0.035
	c0.13,0.06-0.024-0.166-0.024-0.166S27.787,21.982,27.673,21.936 M29.389,19.714c0,0,0.055,0.846-0.19,1.241
	c-0.245,0.395-0.838,0.877-0.838,0.877c0.648,0.253,1.818-0.095,2.008-0.743c0.182-0.621-0.1-1.158-0.379-1.328
	C29.665,19.563,29.389,19.714,29.389,19.714"/>
<path fill-rule="evenodd" clip-rule="evenodd" fill="#818181" d="M25.89,21.235c0,0,0.071,0.035,0.213,0.071
	c0.106,0.026,0.57,0.201,0.57,0.201s0.189,0.024,0.291-0.085c0.15-0.165-0.408,0.013-0.382-0.167c0.008-0.056-0.1-0.127-0.1-0.127
	s-0.166-0.036-0.296-0.024C25.926,21.129,25.89,21.235,25.89,21.235"/>
<path fill-rule="evenodd" clip-rule="evenodd" fill="#818181" d="M21.875,21.437c0,0,0.461-0.016,0.92-0.142
	c0.459-0.127,0.546-0.237,0.748-0.296c0.15-0.046,0.459-0.026,0.459-0.026s-0.084,0.029-0.108,0.156
	c-0.023,0.126,0.024,0.221,0.024,0.221s0.165-0.063,0.291-0.039c0.128,0.024,0.163,0.104,0.163,0.104s-0.131,0.205,0.043,0.26
	c0.175,0.056,0.392,0.056,0.751,0.178c0.36,0.123,0.577,0.158,0.854,0.214c0.276,0.056,0.581,0.154,0.581,0.154
	s0.043,0.039-0.059,0.095c-0.104,0.056,0.271,0.166,0.271,0.166s0.036,0.023-0.225,0c-0.22-0.02-0.254-0.007-0.53-0.063
	c-0.427-0.087-0.562-0.087-0.562-0.087s-0.174-0.031-0.395-0.039c-0.119-0.005-0.514-0.023-0.925-0.071s-0.729-0.119-0.957-0.206
	c-0.229-0.087-0.506,0-0.506,0s-0.104-0.11-0.316-0.023s-0.304,0.313-0.304,0.313s0.105-0.06,0.217-0.06s0.182,0.032,0.182,0.032
	s0.063,0.118-0.04,0.213c-0.102,0.095-0.284,0.174-0.284,0.174s-0.008-0.055-0.442-0.055s-0.482-0.063-0.633,0.149
	c-0.15,0.214-0.079-0.348-0.079-0.348s0.103-0.166,0.688-0.442s1.053-0.245,1.273-0.253c0.221-0.007,0.506,0.016,0.791,0.063
	c0.179,0.029,0.632,0.189,0.632,0.189s-0.21-0.185-0.617-0.332c-0.347-0.127-1.28-0.119-1.739-0.016
	c-0.459,0.103-0.632,0.008-0.585-0.063C21.506,21.484,21.875,21.437,21.875,21.437"/>
<path fill-rule="evenodd" clip-rule="evenodd" fill="#818181" d="M22.114,22.291c0,0,0.206-0.079,0.349-0.023
	c0.056,0.021,0.079,0.031,0.118,0.078c0.04,0.048,0.135,0.127,0.135,0.127s-0.498,0.04-0.396,0.276
	c0.104,0.237,0.371,0.198,0.371,0.198s-0.142,0.063-0.181,0.213c-0.04,0.15,0.102,0.229,0.102,0.229l0.403,0.158l-0.245,0.087
	c0,0-0.166-0.072-0.205,0.031c-0.04,0.104-0.055,0.208-0.055,0.208s-0.167-0.168-0.19-0.39c-0.023-0.221,0.143-0.387,0.143-0.387
	s-0.125-0.107-0.229,0.01c-0.104,0.116-0.128,0.245-0.128,0.245s-0.174-0.16-0.205-0.382c-0.032-0.222,0.143-0.38,0.143-0.38
	L22.114,22.291z"/>
<path fill-rule="evenodd" clip-rule="evenodd" fill="#818181" d="M18.467,16.907c-0.131,0.865-0.439,1.257-0.522,1.553
	c0,0-0.07-0.162-0.249-0.28c-0.164-0.109-0.451,0.063-0.451,0.063s-0.261-0.34-0.854-0.589c-0.484-0.204-0.427,0.217-0.427,0.217
	s-0.396-0.435-0.554-0.608c-0.205-0.226-0.419-0.131-0.608-0.071s-0.747-0.023-0.747-0.023s-0.427-0.036-0.427-0.439
	c0-0.284,0.308-0.391,0.308-0.391s-0.26-0.154-0.237-0.451c0.024-0.296,0.345-0.284,0.345-0.284s-0.237-0.189-0.226-0.345
	c0.013-0.153,0.261-0.402,0.439-0.426c0.177-0.024,0.809,0.319,1.103,0.391c0.267,0.065,0.146,0.41,0.62,0.604
	c0.202,0.082,0.554,0.168,0.993,0.168c0.438,0,0.592,0.166,1.09,0.284s0.546-0.083,0.546-0.083S18.513,16.598,18.467,16.907
	 M14.494,14.978c-0.162-0.068-0.275-0.041-0.409,0.067c-0.046,0.09-0.045,0.274,0.061,0.313c0.339,0.058,0.289-0.218,0.629-0.178
	C14.677,15.133,14.577,15.063,14.494,14.978 M14.146,16.393c-0.127,0.033-0.314,0.197-0.289,0.396
	c0.063,0.172,0.104,0.216,0.312,0.243c0.1-0.023,0.178-0.042,0.183-0.112c0,0-0.047-0.044-0.007-0.083
	c0.126-0.111,0.245-0.084,0.355-0.087c-0.166-0.166-0.247-0.16-0.324-0.214c-0.205-0.183-0.068-0.279,0.023-0.355
	c0.062-0.036,0.279-0.016,0.386,0.032l-0.354-0.42c-0.161-0.101-0.426-0.139-0.503,0.089c-0.016,0.06-0.025,0.225,0.044,0.267
	C14.091,16.274,14.153,16.306,14.146,16.393 M18.099,17.571c0,0-0.073-0.312,0.04-0.585c0.112-0.273,0.339-0.475,0.339-0.475
	c-0.246,0.141-0.358,0.008-0.987-0.177c-0.629-0.184-0.957-0.128-1.206-0.146s-0.831-0.361-0.919-0.438
	c-0.089-0.077-0.071-0.147-0.129-0.33c-0.039-0.127-0.213-0.182-0.332-0.158s-0.158,0.11-0.158,0.11s-0.064,0.016-0.189,0.04
	c-0.125,0.023-0.198,0.182-0.198,0.182s0.111-0.052,0.212-0.04c0.102,0.012,0.18,0.096,0.18,0.096
	c0.008,0.275-0.023,0.284,0.088,0.474c0.146,0.253,0.462,0.53,0.462,0.53c0.311,0.208,0.728,0.379,0.799,0.411
	c0.048,0.021,0.299,0.142,0.521,0.221c0.246,0.087,0.451,0.356,0.451,0.356s0.003-0.272,0.38-0.15
	C17.742,17.587,18.099,17.571,18.099,17.571"/>
<path fill-rule="evenodd" clip-rule="evenodd" fill="#818181" d="M22.019,14.612c0,0,0.09,0.474,0.006,0.687
	c-0.16,0.41-0.394,0.498-0.463,0.889c-0.083,0.465,0.063,0.996,0.143,1.265c0.079,0.269,0.166,0.591,0.071,0.813
	c-0.096,0.222-0.277,0.452-0.403,0.722c-0.127,0.269-0.208,0.618-0.208,0.618s0.192-0.429,0.318-0.618
	c0.158-0.237,0.396-0.522,0.481-0.767c0.208-0.594-0.102-0.973-0.166-1.313c-0.078-0.421,0.033-0.774,0.263-1.06
	c0.221-0.277,0.275-0.49,0.323-0.759c0.057-0.323,0.056-0.602,0.056-0.602L22.019,14.612z"/>
<path fill-rule="evenodd" clip-rule="evenodd" fill="#818181" d="M12.322,26.807c0,0,9.47-0.24,11.889-0.46
	c0.65-0.06,1.802-0.095,2.518-0.166c0.717-0.071,1.778-0.119,1.778-0.119s-0.331,0.155-1.139,0.227
	c-0.92,0.082-2.644,0.29-3.439,0.29c-0.971,0-4.206,0.233-5.174,0.281C14.769,27.054,12.322,26.807,12.322,26.807"/>
<path fill-rule="evenodd" clip-rule="evenodd" fill="#818181" d="M17.861,3.664l-2.431,10.823c0,0-0.013,0.137,0.059,0.166
	c0.071,0.03,0.123,0.042,0.202,0.089c0.089,0.054,0.16,0.125,0.16,0.125s-0.185-0.006-0.397-0.077
	c-0.201-0.067-0.237-0.195-0.237-0.195l2.471-10.898c0.079-0.467,0.245-1.447,0.269-1.692c0.024-0.245-0.03-0.189-0.127-0.071
	c-0.094,0.119-0.395,0.87-0.537,1.511c0,0-2.372,9.945-2.419,10.222c-0.048,0.277-0.018,0.407-0.148,0.627
	c-0.135,0.228-0.258,0.271-0.415,0.255c-0.118-0.012-0.282-0.018-0.314,0.077c-0.021,0.065,0.079,0.108,0.214,0.124
	c0.135,0.017,0.307,0.013,0.456-0.029c0.172-0.047,0.243-0.071,0.243-0.071s0.045,0.096,0.089,0.137
	c0.083,0.077,0.16,0.143,0.255,0.184c0.085,0.037,0.324,0.104,0.476,0.097c0.149-0.008,0.181,0.08,0.205,0.143
	c0.023,0.063,0.145,0.132,0.301,0.056c0.104-0.052,0.116-0.247,0.015-0.336c-0.121-0.107-0.292,0.012-0.324-0.044
	c-0.03-0.056,0.123-0.218,0.354-0.135c0.195,0.07,0.311,0.246,0.225,0.505c-0.089,0.267-0.381,0.263-0.539,0.239
	c-0.157-0.024-0.245-0.143-0.301-0.158c-0.055-0.017-0.174-0.023-0.174-0.023s-1.043-0.42-1.13-0.436s-0.309,0.023-0.388,0.04
	c-0.079,0.016-0.135,0.103-0.332,0.07c-0.109-0.017-0.464-0.154-0.356-0.479c0.08-0.236,0.244-0.338,0.493-0.297
	c0.128,0.021,0.136,0.144,0.249,0.16c0.146,0.023,0.255,0.008,0.302-0.142c0.048-0.151,2.593-10.294,2.593-10.294
	c0.364-1.202,0.642-1.938,0.887-2.246c0.244-0.308,0.355-0.575,0.315,0.111C18.083,2.479,18.015,2.946,17.861,3.664 M13.676,14.707
	c0.075,0,0.138-0.059,0.138-0.131c0-0.071-0.063-0.13-0.138-0.13c-0.077,0-0.139,0.059-0.139,0.13
	C13.537,14.648,13.599,14.707,13.676,14.707"/>
<path fill-rule="evenodd" clip-rule="evenodd" fill="#818181" d="M19.143,20.322c0,0,0.048-0.782,0.355-1.696
	c0.127-0.376,0.395-0.818,0.451-1.197c0.063-0.435-0.061-0.973-0.036-1.233c0.022-0.261,0.047-0.51,0.047-0.51h0.166
	c0,0-0.071,0.593-0.024,0.842c0.049,0.249,0.128,0.707,0.036,1.032c-0.142,0.51-0.42,0.853-0.528,1.276
	c-0.136,0.521-0.223,1.114-0.23,1.668L19.143,20.322z"/>
<path fill-rule="evenodd" clip-rule="evenodd" fill="#818181" d="M13.184,14.639c0.088,0,0.158-0.067,0.158-0.151
	c0-0.083-0.07-0.15-0.158-0.15c-0.089,0-0.159,0.067-0.159,0.15C13.024,14.571,13.095,14.639,13.184,14.639"/>
<path fill-rule="evenodd" clip-rule="evenodd" fill="#818181" d="M14.339,18.151c0.116,0,0.209-0.09,0.209-0.201
	c0-0.11-0.093-0.201-0.209-0.201c-0.115,0-0.21,0.091-0.21,0.201C14.129,18.062,14.224,18.151,14.339,18.151"/>
<path fill-rule="evenodd" clip-rule="evenodd" fill="#818181" d="M14.102,17.108c0,0,0.061-0.041-0.006,0.03
	c-0.064,0.07-0.187,0.211-0.156,0.369c0.032,0.158,0.156,0.348,0.418,0.378c0.261,0.029,0.474-0.084,0.527-0.32
	c0.053-0.237-0.023-0.326-0.089-0.392s-0.332,0.023-0.332,0.023c0.113,0.077,0.166,0.189,0.154,0.303
	c-0.013,0.112-0.119,0.172-0.22,0.154c-0.101-0.019-0.212-0.099-0.172-0.231c0.048-0.16,0.213-0.226,0.213-0.226
	s-0.006-0.071,0.048-0.106S14.102,17.108,14.102,17.108"/>
<path fill-rule="evenodd" clip-rule="evenodd" fill="#818181" d="M16.631,15.467c0.117,0,0.214-0.099,0.214-0.22
	c0-0.122-0.097-0.221-0.214-0.221c-0.119,0-0.215,0.099-0.215,0.221C16.416,15.368,16.512,15.467,16.631,15.467"/>
<path fill-rule="evenodd" clip-rule="evenodd" fill="#818181" d="M15.575,21.975c0,0,0.256,0.552,0.509,0.884
	s0.427,0.585,0.585,0.854s0.635,1.007,1.015,1.513c0.38,0.507,1.055,1.266,1.055,1.266s-0.883-1.387-1.151-1.751
	c-0.269-0.363-0.521-0.79-0.774-1.122S15.733,22.117,15.575,21.975"/>
<path fill-rule="evenodd" clip-rule="evenodd" fill="#818181" d="M17.82,21.949c0,0,1.043,1.265,1.564,1.881
	c0.522,0.617,0.791,1.107,1.044,1.408c0.253,0.3,0.99,1.156,0.99,1.156s-0.357-0.809-0.8-1.283c-0.405-0.433-0.743-0.98-1.075-1.376
	c-0.332-0.395-0.839-1.075-1.061-1.265C18.263,22.281,17.931,21.933,17.82,21.949"/>
<path fill-rule="evenodd" clip-rule="evenodd" fill="#818181" d="M21.143,22.955c0,0,1.299,1.614,1.52,1.836
	c0.222,0.222,0.917,1.202,0.917,1.202s0.757,0.757,0.259,0.045c-0.121-0.173-0.767-0.996-1.051-1.359
	c-0.285-0.364-0.617-0.743-0.886-1.06C21.604,23.27,21.19,23.018,21.143,22.955"/>
<path fill-rule="evenodd" clip-rule="evenodd" fill="#818181" d="M24.331,23.687c0,0,0.206,0.396,0.427,0.601s0.647,0.695,0.79,0.87
	c0.142,0.175,0.981,0.894,0.981,0.894s-0.333-0.467-0.57-0.704s-0.49-0.49-0.68-0.712C25.09,24.415,24.457,23.781,24.331,23.687"/>
<path fill-rule="evenodd" clip-rule="evenodd" fill="#818181" d="M26.642,23.606c0,0,0.645,0.687,0.961,1.051
	c0.318,0.365,1.058,0.981,1.058,0.981s-0.158-0.357-0.39-0.568s-0.68-0.697-0.865-0.927c-0.184-0.229-0.462-0.504-0.462-0.504
	L26.642,23.606z"/>
<path fill-rule="evenodd" clip-rule="evenodd" fill="#818181" d="M16.164,25.244c0,0,1.014-0.107,1.471-0.131
	c0.458-0.023,2.06-0.048,2.654-0.048c0.596,0,2.976-0.189,3.8-0.213c0.823-0.023,2.174-0.189,2.493-0.189
	c0.32,0,3.11-0.062,3.11-0.062s-0.432,0.132-1.297,0.185c-0.184,0.011-1.973,0.161-2.248,0.161s-1.081,0.018-1.081,0.018
	s-0.788,0.077-1.184,0.054c-0.397-0.023-1.16,0.091-1.16,0.091s-0.373,0.004-0.854,0.052c-0.48,0.047-1.35,0-1.441,0.023
	c-0.091,0.023-0.762,0.097-1.349,0.104s-1.115-0.01-1.184-0.033c-0.069-0.024-0.534,0.023-0.809,0.023
	C16.811,25.279,16.164,25.244,16.164,25.244"/>
<path fill-rule="evenodd" clip-rule="evenodd" fill="#818181" d="M22.02,23.461h-1.55c-0.268,0-1.198,0.075-1.198,0.075
	s-0.825-0.027-1.252-0.027s-2.316,0.11-2.316,0.11s0.617,0.071,2.324,0.023c0.416-0.012,1.262,0,1.435,0
	c0.174,0,0.959-0.009,1.198-0.023C22,23.536,22.02,23.461,22.02,23.461"/>
<path fill-rule="evenodd" clip-rule="evenodd" fill="#818181" d="M18.959,22.261c0,0-1.3,0.019-1.82,0.042
	c-0.522,0.023-1.542,0.023-1.542,0.023s0.308-0.077,0.806-0.101s0.949-0.007,1.234-0.023C18.135,22.172,18.959,22.261,18.959,22.261
	"/>
<path fill-rule="evenodd" clip-rule="evenodd" fill="#818181" d="M10.617,17.774c-0.023-0.008-0.046-0.005-0.066,0.007l-0.024,0.003
	c-0.011,0.005-0.02,0.015-0.022,0.026L10.5,17.827c-0.041,0.067-0.067,0.16-0.01,0.226c0.06,0.065,0.178,0.06,0.174,0.186
	l-0.004,0.015l0.011-0.048l-0.008,0.017c-0.011,0.021-0.021,0.043-0.031,0.064l-0.01,0.038c-0.01,0.023-0.008,0.049,0.006,0.072
	l0.005,0.008c0.051,0.119,0.177,0.173,0.291,0.216c-0.034,0.061-0.075,0.118-0.085,0.189l-0.003,0.034
	c-0.001,0.021,0.005,0.041,0.016,0.058l0.013,0.019c0.037,0.082,0.128,0.113,0.196,0.166c0.021,0.017,0.007,0.048-0.016,0.087
	c-0.059,0.102-0.01,0.22,0.08,0.29c0.057,0.044,0.132,0.063,0.163,0.127c0.042,0.092-0.035,0.183-0.024,0.285
	c0.016,0.135,0.122,0.252,0.264,0.252c0.011,0,0.028,0.015,0.026,0.021c-0.021,0.078-0.081,0.141-0.069,0.229
	c0.016,0.137,0.138,0.18,0.229,0.249c-0.019,0.034,0.02,0.072-0.028,0.104c-0.033,0.16,0.082,0.338,0.258,0.35
	c0.017,0.001,0.038,0.029,0.071,0.03c0.015,0.009,0.032,0.003,0.04-0.013c0.007-0.014,0.001-0.031-0.014-0.038
	c-0.065-0.08-0.16-0.143-0.173-0.254c0.077-0.156,0.026-0.361-0.155-0.421c-0.008-0.003-0.017-0.023-0.013-0.031
	c0.043-0.103,0.086-0.217,0.028-0.322c-0.043-0.078-0.131-0.117-0.223-0.132c-0.007-0.001-0.013-0.03-0.011-0.049
	c0.012-0.097,0.044-0.184,0.021-0.284c-0.029-0.136-0.139-0.211-0.251-0.266c-0.007-0.003-0.02,0.005-0.03,0.009
	c0.1-0.175,0.033-0.416-0.174-0.469l-0.04-0.049l0.018,0.058l0.006-0.035c0.044-0.11,0.089-0.246-0.028-0.34
	c-0.063-0.054-0.15-0.054-0.212-0.104l-0.03-0.057l0.01,0.054l0.013-0.034c0,0.002-0.001,0.003-0.001,0.004l0.026-0.05
	c0.006-0.014,0.011-0.028,0.01-0.044l-0.004-0.039c-0.015-0.123-0.115-0.205-0.239-0.23c-0.035-0.008-0.032-0.06-0.024-0.095
	l0.014-0.048l-0.014,0.02l0.031-0.016c-0.028-0.042,0.016-0.029,0.029-0.04c0.005-0.002,0.008-0.007,0.007-0.013
	C10.628,17.776,10.623,17.773,10.617,17.774"/>
<path fill-rule="evenodd" clip-rule="evenodd" fill="#818181" d="M11.677,17.562c-0.023-0.009-0.021,0.018-0.041,0.029l-0.023,0.003
	c-0.011,0.005-0.021,0.016-0.023,0.026l-0.004,0.017c-0.041,0.067-0.066,0.16-0.01,0.226c0.06,0.065,0.152,0.037,0.148,0.162
	l-0.003,0.016l0.01-0.048l-0.008,0.016c-0.012,0.021-0.021,0.043-0.031,0.065l-0.01,0.037c-0.01,0.024-0.008,0.05,0.006,0.072
	l0.005,0.008c0.051,0.12,0.176,0.173,0.291,0.217c-0.034,0.061-0.075,0.117-0.085,0.188l-0.003,0.035
	c-0.001,0.021,0.005,0.04,0.016,0.057l0.013,0.02c0.036,0.082,0.129,0.113,0.196,0.167c0.021,0.016,0.006,0.046-0.016,0.085
	c-0.06,0.103-0.01,0.22,0.08,0.29c0.057,0.044,0.132,0.063,0.163,0.128c0.042,0.092-0.035,0.183-0.024,0.284
	c0.016,0.136,0.122,0.253,0.264,0.253c0.011,0,0.027,0.014,0.026,0.02c-0.02,0.078-0.081,0.141-0.07,0.229
	c0.017,0.138,0.139,0.18,0.229,0.249c-0.019,0.034,0.019,0.072-0.028,0.104c-0.033,0.16,0.082,0.339,0.258,0.351
	c0.017,0.001,0.037,0.028,0.071,0.03c0.015,0.008,0.032,0.002,0.04-0.013c0.006-0.014,0-0.032-0.014-0.039
	c-0.066-0.08-0.16-0.142-0.172-0.254c0.076-0.156,0.024-0.36-0.156-0.421c-0.008-0.003-0.017-0.022-0.012-0.03
	c0.043-0.104,0.085-0.218,0.026-0.323c-0.042-0.078-0.13-0.117-0.222-0.132c-0.007-0.001-0.013-0.03-0.011-0.048
	c0.012-0.096,0.044-0.184,0.021-0.285c-0.03-0.135-0.139-0.21-0.251-0.266c-0.007-0.003-0.02,0.005-0.031,0.009
	c0.101-0.175,0.034-0.416-0.174-0.469l-0.039-0.048l0.018,0.058l0.006-0.036c0.044-0.109,0.089-0.246-0.028-0.34
	c-0.063-0.052-0.15-0.052-0.212-0.104l-0.03-0.058l0.01,0.055l0.013-0.035c0,0.002-0.001,0.003-0.001,0.006l0.025-0.051
	c0.008-0.014,0.012-0.029,0.011-0.045l-0.003-0.038c-0.017-0.124-0.091-0.183-0.215-0.208c-0.035-0.007-0.031-0.06-0.022-0.094
	l0.013-0.049l-0.013,0.02l0.03-0.016c-0.028-0.042,0.016-0.028,0.028-0.039c0.005-0.003,0.009-0.008,0.007-0.014
	C11.713,17.586,11.683,17.56,11.677,17.562"/>
<path fill-rule="evenodd" clip-rule="evenodd" fill="#818181" d="M12.648,17.438c-0.12,0.138-0.049,0.368,0.121,0.426
	c0.068,0.075-0.011,0.099-0.034,0.176l-0.004,0.02c0,0.015,0.004,0.03,0.012,0.043l0.005,0.008c0.021,0.09,0.088,0.161,0.178,0.196
	l0.031,0.002l-0.026-0.022l-0.002-0.005c0.054,0.031,0.124,0.089,0.094,0.145c-0.087,0.162-0.007,0.343,0.146,0.414l0.015,0.008
	l-0.044-0.04l0.04,0.045c0.024,0.007,0.042,0.026,0.045,0.057c0.004,0.036-0.012,0.068-0.029,0.107
	c-0.07,0.157,0.072,0.301,0.205,0.39c0.021,0.014,0.032,0.038,0.027,0.063c-0.024,0.139-0.092,0.293,0.042,0.392
	c0.088,0.066,0.146,0.137,0.186,0.233c0.002,0.026,0.023,0.046,0.05,0.044c0.025-0.001,0.046-0.023,0.045-0.049
	c0.038-0.094,0.031-0.216-0.044-0.289c-0.043-0.044-0.091-0.076-0.154-0.105c-0.018-0.008-0.032-0.061-0.021-0.091
	c0.045-0.123,0.051-0.27-0.039-0.369c-0.049-0.055-0.125-0.075-0.164-0.141c-0.064-0.104,0.021-0.212,0.011-0.324
	c-0.002-0.029-0.015-0.055-0.033-0.078l0.013,0.011c-0.011-0.018-0.025-0.031-0.043-0.04l-0.05-0.026
	c-0.068-0.025-0.131-0.075-0.148-0.146c-0.025-0.102,0.062-0.201,0.009-0.304l-0.003-0.025c-0.015-0.017-0.032-0.027-0.053-0.032
	l-0.027-0.015c0.007-0.001,0.013-0.003,0.02-0.004c-0.026-0.023-0.069-0.018-0.089-0.053l-0.042-0.043l0.012,0.044v-0.036
	c-0.021,0.004-0.026-0.019-0.023-0.025c0.045-0.14,0.021-0.242-0.12-0.32c-0.068-0.038-0.05-0.133-0.021-0.199
	c0.011-0.025,0-0.054-0.025-0.064C12.688,17.402,12.66,17.413,12.648,17.438"/>
<path fill-rule="evenodd" clip-rule="evenodd" fill="#818181" d="M9.625,17.957c-0.121,0.138-0.049,0.368,0.121,0.427
	c0.067,0.074-0.003,0.159-0.026,0.236l-0.004,0.02c0,0.015,0.004,0.03,0.012,0.043L9.73,18.69c0.023,0.09,0.09,0.162,0.18,0.196
	l0.03,0.002l-0.025-0.022l-0.002-0.005c0.055,0.031,0.123,0.089,0.094,0.145C9.92,19.168,10,19.349,10.152,19.42l0.016,0.008
	l-0.045-0.04l0.041,0.045c0.023,0.007,0.041,0.026,0.044,0.057c0.005,0.036-0.012,0.068-0.029,0.107
	c-0.07,0.157,0.073,0.301,0.207,0.39c0.021,0.014,0.032,0.038,0.026,0.063c-0.024,0.139-0.092,0.293,0.041,0.392
	c0.088,0.066,0.146,0.137,0.187,0.233c0.002,0.026,0.023,0.046,0.049,0.044c0.026-0.001,0.046-0.022,0.045-0.049
	c0.038-0.094,0.031-0.217-0.044-0.289c-0.043-0.044-0.091-0.076-0.154-0.105c-0.018-0.008-0.031-0.061-0.021-0.09
	c0.045-0.124,0.051-0.271-0.038-0.37c-0.05-0.055-0.126-0.075-0.165-0.141c-0.063-0.104,0.021-0.212,0.012-0.323
	c-0.002-0.03-0.015-0.056-0.034-0.079l0.014,0.011c-0.012-0.018-0.026-0.031-0.044-0.04l-0.05-0.026
	c-0.067-0.025-0.13-0.074-0.147-0.146c-0.026-0.102,0.061-0.201,0.009-0.304l-0.004-0.025c-0.014-0.016-0.032-0.027-0.053-0.032
	l-0.026-0.015c0.007-0.001,0.013-0.003,0.02-0.004c-0.026-0.023-0.07-0.018-0.089-0.053l-0.043-0.043l0.013,0.044v-0.036
	c-0.022,0.004-0.027-0.019-0.024-0.025c0.046-0.14,0.014-0.304-0.127-0.382c-0.068-0.038-0.051-0.132-0.021-0.199
	c0.011-0.024,0-0.054-0.025-0.064C9.665,17.922,9.637,17.933,9.625,17.957"/>
<path fill-rule="evenodd" clip-rule="evenodd" fill="#818181" d="M10.657,20.624c-0.026,0.094,0.013,0.187,0.1,0.242
	c0.036,0.023,0.048,0.083,0.057,0.133c-0.009-0.012-0.018-0.024-0.025-0.036c-0.005,0.02-0.01,0.04-0.016,0.06l-0.013,0.036
	c-0.005,0.016-0.005,0.031-0.001,0.048l0.009,0.028c0.042,0.109,0.146,0.173,0.23,0.245c0.035,0.03,0.089,0.027,0.12-0.008
	c0.031-0.036,0.028-0.091-0.007-0.121c-0.051-0.046-0.104-0.09-0.156-0.134l-0.028-0.056l-0.002,0.052l0.01-0.027
	c0.063-0.132-0.011-0.325-0.162-0.342c-0.014-0.002-0.035,0.025-0.062-0.017c-0.019-0.032-0.023-0.07-0.034-0.105
	c-0.001-0.005-0.006-0.009-0.011-0.009C10.661,20.614,10.657,20.619,10.657,20.624"/>
<path fill-rule="evenodd" clip-rule="evenodd" fill="#818181" d="M11.4,21.995c-0.012-0.003-0.024-0.006-0.036-0.009l0.004-0.021
	c-0.009,0-0.018,0.003-0.025,0.008l-0.026,0.028c-0.118,0.136-0.001,0.29,0.058,0.421c0.004,0.009-0.022,0.041-0.06,0.064
	c-0.097,0.063-0.104,0.217-0.021,0.294c0.061,0.055,0.151,0.109,0.117,0.192c-0.042,0.099-0.155,0.164-0.146,0.285
	c0.005,0.084,0.065,0.143,0.105,0.212c0.068,0.111-0.073,0.202-0.101,0.314c-0.023,0.093,0.016,0.199,0.107,0.245
	c0.055,0.119-0.101,0.188-0.125,0.295l-0.008,0.014c-0.008,0.015-0.012,0.031-0.011,0.048l0.004,0.036
	c0.004,0.037,0.025,0.066,0.045,0.097c0.034,0.048,0.106,0.077,0.099,0.135c-0.012,0.105-0.089,0.18-0.18,0.233
	c-0.038,0.025-0.048,0.076-0.022,0.114c0.024,0.037,0.075,0.048,0.113,0.022c0.152-0.066,0.261-0.202,0.271-0.37
	c0.005-0.098-0.061-0.182-0.135-0.239l-0.017-0.041l-0.011,0.05l0.019-0.048c0.051-0.098,0.136-0.183,0.134-0.299
	c-0.002-0.103-0.063-0.187-0.12-0.265c0.071-0.107,0.122-0.228,0.112-0.362c-0.007-0.106-0.125-0.16-0.123-0.259
	c0-0.069,0.077-0.117,0.099-0.189c0.041-0.142-0.056-0.262-0.077-0.394c0.046-0.071,0.087-0.155,0.051-0.247
	c-0.04-0.1-0.154-0.168-0.111-0.295l0.013-0.028l-0.027,0.009l0.011-0.003c0.009-0.004,0.017-0.009,0.024-0.013
	c0.014-0.013,0.014-0.035,0.001-0.048c-0.012-0.014-0.034-0.015-0.047-0.002L11.4,21.995z"/>
<path fill-rule="evenodd" clip-rule="evenodd" fill="#818181" d="M12.418,21.918c-0.039-0.012-0.08,0.006-0.105,0.035
	c-0.134,0.143-0.064,0.325,0.041,0.47c0.011,0.015,0.008,0.051-0.005,0.067c-0.097,0.128-0.15,0.267-0.096,0.419
	c0.028,0.077,0.093,0.126,0.134,0.196c0.012,0.021,0.005,0.05-0.013,0.066c-0.15,0.143-0.177,0.386-0.006,0.518
	c0.028,0.072,0.014,0.15-0.054,0.189l-0.021,0.024c-0.01,0.013-0.016,0.028-0.019,0.044l-0.006,0.034
	c-0.021,0.133,0.05,0.24,0.122,0.352c0.012,0.018,0.012,0.057-0.002,0.068c-0.106,0.103-0.213,0.221-0.174,0.375
	c0.004,0.053,0.048,0.092,0.101,0.089s0.092-0.049,0.089-0.101c-0.001-0.03-0.014-0.065-0.004-0.086
	c0.046-0.099,0.155-0.155,0.176-0.273c0.021-0.121-0.046-0.206-0.114-0.3c-0.018-0.028-0.014-0.063-0.012-0.096l0.003-0.034
	l-0.021,0.044l0.016-0.021c0.107-0.077,0.132-0.215,0.097-0.338c-0.021-0.081-0.097-0.125-0.119-0.203
	c-0.033-0.127,0.055-0.223,0.086-0.34c0.006-0.023,0.005-0.047-0.002-0.069c-0.029-0.098-0.076-0.19-0.06-0.292
	c0.015-0.094,0.09-0.165,0.104-0.264c0.021-0.146-0.082-0.238-0.158-0.352c-0.043-0.068-0.017-0.144,0.029-0.204
	c0.006-0.003,0.008-0.009,0.005-0.014C12.429,21.917,12.423,21.915,12.418,21.918"/>
<path fill-rule="evenodd" clip-rule="evenodd" fill="#818181" d="M13.396,21.775c-0.041,0-0.08,0.007-0.111,0.048
	c-0.145,0.195-0.011,0.421,0.084,0.599c-0.026,0.03-0.03,0.074-0.057,0.1c-0.156,0.15-0.084,0.425,0.048,0.563l0.007-0.009v-0.001
	l0.003,0.007c0.02,0.025,0.042,0.048,0.028,0.088c-0.037,0.11-0.131,0.191-0.134,0.31c-0.003,0.087,0.042,0.157,0.083,0.233
	c0.025,0.049,0.065,0.116,0.025,0.154c-0.182,0.17-0.054,0.421,0.058,0.578c0.005,0.103-0.031,0.207-0.104,0.283
	c-0.027,0.021-0.034,0.058-0.014,0.084c0.019,0.028,0.056,0.034,0.084,0.016c0.059-0.019,0.113-0.046,0.152-0.097
	c0.118-0.146,0.104-0.362-0.022-0.504c-0.102-0.114,0.005-0.231,0.016-0.354c0.01-0.113-0.056-0.219-0.127-0.319
	c-0.033-0.048-0.039-0.104-0.018-0.16c0.047-0.117,0.145-0.229,0.114-0.365l0.007-0.008c-0.009-0.023-0.026-0.04-0.049-0.049
	l0.003-0.015c-0.016-0.078-0.072-0.161-0.025-0.239c-0.01,0.009-0.02,0.018-0.03,0.026c0.137-0.09,0.224-0.274,0.158-0.432
	c-0.068-0.167-0.291-0.321-0.168-0.518c0.005-0.004,0.007-0.011,0.004-0.016C13.408,21.774,13.401,21.772,13.396,21.775"/>
<path fill-rule="evenodd" clip-rule="evenodd" fill="#818181" d="M14.547,22.076c-0.105-0.005-0.141,0.114-0.149,0.198
	c-0.009,0.094,0.038,0.17,0.096,0.247c0.014,0.02,0.022,0.049,0.016,0.069c-0.026,0.095-0.123,0.156-0.133,0.257
	c-0.013,0.137,0.083,0.256,0.18,0.344l0.022,0.015l-0.04-0.05l0.003,0.008c0.009,0.122-0.125,0.188-0.16,0.299
	c-0.042,0.137,0.061,0.241,0.131,0.352c0.006,0.009,0.008,0.026,0.003,0.033c-0.07,0.091-0.141,0.179-0.13,0.296
	c0.012,0.139,0.126,0.22,0.191,0.331c-0.01,0.142-0.047,0.278-0.183,0.353c-0.013,0.009-0.016,0.026-0.007,0.038
	c0.008,0.013,0.026,0.017,0.038,0.008c0.087-0.054,0.187-0.088,0.251-0.171c0.079-0.101,0.129-0.237,0.057-0.357
	c-0.047-0.075-0.109-0.127-0.155-0.2c-0.014-0.02-0.017-0.054-0.004-0.072c0.051-0.074,0.099-0.144,0.113-0.231
	c0.018-0.109-0.073-0.176-0.128-0.263c-0.015-0.023-0.025-0.047-0.01-0.068c0.09-0.125,0.205-0.253,0.164-0.41l0.006-0.008
	c-0.007-0.021-0.021-0.037-0.04-0.049l-0.005-0.012c-0.032-0.044-0.02-0.112-0.1-0.13c0.085-0.103,0.193-0.215,0.166-0.363
	c-0.022-0.108-0.09-0.182-0.166-0.258c-0.053-0.053-0.022-0.123-0.008-0.187c0.005-0.005,0.005-0.014,0-0.019
	C14.561,22.07,14.552,22.07,14.547,22.076"/>
<path fill-rule="evenodd" clip-rule="evenodd" fill="#818181" d="M9.965,25.318c0,0,0.788-0.056,1.232-0.11
	c0.485-0.06,1.433-0.004,2.27-0.035c0.911-0.035,2.095-0.144,2.095-0.144s0.103-0.889,0.007-1.458
	c-0.095-0.569-0.031-1.802-0.031-1.802s0.189,0.743,0.221,1.201c0.032,0.459,0.08,1.06,0.111,1.344
	c0.031,0.285,0.016,0.27,0.063,0.569c0.048,0.301,0.056,0.699,0.056,0.699s-0.524,0.183-0.891,0.161
	c-0.366-0.022-1.283-0.085-1.71-0.006c-0.427,0.078-0.728,0.126-1.313,0.095c-0.586-0.032-1.154-0.017-1.249,0.063
	s-0.316-0.221-0.316-0.221s0.854-0.127,1.344-0.095c0.49,0.031,1.579-0.06,1.896-0.092c0.316-0.031,0.869,0.069,1.141,0.044
	c0.651-0.062,0.743-0.222,0.743-0.222s-0.52-0.029-1.198,0.002c-0.68,0.032-1.236,0.07-1.758,0.07s-1.335,0.004-1.65,0.035
	c-0.316,0.032-0.773,0.088-0.773,0.088L9.965,25.318z"/>
<path fill-rule="evenodd" clip-rule="evenodd" fill="#818181" d="M12.418,25.801c0,0,0.049,0.234,0.092,0.46
	c0.09,0.477,0.646,0.899,0.646,0.899l0.296,0.095l-0.083-0.213c0,0-0.511-0.433-0.588-0.755c-0.041-0.168-0.007-0.486-0.007-0.486
	H12.418z"/>
<path fill-rule="evenodd" clip-rule="evenodd" fill="#818181" d="M15.033,25.659c0,0,0.029,0.254,0.12,0.615
	c0.094,0.379,0.696,0.869,0.644,0.786c0.083,0.13,0.267,0.217,0.267,0.217l0.173-0.016l-0.069-0.196c0,0-0.588-0.486-0.692-0.727
	c-0.236-0.546-0.05-0.546-0.127-0.692C15.297,25.553,15.033,25.659,15.033,25.659"/>
<path fill-rule="evenodd" clip-rule="evenodd" fill="#818181" d="M8.283,17.714l0.036,0.103c0,0,0.838-0.19,1.352-0.277
	s0.72-0.071,1.558-0.245s1.913-0.269,1.913-0.269s0.427,0.846,0.608,1.257c0.183,0.411,0.712,1.376,0.712,1.376
	s-0.11-0.712-0.261-0.94c-0.15-0.229-0.475-0.878-0.585-1.146c-0.111-0.27-0.343-0.902-0.343-0.902s-0.625,0.169-0.669,0.175
	s-0.056-0.023-0.056-0.023s0.016-0.341-0.031-0.49c-0.048-0.15-0.649-1.1-0.649-1.1l-0.229-0.149l0.096,0.34
	c0,0,0.372,0.522,0.459,0.774c0.087,0.253,0.087,0.695,0.087,0.695l-2.341,0.428c0,0-0.174-0.554-0.394-0.953
	c-0.07-0.129-0.516-0.336-0.563-0.399c-0.048-0.063-0.127-0.174-0.127-0.174L8.73,15.705c0,0-0.09,0.27,0,0.388
	c0.174,0.229,0.411,0.205,0.561,0.427c0.271,0.399,0.325,0.838,0.325,0.838l-1.179,0.261L8.283,17.714z"/>
<path fill-rule="evenodd" clip-rule="evenodd" fill="#818181" d="M13.07,17.289l0.063-0.11c0,0-0.485,0.06-0.688,0.071
	c-0.201,0.012-0.979,0.158-1.383,0.253c-0.403,0.095-1.139,0.131-1.577,0.214S8.258,18.03,8.258,18.03s0.508,1.011,0.662,1.51
	c0.153,0.498,0.226,1.313,0.486,1.79c0.296,0.546,0.83,0.629,0.83,0.629s0.48-0.22,1.085-0.267c0.604-0.048,1.174-0.273,1.731-0.32
	c0.558-0.048,1.008-0.226,1.008-0.226s-0.267-0.22-0.635-0.137c-0.367,0.083-1.288,0.347-1.5,0.386
	c-0.255,0.048-0.776,0.101-1.014,0.172c-0.18,0.054-0.575,0.131-0.575,0.131s-0.438-0.089-0.693-0.753
	c-0.235-0.611-0.243-0.849-0.534-1.482c-0.223-0.488-0.579-1.35-0.579-1.35s0.469-0.112,0.777-0.184
	c0.308-0.071,0.368-0.012,1.21-0.189s1.636-0.324,2.022-0.38C12.686,17.34,13.051,17.297,13.07,17.289"/>
<path fill-rule="evenodd" clip-rule="evenodd" fill="#818181" d="M10.335,21.896c0,0-0.063,0.506-0.047,0.838
	c0.03,0.712,0.332,1.154,0.253,1.629c-0.08,0.475-0.34,0.965-0.34,0.965l-0.166-0.096c0,0,0.236-0.648,0.205-1.012
	s-0.205-1.06-0.19-1.438c0.016-0.38,0.111-0.854,0.111-0.854L10.335,21.896z"/>
<path fill-rule="evenodd" clip-rule="evenodd" fill="#818181" d="M21.836,10.686c0.109-0.066,0.183-0.185,0.183-0.321
	c0-0.208-0.17-0.376-0.38-0.376s-0.38,0.168-0.38,0.376c0,0.037,0.006,0.071,0.016,0.104c-0.07-0.049-0.219-0.066-0.37-0.019
	c-0.151,0.047-0.302,0.151-0.302,0.392c0,0.239,0.114,0.419,0.356,0.419c0.024,0-0.024,0.004,0,0c-0.016,0.019,0.004-0.014,0,0
	c-0.028,0.093-0.158,0.236-0.363,0.18c-0.307-0.087-0.267-0.378-0.267-0.378s-0.286,0.209-0.482,0.09
	c-0.233-0.142-0.104-0.233-0.104-0.233c0.299,0.034,0.526-0.303,0.432-0.549c-0.093-0.238-0.394-0.369-0.616-0.259
	c0,0,0.042-0.277-0.406-0.336c-0.321-0.042-0.533,0.382-0.44,0.58c0.047,0.101,0.079,0.125,0.369,0.619
	c0.289,0.494,0.375,0.782,0.375,0.782c0.005,0.019,0.012,0.054,0.012,0.099c0,0.063,0.016,0.103,0.016,0.103s0.42,0.043,1.376,0.376
	c0.957,0.332,1.605,0.691,1.605,0.691s0.008-0.031,0.016-0.088c0.002-0.012,0.004-0.024,0.006-0.037
	c0.016-0.065,0.209-0.265,0.413-0.394c0.632-0.399,0.886-0.495,1.203-0.673c0.209-0.118,0.132-0.507-0.073-0.606
	c-0.4-0.194-0.534,0.038-0.534,0.038c-0.136-0.188-0.467-0.211-0.673-0.057c-0.214,0.158-0.194,0.532,0.084,0.635
	c0,0,0.007,0.085-0.253,0.147c-0.236,0.057-0.309-0.296-0.309-0.296s-0.184,0.208-0.556,0.114c-0.115-0.029-0.226-0.156-0.184-0.377
	c0.076,0.127,0.164,0.108,0.299,0.1c0.214-0.015,0.374-0.157,0.374-0.397c0-0.19-0.139-0.368-0.312-0.427L21.836,10.686z
	 M21.967,10.708c-0.041-0.014-0.085-0.021-0.131-0.022l-2.421,0.493c-0.087-0.221-0.419-0.71-0.479-0.863
	c-0.052-0.131,0.121-0.317,0.289-0.264c0.155,0.051,0.184,0.355,0.184,0.355s0.176-0.227,0.425-0.087
	c0.167,0.094,0.13,0.25,0.044,0.343c-0.107,0.115-0.37,0.033-0.37,0.033s-0.197,0.305,0.239,0.607
	c0.322,0.225,0.507-0.006,0.507-0.006s0.02,0.224,0.264,0.289c0.116,0.031,0.39,0.2,0.632-0.257c0.056-0.104,0.08-0.283,0.045-0.29
	c-0.035-0.008-0.077-0.002-0.135-0.002c-0.115,0-0.209-0.089-0.209-0.197s0.078-0.214,0.193-0.214c0.058,0,0.11,0.022,0.148,0.059
	l0.001-0.007c0,0,0.121,0.161,0.275-0.015c0.06-0.067,0.002-0.237,0.002-0.237v-0.001c-0.008-0.019-0.012-0.039-0.012-0.062
	c0-0.093,0.081-0.171,0.181-0.171s0.181,0.078,0.181,0.171c0,0.073-0.05,0.137-0.118,0.161c-0.031,0.029-0.088,0.093-0.101,0.167
	c-0.03,0.18,0.236,0.19,0.236,0.19l-0.008,0.012c0.003,0,0.007,0,0.011,0c0.114,0,0.208,0.088,0.208,0.196
	c0,0.109-0.094,0.208-0.208,0.197c-0.143-0.013-0.22-0.155-0.298-0.142c0,0-0.427,0.547,0.133,0.794
	c0.322,0.142,0.545-0.008,0.545-0.008s0.137,0.241,0.408,0.251c0.4,0.015,0.602-0.419,0.602-0.419s-0.271-0.048-0.304-0.188
	c-0.026-0.113,0.025-0.257,0.22-0.261c0.291-0.006,0.365,0.265,0.365,0.265s0.079-0.157,0.236-0.182
	c0.161-0.026,0.286,0.202,0.171,0.283c-0.104,0.071-0.645,0.373-0.915,0.554c-0.316,0.211-0.361,0.232-0.494,0.347
	c-0.076,0.063-0.129,0.146-0.17,0.174l-0.167-0.063c0,0,0.008,0-0.3-0.127c-0.309-0.126-0.349-0.15-0.349-0.15
	s-0.163-0.079-0.519-0.205c-0.356-0.127-0.632-0.22-0.632-0.22s0.044,0.038-0.272-0.064c-0.315-0.104-0.293-0.096-0.293-0.096
	l-0.175-0.043l-0.014-0.027c0,0-0.091-0.292-0.204-0.582L21.967,10.708z"/>
<path fill-rule="evenodd" clip-rule="evenodd" fill="#818181" d="M19.933,12.531c0.049,0.014,0.256,0.169,0.351,0.272
	c0.106,0.114,0.202,0.299,0.202,0.299s-0.229-0.099-0.53,0.002c-0.275,0.093-0.383,0.007-0.392-0.099s0.079-0.202,0.079-0.202
	s-0.082,0.129,0.075,0.169c0.15,0.04,0.229-0.016,0.229-0.016s-0.164-0.021-0.178-0.112c-0.013-0.093,0.051-0.145,0.112-0.172
	c0,0-0.064-0.044-0.257,0.011c-0.147,0.041-0.151,0.169-0.178,0.204s-0.039,0.013-0.026-0.097
	C19.44,12.607,19.388,12.387,19.933,12.531"/>
<path fill-rule="evenodd" clip-rule="evenodd" fill="#818181" d="M21.324,9.457c0.138,0,0.247-0.111,0.247-0.25
	c0-0.138-0.109-0.25-0.247-0.25c-0.136,0-0.246,0.112-0.246,0.25C21.078,9.346,21.188,9.457,21.324,9.457"/>
<path fill-rule="evenodd" clip-rule="evenodd" fill="#818181" d="M19.582,9.589c0-0.205,0.169-0.371,0.377-0.371
	s0.377,0.166,0.377,0.371S20.167,9.96,19.959,9.96S19.582,9.794,19.582,9.589 M19.959,9.75c0.096,0,0.174-0.072,0.174-0.161
	s-0.078-0.161-0.174-0.161c-0.097,0-0.175,0.072-0.175,0.161S19.862,9.75,19.959,9.75"/>
<path fill-rule="evenodd" clip-rule="evenodd" fill="#818181" d="M20.384,9.323c0-0.168,0.14-0.304,0.312-0.304
	c0.173,0,0.312,0.136,0.312,0.304c0,0.167-0.139,0.303-0.312,0.303C20.523,9.626,20.384,9.49,20.384,9.323 M20.695,9.446
	c0.069,0,0.127-0.054,0.127-0.12s-0.058-0.121-0.127-0.121c-0.07,0-0.128,0.055-0.128,0.121S20.625,9.446,20.695,9.446"/>
<path fill-rule="evenodd" clip-rule="evenodd" fill="#818181" d="M21.801,7.947c0,0-0.062,0.061-0.105,0.175
	s-0.044,0.272-0.044,0.272s0.454-0.07,0.475,0.035c0.021,0.106-0.053,0.179-0.053,0.179l0.271,0.094c0,0-0.016-0.185,0.045-0.202
	c0.063-0.018,0.378,0.264,0.378,0.264s0.079-0.018,0.159-0.185c0.069-0.146-0.018-0.264-0.018-0.264S22.46,8.403,22.46,8.28
	s0.315-0.421,0.315-0.421s-0.089-0.127-0.241-0.169c-0.193-0.053-0.232-0.015-0.232-0.015s-0.018,0.517-0.088,0.525
	S21.801,7.947,21.801,7.947"/>
<path fill-rule="evenodd" clip-rule="evenodd" fill="#818181" d="M19.717,10.097c0,0,0.295-0.268,0.844-0.477
	s0.863-0.203,1.041-0.252c0.177-0.05,0.336-0.082,0.336-0.082s0.152,0.275,0.047,0.309c-0.106,0.033-0.272-0.031-0.58-0.011
	s-0.583,0.154-0.919,0.299c-0.337,0.144-0.474,0.395-0.474,0.395L19.717,10.097z"/>
<path fill-rule="evenodd" clip-rule="evenodd" fill="#818181" d="M22.469,9.786c-0.116-0.069-0.154-0.223-0.085-0.341
	c0.07-0.119,0.224-0.159,0.341-0.089c0.117,0.069,0.155,0.222,0.085,0.341C22.739,9.815,22.587,9.855,22.469,9.786"/>
<path fill-rule="evenodd" clip-rule="evenodd" fill="#818181" d="M23.447,11.356c0,0-0.129-0.545-0.476-1.019
	c-0.349-0.473-0.616-0.64-0.738-0.776c-0.122-0.138-0.238-0.251-0.238-0.251s-0.276,0.149-0.206,0.234
	c0.071,0.085,0.245,0.12,0.492,0.305c0.248,0.185,0.406,0.446,0.611,0.75c0.204,0.304,0.208,0.673,0.208,0.673L23.447,11.356z"/>
<path fill-rule="evenodd" clip-rule="evenodd" fill="#818181" d="M23.338,10.993c-0.179-0.106-0.239-0.335-0.135-0.512
	c0.104-0.176,0.335-0.233,0.514-0.126c0.179,0.105,0.24,0.334,0.135,0.511C23.748,11.042,23.518,11.099,23.338,10.993
	 M23.522,10.835c0.098,0,0.176-0.072,0.176-0.161s-0.078-0.161-0.176-0.161c-0.097,0-0.175,0.072-0.175,0.161
	S23.426,10.835,23.522,10.835"/>
<path fill-rule="evenodd" clip-rule="evenodd" fill="#818181" d="M21.663,9.019c0-0.227,0.183-0.41,0.41-0.41
	c0.227,0,0.41,0.184,0.41,0.41s-0.184,0.41-0.41,0.41C21.846,9.429,21.663,9.245,21.663,9.019 M22.073,9.224
	c0.114,0,0.207-0.092,0.207-0.205s-0.093-0.205-0.207-0.205s-0.207,0.092-0.207,0.205S21.959,9.224,22.073,9.224"/>
<path fill-rule="evenodd" clip-rule="evenodd" fill="#818181" d="M22.927,10.281c-0.147-0.087-0.198-0.275-0.112-0.419
	c0.085-0.145,0.274-0.19,0.423-0.103c0.147,0.088,0.198,0.276,0.112,0.42C23.265,10.323,23.075,10.369,22.927,10.281 M23.082,10.14
	c0.07,0,0.127-0.054,0.127-0.12s-0.057-0.121-0.127-0.121s-0.127,0.055-0.127,0.121S23.012,10.14,23.082,10.14"/>
<path fill-rule="evenodd" clip-rule="evenodd" fill="#818181" d="M21.096,12.095c0.084,0,0.134-0.093,0.134-0.168
	s-0.069-0.137-0.155-0.137c-0.085,0-0.155,0.062-0.155,0.137S21.009,12.095,21.096,12.095"/>
<path fill-rule="evenodd" clip-rule="evenodd" fill="#818181" d="M0.027,48.785c0.254,0,0.508,0.028,0.768,0.028
	c0.254,0,0.409-0.028,0.663-0.028v0.155c-0.317,0.042-0.395,0.253-0.395,0.703c0,0.669-0.007,1.337-0.007,2.006
	c0,0.942,0.437,1.61,1.484,1.61c0.569,0,1.295-0.33,1.295-1.125v-0.83c0-0.831-0.064-1.661-0.064-2.013
	c0-0.197-0.189-0.33-0.358-0.352v-0.155c0.254,0,0.469,0.028,0.722,0.028s0.443-0.028,0.696-0.028v0.155
	c-0.232,0.007-0.33,0.282-0.33,0.521c0,0.268-0.021,0.999-0.021,1.929v1.533c0,0.394,0.077,0.598,0.387,0.619v0.154
	c-0.196,0-0.401-0.028-0.598-0.028c-0.198,0-0.285,0.028-0.482,0.028c0.014-0.239,0.034-0.457,0.05-0.668
	C3.322,53.506,2.92,53.78,2.202,53.78c-0.854,0-1.794-0.598-1.794-1.653v-1.175c0-0.549-0.035-1.034-0.035-1.47
	c0-0.274-0.049-0.5-0.346-0.542V48.785z"/>
</svg>
