<?xml version="1.0" encoding="utf-8"?>
<!-- Generator: Adobe Illustrator 21.1.0, SVG Export Plug-In . SVG Version: 6.00 Build 0)  -->
<svg version="1.1" id="Capa_1" xmlns="http://www.w3.org/2000/svg" xmlns:xlink="http://www.w3.org/1999/xlink" x="0px" y="0px"
	 viewBox="0 0 46 57.3" style="enable-background:new 0 0 46 57.3;" xml:space="preserve">
<style type="text/css">
	.st0{opacity:0.5;}
	.st1{fill:#B3C7D1;}
</style>
<g class="st0">
	<path class="st1" d="M13.6,39.4c0-0.3,0-0.4,0.2-0.6l10.6-12.6c1.2-1.3,1.8-2.6,1.8-4.2c0-2-1.2-3.5-3.3-3.5c-2,0-3.3,1.2-3.5,3.5
		c0,0.3-0.2,0.4-0.5,0.4L14,21.7c-0.3,0-0.4-0.3-0.4-0.5c0.3-4.2,3.7-7.8,9.5-7.8c5.8,0,9.3,3.7,9.3,8.6c0,2.9-1.2,5.1-3.1,7.3
		l-7.9,9.4v0.1H32c0.3,0,0.4,0.2,0.4,0.4v4.4c0,0.3-0.2,0.4-0.4,0.4H14c-0.3,0-0.4-0.2-0.4-0.4V39.4z"/>
</g>
</svg>
