<?xml version="1.0" encoding="utf-8"?>
<!-- Generator: Adobe Illustrator 21.1.0, SVG Export Plug-In . SVG Version: 6.00 Build 0)  -->
<svg version="1.1" id="Capa_1" xmlns="http://www.w3.org/2000/svg" xmlns:xlink="http://www.w3.org/1999/xlink" x="0px" y="0px"
	 viewBox="0 0 46 57.3" style="enable-background:new 0 0 46 57.3;" xml:space="preserve">
<style type="text/css">
	.st0{opacity:0.5;}
	.st1{fill:#FFFFFF;}
</style>
<g class="st0">
	<path class="st1" d="M13.5,36.7l4.9-0.9c0.3,0,0.4,0.1,0.5,0.4c0.5,1.6,1.8,2.8,3.9,2.8c2.3,0,3.7-1.6,3.7-3.9
		c0-2.7-1.6-4.3-4.2-4.3H21c-0.3,0-0.4-0.2-0.4-0.4v-4.3c0-0.3,0.2-0.4,0.4-0.4h1.2c2.3,0,3.7-1.5,3.7-3.8c0-2.1-1.3-3.5-3.4-3.5
		c-1.9,0-3,1.1-3.4,2.8c-0.1,0.3-0.3,0.4-0.5,0.3l-4.8-0.9c-0.3,0-0.4-0.2-0.4-0.5c0.7-4,4.1-6.9,9.5-6.9c5.9,0,9.3,3.5,9.3,8.3
		c0,2.6-1.2,4.8-3.4,6.2v0.1c1.8,0.9,3.9,3.3,3.9,7.3c0,5.5-4.2,9.2-9.9,9.2c-5.1,0-9-2.6-9.8-6.9C13.1,37.1,13.3,36.8,13.5,36.7z"
		/>
</g>
</svg>
