<?xml version="1.0" encoding="utf-8"?>
<!-- Generator: Adobe Illustrator 21.1.0, SVG Export Plug-In . SVG Version: 6.00 Build 0)  -->
<svg version="1.1" id="Capa_1" xmlns="http://www.w3.org/2000/svg" xmlns:xlink="http://www.w3.org/1999/xlink" x="0px" y="0px"
	 viewBox="0 0 46 57.3" style="enable-background:new 0 0 46 57.3;" xml:space="preserve">
<style type="text/css">
	.st0{opacity:0.5;}
	.st1{fill:#B3C7D1;}
</style>
<g class="st0">
	<path class="st1" d="M12.4,38.9v-4.5c0-0.2,0-0.4,0.1-0.5l9.1-19.9c0.1-0.3,0.3-0.4,0.6-0.4h5.6c0.3,0,0.4,0.2,0.3,0.4l-9.1,19.8
		V34h5.5c0.2,0,0.3-0.1,0.3-0.3v-6.5c0-0.3,0.2-0.4,0.4-0.4h5.1c0.3,0,0.4,0.2,0.4,0.4v6.5c0,0.2,0.1,0.3,0.3,0.3h2
		c0.3,0,0.4,0.2,0.4,0.4v4.5c0,0.3-0.2,0.4-0.4,0.4h-2c-0.2,0-0.3,0.1-0.3,0.3v3.7c0,0.3-0.2,0.4-0.4,0.4h-5.1
		c-0.3,0-0.4-0.2-0.4-0.4v-3.7c0-0.2-0.1-0.3-0.3-0.3H12.8C12.6,39.4,12.4,39.2,12.4,38.9z"/>
</g>
</svg>
