<?xml version="1.0" encoding="utf-8"?>
<!-- Generator: Adobe Illustrator 21.1.0, SVG Export Plug-In . SVG Version: 6.00 Build 0)  -->
<svg version="1.1" id="Capa_1" xmlns="http://www.w3.org/2000/svg" xmlns:xlink="http://www.w3.org/1999/xlink" x="0px" y="0px"
	 viewBox="0 0 46 57.3" style="enable-background:new 0 0 46 57.3;" xml:space="preserve">
<style type="text/css">
	.st0{opacity:0.5;}
	.st1{fill:#FFFFFF;}
</style>
<g class="st0">
	<path class="st1" d="M13.9,36.9l4.8-0.9c0.3,0,0.4,0.1,0.5,0.4c0.5,1.4,1.6,2.5,3.5,2.5c1.5,0,2.7-0.7,3.2-2.1
		c0.3-0.7,0.4-1.6,0.4-2.9c0-1.5-0.1-2.3-0.4-3c-0.5-1.5-1.7-2.1-3.2-2.1c-1.6,0-2.6,0.8-3.1,1.7c-0.1,0.3-0.3,0.4-0.6,0.4h-4.7
		c-0.3,0-0.4-0.2-0.4-0.4V13.8c0-0.3,0.2-0.4,0.4-0.4h16.9c0.3,0,0.4,0.2,0.4,0.4v4.4c0,0.3-0.2,0.4-0.4,0.4H19.7
		c-0.2,0-0.3,0.1-0.3,0.3v5.9h0.1c0.8-0.7,2.3-1.4,4.5-1.4c3.9,0,6.7,1.7,7.8,5.1c0.4,1.2,0.6,2.6,0.6,5.1c0,1.9-0.3,3.5-0.7,4.7
		C30.6,42,27.2,44,22.8,44c-5.1,0-8.7-2.7-9.3-6.7C13.5,37.1,13.7,36.9,13.9,36.9z"/>
</g>
</svg>
