<?xml version="1.0" encoding="utf-8"?>
<!-- Generator: Adobe Illustrator 21.1.0, SVG Export Plug-In . SVG Version: 6.00 Build 0)  -->
<svg version="1.1" id="Capa_1" xmlns="http://www.w3.org/2000/svg" xmlns:xlink="http://www.w3.org/1999/xlink" x="0px" y="0px"
	 viewBox="0 0 46 57.3" style="enable-background:new 0 0 46 57.3;" xml:space="preserve">
<style type="text/css">
	.st0{opacity:0.5;}
	.st1{fill:#B3C7D1;}
</style>
<g class="st0">
	<path class="st1" d="M15.1,27l7.3-13.4c0.1-0.3,0.2-0.3,0.5-0.3h5.6c0.4,0,0.4,0.2,0.3,0.4l-6.4,11.7l0.1,0.1
		c0.3-0.1,1.1-0.3,1.9-0.3c4.7,0,8.7,3.5,8.7,9.1c0,6.1-4.4,9.6-10.1,9.6c-5.8,0-10.1-3.5-10.1-9.5C12.9,31.9,13.7,29.6,15.1,27z
		 M23,38.8c2.4,0,4-1.7,4-4.2c0-2.5-1.6-4.2-4-4.2s-4,1.7-4,4.2C19,37,20.6,38.8,23,38.8z"/>
</g>
</svg>
