<?xml version="1.0" encoding="utf-8"?>
<!-- Generator: Adobe Illustrator 21.1.0, SVG Export Plug-In . SVG Version: 6.00 Build 0)  -->
<svg version="1.1" id="Capa_1" xmlns="http://www.w3.org/2000/svg" xmlns:xlink="http://www.w3.org/1999/xlink" x="0px" y="0px"
	 viewBox="0 0 349.5 117" style="enable-background:new 0 0 349.5 117;" xml:space="preserve">
<style type="text/css">
	.st0{opacity:0.5;}
	.st1{fill:#FFFFFF;}
	.st2{opacity:0.5;fill:#B3C7D1;}
</style>
<g class="st0">
	<path class="st1" d="M110.4,109.9l4.8-0.9c0.3,0,0.4,0.1,0.5,0.4c0.5,1.4,1.6,2.5,3.5,2.5c1.5,0,2.7-0.7,3.2-2.1
		c0.3-0.7,0.4-1.6,0.4-2.9c0-1.5-0.1-2.3-0.4-3c-0.5-1.5-1.7-2.1-3.2-2.1c-1.6,0-2.6,0.8-3.1,1.7c-0.1,0.3-0.3,0.4-0.6,0.4h-4.7
		c-0.3,0-0.4-0.2-0.4-0.4V86.8c0-0.3,0.2-0.4,0.4-0.4h16.9c0.3,0,0.4,0.2,0.4,0.4v4.4c0,0.3-0.2,0.4-0.4,0.4h-11.5
		c-0.2,0-0.3,0.1-0.3,0.3v5.9h0.1c0.8-0.7,2.3-1.4,4.5-1.4c3.9,0,6.7,1.7,7.8,5.1c0.4,1.2,0.6,2.6,0.6,5.1c0,1.9-0.3,3.5-0.7,4.7
		c-1.1,3.7-4.5,5.7-8.9,5.7c-5.1,0-8.7-2.7-9.3-6.7C110,110.1,110.2,109.9,110.4,109.9z"/>
</g>
<polygon class="st2" points="19.7,8.6 19.7,49.1 16.5,51.9 8.8,58.5 16.5,65.1 19.7,67.9 19.7,108.4 340.7,108.4 340.7,8.6 "/>
</svg>
