<?xml version="1.0" encoding="utf-8"?>
<!-- Generator: Adobe Illustrator 21.1.0, SVG Export Plug-In . SVG Version: 6.00 Build 0)  -->
<svg version="1.1" id="Capa_1" xmlns="http://www.w3.org/2000/svg" xmlns:xlink="http://www.w3.org/1999/xlink" x="0px" y="0px"
	 viewBox="0 0 138.3 134.7" style="enable-background:new 0 0 138.3 134.7;" xml:space="preserve">
<style type="text/css">
	.st0{opacity:0.5;fill:#B3C7D1;}
	.st1{fill:#3E5C6F;}
	.st2{fill:#FFFFFF;}
</style>
<g>
	<circle class="st0" cx="75.7" cy="67.3" r="52.6"/>
	<g>
		<g>
			<g>
				<path class="st1" d="M68.4,57.5H39.9c-1,0-1.7-0.8-1.7-1.7V39.3c0-1,0.8-1.7,1.7-1.7h28.5c1,0,1.7,0.8,1.7,1.7v16.5
					C70.1,56.8,69.3,57.5,68.4,57.5z M41.6,54.1h25V41h-25V54.1z"/>
			</g>
			<g>
				<path class="st1" d="M77,63.2H31.5c-1,0-1.7-0.8-1.7-1.7V39.8c0-4.4,3.6-8.1,8.1-8.1h32.9c4.4,0,8.1,3.6,8.1,8.1v21.6
					C78.8,62.4,78,63.2,77,63.2z M33.2,59.7h42.1V39.8c0-2.5-2.1-4.6-4.6-4.6H37.8c-2.5,0-4.6,2.1-4.6,4.6V59.7z"/>
			</g>
			<g>
				<path class="st1" d="M70.7,102.8H18.6c-4.4,0-8.1-3.6-8.1-8.1V45.6c0-4.4,3.6-8.1,8.1-8.1h12.9c1,0,1.7,0.8,1.7,1.7
					S32.5,41,31.5,41H18.6C16,41,14,43.1,14,45.6v49.2c0,2.5,2.1,4.6,4.6,4.6h52.1c2.5,0,4.6-2.1,4.6-4.6V61.4c0-1,0.8-1.7,1.7-1.7
					s1.7,0.8,1.7,1.7v33.3C78.8,99.2,75.1,102.8,70.7,102.8z"/>
			</g>
			<g>
				<path class="st1" d="M34.3,63.2H12.2c-1,0-1.7-0.8-1.7-1.7s0.8-1.7,1.7-1.7h22.1c1,0,1.7,0.8,1.7,1.7S35.3,63.2,34.3,63.2z"/>
			</g>
		</g>
	</g>
	<g>
		<path class="st2" d="M91.1,76.8l5.7-1.1c0.3-0.1,0.5,0.1,0.6,0.4c0.6,1.9,2.1,3.3,4.6,3.3c2.7,0,4.4-1.9,4.4-4.6
			c0-3.2-1.9-5-4.9-5H100c-0.3,0-0.5-0.2-0.5-0.5v-5.1c0-0.3,0.2-0.5,0.5-0.5h1.4c2.7,0,4.4-1.7,4.4-4.4c0-2.5-1.5-4.2-4-4.2
			c-2.2,0-3.5,1.3-4,3.3c-0.1,0.3-0.3,0.4-0.6,0.4l-5.7-1.1c-0.3-0.1-0.5-0.3-0.4-0.6c0.8-4.7,4.8-8.1,11.1-8.1
			c6.9,0,10.9,4.1,10.9,9.8c0,3-1.4,5.6-4,7.3v0.1c2.1,1,4.6,3.9,4.6,8.6c0,6.5-4.9,10.8-11.6,10.8c-6,0-10.5-3-11.5-8.1
			C90.6,77.2,90.7,76.9,91.1,76.8z"/>
	</g>
</g>
</svg>
