<?xml version="1.0" encoding="utf-8"?>
<!-- Generator: Adobe Illustrator 21.1.0, SVG Export Plug-In . SVG Version: 6.00 Build 0)  -->
<svg version="1.1" id="Capa_1" xmlns="http://www.w3.org/2000/svg" xmlns:xlink="http://www.w3.org/1999/xlink" x="0px" y="0px"
	 viewBox="0 0 138.3 134.7" style="enable-background:new 0 0 138.3 134.7;" xml:space="preserve">
<style type="text/css">
	.st0{fill:#FFFFFF;}
	.st1{fill:#D8E2E6;}
	.st2{fill:#3E5C6F;}
</style>
<g>
	<circle class="st0" cx="74.1" cy="67.3" r="52.6"/>
	<g>
		<path class="st1" d="M89.4,77.3c0-0.3,0.1-0.5,0.3-0.7l12.4-14.8c1.4-1.6,2.1-3.1,2.1-4.9c0-2.3-1.4-4.1-3.9-4.1
			c-2.4,0-3.9,1.5-4.2,4.2c0,0.3-0.2,0.5-0.6,0.4l-5.7-0.9c-0.3-0.1-0.5-0.3-0.4-0.6c0.4-4.9,4.3-9.2,11.1-9.2
			c6.8,0,10.9,4.4,10.9,10.1c0,3.4-1.4,6-3.6,8.6l-9.3,11v0.1H111c0.3,0,0.5,0.2,0.5,0.5v5.2c0,0.3-0.2,0.5-0.5,0.5H90
			c-0.3,0-0.5-0.2-0.5-0.5V77.3z"/>
	</g>
	<g>
		<g>
			<circle class="st2" cx="17.6" cy="37.4" r="6"/>
		</g>
		<g>
			<circle class="st2" cx="26.6" cy="52.4" r="6"/>
		</g>
		<g>
			<circle class="st2" cx="41.6" cy="67.3" r="6"/>
		</g>
		<g>
			<circle class="st2" cx="56.5" cy="52.4" r="6"/>
		</g>
		<g>
			<circle class="st2" cx="26.6" cy="82.3" r="6"/>
		</g>
		<g>
			<circle class="st2" cx="56.5" cy="82.3" r="6"/>
		</g>
		<g>
			<circle class="st2" cx="65.7" cy="37.4" r="6"/>
		</g>
		<g>
			<circle class="st2" cx="17.6" cy="97.2" r="6"/>
		</g>
		<g>
			<circle class="st2" cx="65.7" cy="97.2" r="6"/>
		</g>
		<g>
			<rect x="18.3" y="35.9" class="st2" width="48.2" height="3"/>
		</g>
		<g>
			<rect x="18.3" y="95.7" class="st2" width="48.2" height="3"/>
		</g>
		<g>
			<rect x="26.6" y="50.9" class="st2" width="29.9" height="3"/>
		</g>
		<g>
			<rect x="26.6" y="80.8" class="st2" width="29.9" height="3"/>
		</g>
	</g>
</g>
</svg>
