<?xml version="1.0" encoding="utf-8"?>
<!-- Generator: Adobe Illustrator 21.1.0, SVG Export Plug-In . SVG Version: 6.00 Build 0)  -->
<svg version="1.1" id="Capa_1" xmlns="http://www.w3.org/2000/svg" xmlns:xlink="http://www.w3.org/1999/xlink" x="0px" y="0px"
	 viewBox="0 0 138.3 134.7" style="enable-background:new 0 0 138.3 134.7;" xml:space="preserve">
<style type="text/css">
	.st0{opacity:0.5;fill:#B3C7D1;}
	.st1{fill:#3E5C6F;}
	.st2{fill:#FFFFFF;}
</style>
<g>
	<circle class="st0" cx="74.6" cy="70.7" r="52.6"/>
	<g>
		<g>
			<g>
				<path class="st1" d="M75.3,54.2c-0.6-0.9-1.3-1.7-2-2.5h0C66,50,56.7,49.2,47,49.2s-19,0.8-26.3,2.5c-0.7,0.8-1.4,1.7-2,2.5
					c3.3-0.8,6.9-1.4,10.8-1.9c5.5-0.7,11.4-1,17.4-1c2,0,4,0,6,0.1c4.9,0.2,9.7,0.6,14.2,1.2C70,53.1,72.8,53.6,75.3,54.2z
					 M31.3,29.9c0,0.1,0,0.1,0,0.2c0,2.4-0.4,4.6-1,6.6c-0.6,2.1-1.4,3.9-2.2,5.4c5.5-2.9,12-4.6,18.9-4.6
					c11.4,0,21.6,4.5,28.2,11.6c0,0,0,0,0,0c0,0,0,0,0,0c0,0,0,0,0.1,0.1c0,0,0,0,0,0c1.8,2,3.4,4.2,4.6,6.6c0,0,0,0,0,0
					c0,0,0,0.1,0.1,0.1c1.9,3.7,2.9,7.8,2.9,12.1c0,2.8-0.6,5.6-1.4,8.4c-0.8,2.6-1.9,5.1-3.1,7.7c0.5,0.7,0.9,1.5,1.3,2.4
					c0.6,1.3,1,2.8,1,4.4c0,1.4-0.3,2.7-0.8,3.9s-1.1,2.2-1.6,3.1c-1.2,1.7-2.3,2.7-2.4,2.8c-0.6,0.5-1.5,0.5-2.1,0
					c0,0-0.7-0.6-1.5-1.6c-0.8-1-1.8-2.4-2.5-4.2c-0.5-1.2-0.8-2.5-0.8-3.9c0-0.5,0-1,0.1-1.5c-1.1,0.7-2.3,1.4-3.6,2
					c-3,1.4-6.4,2.5-9.9,3.2v3.2c0,0.1,0,0.1,0,0.2c0,0,0,0.1,0,0.1c0,0,0,0.1,0,0.1c0,0,0,0.1,0,0.1c0,0,0,0.1,0,0.1
					c-0.1,0.1-0.1,0.2-0.2,0.3c0,0-0.1,0.1-0.1,0.1c0,0-0.1,0.1-0.1,0.1c0,0-0.1,0.1-0.1,0.1c0,0-0.1,0.1-0.1,0.1c0,0,0,0-0.1,0
					c0,0-0.1,0-0.1,0c-2.6,1.3-5.2,1.7-7.4,1.7c-2.3,0-4.3-0.4-5.7-0.9c-1.2-0.4-2-0.7-2.3-0.8c0,0-0.1,0-0.1,0c0,0,0,0-0.1,0
					c0,0-0.1,0-0.1-0.1c0,0,0,0,0,0c0,0-0.1,0-0.1-0.1c0,0-0.1-0.1-0.1-0.1c0,0-0.1-0.1-0.1-0.1c0,0-0.1-0.1-0.1-0.1
					c0,0-0.1-0.1-0.1-0.1c0,0,0-0.1,0-0.1c0,0,0-0.1,0-0.1c0,0,0-0.1,0-0.1c0,0,0-0.1,0-0.1s0-0.1,0-0.1c0-0.1,0-0.1,0-0.2v-3.2
					c-3.5-0.7-6.8-1.8-9.9-3.2c-1.3-0.6-2.5-1.3-3.6-2c0.1,0.5,0.1,1,0.1,1.4c0,1.4-0.3,2.7-0.8,3.9c-0.5,1.2-1.1,2.2-1.6,3.1
					c-1.2,1.7-2.3,2.7-2.4,2.8c-0.6,0.5-1.5,0.5-2,0c0,0-0.7-0.6-1.5-1.6c-0.8-1-1.8-2.4-2.5-4.2c-0.5-1.2-0.8-2.5-0.8-3.9
					c0-1.6,0.4-3.1,1-4.4c0.4-0.9,0.9-1.7,1.3-2.4c-1.2-2.6-2.3-5.2-3.1-7.7c-0.9-2.8-1.4-5.6-1.4-8.4c0-4.3,1-8.3,2.9-12
					c0-0.1,0.1-0.1,0.1-0.2c0,0,0,0,0,0c1.2-2.4,2.8-4.6,4.6-6.7c0,0,0,0,0.1-0.1c0,0,0,0,0,0c0,0,0,0,0,0c0.8-0.9,1.7-1.8,2.7-2.6
					c-0.4-0.5-0.9-1.2-1.4-2.1c-1.2-1.9-2.5-4.6-3.5-7.8c-0.6-2-1-4.3-1-6.6c0,0,0,0,0-0.1c0-0.1,0-0.1,0-0.2c0,0,0,0,0,0
					c0,0,0-0.1,0-0.1c0-2.5,0.4-4.9,1-7c0.1-0.4,0.2-0.8,0.4-1.2c0,0,0,0,0,0c0-0.1,0-0.2,0.1-0.2c0,0,0,0,0,0
					c0.5-1.5,1.2-2.9,1.8-4.2c1.6-3.2,3.3-5.2,3.3-5.2c0.3-0.3,0.7-0.5,1.2-0.5c0.5,0,0.9,0.2,1.2,0.6c0,0,1,1.2,2.1,3.1
					c1,1.6,2.1,3.8,3,6.3c0,0,0,0,0,0c0,0.1,0,0.1,0.1,0.2c0,0,0,0,0,0c0.1,0.4,0.3,0.8,0.4,1.2c0.6,2.1,1,4.5,1,7
					C31.3,29.8,31.3,29.8,31.3,29.9z M54.8,54.6c0.2,0.4,0.4,0.7,0.7,1.1c0.7,0.8,1.9,1.6,3.3,2.3c0.9,0.4,2,0.8,3.1,1.2
					c1.5,0.4,3.1,0.8,4.8,1c2.2,0.3,4.3,0.5,6.3,0.5c0.8,0,1.5,0.7,1.5,1.5c0,0.8-0.7,1.5-1.5,1.5c-1.1,0-2.3,0-3.5-0.1
					c0,0.5,0.1,1,0.1,1.7c0,0,0,0,0,0c0,0,0,0,0,0c0.2,2.3,0.5,4.7,1,6.9c0,0,0,0.1,0,0.1c0.2,1.1,0.5,2.1,0.8,3.1
					c0.8,3.1,1.8,5.6,2.6,7.2c0.1,0.1,0.1,0.2,0.2,0.3h1.6c1.1-2.5,2.1-4.9,2.9-7.2c0.8-2.6,1.3-5.1,1.3-7.5c0-1.9-0.2-3.8-0.7-5.6
					c-0.4-1.6-0.9-3.2-1.7-4.6c-3.1-0.9-6.8-1.7-10.8-2.3C63,55.2,59,54.8,54.8,54.6z M24,27.9c-0.1,0-0.1,0-0.2,0.1
					c0,0-0.1,0-0.1,0c-0.1,0-0.2,0-0.3,0c0,0-0.1,0-0.1,0c0,0-0.1,0-0.1,0c0,0,0,0,0,0c0,0,0,0,0,0c0,0,0,0,0,0c-0.1,0-0.1,0-0.2,0
					c0,0,0,0,0,0c0,0-0.1,0-0.1-0.1c0,0,0,0,0,0c-0.1,0-0.1-0.1-0.2-0.1c0,0-0.1,0-0.1-0.1c0,0,0,0-0.1-0.1l-3.1-2.9
					c-0.4,1.4-0.6,3-0.6,4.6l4.7,4.4l4.7-4.4c0-1.6-0.3-3.1-0.6-4.6l-3.1,2.9c0,0-0.1,0-0.1,0.1c0,0-0.1,0-0.1,0.1
					c0,0-0.1,0.1-0.1,0.1c0,0,0,0,0,0c0,0,0,0,0,0C24.1,27.8,24.1,27.9,24,27.9C24.1,27.9,24,27.9,24,27.9z M27.8,33.9l-3.3,3.1
					c0,0-0.1,0.1-0.1,0.1c0,0-0.1,0-0.1,0.1c0,0-0.1,0-0.1,0.1c0,0-0.1,0-0.1,0.1c0,0-0.1,0-0.1,0c0,0-0.1,0-0.1,0c0,0-0.1,0-0.1,0
					c0,0,0,0-0.1,0c0,0,0,0-0.1,0c0,0,0,0,0,0c0,0,0,0-0.1,0c-0.1,0-0.1,0-0.2,0c0,0,0,0,0,0c0,0-0.1,0-0.1,0c0,0,0,0,0,0
					c0,0,0,0,0,0c0,0-0.1,0-0.1,0c-0.1,0-0.2-0.1-0.3-0.1c0,0-0.1,0-0.1-0.1c0,0-0.1-0.1-0.1-0.1c0,0,0,0-0.1,0l-3.3-3.1
					c0.1,0.7,0.3,1.3,0.5,1.9c0.5,1.9,1.3,3.6,2,5c0.7,1.3,1.3,2.4,1.8,3.2c0.2-0.3,0.4-0.7,0.7-1.1c1.1-1.7,2.3-4.2,3.1-7.1
					C27.5,35.2,27.7,34.5,27.8,33.9z M26.1,63.7C26.1,63.7,26.1,63.7,26.1,63.7c3.7-0.4,7.4-1.1,10.8-1.9c3.5-0.9,6.6-2,9-3.3
					c1.6-0.8,3-1.7,3.9-2.6c0.5-0.5,0.9-1,1.1-1.4c-1.3,0-2.6-0.1-3.9-0.1c-5.9,0-11.7,0.3-17.1,1c-5.1,0.6-9.7,1.5-13.4,2.6
					c-1.5,3.2-2.3,6.6-2.3,10.2c0,2.4,0.5,4.9,1.3,7.5c0.7,2.3,1.7,4.7,2.9,7.2H20c0.2-0.4,0.5-1,0.7-1.6c0.4-1.1,0.9-2.4,1.4-3.8
					c0,0,0,0,0,0c0.5-1.5,1-3.3,1.4-5.1c0,0,0,0,0,0c0,0,0,0,0,0v0c0.4-1.7,0.7-3.4,0.9-5.2c-1.1,0.1-2.3,0.1-3.4,0.2
					c-0.8,0-1.6-0.6-1.6-1.5c0-0.8,0.6-1.6,1.5-1.6c1.6,0,3.2-0.1,4.8-0.3c0,0,0,0,0,0c0.1,0,0.1,0,0.2,0C26,63.8,26,63.8,26.1,63.7
					C26.1,63.8,26.1,63.8,26.1,63.7C26.1,63.7,26.1,63.7,26.1,63.7C26.1,63.7,26.1,63.7,26.1,63.7z M77.6,91.2
					c0-1.1-0.3-2.2-0.7-3.2c-0.3-0.7-0.7-1.4-1.1-2h-1.8c-0.4,0.6-0.8,1.3-1.1,2c-0.4,1-0.7,2.1-0.7,3.2c0,0.9,0.2,1.9,0.5,2.8
					c0.3,0.9,0.8,1.7,1.3,2.4c0.3,0.5,0.6,0.9,0.9,1.2c0.1-0.1,0.1-0.1,0.2-0.2c0.7-0.8,1.5-2,2-3.4C77.4,93.1,77.6,92.1,77.6,91.2z
					 M71.2,84.2c0-0.1-0.1-0.2-0.1-0.3c-0.2-0.5-0.5-1.1-0.8-1.7c-0.3-0.7-0.6-1.5-0.9-2.4l-6.1,1.8c-0.8,0.2-1.7-0.2-1.9-1
					c-0.2-0.8,0.2-1.7,1-1.9l6-1.8c-0.2-0.8-0.4-1.5-0.6-2.4L64,75.6c-0.8,0.2-1.7-0.2-1.9-1.1s0.2-1.7,1.1-1.9l4.1-1.1
					c-0.4-1.9-0.7-4-0.8-6.1c0,0,0,0,0,0c0,0,0-0.1,0-0.1c0-0.8-0.1-1.4-0.1-2.1c-0.4-0.1-0.8-0.1-1.2-0.2c-2.7-0.5-5.3-1.2-7.6-2.2
					c-1.5-0.7-2.9-1.6-4-2.7c-0.3-0.3-0.6-0.6-0.8-1c-0.5,0.6-1.1,1.2-1.8,1.8c-2,1.6-4.7,3-7.9,4.2c-0.9,0.3-1.7,0.6-2.7,0.9
					c0.4,0.3-10.5,2.4-12.9,2.7c-0.2,1.6-0.4,3.2-0.7,4.8l4.1,1.1c0.8,0.2,1.3,1.1,1.1,1.9c-0.2,0.8-1.1,1.3-1.9,1.1l-3.9-1.1
					c-0.2,0.8-0.4,1.6-0.6,2.4l6,1.8c0.8,0.2,1.3,1.1,1,1.9c-0.2,0.8-1.1,1.3-1.9,1l-6.1-1.8c-0.3,1-0.7,1.9-1,2.7
					c-0.3,0.7-0.5,1.2-0.8,1.7c1.9,1.8,4.3,3.4,7.1,4.8c3.1,1.5,6.7,2.6,10.3,3.2c0,0,0.1,0,0.1,0c2.3,0.4,4.6,0.6,6.8,0.6
					c2.2,0,4.5-0.2,6.8-0.6c0,0,0.1,0,0.1,0c0,0,0,0,0,0c3.6-0.6,7.2-1.7,10.3-3.2C67,87.6,69.4,86,71.2,84.2z M47,46.2
					c7.8,0,15.4,0.5,22,1.6c-5.8-4.4-13.5-7.1-22-7.1c0,0,0,0,0,0c-6.9,0-13.2,1.8-18.4,4.8c-1.2,0.7-2.4,1.5-3.6,2.3
					C31.6,46.7,39.2,46.2,47,46.2z M52.6,97.2v-1.7c-1.9,0.2-3.7,0.4-5.6,0.4c-1.8,0-3.7-0.1-5.6-0.4v1.7c0.3,0.1,0.6,0.2,1,0.3
					c1.2,0.4,2.9,0.7,4.8,0.7C48.9,98.2,50.7,98,52.6,97.2z M23.5,24.4l3.1-2.9c-0.4-1-0.8-2-1.3-2.8c-0.7-1.3-1.3-2.4-1.8-3.2
					c-0.2,0.3-0.4,0.7-0.7,1.1c-0.8,1.3-1.7,3-2.4,4.9L23.5,24.4z M22,91.2c0-1.1-0.3-2.2-0.7-3.2c-0.3-0.7-0.7-1.4-1.1-2h-1.8
					c-0.4,0.6-0.8,1.3-1.1,2c-0.4,1-0.7,2.1-0.7,3.2c0,0.9,0.2,1.9,0.5,2.8c0.3,0.9,0.8,1.7,1.3,2.4c0.3,0.5,0.6,0.9,0.9,1.2
					c0.1-0.1,0.1-0.1,0.2-0.2c0.7-0.8,1.5-2,2-3.4C21.7,93.1,22,92.1,22,91.2z"/>
			</g>
		</g>
	</g>
	<g>
		<path class="st2" d="M100.5,58.8h-0.1l-5.6,3.9c-0.3,0.2-0.6,0.1-0.6-0.3v-6.5c0-0.3,0.1-0.5,0.4-0.7l5.9-4.3
			c0.3-0.2,0.6-0.3,0.9-0.3h5.8c0.3,0,0.5,0.2,0.5,0.5v34.4c0,0.3-0.2,0.5-0.5,0.5h-6.2c-0.3,0-0.5-0.2-0.5-0.5V58.8z"/>
	</g>
</g>
</svg>
